M48
; DRILL file {KiCad (5.1.9)-1} date 01/28/21 21:01:26
; FORMAT={-:-/ absolute / metric / decimal}
; #@! TF.CreationDate,2021-01-28T21:01:26-06:00
; #@! TF.GenerationSoftware,Kicad,Pcbnew,(5.1.9)-1
; #@! TF.FileFunction,Plated,1,2,PTH
FMAT,2
METRIC
T1C0.400
T2C1.000
T3C1.150
T4C1.500
%
G90
G05
T1
X107.442Y-82.042
X107.442Y-83.058
X107.442Y-84.074
X107.442Y-85.09
X108.172Y-93.345
X110.998Y-92.202
X114.003Y-99.611
X115.514Y-91.44
X116.84Y-99.949
X117.8Y-91.44
X120.086Y-91.44
X122.745Y-94.17
X123.698Y-99.822
X133.57Y-97.375
X133.604Y-99.949
X136.906Y-93.218
X139.319Y-93.091
X139.319Y-94.361
X139.573Y-91.821
X142.613Y-99.306
X142.748Y-83.566
X152.4Y-88.392
X152.654Y-83.312
X153.416Y-83.312
X153.416Y-88.392
X154.178Y-83.312
X154.178Y-88.392
T2
X102.56Y-83.5
X102.56Y-86.04
X102.56Y-88.58
X102.56Y-91.12
X102.56Y-93.66
X102.56Y-96.2
X102.56Y-98.74
X102.56Y-101.28
X127.79Y-83.5
X127.79Y-86.04
X127.79Y-88.58
X127.79Y-91.12
X127.79Y-93.66
X127.79Y-96.2
X127.79Y-98.74
X127.79Y-101.28
X131.29Y-83.5
X131.29Y-86.04
X131.29Y-88.58
X131.29Y-91.12
X131.29Y-93.66
X131.29Y-96.2
X131.29Y-98.74
X131.29Y-101.28
X156.69Y-83.5
X156.69Y-86.04
X156.69Y-88.58
X156.69Y-91.12
X156.69Y-93.66
X156.69Y-96.2
X156.69Y-98.74
X156.69Y-101.28
T3
X141.79Y-73.712
T4
X113.79Y-73.712
X113.79Y-77.212
X117.29Y-73.712
X117.29Y-77.212
X120.79Y-73.712
X120.79Y-77.212
X124.29Y-73.712
X124.29Y-77.212
X127.79Y-73.712
X127.79Y-77.212
X131.29Y-73.712
X131.29Y-77.212
X134.79Y-73.712
X134.79Y-77.212
X138.29Y-73.712
X138.29Y-77.212
X141.79Y-77.212
X145.29Y-73.712
X145.29Y-77.212
T0
M30
