M48
; DRILL file {KiCad (5.1.9)-1} date 02/06/21 18:15:11
; FORMAT={-:-/ absolute / metric / decimal}
; #@! TF.CreationDate,2021-02-06T18:15:11-06:00
; #@! TF.GenerationSoftware,Kicad,Pcbnew,(5.1.9)-1
; #@! TF.FileFunction,Plated,1,2,PTH
FMAT,2
METRIC
T1C0.400
T2C1.000
T3C1.150
T4C1.500
%
G90
G05
T1
X110.617Y-93.472
X111.887Y-93.472
X113.157Y-93.472
X115.062Y-91.186
X117.348Y-91.186
X119.888Y-91.186
X120.142Y-100.076
X120.904Y-98.806
X122.047Y-99.568
X122.174Y-91.186
X123.19Y-85.598
X125.984Y-97.155
X125.984Y-97.155
X138.557Y-93.345
X145.542Y-85.598
X145.542Y-86.36
X145.542Y-87.122
X145.542Y-89.408
X145.542Y-90.17
X145.542Y-90.932
X145.923Y-100.33
X146.558Y-98.88
X147.701Y-99.568
X151.511Y-97.282
T2
X110.016Y-80.46
X110.016Y-105.86
X112.556Y-80.46
X112.556Y-105.86
X115.096Y-80.46
X115.096Y-105.86
X117.636Y-80.46
X117.636Y-105.86
X120.176Y-80.46
X120.176Y-105.86
X122.716Y-80.46
X122.716Y-105.86
X125.256Y-80.46
X125.256Y-105.86
X127.796Y-80.46
X127.796Y-105.86
X136.016Y-80.46
X136.016Y-105.86
X138.556Y-80.46
X138.556Y-105.86
X141.096Y-80.46
X141.096Y-105.86
X143.636Y-80.46
X143.636Y-105.86
X146.176Y-80.46
X146.176Y-105.86
X148.716Y-80.46
X148.716Y-105.86
X151.256Y-80.46
X151.256Y-105.86
X153.796Y-80.46
X153.796Y-105.86
T3
X144.076Y-71.934
T4
X116.076Y-71.934
X116.076Y-75.434
X119.576Y-71.934
X119.576Y-75.434
X123.076Y-71.934
X123.076Y-75.434
X126.576Y-71.934
X126.576Y-75.434
X130.076Y-71.934
X130.076Y-75.434
X133.576Y-71.934
X133.576Y-75.434
X137.076Y-71.934
X137.076Y-75.434
X140.576Y-71.934
X140.576Y-75.434
X144.076Y-75.434
X147.576Y-71.934
X147.576Y-75.434
T0
M30
