%TF.GenerationSoftware,KiCad,Pcbnew,(5.1.9)-1*%
%TF.CreationDate,2021-01-28T21:00:47-06:00*%
%TF.ProjectId,dual_board_carrier,6475616c-5f62-46f6-9172-645f63617272,rev?*%
%TF.SameCoordinates,Original*%
%TF.FileFunction,Legend,Bot*%
%TF.FilePolarity,Positive*%
%FSLAX46Y46*%
G04 Gerber Fmt 4.6, Leading zero omitted, Abs format (unit mm)*
G04 Created by KiCad (PCBNEW (5.1.9)-1) date 2021-01-28 21:00:47*
%MOMM*%
%LPD*%
G01*
G04 APERTURE LIST*
%ADD10C,0.100000*%
%ADD11C,0.150000*%
%ADD12C,0.300000*%
%ADD13C,0.400000*%
%ADD14C,0.200000*%
%ADD15O,1.700000X1.700000*%
%ADD16R,1.700000X1.700000*%
%ADD17C,2.200000*%
%ADD18C,4.000000*%
G04 APERTURE END LIST*
D10*
D11*
X177002200Y-166007200D02*
X177002200Y-198007200D01*
X285002200Y-198007200D01*
X285002200Y-166007200D01*
X177002200Y-166007200D01*
D10*
D11*
X10000000Y-10000000D02*
X10000000Y-200007200D01*
X287002200Y-200007200D01*
X287002200Y-10000000D01*
X10000000Y-10000000D01*
D10*
D11*
X12000000Y-12000000D02*
X12000000Y-198007200D01*
X285002200Y-198007200D01*
X285002200Y-12000000D01*
X12000000Y-12000000D01*
D10*
D11*
X60000000Y-12000000D02*
X60000000Y-10000000D01*
D10*
D11*
X110000000Y-12000000D02*
X110000000Y-10000000D01*
D10*
D11*
X160000000Y-12000000D02*
X160000000Y-10000000D01*
D10*
D11*
X210000000Y-12000000D02*
X210000000Y-10000000D01*
D10*
D11*
X260000000Y-12000000D02*
X260000000Y-10000000D01*
D10*
D11*
X36065476Y-11588095D02*
X35322619Y-11588095D01*
X35694047Y-11588095D02*
X35694047Y-10288095D01*
X35570238Y-10473809D01*
X35446428Y-10597619D01*
X35322619Y-10659523D01*
D10*
D11*
X85322619Y-10411904D02*
X85384523Y-10350000D01*
X85508333Y-10288095D01*
X85817857Y-10288095D01*
X85941666Y-10350000D01*
X86003571Y-10411904D01*
X86065476Y-10535714D01*
X86065476Y-10659523D01*
X86003571Y-10845238D01*
X85260714Y-11588095D01*
X86065476Y-11588095D01*
D10*
D11*
X135260714Y-10288095D02*
X136065476Y-10288095D01*
X135632142Y-10783333D01*
X135817857Y-10783333D01*
X135941666Y-10845238D01*
X136003571Y-10907142D01*
X136065476Y-11030952D01*
X136065476Y-11340476D01*
X136003571Y-11464285D01*
X135941666Y-11526190D01*
X135817857Y-11588095D01*
X135446428Y-11588095D01*
X135322619Y-11526190D01*
X135260714Y-11464285D01*
D10*
D11*
X185941666Y-10721428D02*
X185941666Y-11588095D01*
X185632142Y-10226190D02*
X185322619Y-11154761D01*
X186127380Y-11154761D01*
D10*
D11*
X236003571Y-10288095D02*
X235384523Y-10288095D01*
X235322619Y-10907142D01*
X235384523Y-10845238D01*
X235508333Y-10783333D01*
X235817857Y-10783333D01*
X235941666Y-10845238D01*
X236003571Y-10907142D01*
X236065476Y-11030952D01*
X236065476Y-11340476D01*
X236003571Y-11464285D01*
X235941666Y-11526190D01*
X235817857Y-11588095D01*
X235508333Y-11588095D01*
X235384523Y-11526190D01*
X235322619Y-11464285D01*
D10*
D11*
X285941666Y-10288095D02*
X285694047Y-10288095D01*
X285570238Y-10350000D01*
X285508333Y-10411904D01*
X285384523Y-10597619D01*
X285322619Y-10845238D01*
X285322619Y-11340476D01*
X285384523Y-11464285D01*
X285446428Y-11526190D01*
X285570238Y-11588095D01*
X285817857Y-11588095D01*
X285941666Y-11526190D01*
X286003571Y-11464285D01*
X286065476Y-11340476D01*
X286065476Y-11030952D01*
X286003571Y-10907142D01*
X285941666Y-10845238D01*
X285817857Y-10783333D01*
X285570238Y-10783333D01*
X285446428Y-10845238D01*
X285384523Y-10907142D01*
X285322619Y-11030952D01*
D10*
D11*
X60000000Y-198007200D02*
X60000000Y-200007200D01*
D10*
D11*
X110000000Y-198007200D02*
X110000000Y-200007200D01*
D10*
D11*
X160000000Y-198007200D02*
X160000000Y-200007200D01*
D10*
D11*
X210000000Y-198007200D02*
X210000000Y-200007200D01*
D10*
D11*
X260000000Y-198007200D02*
X260000000Y-200007200D01*
D10*
D11*
X36065476Y-199595295D02*
X35322619Y-199595295D01*
X35694047Y-199595295D02*
X35694047Y-198295295D01*
X35570238Y-198481009D01*
X35446428Y-198604819D01*
X35322619Y-198666723D01*
D10*
D11*
X85322619Y-198419104D02*
X85384523Y-198357200D01*
X85508333Y-198295295D01*
X85817857Y-198295295D01*
X85941666Y-198357200D01*
X86003571Y-198419104D01*
X86065476Y-198542914D01*
X86065476Y-198666723D01*
X86003571Y-198852438D01*
X85260714Y-199595295D01*
X86065476Y-199595295D01*
D10*
D11*
X135260714Y-198295295D02*
X136065476Y-198295295D01*
X135632142Y-198790533D01*
X135817857Y-198790533D01*
X135941666Y-198852438D01*
X136003571Y-198914342D01*
X136065476Y-199038152D01*
X136065476Y-199347676D01*
X136003571Y-199471485D01*
X135941666Y-199533390D01*
X135817857Y-199595295D01*
X135446428Y-199595295D01*
X135322619Y-199533390D01*
X135260714Y-199471485D01*
D10*
D11*
X185941666Y-198728628D02*
X185941666Y-199595295D01*
X185632142Y-198233390D02*
X185322619Y-199161961D01*
X186127380Y-199161961D01*
D10*
D11*
X236003571Y-198295295D02*
X235384523Y-198295295D01*
X235322619Y-198914342D01*
X235384523Y-198852438D01*
X235508333Y-198790533D01*
X235817857Y-198790533D01*
X235941666Y-198852438D01*
X236003571Y-198914342D01*
X236065476Y-199038152D01*
X236065476Y-199347676D01*
X236003571Y-199471485D01*
X235941666Y-199533390D01*
X235817857Y-199595295D01*
X235508333Y-199595295D01*
X235384523Y-199533390D01*
X235322619Y-199471485D01*
D10*
D11*
X285941666Y-198295295D02*
X285694047Y-198295295D01*
X285570238Y-198357200D01*
X285508333Y-198419104D01*
X285384523Y-198604819D01*
X285322619Y-198852438D01*
X285322619Y-199347676D01*
X285384523Y-199471485D01*
X285446428Y-199533390D01*
X285570238Y-199595295D01*
X285817857Y-199595295D01*
X285941666Y-199533390D01*
X286003571Y-199471485D01*
X286065476Y-199347676D01*
X286065476Y-199038152D01*
X286003571Y-198914342D01*
X285941666Y-198852438D01*
X285817857Y-198790533D01*
X285570238Y-198790533D01*
X285446428Y-198852438D01*
X285384523Y-198914342D01*
X285322619Y-199038152D01*
D10*
D11*
X10000000Y-60000000D02*
X12000000Y-60000000D01*
D10*
D11*
X10000000Y-110000000D02*
X12000000Y-110000000D01*
D10*
D11*
X10000000Y-160000000D02*
X12000000Y-160000000D01*
D10*
D11*
X10690476Y-35216666D02*
X11309523Y-35216666D01*
X10566666Y-35588095D02*
X11000000Y-34288095D01*
X11433333Y-35588095D01*
D10*
D11*
X11092857Y-84907142D02*
X11278571Y-84969047D01*
X11340476Y-85030952D01*
X11402380Y-85154761D01*
X11402380Y-85340476D01*
X11340476Y-85464285D01*
X11278571Y-85526190D01*
X11154761Y-85588095D01*
X10659523Y-85588095D01*
X10659523Y-84288095D01*
X11092857Y-84288095D01*
X11216666Y-84350000D01*
X11278571Y-84411904D01*
X11340476Y-84535714D01*
X11340476Y-84659523D01*
X11278571Y-84783333D01*
X11216666Y-84845238D01*
X11092857Y-84907142D01*
X10659523Y-84907142D01*
D10*
D11*
X11402380Y-135464285D02*
X11340476Y-135526190D01*
X11154761Y-135588095D01*
X11030952Y-135588095D01*
X10845238Y-135526190D01*
X10721428Y-135402380D01*
X10659523Y-135278571D01*
X10597619Y-135030952D01*
X10597619Y-134845238D01*
X10659523Y-134597619D01*
X10721428Y-134473809D01*
X10845238Y-134350000D01*
X11030952Y-134288095D01*
X11154761Y-134288095D01*
X11340476Y-134350000D01*
X11402380Y-134411904D01*
D10*
D11*
X10659523Y-185588095D02*
X10659523Y-184288095D01*
X10969047Y-184288095D01*
X11154761Y-184350000D01*
X11278571Y-184473809D01*
X11340476Y-184597619D01*
X11402380Y-184845238D01*
X11402380Y-185030952D01*
X11340476Y-185278571D01*
X11278571Y-185402380D01*
X11154761Y-185526190D01*
X10969047Y-185588095D01*
X10659523Y-185588095D01*
D10*
D11*
X287002200Y-60000000D02*
X285002200Y-60000000D01*
D10*
D11*
X287002200Y-110000000D02*
X285002200Y-110000000D01*
D10*
D11*
X287002200Y-160000000D02*
X285002200Y-160000000D01*
D10*
D11*
X285692676Y-35216666D02*
X286311723Y-35216666D01*
X285568866Y-35588095D02*
X286002200Y-34288095D01*
X286435533Y-35588095D01*
D10*
D11*
X286095057Y-84907142D02*
X286280771Y-84969047D01*
X286342676Y-85030952D01*
X286404580Y-85154761D01*
X286404580Y-85340476D01*
X286342676Y-85464285D01*
X286280771Y-85526190D01*
X286156961Y-85588095D01*
X285661723Y-85588095D01*
X285661723Y-84288095D01*
X286095057Y-84288095D01*
X286218866Y-84350000D01*
X286280771Y-84411904D01*
X286342676Y-84535714D01*
X286342676Y-84659523D01*
X286280771Y-84783333D01*
X286218866Y-84845238D01*
X286095057Y-84907142D01*
X285661723Y-84907142D01*
D10*
D11*
X286404580Y-135464285D02*
X286342676Y-135526190D01*
X286156961Y-135588095D01*
X286033152Y-135588095D01*
X285847438Y-135526190D01*
X285723628Y-135402380D01*
X285661723Y-135278571D01*
X285599819Y-135030952D01*
X285599819Y-134845238D01*
X285661723Y-134597619D01*
X285723628Y-134473809D01*
X285847438Y-134350000D01*
X286033152Y-134288095D01*
X286156961Y-134288095D01*
X286342676Y-134350000D01*
X286404580Y-134411904D01*
D10*
D11*
X285661723Y-185588095D02*
X285661723Y-184288095D01*
X285971247Y-184288095D01*
X286156961Y-184350000D01*
X286280771Y-184473809D01*
X286342676Y-184597619D01*
X286404580Y-184845238D01*
X286404580Y-185030952D01*
X286342676Y-185278571D01*
X286280771Y-185402380D01*
X286156961Y-185526190D01*
X285971247Y-185588095D01*
X285661723Y-185588095D01*
D10*
D11*
X200434342Y-193785771D02*
X200434342Y-192285771D01*
X200791485Y-192285771D01*
X201005771Y-192357200D01*
X201148628Y-192500057D01*
X201220057Y-192642914D01*
X201291485Y-192928628D01*
X201291485Y-193142914D01*
X201220057Y-193428628D01*
X201148628Y-193571485D01*
X201005771Y-193714342D01*
X200791485Y-193785771D01*
X200434342Y-193785771D01*
X202577200Y-193785771D02*
X202577200Y-193000057D01*
X202505771Y-192857200D01*
X202362914Y-192785771D01*
X202077200Y-192785771D01*
X201934342Y-192857200D01*
X202577200Y-193714342D02*
X202434342Y-193785771D01*
X202077200Y-193785771D01*
X201934342Y-193714342D01*
X201862914Y-193571485D01*
X201862914Y-193428628D01*
X201934342Y-193285771D01*
X202077200Y-193214342D01*
X202434342Y-193214342D01*
X202577200Y-193142914D01*
X203077200Y-192785771D02*
X203648628Y-192785771D01*
X203291485Y-192285771D02*
X203291485Y-193571485D01*
X203362914Y-193714342D01*
X203505771Y-193785771D01*
X203648628Y-193785771D01*
X204720057Y-193714342D02*
X204577200Y-193785771D01*
X204291485Y-193785771D01*
X204148628Y-193714342D01*
X204077200Y-193571485D01*
X204077200Y-193000057D01*
X204148628Y-192857200D01*
X204291485Y-192785771D01*
X204577200Y-192785771D01*
X204720057Y-192857200D01*
X204791485Y-193000057D01*
X204791485Y-193142914D01*
X204077200Y-193285771D01*
X205434342Y-193642914D02*
X205505771Y-193714342D01*
X205434342Y-193785771D01*
X205362914Y-193714342D01*
X205434342Y-193642914D01*
X205434342Y-193785771D01*
X205434342Y-192857200D02*
X205505771Y-192928628D01*
X205434342Y-193000057D01*
X205362914Y-192928628D01*
X205434342Y-192857200D01*
X205434342Y-193000057D01*
D10*
D11*
X177002200Y-194507200D02*
X285002200Y-194507200D01*
D10*
D11*
X178434342Y-196585771D02*
X178434342Y-195085771D01*
X179291485Y-196585771D02*
X178648628Y-195728628D01*
X179291485Y-195085771D02*
X178434342Y-195942914D01*
X179934342Y-196585771D02*
X179934342Y-195585771D01*
X179934342Y-195085771D02*
X179862914Y-195157200D01*
X179934342Y-195228628D01*
X180005771Y-195157200D01*
X179934342Y-195085771D01*
X179934342Y-195228628D01*
X181505771Y-196442914D02*
X181434342Y-196514342D01*
X181220057Y-196585771D01*
X181077200Y-196585771D01*
X180862914Y-196514342D01*
X180720057Y-196371485D01*
X180648628Y-196228628D01*
X180577200Y-195942914D01*
X180577200Y-195728628D01*
X180648628Y-195442914D01*
X180720057Y-195300057D01*
X180862914Y-195157200D01*
X181077200Y-195085771D01*
X181220057Y-195085771D01*
X181434342Y-195157200D01*
X181505771Y-195228628D01*
X182791485Y-196585771D02*
X182791485Y-195800057D01*
X182720057Y-195657200D01*
X182577200Y-195585771D01*
X182291485Y-195585771D01*
X182148628Y-195657200D01*
X182791485Y-196514342D02*
X182648628Y-196585771D01*
X182291485Y-196585771D01*
X182148628Y-196514342D01*
X182077200Y-196371485D01*
X182077200Y-196228628D01*
X182148628Y-196085771D01*
X182291485Y-196014342D01*
X182648628Y-196014342D01*
X182791485Y-195942914D01*
X184148628Y-196585771D02*
X184148628Y-195085771D01*
X184148628Y-196514342D02*
X184005771Y-196585771D01*
X183720057Y-196585771D01*
X183577200Y-196514342D01*
X183505771Y-196442914D01*
X183434342Y-196300057D01*
X183434342Y-195871485D01*
X183505771Y-195728628D01*
X183577200Y-195657200D01*
X183720057Y-195585771D01*
X184005771Y-195585771D01*
X184148628Y-195657200D01*
X186005771Y-195800057D02*
X186505771Y-195800057D01*
X186720057Y-196585771D02*
X186005771Y-196585771D01*
X186005771Y-195085771D01*
X186720057Y-195085771D01*
X187362914Y-196442914D02*
X187434342Y-196514342D01*
X187362914Y-196585771D01*
X187291485Y-196514342D01*
X187362914Y-196442914D01*
X187362914Y-196585771D01*
X188077200Y-196585771D02*
X188077200Y-195085771D01*
X188434342Y-195085771D01*
X188648628Y-195157200D01*
X188791485Y-195300057D01*
X188862914Y-195442914D01*
X188934342Y-195728628D01*
X188934342Y-195942914D01*
X188862914Y-196228628D01*
X188791485Y-196371485D01*
X188648628Y-196514342D01*
X188434342Y-196585771D01*
X188077200Y-196585771D01*
X189577200Y-196442914D02*
X189648628Y-196514342D01*
X189577200Y-196585771D01*
X189505771Y-196514342D01*
X189577200Y-196442914D01*
X189577200Y-196585771D01*
X190220057Y-196157200D02*
X190934342Y-196157200D01*
X190077200Y-196585771D02*
X190577200Y-195085771D01*
X191077200Y-196585771D01*
X191577200Y-196442914D02*
X191648628Y-196514342D01*
X191577200Y-196585771D01*
X191505771Y-196514342D01*
X191577200Y-196442914D01*
X191577200Y-196585771D01*
X194577200Y-196585771D02*
X194577200Y-195085771D01*
X194720057Y-196014342D02*
X195148628Y-196585771D01*
X195148628Y-195585771D02*
X194577200Y-196157200D01*
X195791485Y-196585771D02*
X195791485Y-195585771D01*
X195791485Y-195085771D02*
X195720057Y-195157200D01*
X195791485Y-195228628D01*
X195862914Y-195157200D01*
X195791485Y-195085771D01*
X195791485Y-195228628D01*
X197148628Y-196514342D02*
X197005771Y-196585771D01*
X196720057Y-196585771D01*
X196577200Y-196514342D01*
X196505771Y-196442914D01*
X196434342Y-196300057D01*
X196434342Y-195871485D01*
X196505771Y-195728628D01*
X196577200Y-195657200D01*
X196720057Y-195585771D01*
X197005771Y-195585771D01*
X197148628Y-195657200D01*
X198434342Y-196585771D02*
X198434342Y-195800057D01*
X198362914Y-195657200D01*
X198220057Y-195585771D01*
X197934342Y-195585771D01*
X197791485Y-195657200D01*
X198434342Y-196514342D02*
X198291485Y-196585771D01*
X197934342Y-196585771D01*
X197791485Y-196514342D01*
X197720057Y-196371485D01*
X197720057Y-196228628D01*
X197791485Y-196085771D01*
X197934342Y-196014342D01*
X198291485Y-196014342D01*
X198434342Y-195942914D01*
X199791485Y-196585771D02*
X199791485Y-195085771D01*
X199791485Y-196514342D02*
X199648628Y-196585771D01*
X199362914Y-196585771D01*
X199220057Y-196514342D01*
X199148628Y-196442914D01*
X199077200Y-196300057D01*
X199077200Y-195871485D01*
X199148628Y-195728628D01*
X199220057Y-195657200D01*
X199362914Y-195585771D01*
X199648628Y-195585771D01*
X199791485Y-195657200D01*
X202077200Y-197157200D02*
X202005771Y-197085771D01*
X201862914Y-196871485D01*
X201791485Y-196728628D01*
X201720057Y-196514342D01*
X201648628Y-196157200D01*
X201648628Y-195871485D01*
X201720057Y-195514342D01*
X201791485Y-195300057D01*
X201862914Y-195157200D01*
X202005771Y-194942914D01*
X202077200Y-194871485D01*
X203362914Y-195085771D02*
X202648628Y-195085771D01*
X202577200Y-195800057D01*
X202648628Y-195728628D01*
X202791485Y-195657200D01*
X203148628Y-195657200D01*
X203291485Y-195728628D01*
X203362914Y-195800057D01*
X203434342Y-195942914D01*
X203434342Y-196300057D01*
X203362914Y-196442914D01*
X203291485Y-196514342D01*
X203148628Y-196585771D01*
X202791485Y-196585771D01*
X202648628Y-196514342D01*
X202577200Y-196442914D01*
X204077200Y-196442914D02*
X204148628Y-196514342D01*
X204077200Y-196585771D01*
X204005771Y-196514342D01*
X204077200Y-196442914D01*
X204077200Y-196585771D01*
X205577200Y-196585771D02*
X204720057Y-196585771D01*
X205148628Y-196585771D02*
X205148628Y-195085771D01*
X205005771Y-195300057D01*
X204862914Y-195442914D01*
X204720057Y-195514342D01*
X206220057Y-196442914D02*
X206291485Y-196514342D01*
X206220057Y-196585771D01*
X206148628Y-196514342D01*
X206220057Y-196442914D01*
X206220057Y-196585771D01*
X207005771Y-196585771D02*
X207291485Y-196585771D01*
X207434342Y-196514342D01*
X207505771Y-196442914D01*
X207648628Y-196228628D01*
X207720057Y-195942914D01*
X207720057Y-195371485D01*
X207648628Y-195228628D01*
X207577200Y-195157200D01*
X207434342Y-195085771D01*
X207148628Y-195085771D01*
X207005771Y-195157200D01*
X206934342Y-195228628D01*
X206862914Y-195371485D01*
X206862914Y-195728628D01*
X206934342Y-195871485D01*
X207005771Y-195942914D01*
X207148628Y-196014342D01*
X207434342Y-196014342D01*
X207577200Y-195942914D01*
X207648628Y-195871485D01*
X207720057Y-195728628D01*
X208220057Y-197157200D02*
X208291485Y-197085771D01*
X208434342Y-196871485D01*
X208505771Y-196728628D01*
X208577200Y-196514342D01*
X208648628Y-196157200D01*
X208648628Y-195871485D01*
X208577200Y-195514342D01*
X208505771Y-195300057D01*
X208434342Y-195157200D01*
X208291485Y-194942914D01*
X208220057Y-194871485D01*
X209362914Y-196014342D02*
X210505771Y-196014342D01*
X212005771Y-196585771D02*
X211148628Y-196585771D01*
X211577200Y-196585771D02*
X211577200Y-195085771D01*
X211434342Y-195300057D01*
X211291485Y-195442914D01*
X211148628Y-195514342D01*
D10*
D11*
X177002200Y-191507200D02*
X285002200Y-191507200D01*
D10*
D12*
X264411485Y-193785771D02*
X263911485Y-193071485D01*
X263554342Y-193785771D02*
X263554342Y-192285771D01*
X264125771Y-192285771D01*
X264268628Y-192357200D01*
X264340057Y-192428628D01*
X264411485Y-192571485D01*
X264411485Y-192785771D01*
X264340057Y-192928628D01*
X264268628Y-193000057D01*
X264125771Y-193071485D01*
X263554342Y-193071485D01*
X265625771Y-193714342D02*
X265482914Y-193785771D01*
X265197200Y-193785771D01*
X265054342Y-193714342D01*
X264982914Y-193571485D01*
X264982914Y-193000057D01*
X265054342Y-192857200D01*
X265197200Y-192785771D01*
X265482914Y-192785771D01*
X265625771Y-192857200D01*
X265697200Y-193000057D01*
X265697200Y-193142914D01*
X264982914Y-193285771D01*
X266197200Y-192785771D02*
X266554342Y-193785771D01*
X266911485Y-192785771D01*
X267482914Y-193642914D02*
X267554342Y-193714342D01*
X267482914Y-193785771D01*
X267411485Y-193714342D01*
X267482914Y-193642914D01*
X267482914Y-193785771D01*
X267482914Y-192857200D02*
X267554342Y-192928628D01*
X267482914Y-193000057D01*
X267411485Y-192928628D01*
X267482914Y-192857200D01*
X267482914Y-193000057D01*
D10*
D11*
X178362914Y-193714342D02*
X178577200Y-193785771D01*
X178934342Y-193785771D01*
X179077200Y-193714342D01*
X179148628Y-193642914D01*
X179220057Y-193500057D01*
X179220057Y-193357200D01*
X179148628Y-193214342D01*
X179077200Y-193142914D01*
X178934342Y-193071485D01*
X178648628Y-193000057D01*
X178505771Y-192928628D01*
X178434342Y-192857200D01*
X178362914Y-192714342D01*
X178362914Y-192571485D01*
X178434342Y-192428628D01*
X178505771Y-192357200D01*
X178648628Y-192285771D01*
X179005771Y-192285771D01*
X179220057Y-192357200D01*
X179862914Y-193785771D02*
X179862914Y-192785771D01*
X179862914Y-192285771D02*
X179791485Y-192357200D01*
X179862914Y-192428628D01*
X179934342Y-192357200D01*
X179862914Y-192285771D01*
X179862914Y-192428628D01*
X180434342Y-192785771D02*
X181220057Y-192785771D01*
X180434342Y-193785771D01*
X181220057Y-193785771D01*
X182362914Y-193714342D02*
X182220057Y-193785771D01*
X181934342Y-193785771D01*
X181791485Y-193714342D01*
X181720057Y-193571485D01*
X181720057Y-193000057D01*
X181791485Y-192857200D01*
X181934342Y-192785771D01*
X182220057Y-192785771D01*
X182362914Y-192857200D01*
X182434342Y-193000057D01*
X182434342Y-193142914D01*
X181720057Y-193285771D01*
X183077200Y-193642914D02*
X183148628Y-193714342D01*
X183077200Y-193785771D01*
X183005771Y-193714342D01*
X183077200Y-193642914D01*
X183077200Y-193785771D01*
X183077200Y-192857200D02*
X183148628Y-192928628D01*
X183077200Y-193000057D01*
X183005771Y-192928628D01*
X183077200Y-192857200D01*
X183077200Y-193000057D01*
X184862914Y-193357200D02*
X185577200Y-193357200D01*
X184720057Y-193785771D02*
X185220057Y-192285771D01*
X185720057Y-193785771D01*
X186862914Y-192785771D02*
X186862914Y-193785771D01*
X186505771Y-192214342D02*
X186148628Y-193285771D01*
X187077200Y-193285771D01*
D10*
D11*
X263434342Y-196585771D02*
X263434342Y-195085771D01*
X264791485Y-196585771D02*
X264791485Y-195085771D01*
X264791485Y-196514342D02*
X264648628Y-196585771D01*
X264362914Y-196585771D01*
X264220057Y-196514342D01*
X264148628Y-196442914D01*
X264077200Y-196300057D01*
X264077200Y-195871485D01*
X264148628Y-195728628D01*
X264220057Y-195657200D01*
X264362914Y-195585771D01*
X264648628Y-195585771D01*
X264791485Y-195657200D01*
X265505771Y-196442914D02*
X265577200Y-196514342D01*
X265505771Y-196585771D01*
X265434342Y-196514342D01*
X265505771Y-196442914D01*
X265505771Y-196585771D01*
X265505771Y-195657200D02*
X265577200Y-195728628D01*
X265505771Y-195800057D01*
X265434342Y-195728628D01*
X265505771Y-195657200D01*
X265505771Y-195800057D01*
X268148628Y-196585771D02*
X267291485Y-196585771D01*
X267720057Y-196585771D02*
X267720057Y-195085771D01*
X267577200Y-195300057D01*
X267434342Y-195442914D01*
X267291485Y-195514342D01*
X269862914Y-195014342D02*
X268577200Y-196942914D01*
X271148628Y-196585771D02*
X270291485Y-196585771D01*
X270720057Y-196585771D02*
X270720057Y-195085771D01*
X270577200Y-195300057D01*
X270434342Y-195442914D01*
X270291485Y-195514342D01*
D10*
D11*
X177002200Y-187507200D02*
X285002200Y-187507200D01*
D10*
D13*
X178714580Y-188211961D02*
X179857438Y-188211961D01*
X179036009Y-190211961D02*
X179286009Y-188211961D01*
X180274104Y-190211961D02*
X180440771Y-188878628D01*
X180524104Y-188211961D02*
X180416961Y-188307200D01*
X180500295Y-188402438D01*
X180607438Y-188307200D01*
X180524104Y-188211961D01*
X180500295Y-188402438D01*
X181107438Y-188878628D02*
X181869342Y-188878628D01*
X181476485Y-188211961D02*
X181262200Y-189926247D01*
X181333628Y-190116723D01*
X181512200Y-190211961D01*
X181702676Y-190211961D01*
X182655057Y-190211961D02*
X182476485Y-190116723D01*
X182405057Y-189926247D01*
X182619342Y-188211961D01*
X184190771Y-190116723D02*
X183988390Y-190211961D01*
X183607438Y-190211961D01*
X183428866Y-190116723D01*
X183357438Y-189926247D01*
X183452676Y-189164342D01*
X183571723Y-188973866D01*
X183774104Y-188878628D01*
X184155057Y-188878628D01*
X184333628Y-188973866D01*
X184405057Y-189164342D01*
X184381247Y-189354819D01*
X183405057Y-189545295D01*
X185155057Y-190021485D02*
X185238390Y-190116723D01*
X185131247Y-190211961D01*
X185047914Y-190116723D01*
X185155057Y-190021485D01*
X185131247Y-190211961D01*
X185286009Y-188973866D02*
X185369342Y-189069104D01*
X185262200Y-189164342D01*
X185178866Y-189069104D01*
X185286009Y-188973866D01*
X185262200Y-189164342D01*
D10*
D11*
X178934342Y-185600057D02*
X178434342Y-185600057D01*
X178434342Y-186385771D02*
X178434342Y-184885771D01*
X179148628Y-184885771D01*
X179720057Y-186385771D02*
X179720057Y-185385771D01*
X179720057Y-184885771D02*
X179648628Y-184957200D01*
X179720057Y-185028628D01*
X179791485Y-184957200D01*
X179720057Y-184885771D01*
X179720057Y-185028628D01*
X180648628Y-186385771D02*
X180505771Y-186314342D01*
X180434342Y-186171485D01*
X180434342Y-184885771D01*
X181791485Y-186314342D02*
X181648628Y-186385771D01*
X181362914Y-186385771D01*
X181220057Y-186314342D01*
X181148628Y-186171485D01*
X181148628Y-185600057D01*
X181220057Y-185457200D01*
X181362914Y-185385771D01*
X181648628Y-185385771D01*
X181791485Y-185457200D01*
X181862914Y-185600057D01*
X181862914Y-185742914D01*
X181148628Y-185885771D01*
X182505771Y-186242914D02*
X182577200Y-186314342D01*
X182505771Y-186385771D01*
X182434342Y-186314342D01*
X182505771Y-186242914D01*
X182505771Y-186385771D01*
X182505771Y-185457200D02*
X182577200Y-185528628D01*
X182505771Y-185600057D01*
X182434342Y-185528628D01*
X182505771Y-185457200D01*
X182505771Y-185600057D01*
X185005771Y-186385771D02*
X185005771Y-184885771D01*
X185005771Y-186314342D02*
X184862914Y-186385771D01*
X184577200Y-186385771D01*
X184434342Y-186314342D01*
X184362914Y-186242914D01*
X184291485Y-186100057D01*
X184291485Y-185671485D01*
X184362914Y-185528628D01*
X184434342Y-185457200D01*
X184577200Y-185385771D01*
X184862914Y-185385771D01*
X185005771Y-185457200D01*
X186362914Y-185385771D02*
X186362914Y-186385771D01*
X185720057Y-185385771D02*
X185720057Y-186171485D01*
X185791485Y-186314342D01*
X185934342Y-186385771D01*
X186148628Y-186385771D01*
X186291485Y-186314342D01*
X186362914Y-186242914D01*
X187720057Y-186385771D02*
X187720057Y-185600057D01*
X187648628Y-185457200D01*
X187505771Y-185385771D01*
X187220057Y-185385771D01*
X187077200Y-185457200D01*
X187720057Y-186314342D02*
X187577200Y-186385771D01*
X187220057Y-186385771D01*
X187077200Y-186314342D01*
X187005771Y-186171485D01*
X187005771Y-186028628D01*
X187077200Y-185885771D01*
X187220057Y-185814342D01*
X187577200Y-185814342D01*
X187720057Y-185742914D01*
X188648628Y-186385771D02*
X188505771Y-186314342D01*
X188434342Y-186171485D01*
X188434342Y-184885771D01*
X188862914Y-186528628D02*
X190005771Y-186528628D01*
X190362914Y-186385771D02*
X190362914Y-184885771D01*
X190362914Y-185457200D02*
X190505771Y-185385771D01*
X190791485Y-185385771D01*
X190934342Y-185457200D01*
X191005771Y-185528628D01*
X191077200Y-185671485D01*
X191077200Y-186100057D01*
X191005771Y-186242914D01*
X190934342Y-186314342D01*
X190791485Y-186385771D01*
X190505771Y-186385771D01*
X190362914Y-186314342D01*
X191934342Y-186385771D02*
X191791485Y-186314342D01*
X191720057Y-186242914D01*
X191648628Y-186100057D01*
X191648628Y-185671485D01*
X191720057Y-185528628D01*
X191791485Y-185457200D01*
X191934342Y-185385771D01*
X192148628Y-185385771D01*
X192291485Y-185457200D01*
X192362914Y-185528628D01*
X192434342Y-185671485D01*
X192434342Y-186100057D01*
X192362914Y-186242914D01*
X192291485Y-186314342D01*
X192148628Y-186385771D01*
X191934342Y-186385771D01*
X193720057Y-186385771D02*
X193720057Y-185600057D01*
X193648628Y-185457200D01*
X193505771Y-185385771D01*
X193220057Y-185385771D01*
X193077200Y-185457200D01*
X193720057Y-186314342D02*
X193577200Y-186385771D01*
X193220057Y-186385771D01*
X193077200Y-186314342D01*
X193005771Y-186171485D01*
X193005771Y-186028628D01*
X193077200Y-185885771D01*
X193220057Y-185814342D01*
X193577200Y-185814342D01*
X193720057Y-185742914D01*
X194434342Y-186385771D02*
X194434342Y-185385771D01*
X194434342Y-185671485D02*
X194505771Y-185528628D01*
X194577200Y-185457200D01*
X194720057Y-185385771D01*
X194862914Y-185385771D01*
X196005771Y-186385771D02*
X196005771Y-184885771D01*
X196005771Y-186314342D02*
X195862914Y-186385771D01*
X195577200Y-186385771D01*
X195434342Y-186314342D01*
X195362914Y-186242914D01*
X195291485Y-186100057D01*
X195291485Y-185671485D01*
X195362914Y-185528628D01*
X195434342Y-185457200D01*
X195577200Y-185385771D01*
X195862914Y-185385771D01*
X196005771Y-185457200D01*
X196362914Y-186528628D02*
X197505771Y-186528628D01*
X198505771Y-186314342D02*
X198362914Y-186385771D01*
X198077200Y-186385771D01*
X197934342Y-186314342D01*
X197862914Y-186242914D01*
X197791485Y-186100057D01*
X197791485Y-185671485D01*
X197862914Y-185528628D01*
X197934342Y-185457200D01*
X198077200Y-185385771D01*
X198362914Y-185385771D01*
X198505771Y-185457200D01*
X199791485Y-186385771D02*
X199791485Y-185600057D01*
X199720057Y-185457200D01*
X199577200Y-185385771D01*
X199291485Y-185385771D01*
X199148628Y-185457200D01*
X199791485Y-186314342D02*
X199648628Y-186385771D01*
X199291485Y-186385771D01*
X199148628Y-186314342D01*
X199077200Y-186171485D01*
X199077200Y-186028628D01*
X199148628Y-185885771D01*
X199291485Y-185814342D01*
X199648628Y-185814342D01*
X199791485Y-185742914D01*
X200505771Y-186385771D02*
X200505771Y-185385771D01*
X200505771Y-185671485D02*
X200577200Y-185528628D01*
X200648628Y-185457200D01*
X200791485Y-185385771D01*
X200934342Y-185385771D01*
X201434342Y-186385771D02*
X201434342Y-185385771D01*
X201434342Y-185671485D02*
X201505771Y-185528628D01*
X201577200Y-185457200D01*
X201720057Y-185385771D01*
X201862914Y-185385771D01*
X202362914Y-186385771D02*
X202362914Y-185385771D01*
X202362914Y-184885771D02*
X202291485Y-184957200D01*
X202362914Y-185028628D01*
X202434342Y-184957200D01*
X202362914Y-184885771D01*
X202362914Y-185028628D01*
X203648628Y-186314342D02*
X203505771Y-186385771D01*
X203220057Y-186385771D01*
X203077200Y-186314342D01*
X203005771Y-186171485D01*
X203005771Y-185600057D01*
X203077200Y-185457200D01*
X203220057Y-185385771D01*
X203505771Y-185385771D01*
X203648628Y-185457200D01*
X203720057Y-185600057D01*
X203720057Y-185742914D01*
X203005771Y-185885771D01*
X204362914Y-186385771D02*
X204362914Y-185385771D01*
X204362914Y-185671485D02*
X204434342Y-185528628D01*
X204505771Y-185457200D01*
X204648628Y-185385771D01*
X204791485Y-185385771D01*
X205291485Y-186242914D02*
X205362914Y-186314342D01*
X205291485Y-186385771D01*
X205220057Y-186314342D01*
X205291485Y-186242914D01*
X205291485Y-186385771D01*
X206005771Y-186385771D02*
X206005771Y-184885771D01*
X206148628Y-185814342D02*
X206577200Y-186385771D01*
X206577200Y-185385771D02*
X206005771Y-185957200D01*
X207220057Y-186385771D02*
X207220057Y-185385771D01*
X207220057Y-184885771D02*
X207148628Y-184957200D01*
X207220057Y-185028628D01*
X207291485Y-184957200D01*
X207220057Y-184885771D01*
X207220057Y-185028628D01*
X208577200Y-186314342D02*
X208434342Y-186385771D01*
X208148628Y-186385771D01*
X208005771Y-186314342D01*
X207934342Y-186242914D01*
X207862914Y-186100057D01*
X207862914Y-185671485D01*
X207934342Y-185528628D01*
X208005771Y-185457200D01*
X208148628Y-185385771D01*
X208434342Y-185385771D01*
X208577200Y-185457200D01*
X209862914Y-186385771D02*
X209862914Y-185600057D01*
X209791485Y-185457200D01*
X209648628Y-185385771D01*
X209362914Y-185385771D01*
X209220057Y-185457200D01*
X209862914Y-186314342D02*
X209720057Y-186385771D01*
X209362914Y-186385771D01*
X209220057Y-186314342D01*
X209148628Y-186171485D01*
X209148628Y-186028628D01*
X209220057Y-185885771D01*
X209362914Y-185814342D01*
X209720057Y-185814342D01*
X209862914Y-185742914D01*
X211220057Y-186385771D02*
X211220057Y-184885771D01*
X211220057Y-186314342D02*
X211077200Y-186385771D01*
X210791485Y-186385771D01*
X210648628Y-186314342D01*
X210577200Y-186242914D01*
X210505771Y-186100057D01*
X210505771Y-185671485D01*
X210577200Y-185528628D01*
X210648628Y-185457200D01*
X210791485Y-185385771D01*
X211077200Y-185385771D01*
X211220057Y-185457200D01*
X211577200Y-186528628D02*
X212720057Y-186528628D01*
X213077200Y-185385771D02*
X213077200Y-186885771D01*
X213077200Y-185457200D02*
X213220057Y-185385771D01*
X213505771Y-185385771D01*
X213648628Y-185457200D01*
X213720057Y-185528628D01*
X213791485Y-185671485D01*
X213791485Y-186100057D01*
X213720057Y-186242914D01*
X213648628Y-186314342D01*
X213505771Y-186385771D01*
X213220057Y-186385771D01*
X213077200Y-186314342D01*
X215077200Y-186314342D02*
X214934342Y-186385771D01*
X214648628Y-186385771D01*
X214505771Y-186314342D01*
X214434342Y-186242914D01*
X214362914Y-186100057D01*
X214362914Y-185671485D01*
X214434342Y-185528628D01*
X214505771Y-185457200D01*
X214648628Y-185385771D01*
X214934342Y-185385771D01*
X215077200Y-185457200D01*
X215720057Y-186385771D02*
X215720057Y-184885771D01*
X215720057Y-185457200D02*
X215862914Y-185385771D01*
X216148628Y-185385771D01*
X216291485Y-185457200D01*
X216362914Y-185528628D01*
X216434342Y-185671485D01*
X216434342Y-186100057D01*
X216362914Y-186242914D01*
X216291485Y-186314342D01*
X216148628Y-186385771D01*
X215862914Y-186385771D01*
X215720057Y-186314342D01*
D10*
D11*
X177002200Y-181507200D02*
X285002200Y-181507200D01*
D10*
D11*
X178362914Y-183614342D02*
X178577200Y-183685771D01*
X178934342Y-183685771D01*
X179077200Y-183614342D01*
X179148628Y-183542914D01*
X179220057Y-183400057D01*
X179220057Y-183257200D01*
X179148628Y-183114342D01*
X179077200Y-183042914D01*
X178934342Y-182971485D01*
X178648628Y-182900057D01*
X178505771Y-182828628D01*
X178434342Y-182757200D01*
X178362914Y-182614342D01*
X178362914Y-182471485D01*
X178434342Y-182328628D01*
X178505771Y-182257200D01*
X178648628Y-182185771D01*
X179005771Y-182185771D01*
X179220057Y-182257200D01*
X179862914Y-183685771D02*
X179862914Y-182185771D01*
X180505771Y-183685771D02*
X180505771Y-182900057D01*
X180434342Y-182757200D01*
X180291485Y-182685771D01*
X180077200Y-182685771D01*
X179934342Y-182757200D01*
X179862914Y-182828628D01*
X181791485Y-183614342D02*
X181648628Y-183685771D01*
X181362914Y-183685771D01*
X181220057Y-183614342D01*
X181148628Y-183471485D01*
X181148628Y-182900057D01*
X181220057Y-182757200D01*
X181362914Y-182685771D01*
X181648628Y-182685771D01*
X181791485Y-182757200D01*
X181862914Y-182900057D01*
X181862914Y-183042914D01*
X181148628Y-183185771D01*
X183077200Y-183614342D02*
X182934342Y-183685771D01*
X182648628Y-183685771D01*
X182505771Y-183614342D01*
X182434342Y-183471485D01*
X182434342Y-182900057D01*
X182505771Y-182757200D01*
X182648628Y-182685771D01*
X182934342Y-182685771D01*
X183077200Y-182757200D01*
X183148628Y-182900057D01*
X183148628Y-183042914D01*
X182434342Y-183185771D01*
X183577200Y-182685771D02*
X184148628Y-182685771D01*
X183791485Y-182185771D02*
X183791485Y-183471485D01*
X183862914Y-183614342D01*
X184005771Y-183685771D01*
X184148628Y-183685771D01*
X184648628Y-183542914D02*
X184720057Y-183614342D01*
X184648628Y-183685771D01*
X184577200Y-183614342D01*
X184648628Y-183542914D01*
X184648628Y-183685771D01*
X184648628Y-182757200D02*
X184720057Y-182828628D01*
X184648628Y-182900057D01*
X184577200Y-182828628D01*
X184648628Y-182757200D01*
X184648628Y-182900057D01*
D10*
D11*
X197002200Y-191507200D02*
X197002200Y-194507200D01*
D10*
D11*
X261002200Y-191507200D02*
X261002200Y-198007200D01*
D14*
X145920952Y-98066380D02*
X145920952Y-97066380D01*
X145682857Y-97066380D01*
X145540000Y-97114000D01*
X145444761Y-97209238D01*
X145397142Y-97304476D01*
X145349523Y-97494952D01*
X145349523Y-97637809D01*
X145397142Y-97828285D01*
X145444761Y-97923523D01*
X145540000Y-98018761D01*
X145682857Y-98066380D01*
X145920952Y-98066380D01*
X144492380Y-97399714D02*
X144492380Y-98066380D01*
X144920952Y-97399714D02*
X144920952Y-97923523D01*
X144873333Y-98018761D01*
X144778095Y-98066380D01*
X144635238Y-98066380D01*
X144540000Y-98018761D01*
X144492380Y-97971142D01*
X143587619Y-98066380D02*
X143587619Y-97542571D01*
X143635238Y-97447333D01*
X143730476Y-97399714D01*
X143920952Y-97399714D01*
X144016190Y-97447333D01*
X143587619Y-98018761D02*
X143682857Y-98066380D01*
X143920952Y-98066380D01*
X144016190Y-98018761D01*
X144063809Y-97923523D01*
X144063809Y-97828285D01*
X144016190Y-97733047D01*
X143920952Y-97685428D01*
X143682857Y-97685428D01*
X143587619Y-97637809D01*
X142968571Y-98066380D02*
X143063809Y-98018761D01*
X143111428Y-97923523D01*
X143111428Y-97066380D01*
X141920952Y-97399714D02*
X141730476Y-98066380D01*
X141540000Y-97590190D01*
X141349523Y-98066380D01*
X141159047Y-97399714D01*
X140778095Y-98066380D02*
X140778095Y-97399714D01*
X140778095Y-97066380D02*
X140825714Y-97114000D01*
X140778095Y-97161619D01*
X140730476Y-97114000D01*
X140778095Y-97066380D01*
X140778095Y-97161619D01*
X139873333Y-98066380D02*
X139873333Y-97066380D01*
X139873333Y-98018761D02*
X139968571Y-98066380D01*
X140159047Y-98066380D01*
X140254285Y-98018761D01*
X140301904Y-97971142D01*
X140349523Y-97875904D01*
X140349523Y-97590190D01*
X140301904Y-97494952D01*
X140254285Y-97447333D01*
X140159047Y-97399714D01*
X139968571Y-97399714D01*
X139873333Y-97447333D01*
X139016190Y-98018761D02*
X139111428Y-98066380D01*
X139301904Y-98066380D01*
X139397142Y-98018761D01*
X139444761Y-97923523D01*
X139444761Y-97542571D01*
X139397142Y-97447333D01*
X139301904Y-97399714D01*
X139111428Y-97399714D01*
X139016190Y-97447333D01*
X138968571Y-97542571D01*
X138968571Y-97637809D01*
X139444761Y-97733047D01*
X138540000Y-98066380D02*
X138540000Y-97066380D01*
X138540000Y-97447333D02*
X138444761Y-97399714D01*
X138254285Y-97399714D01*
X138159047Y-97447333D01*
X138111428Y-97494952D01*
X138063809Y-97590190D01*
X138063809Y-97875904D01*
X138111428Y-97971142D01*
X138159047Y-98018761D01*
X138254285Y-98066380D01*
X138444761Y-98066380D01*
X138540000Y-98018761D01*
X137206666Y-98066380D02*
X137206666Y-97542571D01*
X137254285Y-97447333D01*
X137349523Y-97399714D01*
X137540000Y-97399714D01*
X137635238Y-97447333D01*
X137206666Y-98018761D02*
X137301904Y-98066380D01*
X137540000Y-98066380D01*
X137635238Y-98018761D01*
X137682857Y-97923523D01*
X137682857Y-97828285D01*
X137635238Y-97733047D01*
X137540000Y-97685428D01*
X137301904Y-97685428D01*
X137206666Y-97637809D01*
X136730476Y-97399714D02*
X136730476Y-98066380D01*
X136730476Y-97494952D02*
X136682857Y-97447333D01*
X136587619Y-97399714D01*
X136444761Y-97399714D01*
X136349523Y-97447333D01*
X136301904Y-97542571D01*
X136301904Y-98066380D01*
X135397142Y-98066380D02*
X135397142Y-97066380D01*
X135397142Y-98018761D02*
X135492380Y-98066380D01*
X135682857Y-98066380D01*
X135778095Y-98018761D01*
X135825714Y-97971142D01*
X135873333Y-97875904D01*
X135873333Y-97590190D01*
X135825714Y-97494952D01*
X135778095Y-97447333D01*
X135682857Y-97399714D01*
X135492380Y-97399714D01*
X135397142Y-97447333D01*
X133682857Y-98066380D02*
X134159047Y-98066380D01*
X134159047Y-97066380D01*
X133397142Y-98018761D02*
X133254285Y-98066380D01*
X133016190Y-98066380D01*
X132920952Y-98018761D01*
X132873333Y-97971142D01*
X132825714Y-97875904D01*
X132825714Y-97780666D01*
X132873333Y-97685428D01*
X132920952Y-97637809D01*
X133016190Y-97590190D01*
X133206666Y-97542571D01*
X133301904Y-97494952D01*
X133349523Y-97447333D01*
X133397142Y-97352095D01*
X133397142Y-97256857D01*
X133349523Y-97161619D01*
X133301904Y-97114000D01*
X133206666Y-97066380D01*
X132968571Y-97066380D01*
X132825714Y-97114000D01*
X132397142Y-97066380D02*
X132397142Y-97875904D01*
X132349523Y-97971142D01*
X132301904Y-98018761D01*
X132206666Y-98066380D01*
X132016190Y-98066380D01*
X131920952Y-98018761D01*
X131873333Y-97971142D01*
X131825714Y-97875904D01*
X131825714Y-97066380D01*
X130159047Y-97399714D02*
X130159047Y-98066380D01*
X130397142Y-97018761D02*
X130635238Y-97733047D01*
X130016190Y-97733047D01*
X129635238Y-97971142D02*
X129587619Y-98018761D01*
X129635238Y-98066380D01*
X129682857Y-98018761D01*
X129635238Y-97971142D01*
X129635238Y-98066380D01*
X129111428Y-98066380D02*
X128920952Y-98066380D01*
X128825714Y-98018761D01*
X128778095Y-97971142D01*
X128682857Y-97828285D01*
X128635238Y-97637809D01*
X128635238Y-97256857D01*
X128682857Y-97161619D01*
X128730476Y-97114000D01*
X128825714Y-97066380D01*
X129016190Y-97066380D01*
X129111428Y-97114000D01*
X129159047Y-97161619D01*
X129206666Y-97256857D01*
X129206666Y-97494952D01*
X129159047Y-97590190D01*
X129111428Y-97637809D01*
X129016190Y-97685428D01*
X128825714Y-97685428D01*
X128730476Y-97637809D01*
X128682857Y-97590190D01*
X128635238Y-97494952D01*
X126873333Y-97971142D02*
X126920952Y-98018761D01*
X127063809Y-98066380D01*
X127159047Y-98066380D01*
X127301904Y-98018761D01*
X127397142Y-97923523D01*
X127444761Y-97828285D01*
X127492380Y-97637809D01*
X127492380Y-97494952D01*
X127444761Y-97304476D01*
X127397142Y-97209238D01*
X127301904Y-97114000D01*
X127159047Y-97066380D01*
X127063809Y-97066380D01*
X126920952Y-97114000D01*
X126873333Y-97161619D01*
X126301904Y-98066380D02*
X126397142Y-98018761D01*
X126444761Y-97971142D01*
X126492380Y-97875904D01*
X126492380Y-97590190D01*
X126444761Y-97494952D01*
X126397142Y-97447333D01*
X126301904Y-97399714D01*
X126159047Y-97399714D01*
X126063809Y-97447333D01*
X126016190Y-97494952D01*
X125968571Y-97590190D01*
X125968571Y-97875904D01*
X126016190Y-97971142D01*
X126063809Y-98018761D01*
X126159047Y-98066380D01*
X126301904Y-98066380D01*
X125540000Y-97399714D02*
X125540000Y-98066380D01*
X125540000Y-97494952D02*
X125492380Y-97447333D01*
X125397142Y-97399714D01*
X125254285Y-97399714D01*
X125159047Y-97447333D01*
X125111428Y-97542571D01*
X125111428Y-98066380D01*
X124778095Y-97399714D02*
X124397142Y-97399714D01*
X124635238Y-97066380D02*
X124635238Y-97923523D01*
X124587619Y-98018761D01*
X124492380Y-98066380D01*
X124397142Y-98066380D01*
X124063809Y-98066380D02*
X124063809Y-97399714D01*
X124063809Y-97590190D02*
X124016190Y-97494952D01*
X123968571Y-97447333D01*
X123873333Y-97399714D01*
X123778095Y-97399714D01*
X123301904Y-98066380D02*
X123397142Y-98018761D01*
X123444761Y-97971142D01*
X123492380Y-97875904D01*
X123492380Y-97590190D01*
X123444761Y-97494952D01*
X123397142Y-97447333D01*
X123301904Y-97399714D01*
X123159047Y-97399714D01*
X123063809Y-97447333D01*
X123016190Y-97494952D01*
X122968571Y-97590190D01*
X122968571Y-97875904D01*
X123016190Y-97971142D01*
X123063809Y-98018761D01*
X123159047Y-98066380D01*
X123301904Y-98066380D01*
X122397142Y-98066380D02*
X122492380Y-98018761D01*
X122540000Y-97923523D01*
X122540000Y-97066380D01*
X121873333Y-98066380D02*
X121968571Y-98018761D01*
X122016190Y-97923523D01*
X122016190Y-97066380D01*
X121111428Y-98018761D02*
X121206666Y-98066380D01*
X121397142Y-98066380D01*
X121492380Y-98018761D01*
X121540000Y-97923523D01*
X121540000Y-97542571D01*
X121492380Y-97447333D01*
X121397142Y-97399714D01*
X121206666Y-97399714D01*
X121111428Y-97447333D01*
X121063809Y-97542571D01*
X121063809Y-97637809D01*
X121540000Y-97733047D01*
X120635238Y-98066380D02*
X120635238Y-97399714D01*
X120635238Y-97590190D02*
X120587619Y-97494952D01*
X120540000Y-97447333D01*
X120444761Y-97399714D01*
X120349523Y-97399714D01*
X119254285Y-97685428D02*
X118492380Y-97685428D01*
X117254285Y-98066380D02*
X117254285Y-97399714D01*
X117254285Y-97590190D02*
X117206666Y-97494952D01*
X117159047Y-97447333D01*
X117063809Y-97399714D01*
X116968571Y-97399714D01*
X116206666Y-97399714D02*
X116206666Y-98066380D01*
X116635238Y-97399714D02*
X116635238Y-97923523D01*
X116587619Y-98018761D01*
X116492380Y-98066380D01*
X116349523Y-98066380D01*
X116254285Y-98018761D01*
X116206666Y-97971142D01*
X115778095Y-98018761D02*
X115682857Y-98066380D01*
X115492380Y-98066380D01*
X115397142Y-98018761D01*
X115349523Y-97923523D01*
X115349523Y-97875904D01*
X115397142Y-97780666D01*
X115492380Y-97733047D01*
X115635238Y-97733047D01*
X115730476Y-97685428D01*
X115778095Y-97590190D01*
X115778095Y-97542571D01*
X115730476Y-97447333D01*
X115635238Y-97399714D01*
X115492380Y-97399714D01*
X115397142Y-97447333D01*
X114920952Y-97542571D02*
X114587619Y-97542571D01*
X114444761Y-98066380D02*
X114920952Y-98066380D01*
X114920952Y-97066380D01*
X114444761Y-97066380D01*
X113682857Y-97542571D02*
X114016190Y-97542571D01*
X114016190Y-98066380D02*
X114016190Y-97066380D01*
X113540000Y-97066380D01*
X113159047Y-98066380D02*
X113159047Y-97066380D01*
X149849523Y-99766380D02*
X149849523Y-98766380D01*
X149420952Y-99766380D02*
X149420952Y-99242571D01*
X149468571Y-99147333D01*
X149563809Y-99099714D01*
X149706666Y-99099714D01*
X149801904Y-99147333D01*
X149849523Y-99194952D01*
X149087619Y-99099714D02*
X148706666Y-99099714D01*
X148944761Y-98766380D02*
X148944761Y-99623523D01*
X148897142Y-99718761D01*
X148801904Y-99766380D01*
X148706666Y-99766380D01*
X148516190Y-99099714D02*
X148135238Y-99099714D01*
X148373333Y-98766380D02*
X148373333Y-99623523D01*
X148325714Y-99718761D01*
X148230476Y-99766380D01*
X148135238Y-99766380D01*
X147801904Y-99099714D02*
X147801904Y-100099714D01*
X147801904Y-99147333D02*
X147706666Y-99099714D01*
X147516190Y-99099714D01*
X147420952Y-99147333D01*
X147373333Y-99194952D01*
X147325714Y-99290190D01*
X147325714Y-99575904D01*
X147373333Y-99671142D01*
X147420952Y-99718761D01*
X147516190Y-99766380D01*
X147706666Y-99766380D01*
X147801904Y-99718761D01*
X146944761Y-99718761D02*
X146849523Y-99766380D01*
X146659047Y-99766380D01*
X146563809Y-99718761D01*
X146516190Y-99623523D01*
X146516190Y-99575904D01*
X146563809Y-99480666D01*
X146659047Y-99433047D01*
X146801904Y-99433047D01*
X146897142Y-99385428D01*
X146944761Y-99290190D01*
X146944761Y-99242571D01*
X146897142Y-99147333D01*
X146801904Y-99099714D01*
X146659047Y-99099714D01*
X146563809Y-99147333D01*
X146087619Y-99671142D02*
X146040000Y-99718761D01*
X146087619Y-99766380D01*
X146135238Y-99718761D01*
X146087619Y-99671142D01*
X146087619Y-99766380D01*
X146087619Y-99147333D02*
X146040000Y-99194952D01*
X146087619Y-99242571D01*
X146135238Y-99194952D01*
X146087619Y-99147333D01*
X146087619Y-99242571D01*
X144897142Y-98718761D02*
X145754285Y-100004476D01*
X143849523Y-98718761D02*
X144706666Y-100004476D01*
X143516190Y-99766380D02*
X143516190Y-99099714D01*
X143516190Y-99290190D02*
X143468571Y-99194952D01*
X143420952Y-99147333D01*
X143325714Y-99099714D01*
X143230476Y-99099714D01*
X142468571Y-99099714D02*
X142468571Y-99766380D01*
X142897142Y-99099714D02*
X142897142Y-99623523D01*
X142849523Y-99718761D01*
X142754285Y-99766380D01*
X142611428Y-99766380D01*
X142516190Y-99718761D01*
X142468571Y-99671142D01*
X142040000Y-99718761D02*
X141944761Y-99766380D01*
X141754285Y-99766380D01*
X141659047Y-99718761D01*
X141611428Y-99623523D01*
X141611428Y-99575904D01*
X141659047Y-99480666D01*
X141754285Y-99433047D01*
X141897142Y-99433047D01*
X141992380Y-99385428D01*
X142040000Y-99290190D01*
X142040000Y-99242571D01*
X141992380Y-99147333D01*
X141897142Y-99099714D01*
X141754285Y-99099714D01*
X141659047Y-99147333D01*
X140801904Y-99718761D02*
X140897142Y-99766380D01*
X141087619Y-99766380D01*
X141182857Y-99718761D01*
X141230476Y-99623523D01*
X141230476Y-99242571D01*
X141182857Y-99147333D01*
X141087619Y-99099714D01*
X140897142Y-99099714D01*
X140801904Y-99147333D01*
X140754285Y-99242571D01*
X140754285Y-99337809D01*
X141230476Y-99433047D01*
X140468571Y-99099714D02*
X140087619Y-99099714D01*
X140325714Y-99766380D02*
X140325714Y-98909238D01*
X140278095Y-98814000D01*
X140182857Y-98766380D01*
X140087619Y-98766380D01*
X139754285Y-99766380D02*
X139754285Y-99099714D01*
X139754285Y-98766380D02*
X139801904Y-98814000D01*
X139754285Y-98861619D01*
X139706666Y-98814000D01*
X139754285Y-98766380D01*
X139754285Y-98861619D01*
X139278095Y-99671142D02*
X139230476Y-99718761D01*
X139278095Y-99766380D01*
X139325714Y-99718761D01*
X139278095Y-99671142D01*
X139278095Y-99766380D01*
X138373333Y-99718761D02*
X138468571Y-99766380D01*
X138659047Y-99766380D01*
X138754285Y-99718761D01*
X138801904Y-99671142D01*
X138849523Y-99575904D01*
X138849523Y-99290190D01*
X138801904Y-99194952D01*
X138754285Y-99147333D01*
X138659047Y-99099714D01*
X138468571Y-99099714D01*
X138373333Y-99147333D01*
X137801904Y-99766380D02*
X137897142Y-99718761D01*
X137944761Y-99671142D01*
X137992380Y-99575904D01*
X137992380Y-99290190D01*
X137944761Y-99194952D01*
X137897142Y-99147333D01*
X137801904Y-99099714D01*
X137659047Y-99099714D01*
X137563809Y-99147333D01*
X137516190Y-99194952D01*
X137468571Y-99290190D01*
X137468571Y-99575904D01*
X137516190Y-99671142D01*
X137563809Y-99718761D01*
X137659047Y-99766380D01*
X137801904Y-99766380D01*
X137040000Y-99766380D02*
X137040000Y-99099714D01*
X137040000Y-99194952D02*
X136992380Y-99147333D01*
X136897142Y-99099714D01*
X136754285Y-99099714D01*
X136659047Y-99147333D01*
X136611428Y-99242571D01*
X136611428Y-99766380D01*
X136611428Y-99242571D02*
X136563809Y-99147333D01*
X136468571Y-99099714D01*
X136325714Y-99099714D01*
X136230476Y-99147333D01*
X136182857Y-99242571D01*
X136182857Y-99766380D01*
X134992380Y-98718761D02*
X135849523Y-100004476D01*
X134801904Y-99099714D02*
X134420952Y-99099714D01*
X134659047Y-99766380D02*
X134659047Y-98909238D01*
X134611428Y-98814000D01*
X134516190Y-98766380D01*
X134420952Y-98766380D01*
X133944761Y-99766380D02*
X134040000Y-99718761D01*
X134087619Y-99671142D01*
X134135238Y-99575904D01*
X134135238Y-99290190D01*
X134087619Y-99194952D01*
X134040000Y-99147333D01*
X133944761Y-99099714D01*
X133801904Y-99099714D01*
X133706666Y-99147333D01*
X133659047Y-99194952D01*
X133611428Y-99290190D01*
X133611428Y-99575904D01*
X133659047Y-99671142D01*
X133706666Y-99718761D01*
X133801904Y-99766380D01*
X133944761Y-99766380D01*
X133182857Y-99766380D02*
X133182857Y-99099714D01*
X133182857Y-99290190D02*
X133135238Y-99194952D01*
X133087619Y-99147333D01*
X132992380Y-99099714D01*
X132897142Y-99099714D01*
X132135238Y-99099714D02*
X132135238Y-99766380D01*
X132563809Y-99099714D02*
X132563809Y-99623523D01*
X132516190Y-99718761D01*
X132420952Y-99766380D01*
X132278095Y-99766380D01*
X132182857Y-99718761D01*
X132135238Y-99671142D01*
X131659047Y-99766380D02*
X131659047Y-99099714D01*
X131659047Y-99194952D02*
X131611428Y-99147333D01*
X131516190Y-99099714D01*
X131373333Y-99099714D01*
X131278095Y-99147333D01*
X131230476Y-99242571D01*
X131230476Y-99766380D01*
X131230476Y-99242571D02*
X131182857Y-99147333D01*
X131087619Y-99099714D01*
X130944761Y-99099714D01*
X130849523Y-99147333D01*
X130801904Y-99242571D01*
X130801904Y-99766380D01*
X129611428Y-98718761D02*
X130468571Y-100004476D01*
X129373333Y-99099714D02*
X129135238Y-99766380D01*
X128897142Y-99099714D01*
X128516190Y-99766380D02*
X128516190Y-99099714D01*
X128516190Y-98766380D02*
X128563809Y-98814000D01*
X128516190Y-98861619D01*
X128468571Y-98814000D01*
X128516190Y-98766380D01*
X128516190Y-98861619D01*
X127659047Y-99718761D02*
X127754285Y-99766380D01*
X127944761Y-99766380D01*
X128040000Y-99718761D01*
X128087619Y-99623523D01*
X128087619Y-99242571D01*
X128040000Y-99147333D01*
X127944761Y-99099714D01*
X127754285Y-99099714D01*
X127659047Y-99147333D01*
X127611428Y-99242571D01*
X127611428Y-99337809D01*
X128087619Y-99433047D01*
X127278095Y-99099714D02*
X127087619Y-99766380D01*
X126897142Y-99290190D01*
X126706666Y-99766380D01*
X126516190Y-99099714D01*
X126278095Y-99099714D02*
X125897142Y-99099714D01*
X126135238Y-98766380D02*
X126135238Y-99623523D01*
X126087619Y-99718761D01*
X125992380Y-99766380D01*
X125897142Y-99766380D01*
X125420952Y-99766380D02*
X125516190Y-99718761D01*
X125563809Y-99671142D01*
X125611428Y-99575904D01*
X125611428Y-99290190D01*
X125563809Y-99194952D01*
X125516190Y-99147333D01*
X125420952Y-99099714D01*
X125278095Y-99099714D01*
X125182857Y-99147333D01*
X125135238Y-99194952D01*
X125087619Y-99290190D01*
X125087619Y-99575904D01*
X125135238Y-99671142D01*
X125182857Y-99718761D01*
X125278095Y-99766380D01*
X125420952Y-99766380D01*
X124659047Y-99099714D02*
X124659047Y-100099714D01*
X124659047Y-99147333D02*
X124563809Y-99099714D01*
X124373333Y-99099714D01*
X124278095Y-99147333D01*
X124230476Y-99194952D01*
X124182857Y-99290190D01*
X124182857Y-99575904D01*
X124230476Y-99671142D01*
X124278095Y-99718761D01*
X124373333Y-99766380D01*
X124563809Y-99766380D01*
X124659047Y-99718761D01*
X123754285Y-99766380D02*
X123754285Y-99099714D01*
X123754285Y-98766380D02*
X123801904Y-98814000D01*
X123754285Y-98861619D01*
X123706666Y-98814000D01*
X123754285Y-98766380D01*
X123754285Y-98861619D01*
X122849523Y-99718761D02*
X122944761Y-99766380D01*
X123135238Y-99766380D01*
X123230476Y-99718761D01*
X123278095Y-99671142D01*
X123325714Y-99575904D01*
X123325714Y-99290190D01*
X123278095Y-99194952D01*
X123230476Y-99147333D01*
X123135238Y-99099714D01*
X122944761Y-99099714D01*
X122849523Y-99147333D01*
X122420952Y-99671142D02*
X122373333Y-99718761D01*
X122420952Y-99766380D01*
X122468571Y-99718761D01*
X122420952Y-99671142D01*
X122420952Y-99766380D01*
X121944761Y-99099714D02*
X121944761Y-100099714D01*
X121944761Y-99147333D02*
X121849523Y-99099714D01*
X121659047Y-99099714D01*
X121563809Y-99147333D01*
X121516190Y-99194952D01*
X121468571Y-99290190D01*
X121468571Y-99575904D01*
X121516190Y-99671142D01*
X121563809Y-99718761D01*
X121659047Y-99766380D01*
X121849523Y-99766380D01*
X121944761Y-99718761D01*
X121040000Y-99766380D02*
X121040000Y-98766380D01*
X120611428Y-99766380D02*
X120611428Y-99242571D01*
X120659047Y-99147333D01*
X120754285Y-99099714D01*
X120897142Y-99099714D01*
X120992380Y-99147333D01*
X121040000Y-99194952D01*
X120135238Y-99099714D02*
X120135238Y-100099714D01*
X120135238Y-99147333D02*
X120040000Y-99099714D01*
X119849523Y-99099714D01*
X119754285Y-99147333D01*
X119706666Y-99194952D01*
X119659047Y-99290190D01*
X119659047Y-99575904D01*
X119706666Y-99671142D01*
X119754285Y-99718761D01*
X119849523Y-99766380D01*
X120040000Y-99766380D01*
X120135238Y-99718761D01*
X119087619Y-99671142D02*
X119040000Y-99718761D01*
X119087619Y-99766380D01*
X119135238Y-99718761D01*
X119087619Y-99671142D01*
X119087619Y-99766380D01*
X119278095Y-98814000D02*
X119182857Y-98766380D01*
X118944761Y-98766380D01*
X118849523Y-98814000D01*
X118801904Y-98909238D01*
X118801904Y-99004476D01*
X118849523Y-99099714D01*
X118897142Y-99147333D01*
X118992380Y-99194952D01*
X119040000Y-99242571D01*
X119087619Y-99337809D01*
X119087619Y-99385428D01*
X118516190Y-99099714D02*
X118135238Y-99099714D01*
X118373333Y-99766380D02*
X118373333Y-98909238D01*
X118325714Y-98814000D01*
X118230476Y-98766380D01*
X118135238Y-98766380D01*
X117801904Y-99242571D02*
X117040000Y-99242571D01*
X117040000Y-99528285D02*
X117801904Y-99528285D01*
X116135238Y-99099714D02*
X116135238Y-99766380D01*
X116373333Y-98718761D02*
X116611428Y-99433047D01*
X115992380Y-99433047D01*
X114801904Y-99766380D02*
X114849523Y-99766380D01*
X114944761Y-99718761D01*
X115087619Y-99575904D01*
X115325714Y-99290190D01*
X115420952Y-99147333D01*
X115468571Y-99004476D01*
X115468571Y-98909238D01*
X115420952Y-98814000D01*
X115325714Y-98766380D01*
X115278095Y-98766380D01*
X115182857Y-98814000D01*
X115135238Y-98909238D01*
X115135238Y-98956857D01*
X115182857Y-99052095D01*
X115230476Y-99099714D01*
X115516190Y-99290190D01*
X115563809Y-99337809D01*
X115611428Y-99433047D01*
X115611428Y-99575904D01*
X115563809Y-99671142D01*
X115516190Y-99718761D01*
X115420952Y-99766380D01*
X115278095Y-99766380D01*
X115182857Y-99718761D01*
X115135238Y-99671142D01*
X114992380Y-99480666D01*
X114944761Y-99337809D01*
X114944761Y-99242571D01*
X114516190Y-99099714D02*
X114135238Y-99099714D01*
X114373333Y-98766380D02*
X114373333Y-99623523D01*
X114325714Y-99718761D01*
X114230476Y-99766380D01*
X114135238Y-99766380D01*
X113801904Y-99242571D02*
X113040000Y-99242571D01*
X113040000Y-99528285D02*
X113801904Y-99528285D01*
X112040000Y-99766380D02*
X112611428Y-99766380D01*
X112325714Y-99766380D02*
X112325714Y-98766380D01*
X112420952Y-98909238D01*
X112516190Y-99004476D01*
X112611428Y-99052095D01*
X111468571Y-99194952D02*
X111563809Y-99147333D01*
X111611428Y-99099714D01*
X111659047Y-99004476D01*
X111659047Y-98956857D01*
X111611428Y-98861619D01*
X111563809Y-98814000D01*
X111468571Y-98766380D01*
X111278095Y-98766380D01*
X111182857Y-98814000D01*
X111135238Y-98861619D01*
X111087619Y-98956857D01*
X111087619Y-99004476D01*
X111135238Y-99099714D01*
X111182857Y-99147333D01*
X111278095Y-99194952D01*
X111468571Y-99194952D01*
X111563809Y-99242571D01*
X111611428Y-99290190D01*
X111659047Y-99385428D01*
X111659047Y-99575904D01*
X111611428Y-99671142D01*
X111563809Y-99718761D01*
X111468571Y-99766380D01*
X111278095Y-99766380D01*
X111182857Y-99718761D01*
X111135238Y-99671142D01*
X111087619Y-99575904D01*
X111087619Y-99385428D01*
X111135238Y-99290190D01*
X111182857Y-99242571D01*
X111278095Y-99194952D01*
X110182857Y-98766380D02*
X110659047Y-98766380D01*
X110706666Y-99242571D01*
X110659047Y-99194952D01*
X110563809Y-99147333D01*
X110325714Y-99147333D01*
X110230476Y-99194952D01*
X110182857Y-99242571D01*
X110135238Y-99337809D01*
X110135238Y-99575904D01*
X110182857Y-99671142D01*
X110230476Y-99718761D01*
X110325714Y-99766380D01*
X110563809Y-99766380D01*
X110659047Y-99718761D01*
X110706666Y-99671142D01*
X109278095Y-98766380D02*
X109468571Y-98766380D01*
X109563809Y-98814000D01*
X109611428Y-98861619D01*
X109706666Y-99004476D01*
X109754285Y-99194952D01*
X109754285Y-99575904D01*
X109706666Y-99671142D01*
X109659047Y-99718761D01*
X109563809Y-99766380D01*
X109373333Y-99766380D01*
X109278095Y-99718761D01*
X109230476Y-99671142D01*
X109182857Y-99575904D01*
X109182857Y-99337809D01*
X109230476Y-99242571D01*
X109278095Y-99194952D01*
X109373333Y-99147333D01*
X109563809Y-99147333D01*
X109659047Y-99194952D01*
X109706666Y-99242571D01*
X109754285Y-99337809D01*
X149849523Y-101466380D02*
X149849523Y-100466380D01*
X149420952Y-101466380D02*
X149420952Y-100942571D01*
X149468571Y-100847333D01*
X149563809Y-100799714D01*
X149706666Y-100799714D01*
X149801904Y-100847333D01*
X149849523Y-100894952D01*
X149087619Y-100799714D02*
X148706666Y-100799714D01*
X148944761Y-100466380D02*
X148944761Y-101323523D01*
X148897142Y-101418761D01*
X148801904Y-101466380D01*
X148706666Y-101466380D01*
X148516190Y-100799714D02*
X148135238Y-100799714D01*
X148373333Y-100466380D02*
X148373333Y-101323523D01*
X148325714Y-101418761D01*
X148230476Y-101466380D01*
X148135238Y-101466380D01*
X147801904Y-100799714D02*
X147801904Y-101799714D01*
X147801904Y-100847333D02*
X147706666Y-100799714D01*
X147516190Y-100799714D01*
X147420952Y-100847333D01*
X147373333Y-100894952D01*
X147325714Y-100990190D01*
X147325714Y-101275904D01*
X147373333Y-101371142D01*
X147420952Y-101418761D01*
X147516190Y-101466380D01*
X147706666Y-101466380D01*
X147801904Y-101418761D01*
X146944761Y-101418761D02*
X146849523Y-101466380D01*
X146659047Y-101466380D01*
X146563809Y-101418761D01*
X146516190Y-101323523D01*
X146516190Y-101275904D01*
X146563809Y-101180666D01*
X146659047Y-101133047D01*
X146801904Y-101133047D01*
X146897142Y-101085428D01*
X146944761Y-100990190D01*
X146944761Y-100942571D01*
X146897142Y-100847333D01*
X146801904Y-100799714D01*
X146659047Y-100799714D01*
X146563809Y-100847333D01*
X146087619Y-101371142D02*
X146040000Y-101418761D01*
X146087619Y-101466380D01*
X146135238Y-101418761D01*
X146087619Y-101371142D01*
X146087619Y-101466380D01*
X146087619Y-100847333D02*
X146040000Y-100894952D01*
X146087619Y-100942571D01*
X146135238Y-100894952D01*
X146087619Y-100847333D01*
X146087619Y-100942571D01*
X144897142Y-100418761D02*
X145754285Y-101704476D01*
X143849523Y-100418761D02*
X144706666Y-101704476D01*
X143516190Y-101466380D02*
X143516190Y-100799714D01*
X143516190Y-100990190D02*
X143468571Y-100894952D01*
X143420952Y-100847333D01*
X143325714Y-100799714D01*
X143230476Y-100799714D01*
X142468571Y-100799714D02*
X142468571Y-101466380D01*
X142897142Y-100799714D02*
X142897142Y-101323523D01*
X142849523Y-101418761D01*
X142754285Y-101466380D01*
X142611428Y-101466380D01*
X142516190Y-101418761D01*
X142468571Y-101371142D01*
X142040000Y-101418761D02*
X141944761Y-101466380D01*
X141754285Y-101466380D01*
X141659047Y-101418761D01*
X141611428Y-101323523D01*
X141611428Y-101275904D01*
X141659047Y-101180666D01*
X141754285Y-101133047D01*
X141897142Y-101133047D01*
X141992380Y-101085428D01*
X142040000Y-100990190D01*
X142040000Y-100942571D01*
X141992380Y-100847333D01*
X141897142Y-100799714D01*
X141754285Y-100799714D01*
X141659047Y-100847333D01*
X140801904Y-101418761D02*
X140897142Y-101466380D01*
X141087619Y-101466380D01*
X141182857Y-101418761D01*
X141230476Y-101323523D01*
X141230476Y-100942571D01*
X141182857Y-100847333D01*
X141087619Y-100799714D01*
X140897142Y-100799714D01*
X140801904Y-100847333D01*
X140754285Y-100942571D01*
X140754285Y-101037809D01*
X141230476Y-101133047D01*
X140468571Y-100799714D02*
X140087619Y-100799714D01*
X140325714Y-101466380D02*
X140325714Y-100609238D01*
X140278095Y-100514000D01*
X140182857Y-100466380D01*
X140087619Y-100466380D01*
X139754285Y-101466380D02*
X139754285Y-100799714D01*
X139754285Y-100466380D02*
X139801904Y-100514000D01*
X139754285Y-100561619D01*
X139706666Y-100514000D01*
X139754285Y-100466380D01*
X139754285Y-100561619D01*
X139278095Y-101371142D02*
X139230476Y-101418761D01*
X139278095Y-101466380D01*
X139325714Y-101418761D01*
X139278095Y-101371142D01*
X139278095Y-101466380D01*
X138373333Y-101418761D02*
X138468571Y-101466380D01*
X138659047Y-101466380D01*
X138754285Y-101418761D01*
X138801904Y-101371142D01*
X138849523Y-101275904D01*
X138849523Y-100990190D01*
X138801904Y-100894952D01*
X138754285Y-100847333D01*
X138659047Y-100799714D01*
X138468571Y-100799714D01*
X138373333Y-100847333D01*
X137801904Y-101466380D02*
X137897142Y-101418761D01*
X137944761Y-101371142D01*
X137992380Y-101275904D01*
X137992380Y-100990190D01*
X137944761Y-100894952D01*
X137897142Y-100847333D01*
X137801904Y-100799714D01*
X137659047Y-100799714D01*
X137563809Y-100847333D01*
X137516190Y-100894952D01*
X137468571Y-100990190D01*
X137468571Y-101275904D01*
X137516190Y-101371142D01*
X137563809Y-101418761D01*
X137659047Y-101466380D01*
X137801904Y-101466380D01*
X137040000Y-101466380D02*
X137040000Y-100799714D01*
X137040000Y-100894952D02*
X136992380Y-100847333D01*
X136897142Y-100799714D01*
X136754285Y-100799714D01*
X136659047Y-100847333D01*
X136611428Y-100942571D01*
X136611428Y-101466380D01*
X136611428Y-100942571D02*
X136563809Y-100847333D01*
X136468571Y-100799714D01*
X136325714Y-100799714D01*
X136230476Y-100847333D01*
X136182857Y-100942571D01*
X136182857Y-101466380D01*
X134992380Y-100418761D02*
X135849523Y-101704476D01*
X134801904Y-100799714D02*
X134420952Y-100799714D01*
X134659047Y-101466380D02*
X134659047Y-100609238D01*
X134611428Y-100514000D01*
X134516190Y-100466380D01*
X134420952Y-100466380D01*
X133944761Y-101466380D02*
X134040000Y-101418761D01*
X134087619Y-101371142D01*
X134135238Y-101275904D01*
X134135238Y-100990190D01*
X134087619Y-100894952D01*
X134040000Y-100847333D01*
X133944761Y-100799714D01*
X133801904Y-100799714D01*
X133706666Y-100847333D01*
X133659047Y-100894952D01*
X133611428Y-100990190D01*
X133611428Y-101275904D01*
X133659047Y-101371142D01*
X133706666Y-101418761D01*
X133801904Y-101466380D01*
X133944761Y-101466380D01*
X133182857Y-101466380D02*
X133182857Y-100799714D01*
X133182857Y-100990190D02*
X133135238Y-100894952D01*
X133087619Y-100847333D01*
X132992380Y-100799714D01*
X132897142Y-100799714D01*
X132135238Y-100799714D02*
X132135238Y-101466380D01*
X132563809Y-100799714D02*
X132563809Y-101323523D01*
X132516190Y-101418761D01*
X132420952Y-101466380D01*
X132278095Y-101466380D01*
X132182857Y-101418761D01*
X132135238Y-101371142D01*
X131659047Y-101466380D02*
X131659047Y-100799714D01*
X131659047Y-100894952D02*
X131611428Y-100847333D01*
X131516190Y-100799714D01*
X131373333Y-100799714D01*
X131278095Y-100847333D01*
X131230476Y-100942571D01*
X131230476Y-101466380D01*
X131230476Y-100942571D02*
X131182857Y-100847333D01*
X131087619Y-100799714D01*
X130944761Y-100799714D01*
X130849523Y-100847333D01*
X130801904Y-100942571D01*
X130801904Y-101466380D01*
X129611428Y-100418761D02*
X130468571Y-101704476D01*
X129373333Y-100799714D02*
X129135238Y-101466380D01*
X128897142Y-100799714D01*
X128516190Y-101466380D02*
X128516190Y-100799714D01*
X128516190Y-100466380D02*
X128563809Y-100514000D01*
X128516190Y-100561619D01*
X128468571Y-100514000D01*
X128516190Y-100466380D01*
X128516190Y-100561619D01*
X127659047Y-101418761D02*
X127754285Y-101466380D01*
X127944761Y-101466380D01*
X128040000Y-101418761D01*
X128087619Y-101323523D01*
X128087619Y-100942571D01*
X128040000Y-100847333D01*
X127944761Y-100799714D01*
X127754285Y-100799714D01*
X127659047Y-100847333D01*
X127611428Y-100942571D01*
X127611428Y-101037809D01*
X128087619Y-101133047D01*
X127278095Y-100799714D02*
X127087619Y-101466380D01*
X126897142Y-100990190D01*
X126706666Y-101466380D01*
X126516190Y-100799714D01*
X126278095Y-100799714D02*
X125897142Y-100799714D01*
X126135238Y-100466380D02*
X126135238Y-101323523D01*
X126087619Y-101418761D01*
X125992380Y-101466380D01*
X125897142Y-101466380D01*
X125420952Y-101466380D02*
X125516190Y-101418761D01*
X125563809Y-101371142D01*
X125611428Y-101275904D01*
X125611428Y-100990190D01*
X125563809Y-100894952D01*
X125516190Y-100847333D01*
X125420952Y-100799714D01*
X125278095Y-100799714D01*
X125182857Y-100847333D01*
X125135238Y-100894952D01*
X125087619Y-100990190D01*
X125087619Y-101275904D01*
X125135238Y-101371142D01*
X125182857Y-101418761D01*
X125278095Y-101466380D01*
X125420952Y-101466380D01*
X124659047Y-100799714D02*
X124659047Y-101799714D01*
X124659047Y-100847333D02*
X124563809Y-100799714D01*
X124373333Y-100799714D01*
X124278095Y-100847333D01*
X124230476Y-100894952D01*
X124182857Y-100990190D01*
X124182857Y-101275904D01*
X124230476Y-101371142D01*
X124278095Y-101418761D01*
X124373333Y-101466380D01*
X124563809Y-101466380D01*
X124659047Y-101418761D01*
X123754285Y-101466380D02*
X123754285Y-100799714D01*
X123754285Y-100466380D02*
X123801904Y-100514000D01*
X123754285Y-100561619D01*
X123706666Y-100514000D01*
X123754285Y-100466380D01*
X123754285Y-100561619D01*
X122849523Y-101418761D02*
X122944761Y-101466380D01*
X123135238Y-101466380D01*
X123230476Y-101418761D01*
X123278095Y-101371142D01*
X123325714Y-101275904D01*
X123325714Y-100990190D01*
X123278095Y-100894952D01*
X123230476Y-100847333D01*
X123135238Y-100799714D01*
X122944761Y-100799714D01*
X122849523Y-100847333D01*
X122420952Y-101371142D02*
X122373333Y-101418761D01*
X122420952Y-101466380D01*
X122468571Y-101418761D01*
X122420952Y-101371142D01*
X122420952Y-101466380D01*
X121944761Y-100799714D02*
X121944761Y-101799714D01*
X121944761Y-100847333D02*
X121849523Y-100799714D01*
X121659047Y-100799714D01*
X121563809Y-100847333D01*
X121516190Y-100894952D01*
X121468571Y-100990190D01*
X121468571Y-101275904D01*
X121516190Y-101371142D01*
X121563809Y-101418761D01*
X121659047Y-101466380D01*
X121849523Y-101466380D01*
X121944761Y-101418761D01*
X121040000Y-101466380D02*
X121040000Y-100466380D01*
X120611428Y-101466380D02*
X120611428Y-100942571D01*
X120659047Y-100847333D01*
X120754285Y-100799714D01*
X120897142Y-100799714D01*
X120992380Y-100847333D01*
X121040000Y-100894952D01*
X120135238Y-100799714D02*
X120135238Y-101799714D01*
X120135238Y-100847333D02*
X120040000Y-100799714D01*
X119849523Y-100799714D01*
X119754285Y-100847333D01*
X119706666Y-100894952D01*
X119659047Y-100990190D01*
X119659047Y-101275904D01*
X119706666Y-101371142D01*
X119754285Y-101418761D01*
X119849523Y-101466380D01*
X120040000Y-101466380D01*
X120135238Y-101418761D01*
X119087619Y-101371142D02*
X119040000Y-101418761D01*
X119087619Y-101466380D01*
X119135238Y-101418761D01*
X119087619Y-101371142D01*
X119087619Y-101466380D01*
X119278095Y-100514000D02*
X119182857Y-100466380D01*
X118944761Y-100466380D01*
X118849523Y-100514000D01*
X118801904Y-100609238D01*
X118801904Y-100704476D01*
X118849523Y-100799714D01*
X118897142Y-100847333D01*
X118992380Y-100894952D01*
X119040000Y-100942571D01*
X119087619Y-101037809D01*
X119087619Y-101085428D01*
X118516190Y-100799714D02*
X118135238Y-100799714D01*
X118373333Y-101466380D02*
X118373333Y-100609238D01*
X118325714Y-100514000D01*
X118230476Y-100466380D01*
X118135238Y-100466380D01*
X117801904Y-100942571D02*
X117040000Y-100942571D01*
X117040000Y-101228285D02*
X117801904Y-101228285D01*
X116135238Y-100799714D02*
X116135238Y-101466380D01*
X116373333Y-100418761D02*
X116611428Y-101133047D01*
X115992380Y-101133047D01*
X114801904Y-101466380D02*
X114849523Y-101466380D01*
X114944761Y-101418761D01*
X115087619Y-101275904D01*
X115325714Y-100990190D01*
X115420952Y-100847333D01*
X115468571Y-100704476D01*
X115468571Y-100609238D01*
X115420952Y-100514000D01*
X115325714Y-100466380D01*
X115278095Y-100466380D01*
X115182857Y-100514000D01*
X115135238Y-100609238D01*
X115135238Y-100656857D01*
X115182857Y-100752095D01*
X115230476Y-100799714D01*
X115516190Y-100990190D01*
X115563809Y-101037809D01*
X115611428Y-101133047D01*
X115611428Y-101275904D01*
X115563809Y-101371142D01*
X115516190Y-101418761D01*
X115420952Y-101466380D01*
X115278095Y-101466380D01*
X115182857Y-101418761D01*
X115135238Y-101371142D01*
X114992380Y-101180666D01*
X114944761Y-101037809D01*
X114944761Y-100942571D01*
X114516190Y-100799714D02*
X114135238Y-100799714D01*
X114373333Y-100466380D02*
X114373333Y-101323523D01*
X114325714Y-101418761D01*
X114230476Y-101466380D01*
X114135238Y-101466380D01*
X113801904Y-100942571D02*
X113040000Y-100942571D01*
X113040000Y-101228285D02*
X113801904Y-101228285D01*
X112040000Y-101466380D02*
X112611428Y-101466380D01*
X112325714Y-101466380D02*
X112325714Y-100466380D01*
X112420952Y-100609238D01*
X112516190Y-100704476D01*
X112611428Y-100752095D01*
X111563809Y-101466380D02*
X111373333Y-101466380D01*
X111278095Y-101418761D01*
X111230476Y-101371142D01*
X111135238Y-101228285D01*
X111087619Y-101037809D01*
X111087619Y-100656857D01*
X111135238Y-100561619D01*
X111182857Y-100514000D01*
X111278095Y-100466380D01*
X111468571Y-100466380D01*
X111563809Y-100514000D01*
X111611428Y-100561619D01*
X111659047Y-100656857D01*
X111659047Y-100894952D01*
X111611428Y-100990190D01*
X111563809Y-101037809D01*
X111468571Y-101085428D01*
X111278095Y-101085428D01*
X111182857Y-101037809D01*
X111135238Y-100990190D01*
X111087619Y-100894952D01*
X110706666Y-100561619D02*
X110659047Y-100514000D01*
X110563809Y-100466380D01*
X110325714Y-100466380D01*
X110230476Y-100514000D01*
X110182857Y-100561619D01*
X110135238Y-100656857D01*
X110135238Y-100752095D01*
X110182857Y-100894952D01*
X110754285Y-101466380D01*
X110135238Y-101466380D01*
X109801904Y-100466380D02*
X109135238Y-100466380D01*
X109563809Y-101466380D01*
D12*
X113772142Y-79395000D02*
X113772142Y-80537857D01*
X114343571Y-79966428D02*
X113200714Y-79966428D01*
X114343571Y-82037857D02*
X114343571Y-81180714D01*
X114343571Y-81609285D02*
X112843571Y-81609285D01*
X113057857Y-81466428D01*
X113200714Y-81323571D01*
X113272142Y-81180714D01*
X112986428Y-82609285D02*
X112915000Y-82680714D01*
X112843571Y-82823571D01*
X112843571Y-83180714D01*
X112915000Y-83323571D01*
X112986428Y-83395000D01*
X113129285Y-83466428D01*
X113272142Y-83466428D01*
X113486428Y-83395000D01*
X114343571Y-82537857D01*
X114343571Y-83466428D01*
X113343571Y-83966428D02*
X114343571Y-84323571D01*
X113343571Y-84680714D01*
X142633000Y-80196428D02*
X142561571Y-80053571D01*
X142561571Y-79839285D01*
X142633000Y-79625000D01*
X142775857Y-79482142D01*
X142918714Y-79410714D01*
X143204428Y-79339285D01*
X143418714Y-79339285D01*
X143704428Y-79410714D01*
X143847285Y-79482142D01*
X143990142Y-79625000D01*
X144061571Y-79839285D01*
X144061571Y-79982142D01*
X143990142Y-80196428D01*
X143918714Y-80267857D01*
X143418714Y-80267857D01*
X143418714Y-79982142D01*
X144061571Y-80910714D02*
X142561571Y-80910714D01*
X144061571Y-81767857D01*
X142561571Y-81767857D01*
X144061571Y-82482142D02*
X142561571Y-82482142D01*
X142561571Y-82839285D01*
X142633000Y-83053571D01*
X142775857Y-83196428D01*
X142918714Y-83267857D01*
X143204428Y-83339285D01*
X143418714Y-83339285D01*
X143704428Y-83267857D01*
X143847285Y-83196428D01*
X143990142Y-83053571D01*
X144061571Y-82839285D01*
X144061571Y-82482142D01*
X137727571Y-79323571D02*
X138727571Y-79609285D01*
X138013285Y-79895000D01*
X138727571Y-80180714D01*
X137727571Y-80466428D01*
X138727571Y-81037857D02*
X137227571Y-81037857D01*
X138727571Y-81680714D02*
X137941857Y-81680714D01*
X137799000Y-81609285D01*
X137727571Y-81466428D01*
X137727571Y-81252142D01*
X137799000Y-81109285D01*
X137870428Y-81037857D01*
X138727571Y-82395000D02*
X137727571Y-82395000D01*
X137227571Y-82395000D02*
X137299000Y-82323571D01*
X137370428Y-82395000D01*
X137299000Y-82466428D01*
X137227571Y-82395000D01*
X137370428Y-82395000D01*
X137727571Y-82895000D02*
X137727571Y-83466428D01*
X137227571Y-83109285D02*
X138513285Y-83109285D01*
X138656142Y-83180714D01*
X138727571Y-83323571D01*
X138727571Y-83466428D01*
X138656142Y-84537857D02*
X138727571Y-84395000D01*
X138727571Y-84109285D01*
X138656142Y-83966428D01*
X138513285Y-83895000D01*
X137941857Y-83895000D01*
X137799000Y-83966428D01*
X137727571Y-84109285D01*
X137727571Y-84395000D01*
X137799000Y-84537857D01*
X137941857Y-84609285D01*
X138084714Y-84609285D01*
X138227571Y-83895000D01*
X135298571Y-79521714D02*
X134298571Y-79521714D01*
X134584285Y-79521714D02*
X134441428Y-79593142D01*
X134370000Y-79664571D01*
X134298571Y-79807428D01*
X134298571Y-79950285D01*
X135227142Y-81021714D02*
X135298571Y-80878857D01*
X135298571Y-80593142D01*
X135227142Y-80450285D01*
X135084285Y-80378857D01*
X134512857Y-80378857D01*
X134370000Y-80450285D01*
X134298571Y-80593142D01*
X134298571Y-80878857D01*
X134370000Y-81021714D01*
X134512857Y-81093142D01*
X134655714Y-81093142D01*
X134798571Y-80378857D01*
X135298571Y-82378857D02*
X133798571Y-82378857D01*
X135227142Y-82378857D02*
X135298571Y-82236000D01*
X135298571Y-81950285D01*
X135227142Y-81807428D01*
X135155714Y-81736000D01*
X135012857Y-81664571D01*
X134584285Y-81664571D01*
X134441428Y-81736000D01*
X134370000Y-81807428D01*
X134298571Y-81950285D01*
X134298571Y-82236000D01*
X134370000Y-82378857D01*
X130488571Y-79323714D02*
X131488571Y-79680857D01*
X130488571Y-80038000D02*
X131488571Y-79680857D01*
X131845714Y-79538000D01*
X131917142Y-79466571D01*
X131988571Y-79323714D01*
X131417142Y-81180857D02*
X131488571Y-81038000D01*
X131488571Y-80752285D01*
X131417142Y-80609428D01*
X131274285Y-80538000D01*
X130702857Y-80538000D01*
X130560000Y-80609428D01*
X130488571Y-80752285D01*
X130488571Y-81038000D01*
X130560000Y-81180857D01*
X130702857Y-81252285D01*
X130845714Y-81252285D01*
X130988571Y-80538000D01*
X131488571Y-82109428D02*
X131417142Y-81966571D01*
X131274285Y-81895142D01*
X129988571Y-81895142D01*
X131488571Y-82895142D02*
X131417142Y-82752285D01*
X131274285Y-82680857D01*
X129988571Y-82680857D01*
X131488571Y-83680857D02*
X131417142Y-83538000D01*
X131345714Y-83466571D01*
X131202857Y-83395142D01*
X130774285Y-83395142D01*
X130631428Y-83466571D01*
X130560000Y-83538000D01*
X130488571Y-83680857D01*
X130488571Y-83895142D01*
X130560000Y-84038000D01*
X130631428Y-84109428D01*
X130774285Y-84180857D01*
X131202857Y-84180857D01*
X131345714Y-84109428D01*
X131417142Y-84038000D01*
X131488571Y-83895142D01*
X131488571Y-83680857D01*
X130488571Y-84680857D02*
X131488571Y-84966571D01*
X130774285Y-85252285D01*
X131488571Y-85538000D01*
X130488571Y-85823714D01*
X127059571Y-80061714D02*
X128273857Y-80061714D01*
X128416714Y-79990285D01*
X128488142Y-79918857D01*
X128559571Y-79776000D01*
X128559571Y-79561714D01*
X128488142Y-79418857D01*
X127988142Y-80061714D02*
X128059571Y-79918857D01*
X128059571Y-79633142D01*
X127988142Y-79490285D01*
X127916714Y-79418857D01*
X127773857Y-79347428D01*
X127345285Y-79347428D01*
X127202428Y-79418857D01*
X127131000Y-79490285D01*
X127059571Y-79633142D01*
X127059571Y-79918857D01*
X127131000Y-80061714D01*
X128059571Y-80776000D02*
X127059571Y-80776000D01*
X127345285Y-80776000D02*
X127202428Y-80847428D01*
X127131000Y-80918857D01*
X127059571Y-81061714D01*
X127059571Y-81204571D01*
X127988142Y-82276000D02*
X128059571Y-82133142D01*
X128059571Y-81847428D01*
X127988142Y-81704571D01*
X127845285Y-81633142D01*
X127273857Y-81633142D01*
X127131000Y-81704571D01*
X127059571Y-81847428D01*
X127059571Y-82133142D01*
X127131000Y-82276000D01*
X127273857Y-82347428D01*
X127416714Y-82347428D01*
X127559571Y-81633142D01*
X127988142Y-83561714D02*
X128059571Y-83418857D01*
X128059571Y-83133142D01*
X127988142Y-82990285D01*
X127845285Y-82918857D01*
X127273857Y-82918857D01*
X127131000Y-82990285D01*
X127059571Y-83133142D01*
X127059571Y-83418857D01*
X127131000Y-83561714D01*
X127273857Y-83633142D01*
X127416714Y-83633142D01*
X127559571Y-82918857D01*
X127059571Y-84276000D02*
X128059571Y-84276000D01*
X127202428Y-84276000D02*
X127131000Y-84347428D01*
X127059571Y-84490285D01*
X127059571Y-84704571D01*
X127131000Y-84847428D01*
X127273857Y-84918857D01*
X128059571Y-84918857D01*
X116518571Y-80303857D02*
X117732857Y-80303857D01*
X117875714Y-80232428D01*
X117947142Y-80161000D01*
X118018571Y-80018142D01*
X118018571Y-79803857D01*
X117947142Y-79661000D01*
X117447142Y-80303857D02*
X117518571Y-80161000D01*
X117518571Y-79875285D01*
X117447142Y-79732428D01*
X117375714Y-79661000D01*
X117232857Y-79589571D01*
X116804285Y-79589571D01*
X116661428Y-79661000D01*
X116590000Y-79732428D01*
X116518571Y-79875285D01*
X116518571Y-80161000D01*
X116590000Y-80303857D01*
X117518571Y-81018142D02*
X116518571Y-81018142D01*
X116804285Y-81018142D02*
X116661428Y-81089571D01*
X116590000Y-81161000D01*
X116518571Y-81303857D01*
X116518571Y-81446714D01*
X117447142Y-82518142D02*
X117518571Y-82375285D01*
X117518571Y-82089571D01*
X117447142Y-81946714D01*
X117304285Y-81875285D01*
X116732857Y-81875285D01*
X116590000Y-81946714D01*
X116518571Y-82089571D01*
X116518571Y-82375285D01*
X116590000Y-82518142D01*
X116732857Y-82589571D01*
X116875714Y-82589571D01*
X117018571Y-81875285D01*
X116518571Y-83089571D02*
X117518571Y-83446714D01*
X116518571Y-83803857D02*
X117518571Y-83446714D01*
X117875714Y-83303857D01*
X117947142Y-83232428D01*
X118018571Y-83089571D01*
X124757571Y-79506142D02*
X123257571Y-79506142D01*
X123829000Y-79506142D02*
X123757571Y-79649000D01*
X123757571Y-79934714D01*
X123829000Y-80077571D01*
X123900428Y-80149000D01*
X124043285Y-80220428D01*
X124471857Y-80220428D01*
X124614714Y-80149000D01*
X124686142Y-80077571D01*
X124757571Y-79934714D01*
X124757571Y-79649000D01*
X124686142Y-79506142D01*
X124757571Y-81077571D02*
X124686142Y-80934714D01*
X124543285Y-80863285D01*
X123257571Y-80863285D01*
X124757571Y-82291857D02*
X123971857Y-82291857D01*
X123829000Y-82220428D01*
X123757571Y-82077571D01*
X123757571Y-81791857D01*
X123829000Y-81649000D01*
X124686142Y-82291857D02*
X124757571Y-82149000D01*
X124757571Y-81791857D01*
X124686142Y-81649000D01*
X124543285Y-81577571D01*
X124400428Y-81577571D01*
X124257571Y-81649000D01*
X124186142Y-81791857D01*
X124186142Y-82149000D01*
X124114714Y-82291857D01*
X124686142Y-83649000D02*
X124757571Y-83506142D01*
X124757571Y-83220428D01*
X124686142Y-83077571D01*
X124614714Y-83006142D01*
X124471857Y-82934714D01*
X124043285Y-82934714D01*
X123900428Y-83006142D01*
X123829000Y-83077571D01*
X123757571Y-83220428D01*
X123757571Y-83506142D01*
X123829000Y-83649000D01*
X124757571Y-84291857D02*
X123257571Y-84291857D01*
X124186142Y-84434714D02*
X124757571Y-84863285D01*
X123757571Y-84863285D02*
X124329000Y-84291857D01*
%LPC*%
D15*
%TO.C,J5*%
X156690000Y-101280000D03*
X156690000Y-98740000D03*
X156690000Y-96200000D03*
X156690000Y-93660000D03*
X156690000Y-91120000D03*
X156690000Y-88580000D03*
X156690000Y-86040000D03*
D16*
X156690000Y-83500000D03*
%TD*%
D15*
%TO.C,J4*%
X131290000Y-101280000D03*
X131290000Y-98740000D03*
X131290000Y-96200000D03*
X131290000Y-93660000D03*
X131290000Y-91120000D03*
X131290000Y-88580000D03*
X131290000Y-86040000D03*
D16*
X131290000Y-83500000D03*
%TD*%
D17*
%TO.C,J3*%
X145290000Y-77212000D03*
X141790000Y-77212000D03*
X138290000Y-77212000D03*
X134790000Y-77212000D03*
X131290000Y-77212000D03*
X127790000Y-77212000D03*
X124290000Y-77212000D03*
X120790000Y-77212000D03*
X117290000Y-77212000D03*
X113790000Y-77212000D03*
X145290000Y-73712000D03*
X141790000Y-73712000D03*
X138290000Y-73712000D03*
X134790000Y-73712000D03*
X131290000Y-73712000D03*
X127790000Y-73712000D03*
X124290000Y-73712000D03*
X120790000Y-73712000D03*
X117290000Y-73712000D03*
X113790000Y-73712000D03*
D18*
X152290000Y-74752000D03*
X106790000Y-74752000D03*
%TD*%
D15*
%TO.C,J2*%
X127790000Y-101280000D03*
X127790000Y-98740000D03*
X127790000Y-96200000D03*
X127790000Y-93660000D03*
X127790000Y-91120000D03*
X127790000Y-88580000D03*
X127790000Y-86040000D03*
D16*
X127790000Y-83500000D03*
%TD*%
D15*
%TO.C,J1*%
X102560000Y-101280000D03*
X102560000Y-98740000D03*
X102560000Y-96200000D03*
X102560000Y-93660000D03*
X102560000Y-91120000D03*
X102560000Y-88580000D03*
X102560000Y-86040000D03*
D16*
X102560000Y-83500000D03*
%TD*%
M02*
