%TF.GenerationSoftware,KiCad,Pcbnew,(5.1.9)-1*%
%TF.CreationDate,2021-01-28T21:00:47-06:00*%
%TF.ProjectId,dual_board_carrier,6475616c-5f62-46f6-9172-645f63617272,rev?*%
%TF.SameCoordinates,Original*%
%TF.FileFunction,Copper,L2,Bot*%
%TF.FilePolarity,Positive*%
%FSLAX46Y46*%
G04 Gerber Fmt 4.6, Leading zero omitted, Abs format (unit mm)*
G04 Created by KiCad (PCBNEW (5.1.9)-1) date 2021-01-28 21:00:47*
%MOMM*%
%LPD*%
G01*
G04 APERTURE LIST*
%ADD10C,0.100000*%
%ADD11C,0.150000*%
%ADD12C,0.300000*%
%ADD13C,0.400000*%
%TA.AperFunction,ComponentPad*%
%ADD14O,1.700000X1.700000*%
%TD*%
%TA.AperFunction,ComponentPad*%
%ADD15R,1.700000X1.700000*%
%TD*%
%TA.AperFunction,ComponentPad*%
%ADD16C,2.200000*%
%TD*%
%TA.AperFunction,ViaPad*%
%ADD17C,0.800000*%
%TD*%
%TA.AperFunction,Conductor*%
%ADD18C,1.000000*%
%TD*%
%TA.AperFunction,Conductor*%
%ADD19C,0.800000*%
%TD*%
%TA.AperFunction,Conductor*%
%ADD20C,0.250000*%
%TD*%
%TA.AperFunction,Conductor*%
%ADD21C,0.254000*%
%TD*%
%TA.AperFunction,Conductor*%
%ADD22C,0.100000*%
%TD*%
G04 APERTURE END LIST*
D10*
D11*
X177002200Y-166007200D02*
X177002200Y-198007200D01*
X285002200Y-198007200D01*
X285002200Y-166007200D01*
X177002200Y-166007200D01*
D10*
D11*
X10000000Y-10000000D02*
X10000000Y-200007200D01*
X287002200Y-200007200D01*
X287002200Y-10000000D01*
X10000000Y-10000000D01*
D10*
D11*
X12000000Y-12000000D02*
X12000000Y-198007200D01*
X285002200Y-198007200D01*
X285002200Y-12000000D01*
X12000000Y-12000000D01*
D10*
D11*
X60000000Y-12000000D02*
X60000000Y-10000000D01*
D10*
D11*
X110000000Y-12000000D02*
X110000000Y-10000000D01*
D10*
D11*
X160000000Y-12000000D02*
X160000000Y-10000000D01*
D10*
D11*
X210000000Y-12000000D02*
X210000000Y-10000000D01*
D10*
D11*
X260000000Y-12000000D02*
X260000000Y-10000000D01*
D10*
D11*
X36065476Y-11588095D02*
X35322619Y-11588095D01*
X35694047Y-11588095D02*
X35694047Y-10288095D01*
X35570238Y-10473809D01*
X35446428Y-10597619D01*
X35322619Y-10659523D01*
D10*
D11*
X85322619Y-10411904D02*
X85384523Y-10350000D01*
X85508333Y-10288095D01*
X85817857Y-10288095D01*
X85941666Y-10350000D01*
X86003571Y-10411904D01*
X86065476Y-10535714D01*
X86065476Y-10659523D01*
X86003571Y-10845238D01*
X85260714Y-11588095D01*
X86065476Y-11588095D01*
D10*
D11*
X135260714Y-10288095D02*
X136065476Y-10288095D01*
X135632142Y-10783333D01*
X135817857Y-10783333D01*
X135941666Y-10845238D01*
X136003571Y-10907142D01*
X136065476Y-11030952D01*
X136065476Y-11340476D01*
X136003571Y-11464285D01*
X135941666Y-11526190D01*
X135817857Y-11588095D01*
X135446428Y-11588095D01*
X135322619Y-11526190D01*
X135260714Y-11464285D01*
D10*
D11*
X185941666Y-10721428D02*
X185941666Y-11588095D01*
X185632142Y-10226190D02*
X185322619Y-11154761D01*
X186127380Y-11154761D01*
D10*
D11*
X236003571Y-10288095D02*
X235384523Y-10288095D01*
X235322619Y-10907142D01*
X235384523Y-10845238D01*
X235508333Y-10783333D01*
X235817857Y-10783333D01*
X235941666Y-10845238D01*
X236003571Y-10907142D01*
X236065476Y-11030952D01*
X236065476Y-11340476D01*
X236003571Y-11464285D01*
X235941666Y-11526190D01*
X235817857Y-11588095D01*
X235508333Y-11588095D01*
X235384523Y-11526190D01*
X235322619Y-11464285D01*
D10*
D11*
X285941666Y-10288095D02*
X285694047Y-10288095D01*
X285570238Y-10350000D01*
X285508333Y-10411904D01*
X285384523Y-10597619D01*
X285322619Y-10845238D01*
X285322619Y-11340476D01*
X285384523Y-11464285D01*
X285446428Y-11526190D01*
X285570238Y-11588095D01*
X285817857Y-11588095D01*
X285941666Y-11526190D01*
X286003571Y-11464285D01*
X286065476Y-11340476D01*
X286065476Y-11030952D01*
X286003571Y-10907142D01*
X285941666Y-10845238D01*
X285817857Y-10783333D01*
X285570238Y-10783333D01*
X285446428Y-10845238D01*
X285384523Y-10907142D01*
X285322619Y-11030952D01*
D10*
D11*
X60000000Y-198007200D02*
X60000000Y-200007200D01*
D10*
D11*
X110000000Y-198007200D02*
X110000000Y-200007200D01*
D10*
D11*
X160000000Y-198007200D02*
X160000000Y-200007200D01*
D10*
D11*
X210000000Y-198007200D02*
X210000000Y-200007200D01*
D10*
D11*
X260000000Y-198007200D02*
X260000000Y-200007200D01*
D10*
D11*
X36065476Y-199595295D02*
X35322619Y-199595295D01*
X35694047Y-199595295D02*
X35694047Y-198295295D01*
X35570238Y-198481009D01*
X35446428Y-198604819D01*
X35322619Y-198666723D01*
D10*
D11*
X85322619Y-198419104D02*
X85384523Y-198357200D01*
X85508333Y-198295295D01*
X85817857Y-198295295D01*
X85941666Y-198357200D01*
X86003571Y-198419104D01*
X86065476Y-198542914D01*
X86065476Y-198666723D01*
X86003571Y-198852438D01*
X85260714Y-199595295D01*
X86065476Y-199595295D01*
D10*
D11*
X135260714Y-198295295D02*
X136065476Y-198295295D01*
X135632142Y-198790533D01*
X135817857Y-198790533D01*
X135941666Y-198852438D01*
X136003571Y-198914342D01*
X136065476Y-199038152D01*
X136065476Y-199347676D01*
X136003571Y-199471485D01*
X135941666Y-199533390D01*
X135817857Y-199595295D01*
X135446428Y-199595295D01*
X135322619Y-199533390D01*
X135260714Y-199471485D01*
D10*
D11*
X185941666Y-198728628D02*
X185941666Y-199595295D01*
X185632142Y-198233390D02*
X185322619Y-199161961D01*
X186127380Y-199161961D01*
D10*
D11*
X236003571Y-198295295D02*
X235384523Y-198295295D01*
X235322619Y-198914342D01*
X235384523Y-198852438D01*
X235508333Y-198790533D01*
X235817857Y-198790533D01*
X235941666Y-198852438D01*
X236003571Y-198914342D01*
X236065476Y-199038152D01*
X236065476Y-199347676D01*
X236003571Y-199471485D01*
X235941666Y-199533390D01*
X235817857Y-199595295D01*
X235508333Y-199595295D01*
X235384523Y-199533390D01*
X235322619Y-199471485D01*
D10*
D11*
X285941666Y-198295295D02*
X285694047Y-198295295D01*
X285570238Y-198357200D01*
X285508333Y-198419104D01*
X285384523Y-198604819D01*
X285322619Y-198852438D01*
X285322619Y-199347676D01*
X285384523Y-199471485D01*
X285446428Y-199533390D01*
X285570238Y-199595295D01*
X285817857Y-199595295D01*
X285941666Y-199533390D01*
X286003571Y-199471485D01*
X286065476Y-199347676D01*
X286065476Y-199038152D01*
X286003571Y-198914342D01*
X285941666Y-198852438D01*
X285817857Y-198790533D01*
X285570238Y-198790533D01*
X285446428Y-198852438D01*
X285384523Y-198914342D01*
X285322619Y-199038152D01*
D10*
D11*
X10000000Y-60000000D02*
X12000000Y-60000000D01*
D10*
D11*
X10000000Y-110000000D02*
X12000000Y-110000000D01*
D10*
D11*
X10000000Y-160000000D02*
X12000000Y-160000000D01*
D10*
D11*
X10690476Y-35216666D02*
X11309523Y-35216666D01*
X10566666Y-35588095D02*
X11000000Y-34288095D01*
X11433333Y-35588095D01*
D10*
D11*
X11092857Y-84907142D02*
X11278571Y-84969047D01*
X11340476Y-85030952D01*
X11402380Y-85154761D01*
X11402380Y-85340476D01*
X11340476Y-85464285D01*
X11278571Y-85526190D01*
X11154761Y-85588095D01*
X10659523Y-85588095D01*
X10659523Y-84288095D01*
X11092857Y-84288095D01*
X11216666Y-84350000D01*
X11278571Y-84411904D01*
X11340476Y-84535714D01*
X11340476Y-84659523D01*
X11278571Y-84783333D01*
X11216666Y-84845238D01*
X11092857Y-84907142D01*
X10659523Y-84907142D01*
D10*
D11*
X11402380Y-135464285D02*
X11340476Y-135526190D01*
X11154761Y-135588095D01*
X11030952Y-135588095D01*
X10845238Y-135526190D01*
X10721428Y-135402380D01*
X10659523Y-135278571D01*
X10597619Y-135030952D01*
X10597619Y-134845238D01*
X10659523Y-134597619D01*
X10721428Y-134473809D01*
X10845238Y-134350000D01*
X11030952Y-134288095D01*
X11154761Y-134288095D01*
X11340476Y-134350000D01*
X11402380Y-134411904D01*
D10*
D11*
X10659523Y-185588095D02*
X10659523Y-184288095D01*
X10969047Y-184288095D01*
X11154761Y-184350000D01*
X11278571Y-184473809D01*
X11340476Y-184597619D01*
X11402380Y-184845238D01*
X11402380Y-185030952D01*
X11340476Y-185278571D01*
X11278571Y-185402380D01*
X11154761Y-185526190D01*
X10969047Y-185588095D01*
X10659523Y-185588095D01*
D10*
D11*
X287002200Y-60000000D02*
X285002200Y-60000000D01*
D10*
D11*
X287002200Y-110000000D02*
X285002200Y-110000000D01*
D10*
D11*
X287002200Y-160000000D02*
X285002200Y-160000000D01*
D10*
D11*
X285692676Y-35216666D02*
X286311723Y-35216666D01*
X285568866Y-35588095D02*
X286002200Y-34288095D01*
X286435533Y-35588095D01*
D10*
D11*
X286095057Y-84907142D02*
X286280771Y-84969047D01*
X286342676Y-85030952D01*
X286404580Y-85154761D01*
X286404580Y-85340476D01*
X286342676Y-85464285D01*
X286280771Y-85526190D01*
X286156961Y-85588095D01*
X285661723Y-85588095D01*
X285661723Y-84288095D01*
X286095057Y-84288095D01*
X286218866Y-84350000D01*
X286280771Y-84411904D01*
X286342676Y-84535714D01*
X286342676Y-84659523D01*
X286280771Y-84783333D01*
X286218866Y-84845238D01*
X286095057Y-84907142D01*
X285661723Y-84907142D01*
D10*
D11*
X286404580Y-135464285D02*
X286342676Y-135526190D01*
X286156961Y-135588095D01*
X286033152Y-135588095D01*
X285847438Y-135526190D01*
X285723628Y-135402380D01*
X285661723Y-135278571D01*
X285599819Y-135030952D01*
X285599819Y-134845238D01*
X285661723Y-134597619D01*
X285723628Y-134473809D01*
X285847438Y-134350000D01*
X286033152Y-134288095D01*
X286156961Y-134288095D01*
X286342676Y-134350000D01*
X286404580Y-134411904D01*
D10*
D11*
X285661723Y-185588095D02*
X285661723Y-184288095D01*
X285971247Y-184288095D01*
X286156961Y-184350000D01*
X286280771Y-184473809D01*
X286342676Y-184597619D01*
X286404580Y-184845238D01*
X286404580Y-185030952D01*
X286342676Y-185278571D01*
X286280771Y-185402380D01*
X286156961Y-185526190D01*
X285971247Y-185588095D01*
X285661723Y-185588095D01*
D10*
D11*
X200434342Y-193785771D02*
X200434342Y-192285771D01*
X200791485Y-192285771D01*
X201005771Y-192357200D01*
X201148628Y-192500057D01*
X201220057Y-192642914D01*
X201291485Y-192928628D01*
X201291485Y-193142914D01*
X201220057Y-193428628D01*
X201148628Y-193571485D01*
X201005771Y-193714342D01*
X200791485Y-193785771D01*
X200434342Y-193785771D01*
X202577200Y-193785771D02*
X202577200Y-193000057D01*
X202505771Y-192857200D01*
X202362914Y-192785771D01*
X202077200Y-192785771D01*
X201934342Y-192857200D01*
X202577200Y-193714342D02*
X202434342Y-193785771D01*
X202077200Y-193785771D01*
X201934342Y-193714342D01*
X201862914Y-193571485D01*
X201862914Y-193428628D01*
X201934342Y-193285771D01*
X202077200Y-193214342D01*
X202434342Y-193214342D01*
X202577200Y-193142914D01*
X203077200Y-192785771D02*
X203648628Y-192785771D01*
X203291485Y-192285771D02*
X203291485Y-193571485D01*
X203362914Y-193714342D01*
X203505771Y-193785771D01*
X203648628Y-193785771D01*
X204720057Y-193714342D02*
X204577200Y-193785771D01*
X204291485Y-193785771D01*
X204148628Y-193714342D01*
X204077200Y-193571485D01*
X204077200Y-193000057D01*
X204148628Y-192857200D01*
X204291485Y-192785771D01*
X204577200Y-192785771D01*
X204720057Y-192857200D01*
X204791485Y-193000057D01*
X204791485Y-193142914D01*
X204077200Y-193285771D01*
X205434342Y-193642914D02*
X205505771Y-193714342D01*
X205434342Y-193785771D01*
X205362914Y-193714342D01*
X205434342Y-193642914D01*
X205434342Y-193785771D01*
X205434342Y-192857200D02*
X205505771Y-192928628D01*
X205434342Y-193000057D01*
X205362914Y-192928628D01*
X205434342Y-192857200D01*
X205434342Y-193000057D01*
D10*
D11*
X177002200Y-194507200D02*
X285002200Y-194507200D01*
D10*
D11*
X178434342Y-196585771D02*
X178434342Y-195085771D01*
X179291485Y-196585771D02*
X178648628Y-195728628D01*
X179291485Y-195085771D02*
X178434342Y-195942914D01*
X179934342Y-196585771D02*
X179934342Y-195585771D01*
X179934342Y-195085771D02*
X179862914Y-195157200D01*
X179934342Y-195228628D01*
X180005771Y-195157200D01*
X179934342Y-195085771D01*
X179934342Y-195228628D01*
X181505771Y-196442914D02*
X181434342Y-196514342D01*
X181220057Y-196585771D01*
X181077200Y-196585771D01*
X180862914Y-196514342D01*
X180720057Y-196371485D01*
X180648628Y-196228628D01*
X180577200Y-195942914D01*
X180577200Y-195728628D01*
X180648628Y-195442914D01*
X180720057Y-195300057D01*
X180862914Y-195157200D01*
X181077200Y-195085771D01*
X181220057Y-195085771D01*
X181434342Y-195157200D01*
X181505771Y-195228628D01*
X182791485Y-196585771D02*
X182791485Y-195800057D01*
X182720057Y-195657200D01*
X182577200Y-195585771D01*
X182291485Y-195585771D01*
X182148628Y-195657200D01*
X182791485Y-196514342D02*
X182648628Y-196585771D01*
X182291485Y-196585771D01*
X182148628Y-196514342D01*
X182077200Y-196371485D01*
X182077200Y-196228628D01*
X182148628Y-196085771D01*
X182291485Y-196014342D01*
X182648628Y-196014342D01*
X182791485Y-195942914D01*
X184148628Y-196585771D02*
X184148628Y-195085771D01*
X184148628Y-196514342D02*
X184005771Y-196585771D01*
X183720057Y-196585771D01*
X183577200Y-196514342D01*
X183505771Y-196442914D01*
X183434342Y-196300057D01*
X183434342Y-195871485D01*
X183505771Y-195728628D01*
X183577200Y-195657200D01*
X183720057Y-195585771D01*
X184005771Y-195585771D01*
X184148628Y-195657200D01*
X186005771Y-195800057D02*
X186505771Y-195800057D01*
X186720057Y-196585771D02*
X186005771Y-196585771D01*
X186005771Y-195085771D01*
X186720057Y-195085771D01*
X187362914Y-196442914D02*
X187434342Y-196514342D01*
X187362914Y-196585771D01*
X187291485Y-196514342D01*
X187362914Y-196442914D01*
X187362914Y-196585771D01*
X188077200Y-196585771D02*
X188077200Y-195085771D01*
X188434342Y-195085771D01*
X188648628Y-195157200D01*
X188791485Y-195300057D01*
X188862914Y-195442914D01*
X188934342Y-195728628D01*
X188934342Y-195942914D01*
X188862914Y-196228628D01*
X188791485Y-196371485D01*
X188648628Y-196514342D01*
X188434342Y-196585771D01*
X188077200Y-196585771D01*
X189577200Y-196442914D02*
X189648628Y-196514342D01*
X189577200Y-196585771D01*
X189505771Y-196514342D01*
X189577200Y-196442914D01*
X189577200Y-196585771D01*
X190220057Y-196157200D02*
X190934342Y-196157200D01*
X190077200Y-196585771D02*
X190577200Y-195085771D01*
X191077200Y-196585771D01*
X191577200Y-196442914D02*
X191648628Y-196514342D01*
X191577200Y-196585771D01*
X191505771Y-196514342D01*
X191577200Y-196442914D01*
X191577200Y-196585771D01*
X194577200Y-196585771D02*
X194577200Y-195085771D01*
X194720057Y-196014342D02*
X195148628Y-196585771D01*
X195148628Y-195585771D02*
X194577200Y-196157200D01*
X195791485Y-196585771D02*
X195791485Y-195585771D01*
X195791485Y-195085771D02*
X195720057Y-195157200D01*
X195791485Y-195228628D01*
X195862914Y-195157200D01*
X195791485Y-195085771D01*
X195791485Y-195228628D01*
X197148628Y-196514342D02*
X197005771Y-196585771D01*
X196720057Y-196585771D01*
X196577200Y-196514342D01*
X196505771Y-196442914D01*
X196434342Y-196300057D01*
X196434342Y-195871485D01*
X196505771Y-195728628D01*
X196577200Y-195657200D01*
X196720057Y-195585771D01*
X197005771Y-195585771D01*
X197148628Y-195657200D01*
X198434342Y-196585771D02*
X198434342Y-195800057D01*
X198362914Y-195657200D01*
X198220057Y-195585771D01*
X197934342Y-195585771D01*
X197791485Y-195657200D01*
X198434342Y-196514342D02*
X198291485Y-196585771D01*
X197934342Y-196585771D01*
X197791485Y-196514342D01*
X197720057Y-196371485D01*
X197720057Y-196228628D01*
X197791485Y-196085771D01*
X197934342Y-196014342D01*
X198291485Y-196014342D01*
X198434342Y-195942914D01*
X199791485Y-196585771D02*
X199791485Y-195085771D01*
X199791485Y-196514342D02*
X199648628Y-196585771D01*
X199362914Y-196585771D01*
X199220057Y-196514342D01*
X199148628Y-196442914D01*
X199077200Y-196300057D01*
X199077200Y-195871485D01*
X199148628Y-195728628D01*
X199220057Y-195657200D01*
X199362914Y-195585771D01*
X199648628Y-195585771D01*
X199791485Y-195657200D01*
X202077200Y-197157200D02*
X202005771Y-197085771D01*
X201862914Y-196871485D01*
X201791485Y-196728628D01*
X201720057Y-196514342D01*
X201648628Y-196157200D01*
X201648628Y-195871485D01*
X201720057Y-195514342D01*
X201791485Y-195300057D01*
X201862914Y-195157200D01*
X202005771Y-194942914D01*
X202077200Y-194871485D01*
X203362914Y-195085771D02*
X202648628Y-195085771D01*
X202577200Y-195800057D01*
X202648628Y-195728628D01*
X202791485Y-195657200D01*
X203148628Y-195657200D01*
X203291485Y-195728628D01*
X203362914Y-195800057D01*
X203434342Y-195942914D01*
X203434342Y-196300057D01*
X203362914Y-196442914D01*
X203291485Y-196514342D01*
X203148628Y-196585771D01*
X202791485Y-196585771D01*
X202648628Y-196514342D01*
X202577200Y-196442914D01*
X204077200Y-196442914D02*
X204148628Y-196514342D01*
X204077200Y-196585771D01*
X204005771Y-196514342D01*
X204077200Y-196442914D01*
X204077200Y-196585771D01*
X205577200Y-196585771D02*
X204720057Y-196585771D01*
X205148628Y-196585771D02*
X205148628Y-195085771D01*
X205005771Y-195300057D01*
X204862914Y-195442914D01*
X204720057Y-195514342D01*
X206220057Y-196442914D02*
X206291485Y-196514342D01*
X206220057Y-196585771D01*
X206148628Y-196514342D01*
X206220057Y-196442914D01*
X206220057Y-196585771D01*
X207005771Y-196585771D02*
X207291485Y-196585771D01*
X207434342Y-196514342D01*
X207505771Y-196442914D01*
X207648628Y-196228628D01*
X207720057Y-195942914D01*
X207720057Y-195371485D01*
X207648628Y-195228628D01*
X207577200Y-195157200D01*
X207434342Y-195085771D01*
X207148628Y-195085771D01*
X207005771Y-195157200D01*
X206934342Y-195228628D01*
X206862914Y-195371485D01*
X206862914Y-195728628D01*
X206934342Y-195871485D01*
X207005771Y-195942914D01*
X207148628Y-196014342D01*
X207434342Y-196014342D01*
X207577200Y-195942914D01*
X207648628Y-195871485D01*
X207720057Y-195728628D01*
X208220057Y-197157200D02*
X208291485Y-197085771D01*
X208434342Y-196871485D01*
X208505771Y-196728628D01*
X208577200Y-196514342D01*
X208648628Y-196157200D01*
X208648628Y-195871485D01*
X208577200Y-195514342D01*
X208505771Y-195300057D01*
X208434342Y-195157200D01*
X208291485Y-194942914D01*
X208220057Y-194871485D01*
X209362914Y-196014342D02*
X210505771Y-196014342D01*
X212005771Y-196585771D02*
X211148628Y-196585771D01*
X211577200Y-196585771D02*
X211577200Y-195085771D01*
X211434342Y-195300057D01*
X211291485Y-195442914D01*
X211148628Y-195514342D01*
D10*
D11*
X177002200Y-191507200D02*
X285002200Y-191507200D01*
D10*
D12*
X264411485Y-193785771D02*
X263911485Y-193071485D01*
X263554342Y-193785771D02*
X263554342Y-192285771D01*
X264125771Y-192285771D01*
X264268628Y-192357200D01*
X264340057Y-192428628D01*
X264411485Y-192571485D01*
X264411485Y-192785771D01*
X264340057Y-192928628D01*
X264268628Y-193000057D01*
X264125771Y-193071485D01*
X263554342Y-193071485D01*
X265625771Y-193714342D02*
X265482914Y-193785771D01*
X265197200Y-193785771D01*
X265054342Y-193714342D01*
X264982914Y-193571485D01*
X264982914Y-193000057D01*
X265054342Y-192857200D01*
X265197200Y-192785771D01*
X265482914Y-192785771D01*
X265625771Y-192857200D01*
X265697200Y-193000057D01*
X265697200Y-193142914D01*
X264982914Y-193285771D01*
X266197200Y-192785771D02*
X266554342Y-193785771D01*
X266911485Y-192785771D01*
X267482914Y-193642914D02*
X267554342Y-193714342D01*
X267482914Y-193785771D01*
X267411485Y-193714342D01*
X267482914Y-193642914D01*
X267482914Y-193785771D01*
X267482914Y-192857200D02*
X267554342Y-192928628D01*
X267482914Y-193000057D01*
X267411485Y-192928628D01*
X267482914Y-192857200D01*
X267482914Y-193000057D01*
D10*
D11*
X178362914Y-193714342D02*
X178577200Y-193785771D01*
X178934342Y-193785771D01*
X179077200Y-193714342D01*
X179148628Y-193642914D01*
X179220057Y-193500057D01*
X179220057Y-193357200D01*
X179148628Y-193214342D01*
X179077200Y-193142914D01*
X178934342Y-193071485D01*
X178648628Y-193000057D01*
X178505771Y-192928628D01*
X178434342Y-192857200D01*
X178362914Y-192714342D01*
X178362914Y-192571485D01*
X178434342Y-192428628D01*
X178505771Y-192357200D01*
X178648628Y-192285771D01*
X179005771Y-192285771D01*
X179220057Y-192357200D01*
X179862914Y-193785771D02*
X179862914Y-192785771D01*
X179862914Y-192285771D02*
X179791485Y-192357200D01*
X179862914Y-192428628D01*
X179934342Y-192357200D01*
X179862914Y-192285771D01*
X179862914Y-192428628D01*
X180434342Y-192785771D02*
X181220057Y-192785771D01*
X180434342Y-193785771D01*
X181220057Y-193785771D01*
X182362914Y-193714342D02*
X182220057Y-193785771D01*
X181934342Y-193785771D01*
X181791485Y-193714342D01*
X181720057Y-193571485D01*
X181720057Y-193000057D01*
X181791485Y-192857200D01*
X181934342Y-192785771D01*
X182220057Y-192785771D01*
X182362914Y-192857200D01*
X182434342Y-193000057D01*
X182434342Y-193142914D01*
X181720057Y-193285771D01*
X183077200Y-193642914D02*
X183148628Y-193714342D01*
X183077200Y-193785771D01*
X183005771Y-193714342D01*
X183077200Y-193642914D01*
X183077200Y-193785771D01*
X183077200Y-192857200D02*
X183148628Y-192928628D01*
X183077200Y-193000057D01*
X183005771Y-192928628D01*
X183077200Y-192857200D01*
X183077200Y-193000057D01*
X184862914Y-193357200D02*
X185577200Y-193357200D01*
X184720057Y-193785771D02*
X185220057Y-192285771D01*
X185720057Y-193785771D01*
X186862914Y-192785771D02*
X186862914Y-193785771D01*
X186505771Y-192214342D02*
X186148628Y-193285771D01*
X187077200Y-193285771D01*
D10*
D11*
X263434342Y-196585771D02*
X263434342Y-195085771D01*
X264791485Y-196585771D02*
X264791485Y-195085771D01*
X264791485Y-196514342D02*
X264648628Y-196585771D01*
X264362914Y-196585771D01*
X264220057Y-196514342D01*
X264148628Y-196442914D01*
X264077200Y-196300057D01*
X264077200Y-195871485D01*
X264148628Y-195728628D01*
X264220057Y-195657200D01*
X264362914Y-195585771D01*
X264648628Y-195585771D01*
X264791485Y-195657200D01*
X265505771Y-196442914D02*
X265577200Y-196514342D01*
X265505771Y-196585771D01*
X265434342Y-196514342D01*
X265505771Y-196442914D01*
X265505771Y-196585771D01*
X265505771Y-195657200D02*
X265577200Y-195728628D01*
X265505771Y-195800057D01*
X265434342Y-195728628D01*
X265505771Y-195657200D01*
X265505771Y-195800057D01*
X268148628Y-196585771D02*
X267291485Y-196585771D01*
X267720057Y-196585771D02*
X267720057Y-195085771D01*
X267577200Y-195300057D01*
X267434342Y-195442914D01*
X267291485Y-195514342D01*
X269862914Y-195014342D02*
X268577200Y-196942914D01*
X271148628Y-196585771D02*
X270291485Y-196585771D01*
X270720057Y-196585771D02*
X270720057Y-195085771D01*
X270577200Y-195300057D01*
X270434342Y-195442914D01*
X270291485Y-195514342D01*
D10*
D11*
X177002200Y-187507200D02*
X285002200Y-187507200D01*
D10*
D13*
X178714580Y-188211961D02*
X179857438Y-188211961D01*
X179036009Y-190211961D02*
X179286009Y-188211961D01*
X180274104Y-190211961D02*
X180440771Y-188878628D01*
X180524104Y-188211961D02*
X180416961Y-188307200D01*
X180500295Y-188402438D01*
X180607438Y-188307200D01*
X180524104Y-188211961D01*
X180500295Y-188402438D01*
X181107438Y-188878628D02*
X181869342Y-188878628D01*
X181476485Y-188211961D02*
X181262200Y-189926247D01*
X181333628Y-190116723D01*
X181512200Y-190211961D01*
X181702676Y-190211961D01*
X182655057Y-190211961D02*
X182476485Y-190116723D01*
X182405057Y-189926247D01*
X182619342Y-188211961D01*
X184190771Y-190116723D02*
X183988390Y-190211961D01*
X183607438Y-190211961D01*
X183428866Y-190116723D01*
X183357438Y-189926247D01*
X183452676Y-189164342D01*
X183571723Y-188973866D01*
X183774104Y-188878628D01*
X184155057Y-188878628D01*
X184333628Y-188973866D01*
X184405057Y-189164342D01*
X184381247Y-189354819D01*
X183405057Y-189545295D01*
X185155057Y-190021485D02*
X185238390Y-190116723D01*
X185131247Y-190211961D01*
X185047914Y-190116723D01*
X185155057Y-190021485D01*
X185131247Y-190211961D01*
X185286009Y-188973866D02*
X185369342Y-189069104D01*
X185262200Y-189164342D01*
X185178866Y-189069104D01*
X185286009Y-188973866D01*
X185262200Y-189164342D01*
D10*
D11*
X178934342Y-185600057D02*
X178434342Y-185600057D01*
X178434342Y-186385771D02*
X178434342Y-184885771D01*
X179148628Y-184885771D01*
X179720057Y-186385771D02*
X179720057Y-185385771D01*
X179720057Y-184885771D02*
X179648628Y-184957200D01*
X179720057Y-185028628D01*
X179791485Y-184957200D01*
X179720057Y-184885771D01*
X179720057Y-185028628D01*
X180648628Y-186385771D02*
X180505771Y-186314342D01*
X180434342Y-186171485D01*
X180434342Y-184885771D01*
X181791485Y-186314342D02*
X181648628Y-186385771D01*
X181362914Y-186385771D01*
X181220057Y-186314342D01*
X181148628Y-186171485D01*
X181148628Y-185600057D01*
X181220057Y-185457200D01*
X181362914Y-185385771D01*
X181648628Y-185385771D01*
X181791485Y-185457200D01*
X181862914Y-185600057D01*
X181862914Y-185742914D01*
X181148628Y-185885771D01*
X182505771Y-186242914D02*
X182577200Y-186314342D01*
X182505771Y-186385771D01*
X182434342Y-186314342D01*
X182505771Y-186242914D01*
X182505771Y-186385771D01*
X182505771Y-185457200D02*
X182577200Y-185528628D01*
X182505771Y-185600057D01*
X182434342Y-185528628D01*
X182505771Y-185457200D01*
X182505771Y-185600057D01*
X185005771Y-186385771D02*
X185005771Y-184885771D01*
X185005771Y-186314342D02*
X184862914Y-186385771D01*
X184577200Y-186385771D01*
X184434342Y-186314342D01*
X184362914Y-186242914D01*
X184291485Y-186100057D01*
X184291485Y-185671485D01*
X184362914Y-185528628D01*
X184434342Y-185457200D01*
X184577200Y-185385771D01*
X184862914Y-185385771D01*
X185005771Y-185457200D01*
X186362914Y-185385771D02*
X186362914Y-186385771D01*
X185720057Y-185385771D02*
X185720057Y-186171485D01*
X185791485Y-186314342D01*
X185934342Y-186385771D01*
X186148628Y-186385771D01*
X186291485Y-186314342D01*
X186362914Y-186242914D01*
X187720057Y-186385771D02*
X187720057Y-185600057D01*
X187648628Y-185457200D01*
X187505771Y-185385771D01*
X187220057Y-185385771D01*
X187077200Y-185457200D01*
X187720057Y-186314342D02*
X187577200Y-186385771D01*
X187220057Y-186385771D01*
X187077200Y-186314342D01*
X187005771Y-186171485D01*
X187005771Y-186028628D01*
X187077200Y-185885771D01*
X187220057Y-185814342D01*
X187577200Y-185814342D01*
X187720057Y-185742914D01*
X188648628Y-186385771D02*
X188505771Y-186314342D01*
X188434342Y-186171485D01*
X188434342Y-184885771D01*
X188862914Y-186528628D02*
X190005771Y-186528628D01*
X190362914Y-186385771D02*
X190362914Y-184885771D01*
X190362914Y-185457200D02*
X190505771Y-185385771D01*
X190791485Y-185385771D01*
X190934342Y-185457200D01*
X191005771Y-185528628D01*
X191077200Y-185671485D01*
X191077200Y-186100057D01*
X191005771Y-186242914D01*
X190934342Y-186314342D01*
X190791485Y-186385771D01*
X190505771Y-186385771D01*
X190362914Y-186314342D01*
X191934342Y-186385771D02*
X191791485Y-186314342D01*
X191720057Y-186242914D01*
X191648628Y-186100057D01*
X191648628Y-185671485D01*
X191720057Y-185528628D01*
X191791485Y-185457200D01*
X191934342Y-185385771D01*
X192148628Y-185385771D01*
X192291485Y-185457200D01*
X192362914Y-185528628D01*
X192434342Y-185671485D01*
X192434342Y-186100057D01*
X192362914Y-186242914D01*
X192291485Y-186314342D01*
X192148628Y-186385771D01*
X191934342Y-186385771D01*
X193720057Y-186385771D02*
X193720057Y-185600057D01*
X193648628Y-185457200D01*
X193505771Y-185385771D01*
X193220057Y-185385771D01*
X193077200Y-185457200D01*
X193720057Y-186314342D02*
X193577200Y-186385771D01*
X193220057Y-186385771D01*
X193077200Y-186314342D01*
X193005771Y-186171485D01*
X193005771Y-186028628D01*
X193077200Y-185885771D01*
X193220057Y-185814342D01*
X193577200Y-185814342D01*
X193720057Y-185742914D01*
X194434342Y-186385771D02*
X194434342Y-185385771D01*
X194434342Y-185671485D02*
X194505771Y-185528628D01*
X194577200Y-185457200D01*
X194720057Y-185385771D01*
X194862914Y-185385771D01*
X196005771Y-186385771D02*
X196005771Y-184885771D01*
X196005771Y-186314342D02*
X195862914Y-186385771D01*
X195577200Y-186385771D01*
X195434342Y-186314342D01*
X195362914Y-186242914D01*
X195291485Y-186100057D01*
X195291485Y-185671485D01*
X195362914Y-185528628D01*
X195434342Y-185457200D01*
X195577200Y-185385771D01*
X195862914Y-185385771D01*
X196005771Y-185457200D01*
X196362914Y-186528628D02*
X197505771Y-186528628D01*
X198505771Y-186314342D02*
X198362914Y-186385771D01*
X198077200Y-186385771D01*
X197934342Y-186314342D01*
X197862914Y-186242914D01*
X197791485Y-186100057D01*
X197791485Y-185671485D01*
X197862914Y-185528628D01*
X197934342Y-185457200D01*
X198077200Y-185385771D01*
X198362914Y-185385771D01*
X198505771Y-185457200D01*
X199791485Y-186385771D02*
X199791485Y-185600057D01*
X199720057Y-185457200D01*
X199577200Y-185385771D01*
X199291485Y-185385771D01*
X199148628Y-185457200D01*
X199791485Y-186314342D02*
X199648628Y-186385771D01*
X199291485Y-186385771D01*
X199148628Y-186314342D01*
X199077200Y-186171485D01*
X199077200Y-186028628D01*
X199148628Y-185885771D01*
X199291485Y-185814342D01*
X199648628Y-185814342D01*
X199791485Y-185742914D01*
X200505771Y-186385771D02*
X200505771Y-185385771D01*
X200505771Y-185671485D02*
X200577200Y-185528628D01*
X200648628Y-185457200D01*
X200791485Y-185385771D01*
X200934342Y-185385771D01*
X201434342Y-186385771D02*
X201434342Y-185385771D01*
X201434342Y-185671485D02*
X201505771Y-185528628D01*
X201577200Y-185457200D01*
X201720057Y-185385771D01*
X201862914Y-185385771D01*
X202362914Y-186385771D02*
X202362914Y-185385771D01*
X202362914Y-184885771D02*
X202291485Y-184957200D01*
X202362914Y-185028628D01*
X202434342Y-184957200D01*
X202362914Y-184885771D01*
X202362914Y-185028628D01*
X203648628Y-186314342D02*
X203505771Y-186385771D01*
X203220057Y-186385771D01*
X203077200Y-186314342D01*
X203005771Y-186171485D01*
X203005771Y-185600057D01*
X203077200Y-185457200D01*
X203220057Y-185385771D01*
X203505771Y-185385771D01*
X203648628Y-185457200D01*
X203720057Y-185600057D01*
X203720057Y-185742914D01*
X203005771Y-185885771D01*
X204362914Y-186385771D02*
X204362914Y-185385771D01*
X204362914Y-185671485D02*
X204434342Y-185528628D01*
X204505771Y-185457200D01*
X204648628Y-185385771D01*
X204791485Y-185385771D01*
X205291485Y-186242914D02*
X205362914Y-186314342D01*
X205291485Y-186385771D01*
X205220057Y-186314342D01*
X205291485Y-186242914D01*
X205291485Y-186385771D01*
X206005771Y-186385771D02*
X206005771Y-184885771D01*
X206148628Y-185814342D02*
X206577200Y-186385771D01*
X206577200Y-185385771D02*
X206005771Y-185957200D01*
X207220057Y-186385771D02*
X207220057Y-185385771D01*
X207220057Y-184885771D02*
X207148628Y-184957200D01*
X207220057Y-185028628D01*
X207291485Y-184957200D01*
X207220057Y-184885771D01*
X207220057Y-185028628D01*
X208577200Y-186314342D02*
X208434342Y-186385771D01*
X208148628Y-186385771D01*
X208005771Y-186314342D01*
X207934342Y-186242914D01*
X207862914Y-186100057D01*
X207862914Y-185671485D01*
X207934342Y-185528628D01*
X208005771Y-185457200D01*
X208148628Y-185385771D01*
X208434342Y-185385771D01*
X208577200Y-185457200D01*
X209862914Y-186385771D02*
X209862914Y-185600057D01*
X209791485Y-185457200D01*
X209648628Y-185385771D01*
X209362914Y-185385771D01*
X209220057Y-185457200D01*
X209862914Y-186314342D02*
X209720057Y-186385771D01*
X209362914Y-186385771D01*
X209220057Y-186314342D01*
X209148628Y-186171485D01*
X209148628Y-186028628D01*
X209220057Y-185885771D01*
X209362914Y-185814342D01*
X209720057Y-185814342D01*
X209862914Y-185742914D01*
X211220057Y-186385771D02*
X211220057Y-184885771D01*
X211220057Y-186314342D02*
X211077200Y-186385771D01*
X210791485Y-186385771D01*
X210648628Y-186314342D01*
X210577200Y-186242914D01*
X210505771Y-186100057D01*
X210505771Y-185671485D01*
X210577200Y-185528628D01*
X210648628Y-185457200D01*
X210791485Y-185385771D01*
X211077200Y-185385771D01*
X211220057Y-185457200D01*
X211577200Y-186528628D02*
X212720057Y-186528628D01*
X213077200Y-185385771D02*
X213077200Y-186885771D01*
X213077200Y-185457200D02*
X213220057Y-185385771D01*
X213505771Y-185385771D01*
X213648628Y-185457200D01*
X213720057Y-185528628D01*
X213791485Y-185671485D01*
X213791485Y-186100057D01*
X213720057Y-186242914D01*
X213648628Y-186314342D01*
X213505771Y-186385771D01*
X213220057Y-186385771D01*
X213077200Y-186314342D01*
X215077200Y-186314342D02*
X214934342Y-186385771D01*
X214648628Y-186385771D01*
X214505771Y-186314342D01*
X214434342Y-186242914D01*
X214362914Y-186100057D01*
X214362914Y-185671485D01*
X214434342Y-185528628D01*
X214505771Y-185457200D01*
X214648628Y-185385771D01*
X214934342Y-185385771D01*
X215077200Y-185457200D01*
X215720057Y-186385771D02*
X215720057Y-184885771D01*
X215720057Y-185457200D02*
X215862914Y-185385771D01*
X216148628Y-185385771D01*
X216291485Y-185457200D01*
X216362914Y-185528628D01*
X216434342Y-185671485D01*
X216434342Y-186100057D01*
X216362914Y-186242914D01*
X216291485Y-186314342D01*
X216148628Y-186385771D01*
X215862914Y-186385771D01*
X215720057Y-186314342D01*
D10*
D11*
X177002200Y-181507200D02*
X285002200Y-181507200D01*
D10*
D11*
X178362914Y-183614342D02*
X178577200Y-183685771D01*
X178934342Y-183685771D01*
X179077200Y-183614342D01*
X179148628Y-183542914D01*
X179220057Y-183400057D01*
X179220057Y-183257200D01*
X179148628Y-183114342D01*
X179077200Y-183042914D01*
X178934342Y-182971485D01*
X178648628Y-182900057D01*
X178505771Y-182828628D01*
X178434342Y-182757200D01*
X178362914Y-182614342D01*
X178362914Y-182471485D01*
X178434342Y-182328628D01*
X178505771Y-182257200D01*
X178648628Y-182185771D01*
X179005771Y-182185771D01*
X179220057Y-182257200D01*
X179862914Y-183685771D02*
X179862914Y-182185771D01*
X180505771Y-183685771D02*
X180505771Y-182900057D01*
X180434342Y-182757200D01*
X180291485Y-182685771D01*
X180077200Y-182685771D01*
X179934342Y-182757200D01*
X179862914Y-182828628D01*
X181791485Y-183614342D02*
X181648628Y-183685771D01*
X181362914Y-183685771D01*
X181220057Y-183614342D01*
X181148628Y-183471485D01*
X181148628Y-182900057D01*
X181220057Y-182757200D01*
X181362914Y-182685771D01*
X181648628Y-182685771D01*
X181791485Y-182757200D01*
X181862914Y-182900057D01*
X181862914Y-183042914D01*
X181148628Y-183185771D01*
X183077200Y-183614342D02*
X182934342Y-183685771D01*
X182648628Y-183685771D01*
X182505771Y-183614342D01*
X182434342Y-183471485D01*
X182434342Y-182900057D01*
X182505771Y-182757200D01*
X182648628Y-182685771D01*
X182934342Y-182685771D01*
X183077200Y-182757200D01*
X183148628Y-182900057D01*
X183148628Y-183042914D01*
X182434342Y-183185771D01*
X183577200Y-182685771D02*
X184148628Y-182685771D01*
X183791485Y-182185771D02*
X183791485Y-183471485D01*
X183862914Y-183614342D01*
X184005771Y-183685771D01*
X184148628Y-183685771D01*
X184648628Y-183542914D02*
X184720057Y-183614342D01*
X184648628Y-183685771D01*
X184577200Y-183614342D01*
X184648628Y-183542914D01*
X184648628Y-183685771D01*
X184648628Y-182757200D02*
X184720057Y-182828628D01*
X184648628Y-182900057D01*
X184577200Y-182828628D01*
X184648628Y-182757200D01*
X184648628Y-182900057D01*
D10*
D11*
X197002200Y-191507200D02*
X197002200Y-194507200D01*
D10*
D11*
X261002200Y-191507200D02*
X261002200Y-198007200D01*
D14*
%TO.P,J5,8*%
%TO.N,/LSU2_Un*%
X156690000Y-101280000D03*
%TO.P,J5,7*%
%TO.N,/LSU2_Rtrim*%
X156690000Y-98740000D03*
%TO.P,J5,6*%
%TO.N,/LSU2_Vm*%
X156690000Y-96200000D03*
%TO.P,J5,5*%
%TO.N,/LSU2_Ip*%
X156690000Y-93660000D03*
%TO.P,J5,4*%
%TO.N,/LSU2_Heater-*%
X156690000Y-91120000D03*
%TO.P,J5,3*%
X156690000Y-88580000D03*
%TO.P,J5,2*%
%TO.N,GND*%
X156690000Y-86040000D03*
D15*
%TO.P,J5,1*%
X156690000Y-83500000D03*
%TD*%
D14*
%TO.P,J4,8*%
%TO.N,/Boot02*%
X131290000Y-101280000D03*
%TO.P,J4,7*%
%TO.N,/nRESET2*%
X131290000Y-98740000D03*
%TO.P,J4,6*%
%TO.N,/CAN2_TX*%
X131290000Y-96200000D03*
%TO.P,J4,5*%
%TO.N,/CAN2_RX*%
X131290000Y-93660000D03*
%TO.P,J4,4*%
%TO.N,/UART_RX2*%
X131290000Y-91120000D03*
%TO.P,J4,3*%
%TO.N,/UART_TX2*%
X131290000Y-88580000D03*
%TO.P,J4,2*%
%TO.N,GND*%
X131290000Y-86040000D03*
D15*
%TO.P,J4,1*%
%TO.N,+5V*%
X131290000Y-83500000D03*
%TD*%
D16*
%TO.P,J3,1*%
%TO.N,GND*%
X145290000Y-77212000D03*
%TO.P,J3,2*%
X141790000Y-77212000D03*
%TO.P,J3,3*%
%TO.N,/LSU1_Heater-*%
X138290000Y-77212000D03*
%TO.P,J3,4*%
%TO.N,/LSU1_Ip*%
X134790000Y-77212000D03*
%TO.P,J3,5*%
%TO.N,/LSU1_Vm*%
X131290000Y-77212000D03*
%TO.P,J3,6*%
%TO.N,/LSU1_Rtrim*%
X127790000Y-77212000D03*
%TO.P,J3,7*%
%TO.N,/LSU1_Un*%
X124290000Y-77212000D03*
%TO.P,J3,8*%
%TO.N,/CAN_L*%
X120790000Y-77212000D03*
%TO.P,J3,9*%
%TO.N,/LSU_Heater+*%
X117290000Y-77212000D03*
%TO.P,J3,10*%
%TO.N,12V_RAW*%
X113790000Y-77212000D03*
%TO.P,J3,11*%
%TO.N,GND*%
X145290000Y-73712000D03*
%TO.P,J3,12*%
X141790000Y-73712000D03*
%TO.P,J3,13*%
%TO.N,/LSU2_Heater-*%
X138290000Y-73712000D03*
%TO.P,J3,14*%
%TO.N,/LSU2_Ip*%
X134790000Y-73712000D03*
%TO.P,J3,15*%
%TO.N,/LSU2_Vm*%
X131290000Y-73712000D03*
%TO.P,J3,16*%
%TO.N,/LSU2_Rtrim*%
X127790000Y-73712000D03*
%TO.P,J3,17*%
%TO.N,/LSU2_Un*%
X124290000Y-73712000D03*
%TO.P,J3,18*%
%TO.N,/CAN_H*%
X120790000Y-73712000D03*
%TO.P,J3,19*%
%TO.N,/LSU_Heater+*%
X117290000Y-73712000D03*
%TO.P,J3,20*%
%TO.N,12V_RAW*%
X113790000Y-73712000D03*
%TD*%
D14*
%TO.P,J2,8*%
%TO.N,/LSU1_Un*%
X127790000Y-101280000D03*
%TO.P,J2,7*%
%TO.N,/LSU1_Rtrim*%
X127790000Y-98740000D03*
%TO.P,J2,6*%
%TO.N,/LSU1_Vm*%
X127790000Y-96200000D03*
%TO.P,J2,5*%
%TO.N,/LSU1_Ip*%
X127790000Y-93660000D03*
%TO.P,J2,4*%
%TO.N,/LSU1_Heater-*%
X127790000Y-91120000D03*
%TO.P,J2,3*%
X127790000Y-88580000D03*
%TO.P,J2,2*%
%TO.N,GND*%
X127790000Y-86040000D03*
D15*
%TO.P,J2,1*%
X127790000Y-83500000D03*
%TD*%
D14*
%TO.P,J1,8*%
%TO.N,/Boot0*%
X102560000Y-101280000D03*
%TO.P,J1,7*%
%TO.N,/nRESET*%
X102560000Y-98740000D03*
%TO.P,J1,6*%
%TO.N,/CAN_TX*%
X102560000Y-96200000D03*
%TO.P,J1,5*%
%TO.N,/CAN_RX*%
X102560000Y-93660000D03*
%TO.P,J1,4*%
%TO.N,/UART_RX*%
X102560000Y-91120000D03*
%TO.P,J1,3*%
%TO.N,/UART_TX*%
X102560000Y-88580000D03*
%TO.P,J1,2*%
%TO.N,GND*%
X102560000Y-86040000D03*
D15*
%TO.P,J1,1*%
%TO.N,+5V*%
X102560000Y-83500000D03*
%TD*%
D17*
%TO.N,GND*%
X107442000Y-82042000D03*
X107442000Y-83058000D03*
X107442000Y-85090000D03*
X107442000Y-84074000D03*
X136906000Y-93218000D03*
X110998000Y-92202000D03*
X116840000Y-99949000D03*
X153416000Y-88392000D03*
X154178000Y-88392000D03*
X152400000Y-88392000D03*
X154178000Y-83312000D03*
X153416000Y-83312000D03*
X152654000Y-83312000D03*
X115514000Y-91440000D03*
X120086000Y-91440000D03*
X117800000Y-91440000D03*
X139573000Y-91821000D03*
X108172000Y-93345000D03*
X114003000Y-99611000D03*
X142613000Y-99306000D03*
%TO.N,/LSU_Heater+*%
X142748000Y-83566000D03*
%TO.N,/CAN_H*%
X139319000Y-93091000D03*
X133570001Y-97375001D03*
X122745500Y-94170500D03*
%TO.N,/CAN_L*%
X139319000Y-94361000D03*
X133604000Y-99949000D03*
X123698000Y-99822000D03*
%TD*%
D18*
%TO.N,/LSU_Heater+*%
X117290000Y-75496000D02*
X117348000Y-75438000D01*
X117290000Y-73712000D02*
X117290000Y-75496000D01*
X117290000Y-75496000D02*
X117290000Y-77212000D01*
D19*
X117290000Y-75496000D02*
X138683002Y-75496000D01*
X141986000Y-83566000D02*
X142748000Y-83566000D01*
X140081000Y-81661000D02*
X141986000Y-83566000D01*
X140081000Y-75496000D02*
X140081000Y-81661000D01*
X140081000Y-75496000D02*
X138683002Y-75496000D01*
D20*
%TO.N,/CAN_H*%
X135034999Y-97375001D02*
X139319000Y-93091000D01*
X133570001Y-97375001D02*
X135034999Y-97375001D01*
X122745500Y-90360500D02*
X122745500Y-94170500D01*
X115570000Y-83185000D02*
X122745500Y-90360500D01*
X115570000Y-72286999D02*
X115570000Y-83185000D01*
X119364999Y-72286999D02*
X115570000Y-72286999D01*
X120790000Y-73712000D02*
X119364999Y-72286999D01*
%TO.N,/CAN_L*%
X139192000Y-94361000D02*
X139319000Y-94361000D01*
X133604000Y-99949000D02*
X139192000Y-94361000D01*
X123698000Y-90170000D02*
X123698000Y-99822000D01*
X120790000Y-87262000D02*
X123698000Y-90170000D01*
X120790000Y-77212000D02*
X120790000Y-87262000D01*
%TO.N,12V_RAW*%
X113790000Y-73712000D02*
X113790000Y-73662000D01*
%TO.N,/LSU1_Un*%
X125222000Y-98712000D02*
X127790000Y-101280000D01*
X125222000Y-80518000D02*
X125222000Y-98712000D01*
X124206000Y-79502000D02*
X125222000Y-80518000D01*
X124206000Y-77296000D02*
X124206000Y-79502000D01*
X124290000Y-77212000D02*
X124206000Y-77296000D01*
%TO.N,/LSU1_Rtrim*%
X127790000Y-77212000D02*
X128012000Y-77212000D01*
X125714979Y-96664979D02*
X127790000Y-98740000D01*
X125714979Y-81803021D02*
X125714979Y-96664979D01*
X127790000Y-79728000D02*
X125714979Y-81803021D01*
X127790000Y-77212000D02*
X127790000Y-79728000D01*
%TO.N,/LSU1_Vm*%
X126164989Y-94574989D02*
X127790000Y-96200000D01*
X126164989Y-82203599D02*
X126164989Y-94574989D01*
X131156588Y-77212000D02*
X126164989Y-82203599D01*
X131290000Y-77212000D02*
X131156588Y-77212000D01*
%TO.N,/LSU1_Ip*%
X126614999Y-92484999D02*
X127790000Y-93660000D01*
X126614999Y-82389999D02*
X126614999Y-92484999D01*
X132754000Y-79248000D02*
X129756998Y-79248000D01*
X129756998Y-79248000D02*
X126614999Y-82389999D01*
X134790000Y-77212000D02*
X132754000Y-79248000D01*
D18*
%TO.N,/LSU2_Heater-*%
X140090001Y-71911999D02*
X138290000Y-73712000D01*
X158240001Y-76705999D02*
X153446001Y-71911999D01*
X158240001Y-87029999D02*
X158240001Y-76705999D01*
X153446001Y-71911999D02*
X140090001Y-71911999D01*
X156690000Y-88580000D02*
X156690000Y-91120000D01*
X156690000Y-91120000D02*
X157546000Y-91120000D01*
X157687000Y-90979000D02*
X157687000Y-87583000D01*
X157546000Y-91120000D02*
X157687000Y-90979000D01*
X157687000Y-87583000D02*
X158240001Y-87029999D01*
X156690000Y-88580000D02*
X157687000Y-87583000D01*
%TD*%
D21*
%TO.N,GND*%
X157622333Y-68712810D02*
X157789680Y-68728675D01*
X157954694Y-68754818D01*
X158117359Y-68791035D01*
X158277632Y-68837155D01*
X158435501Y-68893047D01*
X158590862Y-68958588D01*
X158743514Y-69033630D01*
X158893336Y-69118076D01*
X159040054Y-69211764D01*
X159183471Y-69314575D01*
X159323262Y-69426308D01*
X159459170Y-69546802D01*
X159590873Y-69675838D01*
X159718079Y-69813215D01*
X159840453Y-69958676D01*
X159957690Y-70111982D01*
X160069469Y-70272864D01*
X160175485Y-70441059D01*
X160275403Y-70616234D01*
X160368959Y-70798173D01*
X160455812Y-70986492D01*
X160535705Y-71180967D01*
X160608321Y-71381219D01*
X160673406Y-71587011D01*
X160730667Y-71797992D01*
X160779837Y-72013864D01*
X160820648Y-72234312D01*
X160852841Y-72459048D01*
X160876154Y-72687779D01*
X160890330Y-72920196D01*
X160895244Y-73162443D01*
X160895244Y-99557687D01*
X160890330Y-99799915D01*
X160876154Y-100032316D01*
X160852841Y-100261037D01*
X160820648Y-100485765D01*
X160779839Y-100706200D01*
X160730666Y-100922073D01*
X160673411Y-101133031D01*
X160608325Y-101338828D01*
X160535698Y-101539106D01*
X160455818Y-101733549D01*
X160368955Y-101921890D01*
X160275410Y-102103808D01*
X160175470Y-102279024D01*
X160069471Y-102447191D01*
X159957694Y-102608073D01*
X159840439Y-102761406D01*
X159718076Y-102906857D01*
X159590860Y-103044250D01*
X159459145Y-103173301D01*
X159323238Y-103293797D01*
X159183454Y-103405528D01*
X159040051Y-103508334D01*
X158893314Y-103602038D01*
X158743508Y-103686480D01*
X158590840Y-103761534D01*
X158435505Y-103827067D01*
X158277628Y-103882966D01*
X158117335Y-103929094D01*
X157954687Y-103965310D01*
X157789685Y-103991453D01*
X157622321Y-104007322D01*
X157442480Y-104012992D01*
X102626020Y-104012992D01*
X102446178Y-104007322D01*
X102278813Y-103991453D01*
X102113811Y-103965310D01*
X101951160Y-103929093D01*
X101790875Y-103882968D01*
X101632990Y-103827066D01*
X101477665Y-103761537D01*
X101324984Y-103686477D01*
X101175179Y-103602035D01*
X101028453Y-103508339D01*
X100885053Y-103405535D01*
X100745252Y-103293790D01*
X100609335Y-103173284D01*
X100477630Y-103044241D01*
X100350422Y-102906857D01*
X100228048Y-102761394D01*
X100110804Y-102608074D01*
X99999039Y-102447211D01*
X99893024Y-102279016D01*
X99793088Y-102103808D01*
X99699543Y-101921889D01*
X99612684Y-101733557D01*
X99532801Y-101539106D01*
X99460171Y-101338820D01*
X99395088Y-101133036D01*
X99337837Y-100922094D01*
X99288658Y-100706195D01*
X99247849Y-100485761D01*
X99215657Y-100261037D01*
X99192344Y-100032316D01*
X99178168Y-99799915D01*
X99173255Y-99557692D01*
X99173255Y-88433740D01*
X101075000Y-88433740D01*
X101075000Y-88726260D01*
X101132068Y-89013158D01*
X101244010Y-89283411D01*
X101406525Y-89526632D01*
X101613368Y-89733475D01*
X101787760Y-89850000D01*
X101613368Y-89966525D01*
X101406525Y-90173368D01*
X101244010Y-90416589D01*
X101132068Y-90686842D01*
X101075000Y-90973740D01*
X101075000Y-91266260D01*
X101132068Y-91553158D01*
X101244010Y-91823411D01*
X101406525Y-92066632D01*
X101613368Y-92273475D01*
X101787760Y-92390000D01*
X101613368Y-92506525D01*
X101406525Y-92713368D01*
X101244010Y-92956589D01*
X101132068Y-93226842D01*
X101075000Y-93513740D01*
X101075000Y-93806260D01*
X101132068Y-94093158D01*
X101244010Y-94363411D01*
X101406525Y-94606632D01*
X101613368Y-94813475D01*
X101787760Y-94930000D01*
X101613368Y-95046525D01*
X101406525Y-95253368D01*
X101244010Y-95496589D01*
X101132068Y-95766842D01*
X101075000Y-96053740D01*
X101075000Y-96346260D01*
X101132068Y-96633158D01*
X101244010Y-96903411D01*
X101406525Y-97146632D01*
X101613368Y-97353475D01*
X101787760Y-97470000D01*
X101613368Y-97586525D01*
X101406525Y-97793368D01*
X101244010Y-98036589D01*
X101132068Y-98306842D01*
X101075000Y-98593740D01*
X101075000Y-98886260D01*
X101132068Y-99173158D01*
X101244010Y-99443411D01*
X101406525Y-99686632D01*
X101613368Y-99893475D01*
X101787760Y-100010000D01*
X101613368Y-100126525D01*
X101406525Y-100333368D01*
X101244010Y-100576589D01*
X101132068Y-100846842D01*
X101075000Y-101133740D01*
X101075000Y-101426260D01*
X101132068Y-101713158D01*
X101244010Y-101983411D01*
X101406525Y-102226632D01*
X101613368Y-102433475D01*
X101856589Y-102595990D01*
X102126842Y-102707932D01*
X102413740Y-102765000D01*
X102706260Y-102765000D01*
X102993158Y-102707932D01*
X103263411Y-102595990D01*
X103506632Y-102433475D01*
X103713475Y-102226632D01*
X103875990Y-101983411D01*
X103987932Y-101713158D01*
X104045000Y-101426260D01*
X104045000Y-101133740D01*
X103987932Y-100846842D01*
X103875990Y-100576589D01*
X103713475Y-100333368D01*
X103506632Y-100126525D01*
X103332240Y-100010000D01*
X103506632Y-99893475D01*
X103713475Y-99686632D01*
X103875990Y-99443411D01*
X103987932Y-99173158D01*
X104045000Y-98886260D01*
X104045000Y-98593740D01*
X103987932Y-98306842D01*
X103875990Y-98036589D01*
X103713475Y-97793368D01*
X103506632Y-97586525D01*
X103332240Y-97470000D01*
X103506632Y-97353475D01*
X103713475Y-97146632D01*
X103875990Y-96903411D01*
X103987932Y-96633158D01*
X104045000Y-96346260D01*
X104045000Y-96053740D01*
X103987932Y-95766842D01*
X103875990Y-95496589D01*
X103713475Y-95253368D01*
X103506632Y-95046525D01*
X103332240Y-94930000D01*
X103506632Y-94813475D01*
X103713475Y-94606632D01*
X103875990Y-94363411D01*
X103987932Y-94093158D01*
X104045000Y-93806260D01*
X104045000Y-93513740D01*
X103987932Y-93226842D01*
X103875990Y-92956589D01*
X103713475Y-92713368D01*
X103506632Y-92506525D01*
X103332240Y-92390000D01*
X103506632Y-92273475D01*
X103713475Y-92066632D01*
X103875990Y-91823411D01*
X103987932Y-91553158D01*
X104045000Y-91266260D01*
X104045000Y-90973740D01*
X103987932Y-90686842D01*
X103875990Y-90416589D01*
X103713475Y-90173368D01*
X103506632Y-89966525D01*
X103332240Y-89850000D01*
X103506632Y-89733475D01*
X103713475Y-89526632D01*
X103875990Y-89283411D01*
X103987932Y-89013158D01*
X104045000Y-88726260D01*
X104045000Y-88433740D01*
X103987932Y-88146842D01*
X103875990Y-87876589D01*
X103713475Y-87633368D01*
X103506632Y-87426525D01*
X103263411Y-87264010D01*
X103036100Y-87169855D01*
X103102949Y-87144799D01*
X103308052Y-87017647D01*
X103484408Y-86852924D01*
X103625239Y-86656961D01*
X103725134Y-86437288D01*
X103749489Y-86356980D01*
X103688627Y-86167000D01*
X102687000Y-86167000D01*
X102687000Y-86187000D01*
X102433000Y-86187000D01*
X102433000Y-86167000D01*
X101431373Y-86167000D01*
X101370511Y-86356980D01*
X101394866Y-86437288D01*
X101494761Y-86656961D01*
X101635592Y-86852924D01*
X101811948Y-87017647D01*
X102017051Y-87144799D01*
X102083900Y-87169855D01*
X101856589Y-87264010D01*
X101613368Y-87426525D01*
X101406525Y-87633368D01*
X101244010Y-87876589D01*
X101132068Y-88146842D01*
X101075000Y-88433740D01*
X99173255Y-88433740D01*
X99173255Y-82650000D01*
X101071928Y-82650000D01*
X101071928Y-84350000D01*
X101084188Y-84474482D01*
X101120498Y-84594180D01*
X101179463Y-84704494D01*
X101258815Y-84801185D01*
X101355506Y-84880537D01*
X101465820Y-84939502D01*
X101585518Y-84975812D01*
X101710000Y-84988072D01*
X101931767Y-84988072D01*
X101811948Y-85062353D01*
X101635592Y-85227076D01*
X101494761Y-85423039D01*
X101394866Y-85642712D01*
X101370511Y-85723020D01*
X101431373Y-85913000D01*
X102433000Y-85913000D01*
X102433000Y-85893000D01*
X102687000Y-85893000D01*
X102687000Y-85913000D01*
X103688627Y-85913000D01*
X103749489Y-85723020D01*
X103725134Y-85642712D01*
X103625239Y-85423039D01*
X103484408Y-85227076D01*
X103308052Y-85062353D01*
X103188233Y-84988072D01*
X103410000Y-84988072D01*
X103534482Y-84975812D01*
X103654180Y-84939502D01*
X103764494Y-84880537D01*
X103861185Y-84801185D01*
X103940537Y-84704494D01*
X103999502Y-84594180D01*
X104035812Y-84474482D01*
X104048072Y-84350000D01*
X104048072Y-82650000D01*
X104035812Y-82525518D01*
X103999502Y-82405820D01*
X103940537Y-82295506D01*
X103861185Y-82198815D01*
X103764494Y-82119463D01*
X103654180Y-82060498D01*
X103534482Y-82024188D01*
X103410000Y-82011928D01*
X101710000Y-82011928D01*
X101585518Y-82024188D01*
X101465820Y-82060498D01*
X101355506Y-82119463D01*
X101258815Y-82198815D01*
X101179463Y-82295506D01*
X101120498Y-82405820D01*
X101084188Y-82525518D01*
X101071928Y-82650000D01*
X99173255Y-82650000D01*
X99173255Y-74492475D01*
X104155000Y-74492475D01*
X104155000Y-75011525D01*
X104256261Y-75520601D01*
X104454893Y-76000141D01*
X104743262Y-76431715D01*
X105110285Y-76798738D01*
X105541859Y-77087107D01*
X106021399Y-77285739D01*
X106530475Y-77387000D01*
X107049525Y-77387000D01*
X107558601Y-77285739D01*
X108038141Y-77087107D01*
X108469715Y-76798738D01*
X108836738Y-76431715D01*
X109125107Y-76000141D01*
X109323739Y-75520601D01*
X109425000Y-75011525D01*
X109425000Y-74492475D01*
X109323739Y-73983399D01*
X109140540Y-73541117D01*
X112055000Y-73541117D01*
X112055000Y-73882883D01*
X112121675Y-74218081D01*
X112252463Y-74533831D01*
X112442337Y-74817998D01*
X112684002Y-75059663D01*
X112968169Y-75249537D01*
X113283919Y-75380325D01*
X113619117Y-75447000D01*
X113960883Y-75447000D01*
X114296081Y-75380325D01*
X114611831Y-75249537D01*
X114810000Y-75117125D01*
X114810000Y-75806875D01*
X114611831Y-75674463D01*
X114296081Y-75543675D01*
X113960883Y-75477000D01*
X113619117Y-75477000D01*
X113283919Y-75543675D01*
X112968169Y-75674463D01*
X112684002Y-75864337D01*
X112442337Y-76106002D01*
X112252463Y-76390169D01*
X112121675Y-76705919D01*
X112055000Y-77041117D01*
X112055000Y-77382883D01*
X112121675Y-77718081D01*
X112252463Y-78033831D01*
X112442337Y-78317998D01*
X112684002Y-78559663D01*
X112968169Y-78749537D01*
X113283919Y-78880325D01*
X113619117Y-78947000D01*
X113960883Y-78947000D01*
X114296081Y-78880325D01*
X114611831Y-78749537D01*
X114810001Y-78617125D01*
X114810001Y-83147668D01*
X114806324Y-83185000D01*
X114820998Y-83333985D01*
X114864454Y-83477246D01*
X114935026Y-83609276D01*
X114983170Y-83667939D01*
X115030000Y-83725001D01*
X115058998Y-83748799D01*
X121985500Y-90675303D01*
X121985501Y-93466788D01*
X121941563Y-93510726D01*
X121828295Y-93680244D01*
X121750274Y-93868602D01*
X121710500Y-94068561D01*
X121710500Y-94272439D01*
X121750274Y-94472398D01*
X121828295Y-94660756D01*
X121941563Y-94830274D01*
X122085726Y-94974437D01*
X122255244Y-95087705D01*
X122443602Y-95165726D01*
X122643561Y-95205500D01*
X122847439Y-95205500D01*
X122938001Y-95187486D01*
X122938001Y-99118288D01*
X122894063Y-99162226D01*
X122780795Y-99331744D01*
X122702774Y-99520102D01*
X122663000Y-99720061D01*
X122663000Y-99923939D01*
X122702774Y-100123898D01*
X122780795Y-100312256D01*
X122894063Y-100481774D01*
X123038226Y-100625937D01*
X123207744Y-100739205D01*
X123396102Y-100817226D01*
X123596061Y-100857000D01*
X123799939Y-100857000D01*
X123999898Y-100817226D01*
X124188256Y-100739205D01*
X124357774Y-100625937D01*
X124501937Y-100481774D01*
X124615205Y-100312256D01*
X124693226Y-100123898D01*
X124733000Y-99923939D01*
X124733000Y-99720061D01*
X124693226Y-99520102D01*
X124615205Y-99331744D01*
X124501937Y-99162226D01*
X124458000Y-99118289D01*
X124458000Y-90207322D01*
X124461676Y-90169999D01*
X124458000Y-90132676D01*
X124458000Y-90132667D01*
X124447003Y-90021014D01*
X124403546Y-89877753D01*
X124332975Y-89745725D01*
X124332974Y-89745723D01*
X124261799Y-89658997D01*
X124238001Y-89629999D01*
X124209004Y-89606202D01*
X121550000Y-86947199D01*
X121550000Y-78775148D01*
X121611831Y-78749537D01*
X121895998Y-78559663D01*
X122137663Y-78317998D01*
X122327537Y-78033831D01*
X122458325Y-77718081D01*
X122525000Y-77382883D01*
X122525000Y-77041117D01*
X122458325Y-76705919D01*
X122385871Y-76531000D01*
X122694129Y-76531000D01*
X122621675Y-76705919D01*
X122555000Y-77041117D01*
X122555000Y-77382883D01*
X122621675Y-77718081D01*
X122752463Y-78033831D01*
X122942337Y-78317998D01*
X123184002Y-78559663D01*
X123446001Y-78734725D01*
X123446001Y-79464668D01*
X123442324Y-79502000D01*
X123456998Y-79650985D01*
X123500454Y-79794246D01*
X123571026Y-79926276D01*
X123629070Y-79997002D01*
X123666000Y-80042001D01*
X123694998Y-80065799D01*
X124462000Y-80832802D01*
X124462001Y-98674667D01*
X124458324Y-98712000D01*
X124472998Y-98860985D01*
X124516454Y-99004246D01*
X124587026Y-99136276D01*
X124649660Y-99212595D01*
X124682000Y-99252001D01*
X124710998Y-99275799D01*
X126348790Y-100913593D01*
X126305000Y-101133740D01*
X126305000Y-101426260D01*
X126362068Y-101713158D01*
X126474010Y-101983411D01*
X126636525Y-102226632D01*
X126843368Y-102433475D01*
X127086589Y-102595990D01*
X127356842Y-102707932D01*
X127643740Y-102765000D01*
X127936260Y-102765000D01*
X128223158Y-102707932D01*
X128493411Y-102595990D01*
X128736632Y-102433475D01*
X128943475Y-102226632D01*
X129105990Y-101983411D01*
X129217932Y-101713158D01*
X129275000Y-101426260D01*
X129275000Y-101133740D01*
X129217932Y-100846842D01*
X129105990Y-100576589D01*
X128943475Y-100333368D01*
X128736632Y-100126525D01*
X128562240Y-100010000D01*
X128736632Y-99893475D01*
X128943475Y-99686632D01*
X129105990Y-99443411D01*
X129217932Y-99173158D01*
X129275000Y-98886260D01*
X129275000Y-98593740D01*
X129217932Y-98306842D01*
X129105990Y-98036589D01*
X128943475Y-97793368D01*
X128736632Y-97586525D01*
X128562240Y-97470000D01*
X128736632Y-97353475D01*
X128943475Y-97146632D01*
X129105990Y-96903411D01*
X129217932Y-96633158D01*
X129275000Y-96346260D01*
X129275000Y-96053740D01*
X129217932Y-95766842D01*
X129105990Y-95496589D01*
X128943475Y-95253368D01*
X128736632Y-95046525D01*
X128562240Y-94930000D01*
X128736632Y-94813475D01*
X128943475Y-94606632D01*
X129105990Y-94363411D01*
X129217932Y-94093158D01*
X129275000Y-93806260D01*
X129275000Y-93513740D01*
X129217932Y-93226842D01*
X129105990Y-92956589D01*
X128943475Y-92713368D01*
X128736632Y-92506525D01*
X128562240Y-92390000D01*
X128736632Y-92273475D01*
X128943475Y-92066632D01*
X129105990Y-91823411D01*
X129217932Y-91553158D01*
X129275000Y-91266260D01*
X129275000Y-90973740D01*
X129217932Y-90686842D01*
X129105990Y-90416589D01*
X128943475Y-90173368D01*
X128736632Y-89966525D01*
X128562240Y-89850000D01*
X128736632Y-89733475D01*
X128943475Y-89526632D01*
X129105990Y-89283411D01*
X129217932Y-89013158D01*
X129275000Y-88726260D01*
X129275000Y-88433740D01*
X129805000Y-88433740D01*
X129805000Y-88726260D01*
X129862068Y-89013158D01*
X129974010Y-89283411D01*
X130136525Y-89526632D01*
X130343368Y-89733475D01*
X130517760Y-89850000D01*
X130343368Y-89966525D01*
X130136525Y-90173368D01*
X129974010Y-90416589D01*
X129862068Y-90686842D01*
X129805000Y-90973740D01*
X129805000Y-91266260D01*
X129862068Y-91553158D01*
X129974010Y-91823411D01*
X130136525Y-92066632D01*
X130343368Y-92273475D01*
X130517760Y-92390000D01*
X130343368Y-92506525D01*
X130136525Y-92713368D01*
X129974010Y-92956589D01*
X129862068Y-93226842D01*
X129805000Y-93513740D01*
X129805000Y-93806260D01*
X129862068Y-94093158D01*
X129974010Y-94363411D01*
X130136525Y-94606632D01*
X130343368Y-94813475D01*
X130517760Y-94930000D01*
X130343368Y-95046525D01*
X130136525Y-95253368D01*
X129974010Y-95496589D01*
X129862068Y-95766842D01*
X129805000Y-96053740D01*
X129805000Y-96346260D01*
X129862068Y-96633158D01*
X129974010Y-96903411D01*
X130136525Y-97146632D01*
X130343368Y-97353475D01*
X130517760Y-97470000D01*
X130343368Y-97586525D01*
X130136525Y-97793368D01*
X129974010Y-98036589D01*
X129862068Y-98306842D01*
X129805000Y-98593740D01*
X129805000Y-98886260D01*
X129862068Y-99173158D01*
X129974010Y-99443411D01*
X130136525Y-99686632D01*
X130343368Y-99893475D01*
X130517760Y-100010000D01*
X130343368Y-100126525D01*
X130136525Y-100333368D01*
X129974010Y-100576589D01*
X129862068Y-100846842D01*
X129805000Y-101133740D01*
X129805000Y-101426260D01*
X129862068Y-101713158D01*
X129974010Y-101983411D01*
X130136525Y-102226632D01*
X130343368Y-102433475D01*
X130586589Y-102595990D01*
X130856842Y-102707932D01*
X131143740Y-102765000D01*
X131436260Y-102765000D01*
X131723158Y-102707932D01*
X131993411Y-102595990D01*
X132236632Y-102433475D01*
X132443475Y-102226632D01*
X132605990Y-101983411D01*
X132717932Y-101713158D01*
X132775000Y-101426260D01*
X132775000Y-101133740D01*
X132717932Y-100846842D01*
X132605990Y-100576589D01*
X132443475Y-100333368D01*
X132236632Y-100126525D01*
X132062240Y-100010000D01*
X132236632Y-99893475D01*
X132443475Y-99686632D01*
X132605990Y-99443411D01*
X132717932Y-99173158D01*
X132775000Y-98886260D01*
X132775000Y-98593740D01*
X132717932Y-98306842D01*
X132605990Y-98036589D01*
X132443475Y-97793368D01*
X132236632Y-97586525D01*
X132062240Y-97470000D01*
X132236632Y-97353475D01*
X132317045Y-97273062D01*
X132535001Y-97273062D01*
X132535001Y-97476940D01*
X132574775Y-97676899D01*
X132652796Y-97865257D01*
X132766064Y-98034775D01*
X132910227Y-98178938D01*
X133079745Y-98292206D01*
X133268103Y-98370227D01*
X133468062Y-98410001D01*
X133671940Y-98410001D01*
X133871899Y-98370227D01*
X134060257Y-98292206D01*
X134229775Y-98178938D01*
X134273712Y-98135001D01*
X134343198Y-98135001D01*
X133564199Y-98914000D01*
X133502061Y-98914000D01*
X133302102Y-98953774D01*
X133113744Y-99031795D01*
X132944226Y-99145063D01*
X132800063Y-99289226D01*
X132686795Y-99458744D01*
X132608774Y-99647102D01*
X132569000Y-99847061D01*
X132569000Y-100050939D01*
X132608774Y-100250898D01*
X132686795Y-100439256D01*
X132800063Y-100608774D01*
X132944226Y-100752937D01*
X133113744Y-100866205D01*
X133302102Y-100944226D01*
X133502061Y-100984000D01*
X133705939Y-100984000D01*
X133905898Y-100944226D01*
X134094256Y-100866205D01*
X134263774Y-100752937D01*
X134407937Y-100608774D01*
X134521205Y-100439256D01*
X134599226Y-100250898D01*
X134639000Y-100050939D01*
X134639000Y-99988801D01*
X139231803Y-95396000D01*
X139420939Y-95396000D01*
X139620898Y-95356226D01*
X139809256Y-95278205D01*
X139978774Y-95164937D01*
X140122937Y-95020774D01*
X140236205Y-94851256D01*
X140314226Y-94662898D01*
X140354000Y-94462939D01*
X140354000Y-94259061D01*
X140314226Y-94059102D01*
X140236205Y-93870744D01*
X140139490Y-93726000D01*
X140236205Y-93581256D01*
X140314226Y-93392898D01*
X140354000Y-93192939D01*
X140354000Y-92989061D01*
X140314226Y-92789102D01*
X140236205Y-92600744D01*
X140122937Y-92431226D01*
X139978774Y-92287063D01*
X139809256Y-92173795D01*
X139620898Y-92095774D01*
X139420939Y-92056000D01*
X139217061Y-92056000D01*
X139017102Y-92095774D01*
X138828744Y-92173795D01*
X138659226Y-92287063D01*
X138515063Y-92431226D01*
X138401795Y-92600744D01*
X138323774Y-92789102D01*
X138284000Y-92989061D01*
X138284000Y-93051198D01*
X134720198Y-96615001D01*
X134273712Y-96615001D01*
X134229775Y-96571064D01*
X134060257Y-96457796D01*
X133871899Y-96379775D01*
X133671940Y-96340001D01*
X133468062Y-96340001D01*
X133268103Y-96379775D01*
X133079745Y-96457796D01*
X132910227Y-96571064D01*
X132766064Y-96715227D01*
X132652796Y-96884745D01*
X132574775Y-97073103D01*
X132535001Y-97273062D01*
X132317045Y-97273062D01*
X132443475Y-97146632D01*
X132605990Y-96903411D01*
X132717932Y-96633158D01*
X132775000Y-96346260D01*
X132775000Y-96053740D01*
X132717932Y-95766842D01*
X132605990Y-95496589D01*
X132443475Y-95253368D01*
X132236632Y-95046525D01*
X132062240Y-94930000D01*
X132236632Y-94813475D01*
X132443475Y-94606632D01*
X132605990Y-94363411D01*
X132717932Y-94093158D01*
X132775000Y-93806260D01*
X132775000Y-93513740D01*
X132717932Y-93226842D01*
X132605990Y-92956589D01*
X132443475Y-92713368D01*
X132236632Y-92506525D01*
X132062240Y-92390000D01*
X132236632Y-92273475D01*
X132443475Y-92066632D01*
X132605990Y-91823411D01*
X132717932Y-91553158D01*
X132775000Y-91266260D01*
X132775000Y-90973740D01*
X132717932Y-90686842D01*
X132605990Y-90416589D01*
X132443475Y-90173368D01*
X132236632Y-89966525D01*
X132062240Y-89850000D01*
X132236632Y-89733475D01*
X132443475Y-89526632D01*
X132605990Y-89283411D01*
X132717932Y-89013158D01*
X132775000Y-88726260D01*
X132775000Y-88433740D01*
X132717932Y-88146842D01*
X132605990Y-87876589D01*
X132443475Y-87633368D01*
X132236632Y-87426525D01*
X131993411Y-87264010D01*
X131766100Y-87169855D01*
X131832949Y-87144799D01*
X132038052Y-87017647D01*
X132214408Y-86852924D01*
X132355239Y-86656961D01*
X132455134Y-86437288D01*
X132479489Y-86356980D01*
X132418627Y-86167000D01*
X131417000Y-86167000D01*
X131417000Y-86187000D01*
X131163000Y-86187000D01*
X131163000Y-86167000D01*
X130161373Y-86167000D01*
X130100511Y-86356980D01*
X130124866Y-86437288D01*
X130224761Y-86656961D01*
X130365592Y-86852924D01*
X130541948Y-87017647D01*
X130747051Y-87144799D01*
X130813900Y-87169855D01*
X130586589Y-87264010D01*
X130343368Y-87426525D01*
X130136525Y-87633368D01*
X129974010Y-87876589D01*
X129862068Y-88146842D01*
X129805000Y-88433740D01*
X129275000Y-88433740D01*
X129217932Y-88146842D01*
X129105990Y-87876589D01*
X128943475Y-87633368D01*
X128736632Y-87426525D01*
X128493411Y-87264010D01*
X128266100Y-87169855D01*
X128332949Y-87144799D01*
X128538052Y-87017647D01*
X128714408Y-86852924D01*
X128855239Y-86656961D01*
X128955134Y-86437288D01*
X128979489Y-86356980D01*
X128918627Y-86167000D01*
X127917000Y-86167000D01*
X127917000Y-86187000D01*
X127663000Y-86187000D01*
X127663000Y-86167000D01*
X127643000Y-86167000D01*
X127643000Y-85913000D01*
X127663000Y-85913000D01*
X127663000Y-84910813D01*
X127917000Y-84910813D01*
X127917000Y-85913000D01*
X128918627Y-85913000D01*
X128979489Y-85723020D01*
X128955134Y-85642712D01*
X128855239Y-85423039D01*
X128714408Y-85227076D01*
X128538052Y-85062353D01*
X128332949Y-84935201D01*
X128106981Y-84850505D01*
X127917000Y-84910813D01*
X127663000Y-84910813D01*
X127473019Y-84850505D01*
X127374999Y-84887244D01*
X127374999Y-84731566D01*
X127567750Y-84731000D01*
X127663000Y-84635750D01*
X127663000Y-83627000D01*
X127917000Y-83627000D01*
X127917000Y-84635750D01*
X128012250Y-84731000D01*
X128640000Y-84732843D01*
X128714689Y-84725487D01*
X128786508Y-84703701D01*
X128852696Y-84668322D01*
X128910711Y-84620711D01*
X128958322Y-84562696D01*
X128993701Y-84496508D01*
X129015487Y-84424689D01*
X129022843Y-84350000D01*
X129021000Y-83722250D01*
X128925750Y-83627000D01*
X127917000Y-83627000D01*
X127663000Y-83627000D01*
X127643000Y-83627000D01*
X127643000Y-83373000D01*
X127663000Y-83373000D01*
X127663000Y-83353000D01*
X127917000Y-83353000D01*
X127917000Y-83373000D01*
X128925750Y-83373000D01*
X129021000Y-83277750D01*
X129022843Y-82650000D01*
X129801928Y-82650000D01*
X129801928Y-84350000D01*
X129814188Y-84474482D01*
X129850498Y-84594180D01*
X129909463Y-84704494D01*
X129988815Y-84801185D01*
X130085506Y-84880537D01*
X130195820Y-84939502D01*
X130315518Y-84975812D01*
X130440000Y-84988072D01*
X130661767Y-84988072D01*
X130541948Y-85062353D01*
X130365592Y-85227076D01*
X130224761Y-85423039D01*
X130124866Y-85642712D01*
X130100511Y-85723020D01*
X130161373Y-85913000D01*
X131163000Y-85913000D01*
X131163000Y-85893000D01*
X131417000Y-85893000D01*
X131417000Y-85913000D01*
X132418627Y-85913000D01*
X132479489Y-85723020D01*
X155500511Y-85723020D01*
X155561373Y-85913000D01*
X156563000Y-85913000D01*
X156563000Y-84910813D01*
X156373019Y-84850505D01*
X156147051Y-84935201D01*
X155941948Y-85062353D01*
X155765592Y-85227076D01*
X155624761Y-85423039D01*
X155524866Y-85642712D01*
X155500511Y-85723020D01*
X132479489Y-85723020D01*
X132455134Y-85642712D01*
X132355239Y-85423039D01*
X132214408Y-85227076D01*
X132038052Y-85062353D01*
X131918233Y-84988072D01*
X132140000Y-84988072D01*
X132264482Y-84975812D01*
X132384180Y-84939502D01*
X132494494Y-84880537D01*
X132591185Y-84801185D01*
X132670537Y-84704494D01*
X132729502Y-84594180D01*
X132765812Y-84474482D01*
X132778072Y-84350000D01*
X132778072Y-82650000D01*
X132765812Y-82525518D01*
X132729502Y-82405820D01*
X132670537Y-82295506D01*
X132591185Y-82198815D01*
X132494494Y-82119463D01*
X132384180Y-82060498D01*
X132264482Y-82024188D01*
X132140000Y-82011928D01*
X130440000Y-82011928D01*
X130315518Y-82024188D01*
X130195820Y-82060498D01*
X130085506Y-82119463D01*
X129988815Y-82198815D01*
X129909463Y-82295506D01*
X129850498Y-82405820D01*
X129814188Y-82525518D01*
X129801928Y-82650000D01*
X129022843Y-82650000D01*
X129015487Y-82575311D01*
X128993701Y-82503492D01*
X128958322Y-82437304D01*
X128910711Y-82379289D01*
X128852696Y-82331678D01*
X128786508Y-82296299D01*
X128714689Y-82274513D01*
X128640000Y-82267157D01*
X128012250Y-82269000D01*
X127917002Y-82364248D01*
X127917002Y-82269000D01*
X127810799Y-82269000D01*
X130071800Y-80008000D01*
X132716678Y-80008000D01*
X132754000Y-80011676D01*
X132791322Y-80008000D01*
X132791333Y-80008000D01*
X132902986Y-79997003D01*
X133046247Y-79953546D01*
X133178276Y-79882974D01*
X133294001Y-79788001D01*
X133317804Y-79758997D01*
X134222088Y-78854714D01*
X134283919Y-78880325D01*
X134619117Y-78947000D01*
X134960883Y-78947000D01*
X135296081Y-78880325D01*
X135611831Y-78749537D01*
X135895998Y-78559663D01*
X136137663Y-78317998D01*
X136327537Y-78033831D01*
X136458325Y-77718081D01*
X136525000Y-77382883D01*
X136525000Y-77041117D01*
X136458325Y-76705919D01*
X136385871Y-76531000D01*
X136694129Y-76531000D01*
X136621675Y-76705919D01*
X136555000Y-77041117D01*
X136555000Y-77382883D01*
X136621675Y-77718081D01*
X136752463Y-78033831D01*
X136942337Y-78317998D01*
X137184002Y-78559663D01*
X137468169Y-78749537D01*
X137783919Y-78880325D01*
X138119117Y-78947000D01*
X138460883Y-78947000D01*
X138796081Y-78880325D01*
X139046001Y-78776805D01*
X139046001Y-81610162D01*
X139040994Y-81661000D01*
X139060977Y-81863895D01*
X139120160Y-82058993D01*
X139216266Y-82238797D01*
X139313197Y-82356907D01*
X139345605Y-82396396D01*
X139385092Y-82428802D01*
X141218197Y-84261908D01*
X141250604Y-84301396D01*
X141290092Y-84333803D01*
X141408202Y-84430734D01*
X141490050Y-84474482D01*
X141588007Y-84526841D01*
X141783105Y-84586024D01*
X141935162Y-84601000D01*
X141935165Y-84601000D01*
X141986000Y-84606007D01*
X142036835Y-84601000D01*
X142849939Y-84601000D01*
X142900057Y-84591031D01*
X142950895Y-84586024D01*
X142999777Y-84571196D01*
X143049898Y-84561226D01*
X143097113Y-84541669D01*
X143145993Y-84526841D01*
X143191042Y-84502762D01*
X143238256Y-84483205D01*
X143280746Y-84454814D01*
X143325797Y-84430734D01*
X143365284Y-84398328D01*
X143407774Y-84369937D01*
X143427711Y-84350000D01*
X155457157Y-84350000D01*
X155464513Y-84424689D01*
X155486299Y-84496508D01*
X155521678Y-84562696D01*
X155569289Y-84620711D01*
X155627304Y-84668322D01*
X155693492Y-84703701D01*
X155765311Y-84725487D01*
X155840000Y-84732843D01*
X156467750Y-84731000D01*
X156563000Y-84635750D01*
X156563000Y-83627000D01*
X155554250Y-83627000D01*
X155459000Y-83722250D01*
X155457157Y-84350000D01*
X143427711Y-84350000D01*
X143443908Y-84333803D01*
X143483396Y-84301396D01*
X143515803Y-84261908D01*
X143551937Y-84225774D01*
X143580328Y-84183284D01*
X143612734Y-84143797D01*
X143636814Y-84098746D01*
X143665205Y-84056256D01*
X143684762Y-84009042D01*
X143708841Y-83963993D01*
X143723669Y-83915113D01*
X143743226Y-83867898D01*
X143753196Y-83817777D01*
X143768024Y-83768895D01*
X143773031Y-83718057D01*
X143783000Y-83667939D01*
X143783000Y-83616838D01*
X143788007Y-83566000D01*
X143783000Y-83515162D01*
X143783000Y-83464061D01*
X143773031Y-83413943D01*
X143768024Y-83363105D01*
X143753196Y-83314223D01*
X143743226Y-83264102D01*
X143723669Y-83216887D01*
X143708841Y-83168007D01*
X143684762Y-83122958D01*
X143665205Y-83075744D01*
X143636814Y-83033254D01*
X143612734Y-82988203D01*
X143580328Y-82948716D01*
X143551937Y-82906226D01*
X143515803Y-82870092D01*
X143483396Y-82830604D01*
X143443908Y-82798197D01*
X143407774Y-82762063D01*
X143365284Y-82733672D01*
X143325797Y-82701266D01*
X143280746Y-82677186D01*
X143240060Y-82650000D01*
X155457157Y-82650000D01*
X155459000Y-83277750D01*
X155554250Y-83373000D01*
X156563000Y-83373000D01*
X156563000Y-82364250D01*
X156467750Y-82269000D01*
X155840000Y-82267157D01*
X155765311Y-82274513D01*
X155693492Y-82296299D01*
X155627304Y-82331678D01*
X155569289Y-82379289D01*
X155521678Y-82437304D01*
X155486299Y-82503492D01*
X155464513Y-82575311D01*
X155457157Y-82650000D01*
X143240060Y-82650000D01*
X143238256Y-82648795D01*
X143191042Y-82629238D01*
X143145993Y-82605159D01*
X143097113Y-82590331D01*
X143049898Y-82570774D01*
X142999777Y-82560804D01*
X142950895Y-82545976D01*
X142900057Y-82540969D01*
X142849939Y-82531000D01*
X142414711Y-82531000D01*
X141116000Y-81232290D01*
X141116000Y-78531377D01*
X141284572Y-78611707D01*
X141567353Y-78683416D01*
X141858690Y-78698580D01*
X142147387Y-78656615D01*
X142422351Y-78559134D01*
X142558786Y-78486209D01*
X142681035Y-78282640D01*
X144398965Y-78282640D01*
X144521214Y-78486209D01*
X144784572Y-78611707D01*
X145067353Y-78683416D01*
X145358690Y-78698580D01*
X145647387Y-78656615D01*
X145922351Y-78559134D01*
X146058786Y-78486209D01*
X146181035Y-78282640D01*
X145290000Y-77391605D01*
X144398965Y-78282640D01*
X142681035Y-78282640D01*
X141790000Y-77391605D01*
X141775858Y-77405748D01*
X141596253Y-77226143D01*
X141610395Y-77212000D01*
X141969605Y-77212000D01*
X142860640Y-78103035D01*
X143064209Y-77980786D01*
X143189707Y-77717428D01*
X143261416Y-77434647D01*
X143269429Y-77280690D01*
X143803420Y-77280690D01*
X143845385Y-77569387D01*
X143942866Y-77844351D01*
X144015791Y-77980786D01*
X144219360Y-78103035D01*
X145110395Y-77212000D01*
X145469605Y-77212000D01*
X146360640Y-78103035D01*
X146564209Y-77980786D01*
X146689707Y-77717428D01*
X146761416Y-77434647D01*
X146776580Y-77143310D01*
X146734615Y-76854613D01*
X146637134Y-76579649D01*
X146564209Y-76443214D01*
X146360640Y-76320965D01*
X145469605Y-77212000D01*
X145110395Y-77212000D01*
X144219360Y-76320965D01*
X144015791Y-76443214D01*
X143890293Y-76706572D01*
X143818584Y-76989353D01*
X143803420Y-77280690D01*
X143269429Y-77280690D01*
X143276580Y-77143310D01*
X143234615Y-76854613D01*
X143137134Y-76579649D01*
X143064209Y-76443214D01*
X142860640Y-76320965D01*
X141969605Y-77212000D01*
X141610395Y-77212000D01*
X141596253Y-77197858D01*
X141775858Y-77018253D01*
X141790000Y-77032395D01*
X142681035Y-76141360D01*
X144398965Y-76141360D01*
X145290000Y-77032395D01*
X146181035Y-76141360D01*
X146058786Y-75937791D01*
X145795428Y-75812293D01*
X145512647Y-75740584D01*
X145221310Y-75725420D01*
X144932613Y-75767385D01*
X144657649Y-75864866D01*
X144521214Y-75937791D01*
X144398965Y-76141360D01*
X142681035Y-76141360D01*
X142558786Y-75937791D01*
X142295428Y-75812293D01*
X142012647Y-75740584D01*
X141721310Y-75725420D01*
X141432613Y-75767385D01*
X141157649Y-75864866D01*
X141116000Y-75887128D01*
X141116000Y-75546838D01*
X141121007Y-75496000D01*
X141101024Y-75293105D01*
X141041841Y-75098007D01*
X140945734Y-74918203D01*
X140863548Y-74818060D01*
X140898966Y-74782642D01*
X141021214Y-74986209D01*
X141284572Y-75111707D01*
X141567353Y-75183416D01*
X141858690Y-75198580D01*
X142147387Y-75156615D01*
X142422351Y-75059134D01*
X142558786Y-74986209D01*
X142681035Y-74782640D01*
X144398965Y-74782640D01*
X144521214Y-74986209D01*
X144784572Y-75111707D01*
X145067353Y-75183416D01*
X145358690Y-75198580D01*
X145647387Y-75156615D01*
X145922351Y-75059134D01*
X146058786Y-74986209D01*
X146181035Y-74782640D01*
X145290000Y-73891605D01*
X144398965Y-74782640D01*
X142681035Y-74782640D01*
X141790000Y-73891605D01*
X141775858Y-73905748D01*
X141596253Y-73726143D01*
X141610395Y-73712000D01*
X141596253Y-73697858D01*
X141775858Y-73518253D01*
X141790000Y-73532395D01*
X141804143Y-73518253D01*
X141983748Y-73697858D01*
X141969605Y-73712000D01*
X142860640Y-74603035D01*
X143064209Y-74480786D01*
X143189707Y-74217428D01*
X143261416Y-73934647D01*
X143276580Y-73643310D01*
X143234615Y-73354613D01*
X143137134Y-73079649D01*
X143119682Y-73046999D01*
X143966334Y-73046999D01*
X143890293Y-73206572D01*
X143818584Y-73489353D01*
X143803420Y-73780690D01*
X143845385Y-74069387D01*
X143942866Y-74344351D01*
X144015791Y-74480786D01*
X144219360Y-74603035D01*
X145110395Y-73712000D01*
X145096253Y-73697858D01*
X145275858Y-73518253D01*
X145290000Y-73532395D01*
X145304143Y-73518253D01*
X145483748Y-73697858D01*
X145469605Y-73712000D01*
X146360640Y-74603035D01*
X146564209Y-74480786D01*
X146689707Y-74217428D01*
X146761416Y-73934647D01*
X146776580Y-73643310D01*
X146734615Y-73354613D01*
X146637134Y-73079649D01*
X146619682Y-73046999D01*
X150268548Y-73046999D01*
X150243262Y-73072285D01*
X149954893Y-73503859D01*
X149756261Y-73983399D01*
X149655000Y-74492475D01*
X149655000Y-75011525D01*
X149756261Y-75520601D01*
X149954893Y-76000141D01*
X150243262Y-76431715D01*
X150610285Y-76798738D01*
X151041859Y-77087107D01*
X151521399Y-77285739D01*
X152030475Y-77387000D01*
X152549525Y-77387000D01*
X153058601Y-77285739D01*
X153538141Y-77087107D01*
X153969715Y-76798738D01*
X154336738Y-76431715D01*
X154625107Y-76000141D01*
X154823739Y-75520601D01*
X154925000Y-75011525D01*
X154925000Y-74996129D01*
X157105002Y-77176132D01*
X157105001Y-82268434D01*
X156912250Y-82269000D01*
X156817000Y-82364250D01*
X156817000Y-83373000D01*
X156837000Y-83373000D01*
X156837000Y-83627000D01*
X156817000Y-83627000D01*
X156817000Y-84635750D01*
X156912250Y-84731000D01*
X157105001Y-84731566D01*
X157105001Y-84887244D01*
X157006981Y-84850505D01*
X156817000Y-84910813D01*
X156817000Y-85913000D01*
X156837000Y-85913000D01*
X156837000Y-86167000D01*
X156817000Y-86167000D01*
X156817000Y-86187000D01*
X156563000Y-86187000D01*
X156563000Y-86167000D01*
X155561373Y-86167000D01*
X155500511Y-86356980D01*
X155524866Y-86437288D01*
X155624761Y-86656961D01*
X155765592Y-86852924D01*
X155941948Y-87017647D01*
X156147051Y-87144799D01*
X156213900Y-87169855D01*
X155986589Y-87264010D01*
X155743368Y-87426525D01*
X155536525Y-87633368D01*
X155374010Y-87876589D01*
X155262068Y-88146842D01*
X155205000Y-88433740D01*
X155205000Y-88726260D01*
X155262068Y-89013158D01*
X155374010Y-89283411D01*
X155536525Y-89526632D01*
X155555000Y-89545107D01*
X155555001Y-90154892D01*
X155536525Y-90173368D01*
X155374010Y-90416589D01*
X155262068Y-90686842D01*
X155205000Y-90973740D01*
X155205000Y-91266260D01*
X155262068Y-91553158D01*
X155374010Y-91823411D01*
X155536525Y-92066632D01*
X155743368Y-92273475D01*
X155917760Y-92390000D01*
X155743368Y-92506525D01*
X155536525Y-92713368D01*
X155374010Y-92956589D01*
X155262068Y-93226842D01*
X155205000Y-93513740D01*
X155205000Y-93806260D01*
X155262068Y-94093158D01*
X155374010Y-94363411D01*
X155536525Y-94606632D01*
X155743368Y-94813475D01*
X155917760Y-94930000D01*
X155743368Y-95046525D01*
X155536525Y-95253368D01*
X155374010Y-95496589D01*
X155262068Y-95766842D01*
X155205000Y-96053740D01*
X155205000Y-96346260D01*
X155262068Y-96633158D01*
X155374010Y-96903411D01*
X155536525Y-97146632D01*
X155743368Y-97353475D01*
X155917760Y-97470000D01*
X155743368Y-97586525D01*
X155536525Y-97793368D01*
X155374010Y-98036589D01*
X155262068Y-98306842D01*
X155205000Y-98593740D01*
X155205000Y-98886260D01*
X155262068Y-99173158D01*
X155374010Y-99443411D01*
X155536525Y-99686632D01*
X155743368Y-99893475D01*
X155917760Y-100010000D01*
X155743368Y-100126525D01*
X155536525Y-100333368D01*
X155374010Y-100576589D01*
X155262068Y-100846842D01*
X155205000Y-101133740D01*
X155205000Y-101426260D01*
X155262068Y-101713158D01*
X155374010Y-101983411D01*
X155536525Y-102226632D01*
X155743368Y-102433475D01*
X155986589Y-102595990D01*
X156256842Y-102707932D01*
X156543740Y-102765000D01*
X156836260Y-102765000D01*
X157123158Y-102707932D01*
X157393411Y-102595990D01*
X157636632Y-102433475D01*
X157843475Y-102226632D01*
X158005990Y-101983411D01*
X158117932Y-101713158D01*
X158175000Y-101426260D01*
X158175000Y-101133740D01*
X158117932Y-100846842D01*
X158005990Y-100576589D01*
X157843475Y-100333368D01*
X157636632Y-100126525D01*
X157462240Y-100010000D01*
X157636632Y-99893475D01*
X157843475Y-99686632D01*
X158005990Y-99443411D01*
X158117932Y-99173158D01*
X158175000Y-98886260D01*
X158175000Y-98593740D01*
X158117932Y-98306842D01*
X158005990Y-98036589D01*
X157843475Y-97793368D01*
X157636632Y-97586525D01*
X157462240Y-97470000D01*
X157636632Y-97353475D01*
X157843475Y-97146632D01*
X158005990Y-96903411D01*
X158117932Y-96633158D01*
X158175000Y-96346260D01*
X158175000Y-96053740D01*
X158117932Y-95766842D01*
X158005990Y-95496589D01*
X157843475Y-95253368D01*
X157636632Y-95046525D01*
X157462240Y-94930000D01*
X157636632Y-94813475D01*
X157843475Y-94606632D01*
X158005990Y-94363411D01*
X158117932Y-94093158D01*
X158175000Y-93806260D01*
X158175000Y-93513740D01*
X158117932Y-93226842D01*
X158005990Y-92956589D01*
X157843475Y-92713368D01*
X157636632Y-92506525D01*
X157462240Y-92390000D01*
X157636632Y-92273475D01*
X157660936Y-92249171D01*
X157768499Y-92238577D01*
X157982447Y-92173676D01*
X158179623Y-92068284D01*
X158352449Y-91926449D01*
X158387996Y-91883135D01*
X158450135Y-91820996D01*
X158493449Y-91785449D01*
X158635284Y-91612623D01*
X158740676Y-91415447D01*
X158805577Y-91201499D01*
X158822000Y-91034752D01*
X158822000Y-91034751D01*
X158827491Y-90979001D01*
X158822000Y-90923249D01*
X158822000Y-88053132D01*
X159003141Y-87871991D01*
X159046450Y-87836448D01*
X159188285Y-87663622D01*
X159293677Y-87466446D01*
X159358578Y-87252498D01*
X159375001Y-87085751D01*
X159375001Y-87085750D01*
X159380492Y-87029999D01*
X159375001Y-86974247D01*
X159375001Y-76761751D01*
X159380492Y-76705999D01*
X159358578Y-76483500D01*
X159293677Y-76269552D01*
X159188285Y-76072376D01*
X159129003Y-76000141D01*
X159046450Y-75899550D01*
X159003142Y-75864008D01*
X154287997Y-71148864D01*
X154252450Y-71105550D01*
X154079624Y-70963715D01*
X153882448Y-70858323D01*
X153668500Y-70793422D01*
X153501753Y-70776999D01*
X153501752Y-70776999D01*
X153446001Y-70771508D01*
X153390250Y-70776999D01*
X140145753Y-70776999D01*
X140090001Y-70771508D01*
X140034249Y-70776999D01*
X139867502Y-70793422D01*
X139653554Y-70858323D01*
X139456378Y-70963715D01*
X139283552Y-71105550D01*
X139248010Y-71148859D01*
X138419868Y-71977000D01*
X138119117Y-71977000D01*
X137783919Y-72043675D01*
X137468169Y-72174463D01*
X137184002Y-72364337D01*
X136942337Y-72606002D01*
X136752463Y-72890169D01*
X136621675Y-73205919D01*
X136555000Y-73541117D01*
X136555000Y-73882883D01*
X136621675Y-74218081D01*
X136722295Y-74461000D01*
X136357705Y-74461000D01*
X136458325Y-74218081D01*
X136525000Y-73882883D01*
X136525000Y-73541117D01*
X136458325Y-73205919D01*
X136327537Y-72890169D01*
X136137663Y-72606002D01*
X135895998Y-72364337D01*
X135611831Y-72174463D01*
X135296081Y-72043675D01*
X134960883Y-71977000D01*
X134619117Y-71977000D01*
X134283919Y-72043675D01*
X133968169Y-72174463D01*
X133684002Y-72364337D01*
X133442337Y-72606002D01*
X133252463Y-72890169D01*
X133121675Y-73205919D01*
X133055000Y-73541117D01*
X133055000Y-73882883D01*
X133121675Y-74218081D01*
X133222295Y-74461000D01*
X132857705Y-74461000D01*
X132958325Y-74218081D01*
X133025000Y-73882883D01*
X133025000Y-73541117D01*
X132958325Y-73205919D01*
X132827537Y-72890169D01*
X132637663Y-72606002D01*
X132395998Y-72364337D01*
X132111831Y-72174463D01*
X131796081Y-72043675D01*
X131460883Y-71977000D01*
X131119117Y-71977000D01*
X130783919Y-72043675D01*
X130468169Y-72174463D01*
X130184002Y-72364337D01*
X129942337Y-72606002D01*
X129752463Y-72890169D01*
X129621675Y-73205919D01*
X129555000Y-73541117D01*
X129555000Y-73882883D01*
X129621675Y-74218081D01*
X129722295Y-74461000D01*
X129357705Y-74461000D01*
X129458325Y-74218081D01*
X129525000Y-73882883D01*
X129525000Y-73541117D01*
X129458325Y-73205919D01*
X129327537Y-72890169D01*
X129137663Y-72606002D01*
X128895998Y-72364337D01*
X128611831Y-72174463D01*
X128296081Y-72043675D01*
X127960883Y-71977000D01*
X127619117Y-71977000D01*
X127283919Y-72043675D01*
X126968169Y-72174463D01*
X126684002Y-72364337D01*
X126442337Y-72606002D01*
X126252463Y-72890169D01*
X126121675Y-73205919D01*
X126055000Y-73541117D01*
X126055000Y-73882883D01*
X126121675Y-74218081D01*
X126222295Y-74461000D01*
X125857705Y-74461000D01*
X125958325Y-74218081D01*
X126025000Y-73882883D01*
X126025000Y-73541117D01*
X125958325Y-73205919D01*
X125827537Y-72890169D01*
X125637663Y-72606002D01*
X125395998Y-72364337D01*
X125111831Y-72174463D01*
X124796081Y-72043675D01*
X124460883Y-71977000D01*
X124119117Y-71977000D01*
X123783919Y-72043675D01*
X123468169Y-72174463D01*
X123184002Y-72364337D01*
X122942337Y-72606002D01*
X122752463Y-72890169D01*
X122621675Y-73205919D01*
X122555000Y-73541117D01*
X122555000Y-73882883D01*
X122621675Y-74218081D01*
X122722295Y-74461000D01*
X122357705Y-74461000D01*
X122458325Y-74218081D01*
X122525000Y-73882883D01*
X122525000Y-73541117D01*
X122458325Y-73205919D01*
X122327537Y-72890169D01*
X122137663Y-72606002D01*
X121895998Y-72364337D01*
X121611831Y-72174463D01*
X121296081Y-72043675D01*
X120960883Y-71977000D01*
X120619117Y-71977000D01*
X120283919Y-72043675D01*
X120222088Y-72069286D01*
X119928803Y-71776002D01*
X119905000Y-71746998D01*
X119789275Y-71652025D01*
X119657246Y-71581453D01*
X119513985Y-71537996D01*
X119402332Y-71526999D01*
X119402321Y-71526999D01*
X119364999Y-71523323D01*
X119327677Y-71526999D01*
X115607333Y-71526999D01*
X115570000Y-71523322D01*
X115532667Y-71526999D01*
X115421014Y-71537996D01*
X115277753Y-71581453D01*
X115145724Y-71652025D01*
X115029999Y-71746998D01*
X114935026Y-71862723D01*
X114864454Y-71994752D01*
X114820997Y-72138013D01*
X114806323Y-72286999D01*
X114808160Y-72305645D01*
X114611831Y-72174463D01*
X114296081Y-72043675D01*
X113960883Y-71977000D01*
X113619117Y-71977000D01*
X113283919Y-72043675D01*
X112968169Y-72174463D01*
X112684002Y-72364337D01*
X112442337Y-72606002D01*
X112252463Y-72890169D01*
X112121675Y-73205919D01*
X112055000Y-73541117D01*
X109140540Y-73541117D01*
X109125107Y-73503859D01*
X108836738Y-73072285D01*
X108469715Y-72705262D01*
X108038141Y-72416893D01*
X107558601Y-72218261D01*
X107049525Y-72117000D01*
X106530475Y-72117000D01*
X106021399Y-72218261D01*
X105541859Y-72416893D01*
X105110285Y-72705262D01*
X104743262Y-73072285D01*
X104454893Y-73503859D01*
X104256261Y-73983399D01*
X104155000Y-74492475D01*
X99173255Y-74492475D01*
X99173255Y-73162440D01*
X99178168Y-72920196D01*
X99192344Y-72687779D01*
X99215655Y-72459068D01*
X99247851Y-72234312D01*
X99288665Y-72013843D01*
X99337831Y-71797993D01*
X99395086Y-71587032D01*
X99460175Y-71381224D01*
X99532793Y-71180967D01*
X99612689Y-70986484D01*
X99699538Y-70798174D01*
X99793095Y-70616233D01*
X99893013Y-70441058D01*
X99999038Y-70272851D01*
X100110814Y-70111974D01*
X100228045Y-69958676D01*
X100350419Y-69813215D01*
X100477625Y-69675838D01*
X100609338Y-69546793D01*
X100745252Y-69426294D01*
X100885037Y-69314567D01*
X101028439Y-69211767D01*
X101175174Y-69118070D01*
X101324971Y-69033637D01*
X101477644Y-68958585D01*
X101632984Y-68893053D01*
X101790861Y-68837156D01*
X101951146Y-68791034D01*
X102113810Y-68754817D01*
X102278815Y-68728676D01*
X102446166Y-68712810D01*
X102626016Y-68707140D01*
X157442484Y-68707140D01*
X157622333Y-68712810D01*
%TA.AperFunction,Conductor*%
D22*
G36*
X157622333Y-68712810D02*
G01*
X157789680Y-68728675D01*
X157954694Y-68754818D01*
X158117359Y-68791035D01*
X158277632Y-68837155D01*
X158435501Y-68893047D01*
X158590862Y-68958588D01*
X158743514Y-69033630D01*
X158893336Y-69118076D01*
X159040054Y-69211764D01*
X159183471Y-69314575D01*
X159323262Y-69426308D01*
X159459170Y-69546802D01*
X159590873Y-69675838D01*
X159718079Y-69813215D01*
X159840453Y-69958676D01*
X159957690Y-70111982D01*
X160069469Y-70272864D01*
X160175485Y-70441059D01*
X160275403Y-70616234D01*
X160368959Y-70798173D01*
X160455812Y-70986492D01*
X160535705Y-71180967D01*
X160608321Y-71381219D01*
X160673406Y-71587011D01*
X160730667Y-71797992D01*
X160779837Y-72013864D01*
X160820648Y-72234312D01*
X160852841Y-72459048D01*
X160876154Y-72687779D01*
X160890330Y-72920196D01*
X160895244Y-73162443D01*
X160895244Y-99557687D01*
X160890330Y-99799915D01*
X160876154Y-100032316D01*
X160852841Y-100261037D01*
X160820648Y-100485765D01*
X160779839Y-100706200D01*
X160730666Y-100922073D01*
X160673411Y-101133031D01*
X160608325Y-101338828D01*
X160535698Y-101539106D01*
X160455818Y-101733549D01*
X160368955Y-101921890D01*
X160275410Y-102103808D01*
X160175470Y-102279024D01*
X160069471Y-102447191D01*
X159957694Y-102608073D01*
X159840439Y-102761406D01*
X159718076Y-102906857D01*
X159590860Y-103044250D01*
X159459145Y-103173301D01*
X159323238Y-103293797D01*
X159183454Y-103405528D01*
X159040051Y-103508334D01*
X158893314Y-103602038D01*
X158743508Y-103686480D01*
X158590840Y-103761534D01*
X158435505Y-103827067D01*
X158277628Y-103882966D01*
X158117335Y-103929094D01*
X157954687Y-103965310D01*
X157789685Y-103991453D01*
X157622321Y-104007322D01*
X157442480Y-104012992D01*
X102626020Y-104012992D01*
X102446178Y-104007322D01*
X102278813Y-103991453D01*
X102113811Y-103965310D01*
X101951160Y-103929093D01*
X101790875Y-103882968D01*
X101632990Y-103827066D01*
X101477665Y-103761537D01*
X101324984Y-103686477D01*
X101175179Y-103602035D01*
X101028453Y-103508339D01*
X100885053Y-103405535D01*
X100745252Y-103293790D01*
X100609335Y-103173284D01*
X100477630Y-103044241D01*
X100350422Y-102906857D01*
X100228048Y-102761394D01*
X100110804Y-102608074D01*
X99999039Y-102447211D01*
X99893024Y-102279016D01*
X99793088Y-102103808D01*
X99699543Y-101921889D01*
X99612684Y-101733557D01*
X99532801Y-101539106D01*
X99460171Y-101338820D01*
X99395088Y-101133036D01*
X99337837Y-100922094D01*
X99288658Y-100706195D01*
X99247849Y-100485761D01*
X99215657Y-100261037D01*
X99192344Y-100032316D01*
X99178168Y-99799915D01*
X99173255Y-99557692D01*
X99173255Y-88433740D01*
X101075000Y-88433740D01*
X101075000Y-88726260D01*
X101132068Y-89013158D01*
X101244010Y-89283411D01*
X101406525Y-89526632D01*
X101613368Y-89733475D01*
X101787760Y-89850000D01*
X101613368Y-89966525D01*
X101406525Y-90173368D01*
X101244010Y-90416589D01*
X101132068Y-90686842D01*
X101075000Y-90973740D01*
X101075000Y-91266260D01*
X101132068Y-91553158D01*
X101244010Y-91823411D01*
X101406525Y-92066632D01*
X101613368Y-92273475D01*
X101787760Y-92390000D01*
X101613368Y-92506525D01*
X101406525Y-92713368D01*
X101244010Y-92956589D01*
X101132068Y-93226842D01*
X101075000Y-93513740D01*
X101075000Y-93806260D01*
X101132068Y-94093158D01*
X101244010Y-94363411D01*
X101406525Y-94606632D01*
X101613368Y-94813475D01*
X101787760Y-94930000D01*
X101613368Y-95046525D01*
X101406525Y-95253368D01*
X101244010Y-95496589D01*
X101132068Y-95766842D01*
X101075000Y-96053740D01*
X101075000Y-96346260D01*
X101132068Y-96633158D01*
X101244010Y-96903411D01*
X101406525Y-97146632D01*
X101613368Y-97353475D01*
X101787760Y-97470000D01*
X101613368Y-97586525D01*
X101406525Y-97793368D01*
X101244010Y-98036589D01*
X101132068Y-98306842D01*
X101075000Y-98593740D01*
X101075000Y-98886260D01*
X101132068Y-99173158D01*
X101244010Y-99443411D01*
X101406525Y-99686632D01*
X101613368Y-99893475D01*
X101787760Y-100010000D01*
X101613368Y-100126525D01*
X101406525Y-100333368D01*
X101244010Y-100576589D01*
X101132068Y-100846842D01*
X101075000Y-101133740D01*
X101075000Y-101426260D01*
X101132068Y-101713158D01*
X101244010Y-101983411D01*
X101406525Y-102226632D01*
X101613368Y-102433475D01*
X101856589Y-102595990D01*
X102126842Y-102707932D01*
X102413740Y-102765000D01*
X102706260Y-102765000D01*
X102993158Y-102707932D01*
X103263411Y-102595990D01*
X103506632Y-102433475D01*
X103713475Y-102226632D01*
X103875990Y-101983411D01*
X103987932Y-101713158D01*
X104045000Y-101426260D01*
X104045000Y-101133740D01*
X103987932Y-100846842D01*
X103875990Y-100576589D01*
X103713475Y-100333368D01*
X103506632Y-100126525D01*
X103332240Y-100010000D01*
X103506632Y-99893475D01*
X103713475Y-99686632D01*
X103875990Y-99443411D01*
X103987932Y-99173158D01*
X104045000Y-98886260D01*
X104045000Y-98593740D01*
X103987932Y-98306842D01*
X103875990Y-98036589D01*
X103713475Y-97793368D01*
X103506632Y-97586525D01*
X103332240Y-97470000D01*
X103506632Y-97353475D01*
X103713475Y-97146632D01*
X103875990Y-96903411D01*
X103987932Y-96633158D01*
X104045000Y-96346260D01*
X104045000Y-96053740D01*
X103987932Y-95766842D01*
X103875990Y-95496589D01*
X103713475Y-95253368D01*
X103506632Y-95046525D01*
X103332240Y-94930000D01*
X103506632Y-94813475D01*
X103713475Y-94606632D01*
X103875990Y-94363411D01*
X103987932Y-94093158D01*
X104045000Y-93806260D01*
X104045000Y-93513740D01*
X103987932Y-93226842D01*
X103875990Y-92956589D01*
X103713475Y-92713368D01*
X103506632Y-92506525D01*
X103332240Y-92390000D01*
X103506632Y-92273475D01*
X103713475Y-92066632D01*
X103875990Y-91823411D01*
X103987932Y-91553158D01*
X104045000Y-91266260D01*
X104045000Y-90973740D01*
X103987932Y-90686842D01*
X103875990Y-90416589D01*
X103713475Y-90173368D01*
X103506632Y-89966525D01*
X103332240Y-89850000D01*
X103506632Y-89733475D01*
X103713475Y-89526632D01*
X103875990Y-89283411D01*
X103987932Y-89013158D01*
X104045000Y-88726260D01*
X104045000Y-88433740D01*
X103987932Y-88146842D01*
X103875990Y-87876589D01*
X103713475Y-87633368D01*
X103506632Y-87426525D01*
X103263411Y-87264010D01*
X103036100Y-87169855D01*
X103102949Y-87144799D01*
X103308052Y-87017647D01*
X103484408Y-86852924D01*
X103625239Y-86656961D01*
X103725134Y-86437288D01*
X103749489Y-86356980D01*
X103688627Y-86167000D01*
X102687000Y-86167000D01*
X102687000Y-86187000D01*
X102433000Y-86187000D01*
X102433000Y-86167000D01*
X101431373Y-86167000D01*
X101370511Y-86356980D01*
X101394866Y-86437288D01*
X101494761Y-86656961D01*
X101635592Y-86852924D01*
X101811948Y-87017647D01*
X102017051Y-87144799D01*
X102083900Y-87169855D01*
X101856589Y-87264010D01*
X101613368Y-87426525D01*
X101406525Y-87633368D01*
X101244010Y-87876589D01*
X101132068Y-88146842D01*
X101075000Y-88433740D01*
X99173255Y-88433740D01*
X99173255Y-82650000D01*
X101071928Y-82650000D01*
X101071928Y-84350000D01*
X101084188Y-84474482D01*
X101120498Y-84594180D01*
X101179463Y-84704494D01*
X101258815Y-84801185D01*
X101355506Y-84880537D01*
X101465820Y-84939502D01*
X101585518Y-84975812D01*
X101710000Y-84988072D01*
X101931767Y-84988072D01*
X101811948Y-85062353D01*
X101635592Y-85227076D01*
X101494761Y-85423039D01*
X101394866Y-85642712D01*
X101370511Y-85723020D01*
X101431373Y-85913000D01*
X102433000Y-85913000D01*
X102433000Y-85893000D01*
X102687000Y-85893000D01*
X102687000Y-85913000D01*
X103688627Y-85913000D01*
X103749489Y-85723020D01*
X103725134Y-85642712D01*
X103625239Y-85423039D01*
X103484408Y-85227076D01*
X103308052Y-85062353D01*
X103188233Y-84988072D01*
X103410000Y-84988072D01*
X103534482Y-84975812D01*
X103654180Y-84939502D01*
X103764494Y-84880537D01*
X103861185Y-84801185D01*
X103940537Y-84704494D01*
X103999502Y-84594180D01*
X104035812Y-84474482D01*
X104048072Y-84350000D01*
X104048072Y-82650000D01*
X104035812Y-82525518D01*
X103999502Y-82405820D01*
X103940537Y-82295506D01*
X103861185Y-82198815D01*
X103764494Y-82119463D01*
X103654180Y-82060498D01*
X103534482Y-82024188D01*
X103410000Y-82011928D01*
X101710000Y-82011928D01*
X101585518Y-82024188D01*
X101465820Y-82060498D01*
X101355506Y-82119463D01*
X101258815Y-82198815D01*
X101179463Y-82295506D01*
X101120498Y-82405820D01*
X101084188Y-82525518D01*
X101071928Y-82650000D01*
X99173255Y-82650000D01*
X99173255Y-74492475D01*
X104155000Y-74492475D01*
X104155000Y-75011525D01*
X104256261Y-75520601D01*
X104454893Y-76000141D01*
X104743262Y-76431715D01*
X105110285Y-76798738D01*
X105541859Y-77087107D01*
X106021399Y-77285739D01*
X106530475Y-77387000D01*
X107049525Y-77387000D01*
X107558601Y-77285739D01*
X108038141Y-77087107D01*
X108469715Y-76798738D01*
X108836738Y-76431715D01*
X109125107Y-76000141D01*
X109323739Y-75520601D01*
X109425000Y-75011525D01*
X109425000Y-74492475D01*
X109323739Y-73983399D01*
X109140540Y-73541117D01*
X112055000Y-73541117D01*
X112055000Y-73882883D01*
X112121675Y-74218081D01*
X112252463Y-74533831D01*
X112442337Y-74817998D01*
X112684002Y-75059663D01*
X112968169Y-75249537D01*
X113283919Y-75380325D01*
X113619117Y-75447000D01*
X113960883Y-75447000D01*
X114296081Y-75380325D01*
X114611831Y-75249537D01*
X114810000Y-75117125D01*
X114810000Y-75806875D01*
X114611831Y-75674463D01*
X114296081Y-75543675D01*
X113960883Y-75477000D01*
X113619117Y-75477000D01*
X113283919Y-75543675D01*
X112968169Y-75674463D01*
X112684002Y-75864337D01*
X112442337Y-76106002D01*
X112252463Y-76390169D01*
X112121675Y-76705919D01*
X112055000Y-77041117D01*
X112055000Y-77382883D01*
X112121675Y-77718081D01*
X112252463Y-78033831D01*
X112442337Y-78317998D01*
X112684002Y-78559663D01*
X112968169Y-78749537D01*
X113283919Y-78880325D01*
X113619117Y-78947000D01*
X113960883Y-78947000D01*
X114296081Y-78880325D01*
X114611831Y-78749537D01*
X114810001Y-78617125D01*
X114810001Y-83147668D01*
X114806324Y-83185000D01*
X114820998Y-83333985D01*
X114864454Y-83477246D01*
X114935026Y-83609276D01*
X114983170Y-83667939D01*
X115030000Y-83725001D01*
X115058998Y-83748799D01*
X121985500Y-90675303D01*
X121985501Y-93466788D01*
X121941563Y-93510726D01*
X121828295Y-93680244D01*
X121750274Y-93868602D01*
X121710500Y-94068561D01*
X121710500Y-94272439D01*
X121750274Y-94472398D01*
X121828295Y-94660756D01*
X121941563Y-94830274D01*
X122085726Y-94974437D01*
X122255244Y-95087705D01*
X122443602Y-95165726D01*
X122643561Y-95205500D01*
X122847439Y-95205500D01*
X122938001Y-95187486D01*
X122938001Y-99118288D01*
X122894063Y-99162226D01*
X122780795Y-99331744D01*
X122702774Y-99520102D01*
X122663000Y-99720061D01*
X122663000Y-99923939D01*
X122702774Y-100123898D01*
X122780795Y-100312256D01*
X122894063Y-100481774D01*
X123038226Y-100625937D01*
X123207744Y-100739205D01*
X123396102Y-100817226D01*
X123596061Y-100857000D01*
X123799939Y-100857000D01*
X123999898Y-100817226D01*
X124188256Y-100739205D01*
X124357774Y-100625937D01*
X124501937Y-100481774D01*
X124615205Y-100312256D01*
X124693226Y-100123898D01*
X124733000Y-99923939D01*
X124733000Y-99720061D01*
X124693226Y-99520102D01*
X124615205Y-99331744D01*
X124501937Y-99162226D01*
X124458000Y-99118289D01*
X124458000Y-90207322D01*
X124461676Y-90169999D01*
X124458000Y-90132676D01*
X124458000Y-90132667D01*
X124447003Y-90021014D01*
X124403546Y-89877753D01*
X124332975Y-89745725D01*
X124332974Y-89745723D01*
X124261799Y-89658997D01*
X124238001Y-89629999D01*
X124209004Y-89606202D01*
X121550000Y-86947199D01*
X121550000Y-78775148D01*
X121611831Y-78749537D01*
X121895998Y-78559663D01*
X122137663Y-78317998D01*
X122327537Y-78033831D01*
X122458325Y-77718081D01*
X122525000Y-77382883D01*
X122525000Y-77041117D01*
X122458325Y-76705919D01*
X122385871Y-76531000D01*
X122694129Y-76531000D01*
X122621675Y-76705919D01*
X122555000Y-77041117D01*
X122555000Y-77382883D01*
X122621675Y-77718081D01*
X122752463Y-78033831D01*
X122942337Y-78317998D01*
X123184002Y-78559663D01*
X123446001Y-78734725D01*
X123446001Y-79464668D01*
X123442324Y-79502000D01*
X123456998Y-79650985D01*
X123500454Y-79794246D01*
X123571026Y-79926276D01*
X123629070Y-79997002D01*
X123666000Y-80042001D01*
X123694998Y-80065799D01*
X124462000Y-80832802D01*
X124462001Y-98674667D01*
X124458324Y-98712000D01*
X124472998Y-98860985D01*
X124516454Y-99004246D01*
X124587026Y-99136276D01*
X124649660Y-99212595D01*
X124682000Y-99252001D01*
X124710998Y-99275799D01*
X126348790Y-100913593D01*
X126305000Y-101133740D01*
X126305000Y-101426260D01*
X126362068Y-101713158D01*
X126474010Y-101983411D01*
X126636525Y-102226632D01*
X126843368Y-102433475D01*
X127086589Y-102595990D01*
X127356842Y-102707932D01*
X127643740Y-102765000D01*
X127936260Y-102765000D01*
X128223158Y-102707932D01*
X128493411Y-102595990D01*
X128736632Y-102433475D01*
X128943475Y-102226632D01*
X129105990Y-101983411D01*
X129217932Y-101713158D01*
X129275000Y-101426260D01*
X129275000Y-101133740D01*
X129217932Y-100846842D01*
X129105990Y-100576589D01*
X128943475Y-100333368D01*
X128736632Y-100126525D01*
X128562240Y-100010000D01*
X128736632Y-99893475D01*
X128943475Y-99686632D01*
X129105990Y-99443411D01*
X129217932Y-99173158D01*
X129275000Y-98886260D01*
X129275000Y-98593740D01*
X129217932Y-98306842D01*
X129105990Y-98036589D01*
X128943475Y-97793368D01*
X128736632Y-97586525D01*
X128562240Y-97470000D01*
X128736632Y-97353475D01*
X128943475Y-97146632D01*
X129105990Y-96903411D01*
X129217932Y-96633158D01*
X129275000Y-96346260D01*
X129275000Y-96053740D01*
X129217932Y-95766842D01*
X129105990Y-95496589D01*
X128943475Y-95253368D01*
X128736632Y-95046525D01*
X128562240Y-94930000D01*
X128736632Y-94813475D01*
X128943475Y-94606632D01*
X129105990Y-94363411D01*
X129217932Y-94093158D01*
X129275000Y-93806260D01*
X129275000Y-93513740D01*
X129217932Y-93226842D01*
X129105990Y-92956589D01*
X128943475Y-92713368D01*
X128736632Y-92506525D01*
X128562240Y-92390000D01*
X128736632Y-92273475D01*
X128943475Y-92066632D01*
X129105990Y-91823411D01*
X129217932Y-91553158D01*
X129275000Y-91266260D01*
X129275000Y-90973740D01*
X129217932Y-90686842D01*
X129105990Y-90416589D01*
X128943475Y-90173368D01*
X128736632Y-89966525D01*
X128562240Y-89850000D01*
X128736632Y-89733475D01*
X128943475Y-89526632D01*
X129105990Y-89283411D01*
X129217932Y-89013158D01*
X129275000Y-88726260D01*
X129275000Y-88433740D01*
X129805000Y-88433740D01*
X129805000Y-88726260D01*
X129862068Y-89013158D01*
X129974010Y-89283411D01*
X130136525Y-89526632D01*
X130343368Y-89733475D01*
X130517760Y-89850000D01*
X130343368Y-89966525D01*
X130136525Y-90173368D01*
X129974010Y-90416589D01*
X129862068Y-90686842D01*
X129805000Y-90973740D01*
X129805000Y-91266260D01*
X129862068Y-91553158D01*
X129974010Y-91823411D01*
X130136525Y-92066632D01*
X130343368Y-92273475D01*
X130517760Y-92390000D01*
X130343368Y-92506525D01*
X130136525Y-92713368D01*
X129974010Y-92956589D01*
X129862068Y-93226842D01*
X129805000Y-93513740D01*
X129805000Y-93806260D01*
X129862068Y-94093158D01*
X129974010Y-94363411D01*
X130136525Y-94606632D01*
X130343368Y-94813475D01*
X130517760Y-94930000D01*
X130343368Y-95046525D01*
X130136525Y-95253368D01*
X129974010Y-95496589D01*
X129862068Y-95766842D01*
X129805000Y-96053740D01*
X129805000Y-96346260D01*
X129862068Y-96633158D01*
X129974010Y-96903411D01*
X130136525Y-97146632D01*
X130343368Y-97353475D01*
X130517760Y-97470000D01*
X130343368Y-97586525D01*
X130136525Y-97793368D01*
X129974010Y-98036589D01*
X129862068Y-98306842D01*
X129805000Y-98593740D01*
X129805000Y-98886260D01*
X129862068Y-99173158D01*
X129974010Y-99443411D01*
X130136525Y-99686632D01*
X130343368Y-99893475D01*
X130517760Y-100010000D01*
X130343368Y-100126525D01*
X130136525Y-100333368D01*
X129974010Y-100576589D01*
X129862068Y-100846842D01*
X129805000Y-101133740D01*
X129805000Y-101426260D01*
X129862068Y-101713158D01*
X129974010Y-101983411D01*
X130136525Y-102226632D01*
X130343368Y-102433475D01*
X130586589Y-102595990D01*
X130856842Y-102707932D01*
X131143740Y-102765000D01*
X131436260Y-102765000D01*
X131723158Y-102707932D01*
X131993411Y-102595990D01*
X132236632Y-102433475D01*
X132443475Y-102226632D01*
X132605990Y-101983411D01*
X132717932Y-101713158D01*
X132775000Y-101426260D01*
X132775000Y-101133740D01*
X132717932Y-100846842D01*
X132605990Y-100576589D01*
X132443475Y-100333368D01*
X132236632Y-100126525D01*
X132062240Y-100010000D01*
X132236632Y-99893475D01*
X132443475Y-99686632D01*
X132605990Y-99443411D01*
X132717932Y-99173158D01*
X132775000Y-98886260D01*
X132775000Y-98593740D01*
X132717932Y-98306842D01*
X132605990Y-98036589D01*
X132443475Y-97793368D01*
X132236632Y-97586525D01*
X132062240Y-97470000D01*
X132236632Y-97353475D01*
X132317045Y-97273062D01*
X132535001Y-97273062D01*
X132535001Y-97476940D01*
X132574775Y-97676899D01*
X132652796Y-97865257D01*
X132766064Y-98034775D01*
X132910227Y-98178938D01*
X133079745Y-98292206D01*
X133268103Y-98370227D01*
X133468062Y-98410001D01*
X133671940Y-98410001D01*
X133871899Y-98370227D01*
X134060257Y-98292206D01*
X134229775Y-98178938D01*
X134273712Y-98135001D01*
X134343198Y-98135001D01*
X133564199Y-98914000D01*
X133502061Y-98914000D01*
X133302102Y-98953774D01*
X133113744Y-99031795D01*
X132944226Y-99145063D01*
X132800063Y-99289226D01*
X132686795Y-99458744D01*
X132608774Y-99647102D01*
X132569000Y-99847061D01*
X132569000Y-100050939D01*
X132608774Y-100250898D01*
X132686795Y-100439256D01*
X132800063Y-100608774D01*
X132944226Y-100752937D01*
X133113744Y-100866205D01*
X133302102Y-100944226D01*
X133502061Y-100984000D01*
X133705939Y-100984000D01*
X133905898Y-100944226D01*
X134094256Y-100866205D01*
X134263774Y-100752937D01*
X134407937Y-100608774D01*
X134521205Y-100439256D01*
X134599226Y-100250898D01*
X134639000Y-100050939D01*
X134639000Y-99988801D01*
X139231803Y-95396000D01*
X139420939Y-95396000D01*
X139620898Y-95356226D01*
X139809256Y-95278205D01*
X139978774Y-95164937D01*
X140122937Y-95020774D01*
X140236205Y-94851256D01*
X140314226Y-94662898D01*
X140354000Y-94462939D01*
X140354000Y-94259061D01*
X140314226Y-94059102D01*
X140236205Y-93870744D01*
X140139490Y-93726000D01*
X140236205Y-93581256D01*
X140314226Y-93392898D01*
X140354000Y-93192939D01*
X140354000Y-92989061D01*
X140314226Y-92789102D01*
X140236205Y-92600744D01*
X140122937Y-92431226D01*
X139978774Y-92287063D01*
X139809256Y-92173795D01*
X139620898Y-92095774D01*
X139420939Y-92056000D01*
X139217061Y-92056000D01*
X139017102Y-92095774D01*
X138828744Y-92173795D01*
X138659226Y-92287063D01*
X138515063Y-92431226D01*
X138401795Y-92600744D01*
X138323774Y-92789102D01*
X138284000Y-92989061D01*
X138284000Y-93051198D01*
X134720198Y-96615001D01*
X134273712Y-96615001D01*
X134229775Y-96571064D01*
X134060257Y-96457796D01*
X133871899Y-96379775D01*
X133671940Y-96340001D01*
X133468062Y-96340001D01*
X133268103Y-96379775D01*
X133079745Y-96457796D01*
X132910227Y-96571064D01*
X132766064Y-96715227D01*
X132652796Y-96884745D01*
X132574775Y-97073103D01*
X132535001Y-97273062D01*
X132317045Y-97273062D01*
X132443475Y-97146632D01*
X132605990Y-96903411D01*
X132717932Y-96633158D01*
X132775000Y-96346260D01*
X132775000Y-96053740D01*
X132717932Y-95766842D01*
X132605990Y-95496589D01*
X132443475Y-95253368D01*
X132236632Y-95046525D01*
X132062240Y-94930000D01*
X132236632Y-94813475D01*
X132443475Y-94606632D01*
X132605990Y-94363411D01*
X132717932Y-94093158D01*
X132775000Y-93806260D01*
X132775000Y-93513740D01*
X132717932Y-93226842D01*
X132605990Y-92956589D01*
X132443475Y-92713368D01*
X132236632Y-92506525D01*
X132062240Y-92390000D01*
X132236632Y-92273475D01*
X132443475Y-92066632D01*
X132605990Y-91823411D01*
X132717932Y-91553158D01*
X132775000Y-91266260D01*
X132775000Y-90973740D01*
X132717932Y-90686842D01*
X132605990Y-90416589D01*
X132443475Y-90173368D01*
X132236632Y-89966525D01*
X132062240Y-89850000D01*
X132236632Y-89733475D01*
X132443475Y-89526632D01*
X132605990Y-89283411D01*
X132717932Y-89013158D01*
X132775000Y-88726260D01*
X132775000Y-88433740D01*
X132717932Y-88146842D01*
X132605990Y-87876589D01*
X132443475Y-87633368D01*
X132236632Y-87426525D01*
X131993411Y-87264010D01*
X131766100Y-87169855D01*
X131832949Y-87144799D01*
X132038052Y-87017647D01*
X132214408Y-86852924D01*
X132355239Y-86656961D01*
X132455134Y-86437288D01*
X132479489Y-86356980D01*
X132418627Y-86167000D01*
X131417000Y-86167000D01*
X131417000Y-86187000D01*
X131163000Y-86187000D01*
X131163000Y-86167000D01*
X130161373Y-86167000D01*
X130100511Y-86356980D01*
X130124866Y-86437288D01*
X130224761Y-86656961D01*
X130365592Y-86852924D01*
X130541948Y-87017647D01*
X130747051Y-87144799D01*
X130813900Y-87169855D01*
X130586589Y-87264010D01*
X130343368Y-87426525D01*
X130136525Y-87633368D01*
X129974010Y-87876589D01*
X129862068Y-88146842D01*
X129805000Y-88433740D01*
X129275000Y-88433740D01*
X129217932Y-88146842D01*
X129105990Y-87876589D01*
X128943475Y-87633368D01*
X128736632Y-87426525D01*
X128493411Y-87264010D01*
X128266100Y-87169855D01*
X128332949Y-87144799D01*
X128538052Y-87017647D01*
X128714408Y-86852924D01*
X128855239Y-86656961D01*
X128955134Y-86437288D01*
X128979489Y-86356980D01*
X128918627Y-86167000D01*
X127917000Y-86167000D01*
X127917000Y-86187000D01*
X127663000Y-86187000D01*
X127663000Y-86167000D01*
X127643000Y-86167000D01*
X127643000Y-85913000D01*
X127663000Y-85913000D01*
X127663000Y-84910813D01*
X127917000Y-84910813D01*
X127917000Y-85913000D01*
X128918627Y-85913000D01*
X128979489Y-85723020D01*
X128955134Y-85642712D01*
X128855239Y-85423039D01*
X128714408Y-85227076D01*
X128538052Y-85062353D01*
X128332949Y-84935201D01*
X128106981Y-84850505D01*
X127917000Y-84910813D01*
X127663000Y-84910813D01*
X127473019Y-84850505D01*
X127374999Y-84887244D01*
X127374999Y-84731566D01*
X127567750Y-84731000D01*
X127663000Y-84635750D01*
X127663000Y-83627000D01*
X127917000Y-83627000D01*
X127917000Y-84635750D01*
X128012250Y-84731000D01*
X128640000Y-84732843D01*
X128714689Y-84725487D01*
X128786508Y-84703701D01*
X128852696Y-84668322D01*
X128910711Y-84620711D01*
X128958322Y-84562696D01*
X128993701Y-84496508D01*
X129015487Y-84424689D01*
X129022843Y-84350000D01*
X129021000Y-83722250D01*
X128925750Y-83627000D01*
X127917000Y-83627000D01*
X127663000Y-83627000D01*
X127643000Y-83627000D01*
X127643000Y-83373000D01*
X127663000Y-83373000D01*
X127663000Y-83353000D01*
X127917000Y-83353000D01*
X127917000Y-83373000D01*
X128925750Y-83373000D01*
X129021000Y-83277750D01*
X129022843Y-82650000D01*
X129801928Y-82650000D01*
X129801928Y-84350000D01*
X129814188Y-84474482D01*
X129850498Y-84594180D01*
X129909463Y-84704494D01*
X129988815Y-84801185D01*
X130085506Y-84880537D01*
X130195820Y-84939502D01*
X130315518Y-84975812D01*
X130440000Y-84988072D01*
X130661767Y-84988072D01*
X130541948Y-85062353D01*
X130365592Y-85227076D01*
X130224761Y-85423039D01*
X130124866Y-85642712D01*
X130100511Y-85723020D01*
X130161373Y-85913000D01*
X131163000Y-85913000D01*
X131163000Y-85893000D01*
X131417000Y-85893000D01*
X131417000Y-85913000D01*
X132418627Y-85913000D01*
X132479489Y-85723020D01*
X155500511Y-85723020D01*
X155561373Y-85913000D01*
X156563000Y-85913000D01*
X156563000Y-84910813D01*
X156373019Y-84850505D01*
X156147051Y-84935201D01*
X155941948Y-85062353D01*
X155765592Y-85227076D01*
X155624761Y-85423039D01*
X155524866Y-85642712D01*
X155500511Y-85723020D01*
X132479489Y-85723020D01*
X132455134Y-85642712D01*
X132355239Y-85423039D01*
X132214408Y-85227076D01*
X132038052Y-85062353D01*
X131918233Y-84988072D01*
X132140000Y-84988072D01*
X132264482Y-84975812D01*
X132384180Y-84939502D01*
X132494494Y-84880537D01*
X132591185Y-84801185D01*
X132670537Y-84704494D01*
X132729502Y-84594180D01*
X132765812Y-84474482D01*
X132778072Y-84350000D01*
X132778072Y-82650000D01*
X132765812Y-82525518D01*
X132729502Y-82405820D01*
X132670537Y-82295506D01*
X132591185Y-82198815D01*
X132494494Y-82119463D01*
X132384180Y-82060498D01*
X132264482Y-82024188D01*
X132140000Y-82011928D01*
X130440000Y-82011928D01*
X130315518Y-82024188D01*
X130195820Y-82060498D01*
X130085506Y-82119463D01*
X129988815Y-82198815D01*
X129909463Y-82295506D01*
X129850498Y-82405820D01*
X129814188Y-82525518D01*
X129801928Y-82650000D01*
X129022843Y-82650000D01*
X129015487Y-82575311D01*
X128993701Y-82503492D01*
X128958322Y-82437304D01*
X128910711Y-82379289D01*
X128852696Y-82331678D01*
X128786508Y-82296299D01*
X128714689Y-82274513D01*
X128640000Y-82267157D01*
X128012250Y-82269000D01*
X127917002Y-82364248D01*
X127917002Y-82269000D01*
X127810799Y-82269000D01*
X130071800Y-80008000D01*
X132716678Y-80008000D01*
X132754000Y-80011676D01*
X132791322Y-80008000D01*
X132791333Y-80008000D01*
X132902986Y-79997003D01*
X133046247Y-79953546D01*
X133178276Y-79882974D01*
X133294001Y-79788001D01*
X133317804Y-79758997D01*
X134222088Y-78854714D01*
X134283919Y-78880325D01*
X134619117Y-78947000D01*
X134960883Y-78947000D01*
X135296081Y-78880325D01*
X135611831Y-78749537D01*
X135895998Y-78559663D01*
X136137663Y-78317998D01*
X136327537Y-78033831D01*
X136458325Y-77718081D01*
X136525000Y-77382883D01*
X136525000Y-77041117D01*
X136458325Y-76705919D01*
X136385871Y-76531000D01*
X136694129Y-76531000D01*
X136621675Y-76705919D01*
X136555000Y-77041117D01*
X136555000Y-77382883D01*
X136621675Y-77718081D01*
X136752463Y-78033831D01*
X136942337Y-78317998D01*
X137184002Y-78559663D01*
X137468169Y-78749537D01*
X137783919Y-78880325D01*
X138119117Y-78947000D01*
X138460883Y-78947000D01*
X138796081Y-78880325D01*
X139046001Y-78776805D01*
X139046001Y-81610162D01*
X139040994Y-81661000D01*
X139060977Y-81863895D01*
X139120160Y-82058993D01*
X139216266Y-82238797D01*
X139313197Y-82356907D01*
X139345605Y-82396396D01*
X139385092Y-82428802D01*
X141218197Y-84261908D01*
X141250604Y-84301396D01*
X141290092Y-84333803D01*
X141408202Y-84430734D01*
X141490050Y-84474482D01*
X141588007Y-84526841D01*
X141783105Y-84586024D01*
X141935162Y-84601000D01*
X141935165Y-84601000D01*
X141986000Y-84606007D01*
X142036835Y-84601000D01*
X142849939Y-84601000D01*
X142900057Y-84591031D01*
X142950895Y-84586024D01*
X142999777Y-84571196D01*
X143049898Y-84561226D01*
X143097113Y-84541669D01*
X143145993Y-84526841D01*
X143191042Y-84502762D01*
X143238256Y-84483205D01*
X143280746Y-84454814D01*
X143325797Y-84430734D01*
X143365284Y-84398328D01*
X143407774Y-84369937D01*
X143427711Y-84350000D01*
X155457157Y-84350000D01*
X155464513Y-84424689D01*
X155486299Y-84496508D01*
X155521678Y-84562696D01*
X155569289Y-84620711D01*
X155627304Y-84668322D01*
X155693492Y-84703701D01*
X155765311Y-84725487D01*
X155840000Y-84732843D01*
X156467750Y-84731000D01*
X156563000Y-84635750D01*
X156563000Y-83627000D01*
X155554250Y-83627000D01*
X155459000Y-83722250D01*
X155457157Y-84350000D01*
X143427711Y-84350000D01*
X143443908Y-84333803D01*
X143483396Y-84301396D01*
X143515803Y-84261908D01*
X143551937Y-84225774D01*
X143580328Y-84183284D01*
X143612734Y-84143797D01*
X143636814Y-84098746D01*
X143665205Y-84056256D01*
X143684762Y-84009042D01*
X143708841Y-83963993D01*
X143723669Y-83915113D01*
X143743226Y-83867898D01*
X143753196Y-83817777D01*
X143768024Y-83768895D01*
X143773031Y-83718057D01*
X143783000Y-83667939D01*
X143783000Y-83616838D01*
X143788007Y-83566000D01*
X143783000Y-83515162D01*
X143783000Y-83464061D01*
X143773031Y-83413943D01*
X143768024Y-83363105D01*
X143753196Y-83314223D01*
X143743226Y-83264102D01*
X143723669Y-83216887D01*
X143708841Y-83168007D01*
X143684762Y-83122958D01*
X143665205Y-83075744D01*
X143636814Y-83033254D01*
X143612734Y-82988203D01*
X143580328Y-82948716D01*
X143551937Y-82906226D01*
X143515803Y-82870092D01*
X143483396Y-82830604D01*
X143443908Y-82798197D01*
X143407774Y-82762063D01*
X143365284Y-82733672D01*
X143325797Y-82701266D01*
X143280746Y-82677186D01*
X143240060Y-82650000D01*
X155457157Y-82650000D01*
X155459000Y-83277750D01*
X155554250Y-83373000D01*
X156563000Y-83373000D01*
X156563000Y-82364250D01*
X156467750Y-82269000D01*
X155840000Y-82267157D01*
X155765311Y-82274513D01*
X155693492Y-82296299D01*
X155627304Y-82331678D01*
X155569289Y-82379289D01*
X155521678Y-82437304D01*
X155486299Y-82503492D01*
X155464513Y-82575311D01*
X155457157Y-82650000D01*
X143240060Y-82650000D01*
X143238256Y-82648795D01*
X143191042Y-82629238D01*
X143145993Y-82605159D01*
X143097113Y-82590331D01*
X143049898Y-82570774D01*
X142999777Y-82560804D01*
X142950895Y-82545976D01*
X142900057Y-82540969D01*
X142849939Y-82531000D01*
X142414711Y-82531000D01*
X141116000Y-81232290D01*
X141116000Y-78531377D01*
X141284572Y-78611707D01*
X141567353Y-78683416D01*
X141858690Y-78698580D01*
X142147387Y-78656615D01*
X142422351Y-78559134D01*
X142558786Y-78486209D01*
X142681035Y-78282640D01*
X144398965Y-78282640D01*
X144521214Y-78486209D01*
X144784572Y-78611707D01*
X145067353Y-78683416D01*
X145358690Y-78698580D01*
X145647387Y-78656615D01*
X145922351Y-78559134D01*
X146058786Y-78486209D01*
X146181035Y-78282640D01*
X145290000Y-77391605D01*
X144398965Y-78282640D01*
X142681035Y-78282640D01*
X141790000Y-77391605D01*
X141775858Y-77405748D01*
X141596253Y-77226143D01*
X141610395Y-77212000D01*
X141969605Y-77212000D01*
X142860640Y-78103035D01*
X143064209Y-77980786D01*
X143189707Y-77717428D01*
X143261416Y-77434647D01*
X143269429Y-77280690D01*
X143803420Y-77280690D01*
X143845385Y-77569387D01*
X143942866Y-77844351D01*
X144015791Y-77980786D01*
X144219360Y-78103035D01*
X145110395Y-77212000D01*
X145469605Y-77212000D01*
X146360640Y-78103035D01*
X146564209Y-77980786D01*
X146689707Y-77717428D01*
X146761416Y-77434647D01*
X146776580Y-77143310D01*
X146734615Y-76854613D01*
X146637134Y-76579649D01*
X146564209Y-76443214D01*
X146360640Y-76320965D01*
X145469605Y-77212000D01*
X145110395Y-77212000D01*
X144219360Y-76320965D01*
X144015791Y-76443214D01*
X143890293Y-76706572D01*
X143818584Y-76989353D01*
X143803420Y-77280690D01*
X143269429Y-77280690D01*
X143276580Y-77143310D01*
X143234615Y-76854613D01*
X143137134Y-76579649D01*
X143064209Y-76443214D01*
X142860640Y-76320965D01*
X141969605Y-77212000D01*
X141610395Y-77212000D01*
X141596253Y-77197858D01*
X141775858Y-77018253D01*
X141790000Y-77032395D01*
X142681035Y-76141360D01*
X144398965Y-76141360D01*
X145290000Y-77032395D01*
X146181035Y-76141360D01*
X146058786Y-75937791D01*
X145795428Y-75812293D01*
X145512647Y-75740584D01*
X145221310Y-75725420D01*
X144932613Y-75767385D01*
X144657649Y-75864866D01*
X144521214Y-75937791D01*
X144398965Y-76141360D01*
X142681035Y-76141360D01*
X142558786Y-75937791D01*
X142295428Y-75812293D01*
X142012647Y-75740584D01*
X141721310Y-75725420D01*
X141432613Y-75767385D01*
X141157649Y-75864866D01*
X141116000Y-75887128D01*
X141116000Y-75546838D01*
X141121007Y-75496000D01*
X141101024Y-75293105D01*
X141041841Y-75098007D01*
X140945734Y-74918203D01*
X140863548Y-74818060D01*
X140898966Y-74782642D01*
X141021214Y-74986209D01*
X141284572Y-75111707D01*
X141567353Y-75183416D01*
X141858690Y-75198580D01*
X142147387Y-75156615D01*
X142422351Y-75059134D01*
X142558786Y-74986209D01*
X142681035Y-74782640D01*
X144398965Y-74782640D01*
X144521214Y-74986209D01*
X144784572Y-75111707D01*
X145067353Y-75183416D01*
X145358690Y-75198580D01*
X145647387Y-75156615D01*
X145922351Y-75059134D01*
X146058786Y-74986209D01*
X146181035Y-74782640D01*
X145290000Y-73891605D01*
X144398965Y-74782640D01*
X142681035Y-74782640D01*
X141790000Y-73891605D01*
X141775858Y-73905748D01*
X141596253Y-73726143D01*
X141610395Y-73712000D01*
X141596253Y-73697858D01*
X141775858Y-73518253D01*
X141790000Y-73532395D01*
X141804143Y-73518253D01*
X141983748Y-73697858D01*
X141969605Y-73712000D01*
X142860640Y-74603035D01*
X143064209Y-74480786D01*
X143189707Y-74217428D01*
X143261416Y-73934647D01*
X143276580Y-73643310D01*
X143234615Y-73354613D01*
X143137134Y-73079649D01*
X143119682Y-73046999D01*
X143966334Y-73046999D01*
X143890293Y-73206572D01*
X143818584Y-73489353D01*
X143803420Y-73780690D01*
X143845385Y-74069387D01*
X143942866Y-74344351D01*
X144015791Y-74480786D01*
X144219360Y-74603035D01*
X145110395Y-73712000D01*
X145096253Y-73697858D01*
X145275858Y-73518253D01*
X145290000Y-73532395D01*
X145304143Y-73518253D01*
X145483748Y-73697858D01*
X145469605Y-73712000D01*
X146360640Y-74603035D01*
X146564209Y-74480786D01*
X146689707Y-74217428D01*
X146761416Y-73934647D01*
X146776580Y-73643310D01*
X146734615Y-73354613D01*
X146637134Y-73079649D01*
X146619682Y-73046999D01*
X150268548Y-73046999D01*
X150243262Y-73072285D01*
X149954893Y-73503859D01*
X149756261Y-73983399D01*
X149655000Y-74492475D01*
X149655000Y-75011525D01*
X149756261Y-75520601D01*
X149954893Y-76000141D01*
X150243262Y-76431715D01*
X150610285Y-76798738D01*
X151041859Y-77087107D01*
X151521399Y-77285739D01*
X152030475Y-77387000D01*
X152549525Y-77387000D01*
X153058601Y-77285739D01*
X153538141Y-77087107D01*
X153969715Y-76798738D01*
X154336738Y-76431715D01*
X154625107Y-76000141D01*
X154823739Y-75520601D01*
X154925000Y-75011525D01*
X154925000Y-74996129D01*
X157105002Y-77176132D01*
X157105001Y-82268434D01*
X156912250Y-82269000D01*
X156817000Y-82364250D01*
X156817000Y-83373000D01*
X156837000Y-83373000D01*
X156837000Y-83627000D01*
X156817000Y-83627000D01*
X156817000Y-84635750D01*
X156912250Y-84731000D01*
X157105001Y-84731566D01*
X157105001Y-84887244D01*
X157006981Y-84850505D01*
X156817000Y-84910813D01*
X156817000Y-85913000D01*
X156837000Y-85913000D01*
X156837000Y-86167000D01*
X156817000Y-86167000D01*
X156817000Y-86187000D01*
X156563000Y-86187000D01*
X156563000Y-86167000D01*
X155561373Y-86167000D01*
X155500511Y-86356980D01*
X155524866Y-86437288D01*
X155624761Y-86656961D01*
X155765592Y-86852924D01*
X155941948Y-87017647D01*
X156147051Y-87144799D01*
X156213900Y-87169855D01*
X155986589Y-87264010D01*
X155743368Y-87426525D01*
X155536525Y-87633368D01*
X155374010Y-87876589D01*
X155262068Y-88146842D01*
X155205000Y-88433740D01*
X155205000Y-88726260D01*
X155262068Y-89013158D01*
X155374010Y-89283411D01*
X155536525Y-89526632D01*
X155555000Y-89545107D01*
X155555001Y-90154892D01*
X155536525Y-90173368D01*
X155374010Y-90416589D01*
X155262068Y-90686842D01*
X155205000Y-90973740D01*
X155205000Y-91266260D01*
X155262068Y-91553158D01*
X155374010Y-91823411D01*
X155536525Y-92066632D01*
X155743368Y-92273475D01*
X155917760Y-92390000D01*
X155743368Y-92506525D01*
X155536525Y-92713368D01*
X155374010Y-92956589D01*
X155262068Y-93226842D01*
X155205000Y-93513740D01*
X155205000Y-93806260D01*
X155262068Y-94093158D01*
X155374010Y-94363411D01*
X155536525Y-94606632D01*
X155743368Y-94813475D01*
X155917760Y-94930000D01*
X155743368Y-95046525D01*
X155536525Y-95253368D01*
X155374010Y-95496589D01*
X155262068Y-95766842D01*
X155205000Y-96053740D01*
X155205000Y-96346260D01*
X155262068Y-96633158D01*
X155374010Y-96903411D01*
X155536525Y-97146632D01*
X155743368Y-97353475D01*
X155917760Y-97470000D01*
X155743368Y-97586525D01*
X155536525Y-97793368D01*
X155374010Y-98036589D01*
X155262068Y-98306842D01*
X155205000Y-98593740D01*
X155205000Y-98886260D01*
X155262068Y-99173158D01*
X155374010Y-99443411D01*
X155536525Y-99686632D01*
X155743368Y-99893475D01*
X155917760Y-100010000D01*
X155743368Y-100126525D01*
X155536525Y-100333368D01*
X155374010Y-100576589D01*
X155262068Y-100846842D01*
X155205000Y-101133740D01*
X155205000Y-101426260D01*
X155262068Y-101713158D01*
X155374010Y-101983411D01*
X155536525Y-102226632D01*
X155743368Y-102433475D01*
X155986589Y-102595990D01*
X156256842Y-102707932D01*
X156543740Y-102765000D01*
X156836260Y-102765000D01*
X157123158Y-102707932D01*
X157393411Y-102595990D01*
X157636632Y-102433475D01*
X157843475Y-102226632D01*
X158005990Y-101983411D01*
X158117932Y-101713158D01*
X158175000Y-101426260D01*
X158175000Y-101133740D01*
X158117932Y-100846842D01*
X158005990Y-100576589D01*
X157843475Y-100333368D01*
X157636632Y-100126525D01*
X157462240Y-100010000D01*
X157636632Y-99893475D01*
X157843475Y-99686632D01*
X158005990Y-99443411D01*
X158117932Y-99173158D01*
X158175000Y-98886260D01*
X158175000Y-98593740D01*
X158117932Y-98306842D01*
X158005990Y-98036589D01*
X157843475Y-97793368D01*
X157636632Y-97586525D01*
X157462240Y-97470000D01*
X157636632Y-97353475D01*
X157843475Y-97146632D01*
X158005990Y-96903411D01*
X158117932Y-96633158D01*
X158175000Y-96346260D01*
X158175000Y-96053740D01*
X158117932Y-95766842D01*
X158005990Y-95496589D01*
X157843475Y-95253368D01*
X157636632Y-95046525D01*
X157462240Y-94930000D01*
X157636632Y-94813475D01*
X157843475Y-94606632D01*
X158005990Y-94363411D01*
X158117932Y-94093158D01*
X158175000Y-93806260D01*
X158175000Y-93513740D01*
X158117932Y-93226842D01*
X158005990Y-92956589D01*
X157843475Y-92713368D01*
X157636632Y-92506525D01*
X157462240Y-92390000D01*
X157636632Y-92273475D01*
X157660936Y-92249171D01*
X157768499Y-92238577D01*
X157982447Y-92173676D01*
X158179623Y-92068284D01*
X158352449Y-91926449D01*
X158387996Y-91883135D01*
X158450135Y-91820996D01*
X158493449Y-91785449D01*
X158635284Y-91612623D01*
X158740676Y-91415447D01*
X158805577Y-91201499D01*
X158822000Y-91034752D01*
X158822000Y-91034751D01*
X158827491Y-90979001D01*
X158822000Y-90923249D01*
X158822000Y-88053132D01*
X159003141Y-87871991D01*
X159046450Y-87836448D01*
X159188285Y-87663622D01*
X159293677Y-87466446D01*
X159358578Y-87252498D01*
X159375001Y-87085751D01*
X159375001Y-87085750D01*
X159380492Y-87029999D01*
X159375001Y-86974247D01*
X159375001Y-76761751D01*
X159380492Y-76705999D01*
X159358578Y-76483500D01*
X159293677Y-76269552D01*
X159188285Y-76072376D01*
X159129003Y-76000141D01*
X159046450Y-75899550D01*
X159003142Y-75864008D01*
X154287997Y-71148864D01*
X154252450Y-71105550D01*
X154079624Y-70963715D01*
X153882448Y-70858323D01*
X153668500Y-70793422D01*
X153501753Y-70776999D01*
X153501752Y-70776999D01*
X153446001Y-70771508D01*
X153390250Y-70776999D01*
X140145753Y-70776999D01*
X140090001Y-70771508D01*
X140034249Y-70776999D01*
X139867502Y-70793422D01*
X139653554Y-70858323D01*
X139456378Y-70963715D01*
X139283552Y-71105550D01*
X139248010Y-71148859D01*
X138419868Y-71977000D01*
X138119117Y-71977000D01*
X137783919Y-72043675D01*
X137468169Y-72174463D01*
X137184002Y-72364337D01*
X136942337Y-72606002D01*
X136752463Y-72890169D01*
X136621675Y-73205919D01*
X136555000Y-73541117D01*
X136555000Y-73882883D01*
X136621675Y-74218081D01*
X136722295Y-74461000D01*
X136357705Y-74461000D01*
X136458325Y-74218081D01*
X136525000Y-73882883D01*
X136525000Y-73541117D01*
X136458325Y-73205919D01*
X136327537Y-72890169D01*
X136137663Y-72606002D01*
X135895998Y-72364337D01*
X135611831Y-72174463D01*
X135296081Y-72043675D01*
X134960883Y-71977000D01*
X134619117Y-71977000D01*
X134283919Y-72043675D01*
X133968169Y-72174463D01*
X133684002Y-72364337D01*
X133442337Y-72606002D01*
X133252463Y-72890169D01*
X133121675Y-73205919D01*
X133055000Y-73541117D01*
X133055000Y-73882883D01*
X133121675Y-74218081D01*
X133222295Y-74461000D01*
X132857705Y-74461000D01*
X132958325Y-74218081D01*
X133025000Y-73882883D01*
X133025000Y-73541117D01*
X132958325Y-73205919D01*
X132827537Y-72890169D01*
X132637663Y-72606002D01*
X132395998Y-72364337D01*
X132111831Y-72174463D01*
X131796081Y-72043675D01*
X131460883Y-71977000D01*
X131119117Y-71977000D01*
X130783919Y-72043675D01*
X130468169Y-72174463D01*
X130184002Y-72364337D01*
X129942337Y-72606002D01*
X129752463Y-72890169D01*
X129621675Y-73205919D01*
X129555000Y-73541117D01*
X129555000Y-73882883D01*
X129621675Y-74218081D01*
X129722295Y-74461000D01*
X129357705Y-74461000D01*
X129458325Y-74218081D01*
X129525000Y-73882883D01*
X129525000Y-73541117D01*
X129458325Y-73205919D01*
X129327537Y-72890169D01*
X129137663Y-72606002D01*
X128895998Y-72364337D01*
X128611831Y-72174463D01*
X128296081Y-72043675D01*
X127960883Y-71977000D01*
X127619117Y-71977000D01*
X127283919Y-72043675D01*
X126968169Y-72174463D01*
X126684002Y-72364337D01*
X126442337Y-72606002D01*
X126252463Y-72890169D01*
X126121675Y-73205919D01*
X126055000Y-73541117D01*
X126055000Y-73882883D01*
X126121675Y-74218081D01*
X126222295Y-74461000D01*
X125857705Y-74461000D01*
X125958325Y-74218081D01*
X126025000Y-73882883D01*
X126025000Y-73541117D01*
X125958325Y-73205919D01*
X125827537Y-72890169D01*
X125637663Y-72606002D01*
X125395998Y-72364337D01*
X125111831Y-72174463D01*
X124796081Y-72043675D01*
X124460883Y-71977000D01*
X124119117Y-71977000D01*
X123783919Y-72043675D01*
X123468169Y-72174463D01*
X123184002Y-72364337D01*
X122942337Y-72606002D01*
X122752463Y-72890169D01*
X122621675Y-73205919D01*
X122555000Y-73541117D01*
X122555000Y-73882883D01*
X122621675Y-74218081D01*
X122722295Y-74461000D01*
X122357705Y-74461000D01*
X122458325Y-74218081D01*
X122525000Y-73882883D01*
X122525000Y-73541117D01*
X122458325Y-73205919D01*
X122327537Y-72890169D01*
X122137663Y-72606002D01*
X121895998Y-72364337D01*
X121611831Y-72174463D01*
X121296081Y-72043675D01*
X120960883Y-71977000D01*
X120619117Y-71977000D01*
X120283919Y-72043675D01*
X120222088Y-72069286D01*
X119928803Y-71776002D01*
X119905000Y-71746998D01*
X119789275Y-71652025D01*
X119657246Y-71581453D01*
X119513985Y-71537996D01*
X119402332Y-71526999D01*
X119402321Y-71526999D01*
X119364999Y-71523323D01*
X119327677Y-71526999D01*
X115607333Y-71526999D01*
X115570000Y-71523322D01*
X115532667Y-71526999D01*
X115421014Y-71537996D01*
X115277753Y-71581453D01*
X115145724Y-71652025D01*
X115029999Y-71746998D01*
X114935026Y-71862723D01*
X114864454Y-71994752D01*
X114820997Y-72138013D01*
X114806323Y-72286999D01*
X114808160Y-72305645D01*
X114611831Y-72174463D01*
X114296081Y-72043675D01*
X113960883Y-71977000D01*
X113619117Y-71977000D01*
X113283919Y-72043675D01*
X112968169Y-72174463D01*
X112684002Y-72364337D01*
X112442337Y-72606002D01*
X112252463Y-72890169D01*
X112121675Y-73205919D01*
X112055000Y-73541117D01*
X109140540Y-73541117D01*
X109125107Y-73503859D01*
X108836738Y-73072285D01*
X108469715Y-72705262D01*
X108038141Y-72416893D01*
X107558601Y-72218261D01*
X107049525Y-72117000D01*
X106530475Y-72117000D01*
X106021399Y-72218261D01*
X105541859Y-72416893D01*
X105110285Y-72705262D01*
X104743262Y-73072285D01*
X104454893Y-73503859D01*
X104256261Y-73983399D01*
X104155000Y-74492475D01*
X99173255Y-74492475D01*
X99173255Y-73162440D01*
X99178168Y-72920196D01*
X99192344Y-72687779D01*
X99215655Y-72459068D01*
X99247851Y-72234312D01*
X99288665Y-72013843D01*
X99337831Y-71797993D01*
X99395086Y-71587032D01*
X99460175Y-71381224D01*
X99532793Y-71180967D01*
X99612689Y-70986484D01*
X99699538Y-70798174D01*
X99793095Y-70616233D01*
X99893013Y-70441058D01*
X99999038Y-70272851D01*
X100110814Y-70111974D01*
X100228045Y-69958676D01*
X100350419Y-69813215D01*
X100477625Y-69675838D01*
X100609338Y-69546793D01*
X100745252Y-69426294D01*
X100885037Y-69314567D01*
X101028439Y-69211767D01*
X101175174Y-69118070D01*
X101324971Y-69033637D01*
X101477644Y-68958585D01*
X101632984Y-68893053D01*
X101790861Y-68837156D01*
X101951146Y-68791034D01*
X102113810Y-68754817D01*
X102278815Y-68728676D01*
X102446166Y-68712810D01*
X102626016Y-68707140D01*
X157442484Y-68707140D01*
X157622333Y-68712810D01*
G37*
%TD.AperFunction*%
%TD*%
D21*
%TO.N,GND*%
X114681000Y-72220680D02*
X114611831Y-72174463D01*
X114296081Y-72043675D01*
X113960883Y-71977000D01*
X113619117Y-71977000D01*
X113283919Y-72043675D01*
X112968169Y-72174463D01*
X112684002Y-72364337D01*
X112442337Y-72606002D01*
X112252463Y-72890169D01*
X112121675Y-73205919D01*
X112055000Y-73541117D01*
X112055000Y-73882883D01*
X112121675Y-74218081D01*
X112252463Y-74533831D01*
X112442337Y-74817998D01*
X112684002Y-75059663D01*
X112968169Y-75249537D01*
X113283919Y-75380325D01*
X113619117Y-75447000D01*
X113960883Y-75447000D01*
X114296081Y-75380325D01*
X114611831Y-75249537D01*
X114681000Y-75203320D01*
X114681000Y-75720680D01*
X114611831Y-75674463D01*
X114296081Y-75543675D01*
X113960883Y-75477000D01*
X113619117Y-75477000D01*
X113283919Y-75543675D01*
X112968169Y-75674463D01*
X112684002Y-75864337D01*
X112442337Y-76106002D01*
X112252463Y-76390169D01*
X112121675Y-76705919D01*
X112055000Y-77041117D01*
X112055000Y-77382883D01*
X112121675Y-77718081D01*
X112252463Y-78033831D01*
X112442337Y-78317998D01*
X112684002Y-78559663D01*
X112968169Y-78749537D01*
X113283919Y-78880325D01*
X113619117Y-78947000D01*
X113960883Y-78947000D01*
X114296081Y-78880325D01*
X114611831Y-78749537D01*
X114681000Y-78703320D01*
X114681000Y-83693000D01*
X111633000Y-83693000D01*
X111633000Y-71247000D01*
X114681000Y-71247000D01*
X114681000Y-72220680D01*
%TA.AperFunction,Conductor*%
D22*
G36*
X114681000Y-72220680D02*
G01*
X114611831Y-72174463D01*
X114296081Y-72043675D01*
X113960883Y-71977000D01*
X113619117Y-71977000D01*
X113283919Y-72043675D01*
X112968169Y-72174463D01*
X112684002Y-72364337D01*
X112442337Y-72606002D01*
X112252463Y-72890169D01*
X112121675Y-73205919D01*
X112055000Y-73541117D01*
X112055000Y-73882883D01*
X112121675Y-74218081D01*
X112252463Y-74533831D01*
X112442337Y-74817998D01*
X112684002Y-75059663D01*
X112968169Y-75249537D01*
X113283919Y-75380325D01*
X113619117Y-75447000D01*
X113960883Y-75447000D01*
X114296081Y-75380325D01*
X114611831Y-75249537D01*
X114681000Y-75203320D01*
X114681000Y-75720680D01*
X114611831Y-75674463D01*
X114296081Y-75543675D01*
X113960883Y-75477000D01*
X113619117Y-75477000D01*
X113283919Y-75543675D01*
X112968169Y-75674463D01*
X112684002Y-75864337D01*
X112442337Y-76106002D01*
X112252463Y-76390169D01*
X112121675Y-76705919D01*
X112055000Y-77041117D01*
X112055000Y-77382883D01*
X112121675Y-77718081D01*
X112252463Y-78033831D01*
X112442337Y-78317998D01*
X112684002Y-78559663D01*
X112968169Y-78749537D01*
X113283919Y-78880325D01*
X113619117Y-78947000D01*
X113960883Y-78947000D01*
X114296081Y-78880325D01*
X114611831Y-78749537D01*
X114681000Y-78703320D01*
X114681000Y-83693000D01*
X111633000Y-83693000D01*
X111633000Y-71247000D01*
X114681000Y-71247000D01*
X114681000Y-72220680D01*
G37*
%TD.AperFunction*%
%TD*%
M02*
