%TF.GenerationSoftware,KiCad,Pcbnew,(5.1.9)-1*%
%TF.CreationDate,2021-01-23T10:55:32-06:00*%
%TF.ProjectId,dual_board_carrier,6475616c-5f62-46f6-9172-645f63617272,rev?*%
%TF.SameCoordinates,Original*%
%TF.FileFunction,Copper,L1,Top*%
%TF.FilePolarity,Positive*%
%FSLAX46Y46*%
G04 Gerber Fmt 4.6, Leading zero omitted, Abs format (unit mm)*
G04 Created by KiCad (PCBNEW (5.1.9)-1) date 2021-01-23 10:55:32*
%MOMM*%
%LPD*%
G01*
G04 APERTURE LIST*
%ADD10C,0.100000*%
%ADD11C,0.150000*%
%ADD12C,0.300000*%
%ADD13C,0.400000*%
%TA.AperFunction,SMDPad,CuDef*%
%ADD14R,6.400000X5.800000*%
%TD*%
%TA.AperFunction,SMDPad,CuDef*%
%ADD15R,2.200000X1.200000*%
%TD*%
%TA.AperFunction,SMDPad,CuDef*%
%ADD16R,2.500000X3.300000*%
%TD*%
%TA.AperFunction,ComponentPad*%
%ADD17O,1.700000X1.700000*%
%TD*%
%TA.AperFunction,ComponentPad*%
%ADD18R,1.700000X1.700000*%
%TD*%
%TA.AperFunction,ComponentPad*%
%ADD19C,2.200000*%
%TD*%
%TA.AperFunction,SMDPad,CuDef*%
%ADD20R,2.500000X1.800000*%
%TD*%
%TA.AperFunction,ViaPad*%
%ADD21C,0.800000*%
%TD*%
%TA.AperFunction,Conductor*%
%ADD22C,0.250000*%
%TD*%
%TA.AperFunction,Conductor*%
%ADD23C,1.000000*%
%TD*%
%TA.AperFunction,Conductor*%
%ADD24C,0.800000*%
%TD*%
%TA.AperFunction,Conductor*%
%ADD25C,0.254000*%
%TD*%
%TA.AperFunction,Conductor*%
%ADD26C,0.100000*%
%TD*%
G04 APERTURE END LIST*
D10*
D11*
X177002200Y-166007200D02*
X177002200Y-198007200D01*
X285002200Y-198007200D01*
X285002200Y-166007200D01*
X177002200Y-166007200D01*
D10*
D11*
X10000000Y-10000000D02*
X10000000Y-200007200D01*
X287002200Y-200007200D01*
X287002200Y-10000000D01*
X10000000Y-10000000D01*
D10*
D11*
X12000000Y-12000000D02*
X12000000Y-198007200D01*
X285002200Y-198007200D01*
X285002200Y-12000000D01*
X12000000Y-12000000D01*
D10*
D11*
X60000000Y-12000000D02*
X60000000Y-10000000D01*
D10*
D11*
X110000000Y-12000000D02*
X110000000Y-10000000D01*
D10*
D11*
X160000000Y-12000000D02*
X160000000Y-10000000D01*
D10*
D11*
X210000000Y-12000000D02*
X210000000Y-10000000D01*
D10*
D11*
X260000000Y-12000000D02*
X260000000Y-10000000D01*
D10*
D11*
X36065476Y-11588095D02*
X35322619Y-11588095D01*
X35694047Y-11588095D02*
X35694047Y-10288095D01*
X35570238Y-10473809D01*
X35446428Y-10597619D01*
X35322619Y-10659523D01*
D10*
D11*
X85322619Y-10411904D02*
X85384523Y-10350000D01*
X85508333Y-10288095D01*
X85817857Y-10288095D01*
X85941666Y-10350000D01*
X86003571Y-10411904D01*
X86065476Y-10535714D01*
X86065476Y-10659523D01*
X86003571Y-10845238D01*
X85260714Y-11588095D01*
X86065476Y-11588095D01*
D10*
D11*
X135260714Y-10288095D02*
X136065476Y-10288095D01*
X135632142Y-10783333D01*
X135817857Y-10783333D01*
X135941666Y-10845238D01*
X136003571Y-10907142D01*
X136065476Y-11030952D01*
X136065476Y-11340476D01*
X136003571Y-11464285D01*
X135941666Y-11526190D01*
X135817857Y-11588095D01*
X135446428Y-11588095D01*
X135322619Y-11526190D01*
X135260714Y-11464285D01*
D10*
D11*
X185941666Y-10721428D02*
X185941666Y-11588095D01*
X185632142Y-10226190D02*
X185322619Y-11154761D01*
X186127380Y-11154761D01*
D10*
D11*
X236003571Y-10288095D02*
X235384523Y-10288095D01*
X235322619Y-10907142D01*
X235384523Y-10845238D01*
X235508333Y-10783333D01*
X235817857Y-10783333D01*
X235941666Y-10845238D01*
X236003571Y-10907142D01*
X236065476Y-11030952D01*
X236065476Y-11340476D01*
X236003571Y-11464285D01*
X235941666Y-11526190D01*
X235817857Y-11588095D01*
X235508333Y-11588095D01*
X235384523Y-11526190D01*
X235322619Y-11464285D01*
D10*
D11*
X285941666Y-10288095D02*
X285694047Y-10288095D01*
X285570238Y-10350000D01*
X285508333Y-10411904D01*
X285384523Y-10597619D01*
X285322619Y-10845238D01*
X285322619Y-11340476D01*
X285384523Y-11464285D01*
X285446428Y-11526190D01*
X285570238Y-11588095D01*
X285817857Y-11588095D01*
X285941666Y-11526190D01*
X286003571Y-11464285D01*
X286065476Y-11340476D01*
X286065476Y-11030952D01*
X286003571Y-10907142D01*
X285941666Y-10845238D01*
X285817857Y-10783333D01*
X285570238Y-10783333D01*
X285446428Y-10845238D01*
X285384523Y-10907142D01*
X285322619Y-11030952D01*
D10*
D11*
X60000000Y-198007200D02*
X60000000Y-200007200D01*
D10*
D11*
X110000000Y-198007200D02*
X110000000Y-200007200D01*
D10*
D11*
X160000000Y-198007200D02*
X160000000Y-200007200D01*
D10*
D11*
X210000000Y-198007200D02*
X210000000Y-200007200D01*
D10*
D11*
X260000000Y-198007200D02*
X260000000Y-200007200D01*
D10*
D11*
X36065476Y-199595295D02*
X35322619Y-199595295D01*
X35694047Y-199595295D02*
X35694047Y-198295295D01*
X35570238Y-198481009D01*
X35446428Y-198604819D01*
X35322619Y-198666723D01*
D10*
D11*
X85322619Y-198419104D02*
X85384523Y-198357200D01*
X85508333Y-198295295D01*
X85817857Y-198295295D01*
X85941666Y-198357200D01*
X86003571Y-198419104D01*
X86065476Y-198542914D01*
X86065476Y-198666723D01*
X86003571Y-198852438D01*
X85260714Y-199595295D01*
X86065476Y-199595295D01*
D10*
D11*
X135260714Y-198295295D02*
X136065476Y-198295295D01*
X135632142Y-198790533D01*
X135817857Y-198790533D01*
X135941666Y-198852438D01*
X136003571Y-198914342D01*
X136065476Y-199038152D01*
X136065476Y-199347676D01*
X136003571Y-199471485D01*
X135941666Y-199533390D01*
X135817857Y-199595295D01*
X135446428Y-199595295D01*
X135322619Y-199533390D01*
X135260714Y-199471485D01*
D10*
D11*
X185941666Y-198728628D02*
X185941666Y-199595295D01*
X185632142Y-198233390D02*
X185322619Y-199161961D01*
X186127380Y-199161961D01*
D10*
D11*
X236003571Y-198295295D02*
X235384523Y-198295295D01*
X235322619Y-198914342D01*
X235384523Y-198852438D01*
X235508333Y-198790533D01*
X235817857Y-198790533D01*
X235941666Y-198852438D01*
X236003571Y-198914342D01*
X236065476Y-199038152D01*
X236065476Y-199347676D01*
X236003571Y-199471485D01*
X235941666Y-199533390D01*
X235817857Y-199595295D01*
X235508333Y-199595295D01*
X235384523Y-199533390D01*
X235322619Y-199471485D01*
D10*
D11*
X285941666Y-198295295D02*
X285694047Y-198295295D01*
X285570238Y-198357200D01*
X285508333Y-198419104D01*
X285384523Y-198604819D01*
X285322619Y-198852438D01*
X285322619Y-199347676D01*
X285384523Y-199471485D01*
X285446428Y-199533390D01*
X285570238Y-199595295D01*
X285817857Y-199595295D01*
X285941666Y-199533390D01*
X286003571Y-199471485D01*
X286065476Y-199347676D01*
X286065476Y-199038152D01*
X286003571Y-198914342D01*
X285941666Y-198852438D01*
X285817857Y-198790533D01*
X285570238Y-198790533D01*
X285446428Y-198852438D01*
X285384523Y-198914342D01*
X285322619Y-199038152D01*
D10*
D11*
X10000000Y-60000000D02*
X12000000Y-60000000D01*
D10*
D11*
X10000000Y-110000000D02*
X12000000Y-110000000D01*
D10*
D11*
X10000000Y-160000000D02*
X12000000Y-160000000D01*
D10*
D11*
X10690476Y-35216666D02*
X11309523Y-35216666D01*
X10566666Y-35588095D02*
X11000000Y-34288095D01*
X11433333Y-35588095D01*
D10*
D11*
X11092857Y-84907142D02*
X11278571Y-84969047D01*
X11340476Y-85030952D01*
X11402380Y-85154761D01*
X11402380Y-85340476D01*
X11340476Y-85464285D01*
X11278571Y-85526190D01*
X11154761Y-85588095D01*
X10659523Y-85588095D01*
X10659523Y-84288095D01*
X11092857Y-84288095D01*
X11216666Y-84350000D01*
X11278571Y-84411904D01*
X11340476Y-84535714D01*
X11340476Y-84659523D01*
X11278571Y-84783333D01*
X11216666Y-84845238D01*
X11092857Y-84907142D01*
X10659523Y-84907142D01*
D10*
D11*
X11402380Y-135464285D02*
X11340476Y-135526190D01*
X11154761Y-135588095D01*
X11030952Y-135588095D01*
X10845238Y-135526190D01*
X10721428Y-135402380D01*
X10659523Y-135278571D01*
X10597619Y-135030952D01*
X10597619Y-134845238D01*
X10659523Y-134597619D01*
X10721428Y-134473809D01*
X10845238Y-134350000D01*
X11030952Y-134288095D01*
X11154761Y-134288095D01*
X11340476Y-134350000D01*
X11402380Y-134411904D01*
D10*
D11*
X10659523Y-185588095D02*
X10659523Y-184288095D01*
X10969047Y-184288095D01*
X11154761Y-184350000D01*
X11278571Y-184473809D01*
X11340476Y-184597619D01*
X11402380Y-184845238D01*
X11402380Y-185030952D01*
X11340476Y-185278571D01*
X11278571Y-185402380D01*
X11154761Y-185526190D01*
X10969047Y-185588095D01*
X10659523Y-185588095D01*
D10*
D11*
X287002200Y-60000000D02*
X285002200Y-60000000D01*
D10*
D11*
X287002200Y-110000000D02*
X285002200Y-110000000D01*
D10*
D11*
X287002200Y-160000000D02*
X285002200Y-160000000D01*
D10*
D11*
X285692676Y-35216666D02*
X286311723Y-35216666D01*
X285568866Y-35588095D02*
X286002200Y-34288095D01*
X286435533Y-35588095D01*
D10*
D11*
X286095057Y-84907142D02*
X286280771Y-84969047D01*
X286342676Y-85030952D01*
X286404580Y-85154761D01*
X286404580Y-85340476D01*
X286342676Y-85464285D01*
X286280771Y-85526190D01*
X286156961Y-85588095D01*
X285661723Y-85588095D01*
X285661723Y-84288095D01*
X286095057Y-84288095D01*
X286218866Y-84350000D01*
X286280771Y-84411904D01*
X286342676Y-84535714D01*
X286342676Y-84659523D01*
X286280771Y-84783333D01*
X286218866Y-84845238D01*
X286095057Y-84907142D01*
X285661723Y-84907142D01*
D10*
D11*
X286404580Y-135464285D02*
X286342676Y-135526190D01*
X286156961Y-135588095D01*
X286033152Y-135588095D01*
X285847438Y-135526190D01*
X285723628Y-135402380D01*
X285661723Y-135278571D01*
X285599819Y-135030952D01*
X285599819Y-134845238D01*
X285661723Y-134597619D01*
X285723628Y-134473809D01*
X285847438Y-134350000D01*
X286033152Y-134288095D01*
X286156961Y-134288095D01*
X286342676Y-134350000D01*
X286404580Y-134411904D01*
D10*
D11*
X285661723Y-185588095D02*
X285661723Y-184288095D01*
X285971247Y-184288095D01*
X286156961Y-184350000D01*
X286280771Y-184473809D01*
X286342676Y-184597619D01*
X286404580Y-184845238D01*
X286404580Y-185030952D01*
X286342676Y-185278571D01*
X286280771Y-185402380D01*
X286156961Y-185526190D01*
X285971247Y-185588095D01*
X285661723Y-185588095D01*
D10*
D11*
X200434342Y-193785771D02*
X200434342Y-192285771D01*
X200791485Y-192285771D01*
X201005771Y-192357200D01*
X201148628Y-192500057D01*
X201220057Y-192642914D01*
X201291485Y-192928628D01*
X201291485Y-193142914D01*
X201220057Y-193428628D01*
X201148628Y-193571485D01*
X201005771Y-193714342D01*
X200791485Y-193785771D01*
X200434342Y-193785771D01*
X202577200Y-193785771D02*
X202577200Y-193000057D01*
X202505771Y-192857200D01*
X202362914Y-192785771D01*
X202077200Y-192785771D01*
X201934342Y-192857200D01*
X202577200Y-193714342D02*
X202434342Y-193785771D01*
X202077200Y-193785771D01*
X201934342Y-193714342D01*
X201862914Y-193571485D01*
X201862914Y-193428628D01*
X201934342Y-193285771D01*
X202077200Y-193214342D01*
X202434342Y-193214342D01*
X202577200Y-193142914D01*
X203077200Y-192785771D02*
X203648628Y-192785771D01*
X203291485Y-192285771D02*
X203291485Y-193571485D01*
X203362914Y-193714342D01*
X203505771Y-193785771D01*
X203648628Y-193785771D01*
X204720057Y-193714342D02*
X204577200Y-193785771D01*
X204291485Y-193785771D01*
X204148628Y-193714342D01*
X204077200Y-193571485D01*
X204077200Y-193000057D01*
X204148628Y-192857200D01*
X204291485Y-192785771D01*
X204577200Y-192785771D01*
X204720057Y-192857200D01*
X204791485Y-193000057D01*
X204791485Y-193142914D01*
X204077200Y-193285771D01*
X205434342Y-193642914D02*
X205505771Y-193714342D01*
X205434342Y-193785771D01*
X205362914Y-193714342D01*
X205434342Y-193642914D01*
X205434342Y-193785771D01*
X205434342Y-192857200D02*
X205505771Y-192928628D01*
X205434342Y-193000057D01*
X205362914Y-192928628D01*
X205434342Y-192857200D01*
X205434342Y-193000057D01*
D10*
D11*
X177002200Y-194507200D02*
X285002200Y-194507200D01*
D10*
D11*
X178434342Y-196585771D02*
X178434342Y-195085771D01*
X179291485Y-196585771D02*
X178648628Y-195728628D01*
X179291485Y-195085771D02*
X178434342Y-195942914D01*
X179934342Y-196585771D02*
X179934342Y-195585771D01*
X179934342Y-195085771D02*
X179862914Y-195157200D01*
X179934342Y-195228628D01*
X180005771Y-195157200D01*
X179934342Y-195085771D01*
X179934342Y-195228628D01*
X181505771Y-196442914D02*
X181434342Y-196514342D01*
X181220057Y-196585771D01*
X181077200Y-196585771D01*
X180862914Y-196514342D01*
X180720057Y-196371485D01*
X180648628Y-196228628D01*
X180577200Y-195942914D01*
X180577200Y-195728628D01*
X180648628Y-195442914D01*
X180720057Y-195300057D01*
X180862914Y-195157200D01*
X181077200Y-195085771D01*
X181220057Y-195085771D01*
X181434342Y-195157200D01*
X181505771Y-195228628D01*
X182791485Y-196585771D02*
X182791485Y-195800057D01*
X182720057Y-195657200D01*
X182577200Y-195585771D01*
X182291485Y-195585771D01*
X182148628Y-195657200D01*
X182791485Y-196514342D02*
X182648628Y-196585771D01*
X182291485Y-196585771D01*
X182148628Y-196514342D01*
X182077200Y-196371485D01*
X182077200Y-196228628D01*
X182148628Y-196085771D01*
X182291485Y-196014342D01*
X182648628Y-196014342D01*
X182791485Y-195942914D01*
X184148628Y-196585771D02*
X184148628Y-195085771D01*
X184148628Y-196514342D02*
X184005771Y-196585771D01*
X183720057Y-196585771D01*
X183577200Y-196514342D01*
X183505771Y-196442914D01*
X183434342Y-196300057D01*
X183434342Y-195871485D01*
X183505771Y-195728628D01*
X183577200Y-195657200D01*
X183720057Y-195585771D01*
X184005771Y-195585771D01*
X184148628Y-195657200D01*
X186005771Y-195800057D02*
X186505771Y-195800057D01*
X186720057Y-196585771D02*
X186005771Y-196585771D01*
X186005771Y-195085771D01*
X186720057Y-195085771D01*
X187362914Y-196442914D02*
X187434342Y-196514342D01*
X187362914Y-196585771D01*
X187291485Y-196514342D01*
X187362914Y-196442914D01*
X187362914Y-196585771D01*
X188077200Y-196585771D02*
X188077200Y-195085771D01*
X188434342Y-195085771D01*
X188648628Y-195157200D01*
X188791485Y-195300057D01*
X188862914Y-195442914D01*
X188934342Y-195728628D01*
X188934342Y-195942914D01*
X188862914Y-196228628D01*
X188791485Y-196371485D01*
X188648628Y-196514342D01*
X188434342Y-196585771D01*
X188077200Y-196585771D01*
X189577200Y-196442914D02*
X189648628Y-196514342D01*
X189577200Y-196585771D01*
X189505771Y-196514342D01*
X189577200Y-196442914D01*
X189577200Y-196585771D01*
X190220057Y-196157200D02*
X190934342Y-196157200D01*
X190077200Y-196585771D02*
X190577200Y-195085771D01*
X191077200Y-196585771D01*
X191577200Y-196442914D02*
X191648628Y-196514342D01*
X191577200Y-196585771D01*
X191505771Y-196514342D01*
X191577200Y-196442914D01*
X191577200Y-196585771D01*
X194577200Y-196585771D02*
X194577200Y-195085771D01*
X194720057Y-196014342D02*
X195148628Y-196585771D01*
X195148628Y-195585771D02*
X194577200Y-196157200D01*
X195791485Y-196585771D02*
X195791485Y-195585771D01*
X195791485Y-195085771D02*
X195720057Y-195157200D01*
X195791485Y-195228628D01*
X195862914Y-195157200D01*
X195791485Y-195085771D01*
X195791485Y-195228628D01*
X197148628Y-196514342D02*
X197005771Y-196585771D01*
X196720057Y-196585771D01*
X196577200Y-196514342D01*
X196505771Y-196442914D01*
X196434342Y-196300057D01*
X196434342Y-195871485D01*
X196505771Y-195728628D01*
X196577200Y-195657200D01*
X196720057Y-195585771D01*
X197005771Y-195585771D01*
X197148628Y-195657200D01*
X198434342Y-196585771D02*
X198434342Y-195800057D01*
X198362914Y-195657200D01*
X198220057Y-195585771D01*
X197934342Y-195585771D01*
X197791485Y-195657200D01*
X198434342Y-196514342D02*
X198291485Y-196585771D01*
X197934342Y-196585771D01*
X197791485Y-196514342D01*
X197720057Y-196371485D01*
X197720057Y-196228628D01*
X197791485Y-196085771D01*
X197934342Y-196014342D01*
X198291485Y-196014342D01*
X198434342Y-195942914D01*
X199791485Y-196585771D02*
X199791485Y-195085771D01*
X199791485Y-196514342D02*
X199648628Y-196585771D01*
X199362914Y-196585771D01*
X199220057Y-196514342D01*
X199148628Y-196442914D01*
X199077200Y-196300057D01*
X199077200Y-195871485D01*
X199148628Y-195728628D01*
X199220057Y-195657200D01*
X199362914Y-195585771D01*
X199648628Y-195585771D01*
X199791485Y-195657200D01*
X202077200Y-197157200D02*
X202005771Y-197085771D01*
X201862914Y-196871485D01*
X201791485Y-196728628D01*
X201720057Y-196514342D01*
X201648628Y-196157200D01*
X201648628Y-195871485D01*
X201720057Y-195514342D01*
X201791485Y-195300057D01*
X201862914Y-195157200D01*
X202005771Y-194942914D01*
X202077200Y-194871485D01*
X203362914Y-195085771D02*
X202648628Y-195085771D01*
X202577200Y-195800057D01*
X202648628Y-195728628D01*
X202791485Y-195657200D01*
X203148628Y-195657200D01*
X203291485Y-195728628D01*
X203362914Y-195800057D01*
X203434342Y-195942914D01*
X203434342Y-196300057D01*
X203362914Y-196442914D01*
X203291485Y-196514342D01*
X203148628Y-196585771D01*
X202791485Y-196585771D01*
X202648628Y-196514342D01*
X202577200Y-196442914D01*
X204077200Y-196442914D02*
X204148628Y-196514342D01*
X204077200Y-196585771D01*
X204005771Y-196514342D01*
X204077200Y-196442914D01*
X204077200Y-196585771D01*
X205577200Y-196585771D02*
X204720057Y-196585771D01*
X205148628Y-196585771D02*
X205148628Y-195085771D01*
X205005771Y-195300057D01*
X204862914Y-195442914D01*
X204720057Y-195514342D01*
X206220057Y-196442914D02*
X206291485Y-196514342D01*
X206220057Y-196585771D01*
X206148628Y-196514342D01*
X206220057Y-196442914D01*
X206220057Y-196585771D01*
X207005771Y-196585771D02*
X207291485Y-196585771D01*
X207434342Y-196514342D01*
X207505771Y-196442914D01*
X207648628Y-196228628D01*
X207720057Y-195942914D01*
X207720057Y-195371485D01*
X207648628Y-195228628D01*
X207577200Y-195157200D01*
X207434342Y-195085771D01*
X207148628Y-195085771D01*
X207005771Y-195157200D01*
X206934342Y-195228628D01*
X206862914Y-195371485D01*
X206862914Y-195728628D01*
X206934342Y-195871485D01*
X207005771Y-195942914D01*
X207148628Y-196014342D01*
X207434342Y-196014342D01*
X207577200Y-195942914D01*
X207648628Y-195871485D01*
X207720057Y-195728628D01*
X208220057Y-197157200D02*
X208291485Y-197085771D01*
X208434342Y-196871485D01*
X208505771Y-196728628D01*
X208577200Y-196514342D01*
X208648628Y-196157200D01*
X208648628Y-195871485D01*
X208577200Y-195514342D01*
X208505771Y-195300057D01*
X208434342Y-195157200D01*
X208291485Y-194942914D01*
X208220057Y-194871485D01*
X209362914Y-196014342D02*
X210505771Y-196014342D01*
X212005771Y-196585771D02*
X211148628Y-196585771D01*
X211577200Y-196585771D02*
X211577200Y-195085771D01*
X211434342Y-195300057D01*
X211291485Y-195442914D01*
X211148628Y-195514342D01*
D10*
D11*
X177002200Y-191507200D02*
X285002200Y-191507200D01*
D10*
D12*
X264411485Y-193785771D02*
X263911485Y-193071485D01*
X263554342Y-193785771D02*
X263554342Y-192285771D01*
X264125771Y-192285771D01*
X264268628Y-192357200D01*
X264340057Y-192428628D01*
X264411485Y-192571485D01*
X264411485Y-192785771D01*
X264340057Y-192928628D01*
X264268628Y-193000057D01*
X264125771Y-193071485D01*
X263554342Y-193071485D01*
X265625771Y-193714342D02*
X265482914Y-193785771D01*
X265197200Y-193785771D01*
X265054342Y-193714342D01*
X264982914Y-193571485D01*
X264982914Y-193000057D01*
X265054342Y-192857200D01*
X265197200Y-192785771D01*
X265482914Y-192785771D01*
X265625771Y-192857200D01*
X265697200Y-193000057D01*
X265697200Y-193142914D01*
X264982914Y-193285771D01*
X266197200Y-192785771D02*
X266554342Y-193785771D01*
X266911485Y-192785771D01*
X267482914Y-193642914D02*
X267554342Y-193714342D01*
X267482914Y-193785771D01*
X267411485Y-193714342D01*
X267482914Y-193642914D01*
X267482914Y-193785771D01*
X267482914Y-192857200D02*
X267554342Y-192928628D01*
X267482914Y-193000057D01*
X267411485Y-192928628D01*
X267482914Y-192857200D01*
X267482914Y-193000057D01*
D10*
D11*
X178362914Y-193714342D02*
X178577200Y-193785771D01*
X178934342Y-193785771D01*
X179077200Y-193714342D01*
X179148628Y-193642914D01*
X179220057Y-193500057D01*
X179220057Y-193357200D01*
X179148628Y-193214342D01*
X179077200Y-193142914D01*
X178934342Y-193071485D01*
X178648628Y-193000057D01*
X178505771Y-192928628D01*
X178434342Y-192857200D01*
X178362914Y-192714342D01*
X178362914Y-192571485D01*
X178434342Y-192428628D01*
X178505771Y-192357200D01*
X178648628Y-192285771D01*
X179005771Y-192285771D01*
X179220057Y-192357200D01*
X179862914Y-193785771D02*
X179862914Y-192785771D01*
X179862914Y-192285771D02*
X179791485Y-192357200D01*
X179862914Y-192428628D01*
X179934342Y-192357200D01*
X179862914Y-192285771D01*
X179862914Y-192428628D01*
X180434342Y-192785771D02*
X181220057Y-192785771D01*
X180434342Y-193785771D01*
X181220057Y-193785771D01*
X182362914Y-193714342D02*
X182220057Y-193785771D01*
X181934342Y-193785771D01*
X181791485Y-193714342D01*
X181720057Y-193571485D01*
X181720057Y-193000057D01*
X181791485Y-192857200D01*
X181934342Y-192785771D01*
X182220057Y-192785771D01*
X182362914Y-192857200D01*
X182434342Y-193000057D01*
X182434342Y-193142914D01*
X181720057Y-193285771D01*
X183077200Y-193642914D02*
X183148628Y-193714342D01*
X183077200Y-193785771D01*
X183005771Y-193714342D01*
X183077200Y-193642914D01*
X183077200Y-193785771D01*
X183077200Y-192857200D02*
X183148628Y-192928628D01*
X183077200Y-193000057D01*
X183005771Y-192928628D01*
X183077200Y-192857200D01*
X183077200Y-193000057D01*
X184862914Y-193357200D02*
X185577200Y-193357200D01*
X184720057Y-193785771D02*
X185220057Y-192285771D01*
X185720057Y-193785771D01*
X186862914Y-192785771D02*
X186862914Y-193785771D01*
X186505771Y-192214342D02*
X186148628Y-193285771D01*
X187077200Y-193285771D01*
D10*
D11*
X263434342Y-196585771D02*
X263434342Y-195085771D01*
X264791485Y-196585771D02*
X264791485Y-195085771D01*
X264791485Y-196514342D02*
X264648628Y-196585771D01*
X264362914Y-196585771D01*
X264220057Y-196514342D01*
X264148628Y-196442914D01*
X264077200Y-196300057D01*
X264077200Y-195871485D01*
X264148628Y-195728628D01*
X264220057Y-195657200D01*
X264362914Y-195585771D01*
X264648628Y-195585771D01*
X264791485Y-195657200D01*
X265505771Y-196442914D02*
X265577200Y-196514342D01*
X265505771Y-196585771D01*
X265434342Y-196514342D01*
X265505771Y-196442914D01*
X265505771Y-196585771D01*
X265505771Y-195657200D02*
X265577200Y-195728628D01*
X265505771Y-195800057D01*
X265434342Y-195728628D01*
X265505771Y-195657200D01*
X265505771Y-195800057D01*
X268148628Y-196585771D02*
X267291485Y-196585771D01*
X267720057Y-196585771D02*
X267720057Y-195085771D01*
X267577200Y-195300057D01*
X267434342Y-195442914D01*
X267291485Y-195514342D01*
X269862914Y-195014342D02*
X268577200Y-196942914D01*
X271148628Y-196585771D02*
X270291485Y-196585771D01*
X270720057Y-196585771D02*
X270720057Y-195085771D01*
X270577200Y-195300057D01*
X270434342Y-195442914D01*
X270291485Y-195514342D01*
D10*
D11*
X177002200Y-187507200D02*
X285002200Y-187507200D01*
D10*
D13*
X178714580Y-188211961D02*
X179857438Y-188211961D01*
X179036009Y-190211961D02*
X179286009Y-188211961D01*
X180274104Y-190211961D02*
X180440771Y-188878628D01*
X180524104Y-188211961D02*
X180416961Y-188307200D01*
X180500295Y-188402438D01*
X180607438Y-188307200D01*
X180524104Y-188211961D01*
X180500295Y-188402438D01*
X181107438Y-188878628D02*
X181869342Y-188878628D01*
X181476485Y-188211961D02*
X181262200Y-189926247D01*
X181333628Y-190116723D01*
X181512200Y-190211961D01*
X181702676Y-190211961D01*
X182655057Y-190211961D02*
X182476485Y-190116723D01*
X182405057Y-189926247D01*
X182619342Y-188211961D01*
X184190771Y-190116723D02*
X183988390Y-190211961D01*
X183607438Y-190211961D01*
X183428866Y-190116723D01*
X183357438Y-189926247D01*
X183452676Y-189164342D01*
X183571723Y-188973866D01*
X183774104Y-188878628D01*
X184155057Y-188878628D01*
X184333628Y-188973866D01*
X184405057Y-189164342D01*
X184381247Y-189354819D01*
X183405057Y-189545295D01*
X185155057Y-190021485D02*
X185238390Y-190116723D01*
X185131247Y-190211961D01*
X185047914Y-190116723D01*
X185155057Y-190021485D01*
X185131247Y-190211961D01*
X185286009Y-188973866D02*
X185369342Y-189069104D01*
X185262200Y-189164342D01*
X185178866Y-189069104D01*
X185286009Y-188973866D01*
X185262200Y-189164342D01*
D10*
D11*
X178934342Y-185600057D02*
X178434342Y-185600057D01*
X178434342Y-186385771D02*
X178434342Y-184885771D01*
X179148628Y-184885771D01*
X179720057Y-186385771D02*
X179720057Y-185385771D01*
X179720057Y-184885771D02*
X179648628Y-184957200D01*
X179720057Y-185028628D01*
X179791485Y-184957200D01*
X179720057Y-184885771D01*
X179720057Y-185028628D01*
X180648628Y-186385771D02*
X180505771Y-186314342D01*
X180434342Y-186171485D01*
X180434342Y-184885771D01*
X181791485Y-186314342D02*
X181648628Y-186385771D01*
X181362914Y-186385771D01*
X181220057Y-186314342D01*
X181148628Y-186171485D01*
X181148628Y-185600057D01*
X181220057Y-185457200D01*
X181362914Y-185385771D01*
X181648628Y-185385771D01*
X181791485Y-185457200D01*
X181862914Y-185600057D01*
X181862914Y-185742914D01*
X181148628Y-185885771D01*
X182505771Y-186242914D02*
X182577200Y-186314342D01*
X182505771Y-186385771D01*
X182434342Y-186314342D01*
X182505771Y-186242914D01*
X182505771Y-186385771D01*
X182505771Y-185457200D02*
X182577200Y-185528628D01*
X182505771Y-185600057D01*
X182434342Y-185528628D01*
X182505771Y-185457200D01*
X182505771Y-185600057D01*
X185005771Y-186385771D02*
X185005771Y-184885771D01*
X185005771Y-186314342D02*
X184862914Y-186385771D01*
X184577200Y-186385771D01*
X184434342Y-186314342D01*
X184362914Y-186242914D01*
X184291485Y-186100057D01*
X184291485Y-185671485D01*
X184362914Y-185528628D01*
X184434342Y-185457200D01*
X184577200Y-185385771D01*
X184862914Y-185385771D01*
X185005771Y-185457200D01*
X186362914Y-185385771D02*
X186362914Y-186385771D01*
X185720057Y-185385771D02*
X185720057Y-186171485D01*
X185791485Y-186314342D01*
X185934342Y-186385771D01*
X186148628Y-186385771D01*
X186291485Y-186314342D01*
X186362914Y-186242914D01*
X187720057Y-186385771D02*
X187720057Y-185600057D01*
X187648628Y-185457200D01*
X187505771Y-185385771D01*
X187220057Y-185385771D01*
X187077200Y-185457200D01*
X187720057Y-186314342D02*
X187577200Y-186385771D01*
X187220057Y-186385771D01*
X187077200Y-186314342D01*
X187005771Y-186171485D01*
X187005771Y-186028628D01*
X187077200Y-185885771D01*
X187220057Y-185814342D01*
X187577200Y-185814342D01*
X187720057Y-185742914D01*
X188648628Y-186385771D02*
X188505771Y-186314342D01*
X188434342Y-186171485D01*
X188434342Y-184885771D01*
X188862914Y-186528628D02*
X190005771Y-186528628D01*
X190362914Y-186385771D02*
X190362914Y-184885771D01*
X190362914Y-185457200D02*
X190505771Y-185385771D01*
X190791485Y-185385771D01*
X190934342Y-185457200D01*
X191005771Y-185528628D01*
X191077200Y-185671485D01*
X191077200Y-186100057D01*
X191005771Y-186242914D01*
X190934342Y-186314342D01*
X190791485Y-186385771D01*
X190505771Y-186385771D01*
X190362914Y-186314342D01*
X191934342Y-186385771D02*
X191791485Y-186314342D01*
X191720057Y-186242914D01*
X191648628Y-186100057D01*
X191648628Y-185671485D01*
X191720057Y-185528628D01*
X191791485Y-185457200D01*
X191934342Y-185385771D01*
X192148628Y-185385771D01*
X192291485Y-185457200D01*
X192362914Y-185528628D01*
X192434342Y-185671485D01*
X192434342Y-186100057D01*
X192362914Y-186242914D01*
X192291485Y-186314342D01*
X192148628Y-186385771D01*
X191934342Y-186385771D01*
X193720057Y-186385771D02*
X193720057Y-185600057D01*
X193648628Y-185457200D01*
X193505771Y-185385771D01*
X193220057Y-185385771D01*
X193077200Y-185457200D01*
X193720057Y-186314342D02*
X193577200Y-186385771D01*
X193220057Y-186385771D01*
X193077200Y-186314342D01*
X193005771Y-186171485D01*
X193005771Y-186028628D01*
X193077200Y-185885771D01*
X193220057Y-185814342D01*
X193577200Y-185814342D01*
X193720057Y-185742914D01*
X194434342Y-186385771D02*
X194434342Y-185385771D01*
X194434342Y-185671485D02*
X194505771Y-185528628D01*
X194577200Y-185457200D01*
X194720057Y-185385771D01*
X194862914Y-185385771D01*
X196005771Y-186385771D02*
X196005771Y-184885771D01*
X196005771Y-186314342D02*
X195862914Y-186385771D01*
X195577200Y-186385771D01*
X195434342Y-186314342D01*
X195362914Y-186242914D01*
X195291485Y-186100057D01*
X195291485Y-185671485D01*
X195362914Y-185528628D01*
X195434342Y-185457200D01*
X195577200Y-185385771D01*
X195862914Y-185385771D01*
X196005771Y-185457200D01*
X196362914Y-186528628D02*
X197505771Y-186528628D01*
X198505771Y-186314342D02*
X198362914Y-186385771D01*
X198077200Y-186385771D01*
X197934342Y-186314342D01*
X197862914Y-186242914D01*
X197791485Y-186100057D01*
X197791485Y-185671485D01*
X197862914Y-185528628D01*
X197934342Y-185457200D01*
X198077200Y-185385771D01*
X198362914Y-185385771D01*
X198505771Y-185457200D01*
X199791485Y-186385771D02*
X199791485Y-185600057D01*
X199720057Y-185457200D01*
X199577200Y-185385771D01*
X199291485Y-185385771D01*
X199148628Y-185457200D01*
X199791485Y-186314342D02*
X199648628Y-186385771D01*
X199291485Y-186385771D01*
X199148628Y-186314342D01*
X199077200Y-186171485D01*
X199077200Y-186028628D01*
X199148628Y-185885771D01*
X199291485Y-185814342D01*
X199648628Y-185814342D01*
X199791485Y-185742914D01*
X200505771Y-186385771D02*
X200505771Y-185385771D01*
X200505771Y-185671485D02*
X200577200Y-185528628D01*
X200648628Y-185457200D01*
X200791485Y-185385771D01*
X200934342Y-185385771D01*
X201434342Y-186385771D02*
X201434342Y-185385771D01*
X201434342Y-185671485D02*
X201505771Y-185528628D01*
X201577200Y-185457200D01*
X201720057Y-185385771D01*
X201862914Y-185385771D01*
X202362914Y-186385771D02*
X202362914Y-185385771D01*
X202362914Y-184885771D02*
X202291485Y-184957200D01*
X202362914Y-185028628D01*
X202434342Y-184957200D01*
X202362914Y-184885771D01*
X202362914Y-185028628D01*
X203648628Y-186314342D02*
X203505771Y-186385771D01*
X203220057Y-186385771D01*
X203077200Y-186314342D01*
X203005771Y-186171485D01*
X203005771Y-185600057D01*
X203077200Y-185457200D01*
X203220057Y-185385771D01*
X203505771Y-185385771D01*
X203648628Y-185457200D01*
X203720057Y-185600057D01*
X203720057Y-185742914D01*
X203005771Y-185885771D01*
X204362914Y-186385771D02*
X204362914Y-185385771D01*
X204362914Y-185671485D02*
X204434342Y-185528628D01*
X204505771Y-185457200D01*
X204648628Y-185385771D01*
X204791485Y-185385771D01*
X205291485Y-186242914D02*
X205362914Y-186314342D01*
X205291485Y-186385771D01*
X205220057Y-186314342D01*
X205291485Y-186242914D01*
X205291485Y-186385771D01*
X206005771Y-186385771D02*
X206005771Y-184885771D01*
X206148628Y-185814342D02*
X206577200Y-186385771D01*
X206577200Y-185385771D02*
X206005771Y-185957200D01*
X207220057Y-186385771D02*
X207220057Y-185385771D01*
X207220057Y-184885771D02*
X207148628Y-184957200D01*
X207220057Y-185028628D01*
X207291485Y-184957200D01*
X207220057Y-184885771D01*
X207220057Y-185028628D01*
X208577200Y-186314342D02*
X208434342Y-186385771D01*
X208148628Y-186385771D01*
X208005771Y-186314342D01*
X207934342Y-186242914D01*
X207862914Y-186100057D01*
X207862914Y-185671485D01*
X207934342Y-185528628D01*
X208005771Y-185457200D01*
X208148628Y-185385771D01*
X208434342Y-185385771D01*
X208577200Y-185457200D01*
X209862914Y-186385771D02*
X209862914Y-185600057D01*
X209791485Y-185457200D01*
X209648628Y-185385771D01*
X209362914Y-185385771D01*
X209220057Y-185457200D01*
X209862914Y-186314342D02*
X209720057Y-186385771D01*
X209362914Y-186385771D01*
X209220057Y-186314342D01*
X209148628Y-186171485D01*
X209148628Y-186028628D01*
X209220057Y-185885771D01*
X209362914Y-185814342D01*
X209720057Y-185814342D01*
X209862914Y-185742914D01*
X211220057Y-186385771D02*
X211220057Y-184885771D01*
X211220057Y-186314342D02*
X211077200Y-186385771D01*
X210791485Y-186385771D01*
X210648628Y-186314342D01*
X210577200Y-186242914D01*
X210505771Y-186100057D01*
X210505771Y-185671485D01*
X210577200Y-185528628D01*
X210648628Y-185457200D01*
X210791485Y-185385771D01*
X211077200Y-185385771D01*
X211220057Y-185457200D01*
X211577200Y-186528628D02*
X212720057Y-186528628D01*
X213077200Y-185385771D02*
X213077200Y-186885771D01*
X213077200Y-185457200D02*
X213220057Y-185385771D01*
X213505771Y-185385771D01*
X213648628Y-185457200D01*
X213720057Y-185528628D01*
X213791485Y-185671485D01*
X213791485Y-186100057D01*
X213720057Y-186242914D01*
X213648628Y-186314342D01*
X213505771Y-186385771D01*
X213220057Y-186385771D01*
X213077200Y-186314342D01*
X215077200Y-186314342D02*
X214934342Y-186385771D01*
X214648628Y-186385771D01*
X214505771Y-186314342D01*
X214434342Y-186242914D01*
X214362914Y-186100057D01*
X214362914Y-185671485D01*
X214434342Y-185528628D01*
X214505771Y-185457200D01*
X214648628Y-185385771D01*
X214934342Y-185385771D01*
X215077200Y-185457200D01*
X215720057Y-186385771D02*
X215720057Y-184885771D01*
X215720057Y-185457200D02*
X215862914Y-185385771D01*
X216148628Y-185385771D01*
X216291485Y-185457200D01*
X216362914Y-185528628D01*
X216434342Y-185671485D01*
X216434342Y-186100057D01*
X216362914Y-186242914D01*
X216291485Y-186314342D01*
X216148628Y-186385771D01*
X215862914Y-186385771D01*
X215720057Y-186314342D01*
D10*
D11*
X177002200Y-181507200D02*
X285002200Y-181507200D01*
D10*
D11*
X178362914Y-183614342D02*
X178577200Y-183685771D01*
X178934342Y-183685771D01*
X179077200Y-183614342D01*
X179148628Y-183542914D01*
X179220057Y-183400057D01*
X179220057Y-183257200D01*
X179148628Y-183114342D01*
X179077200Y-183042914D01*
X178934342Y-182971485D01*
X178648628Y-182900057D01*
X178505771Y-182828628D01*
X178434342Y-182757200D01*
X178362914Y-182614342D01*
X178362914Y-182471485D01*
X178434342Y-182328628D01*
X178505771Y-182257200D01*
X178648628Y-182185771D01*
X179005771Y-182185771D01*
X179220057Y-182257200D01*
X179862914Y-183685771D02*
X179862914Y-182185771D01*
X180505771Y-183685771D02*
X180505771Y-182900057D01*
X180434342Y-182757200D01*
X180291485Y-182685771D01*
X180077200Y-182685771D01*
X179934342Y-182757200D01*
X179862914Y-182828628D01*
X181791485Y-183614342D02*
X181648628Y-183685771D01*
X181362914Y-183685771D01*
X181220057Y-183614342D01*
X181148628Y-183471485D01*
X181148628Y-182900057D01*
X181220057Y-182757200D01*
X181362914Y-182685771D01*
X181648628Y-182685771D01*
X181791485Y-182757200D01*
X181862914Y-182900057D01*
X181862914Y-183042914D01*
X181148628Y-183185771D01*
X183077200Y-183614342D02*
X182934342Y-183685771D01*
X182648628Y-183685771D01*
X182505771Y-183614342D01*
X182434342Y-183471485D01*
X182434342Y-182900057D01*
X182505771Y-182757200D01*
X182648628Y-182685771D01*
X182934342Y-182685771D01*
X183077200Y-182757200D01*
X183148628Y-182900057D01*
X183148628Y-183042914D01*
X182434342Y-183185771D01*
X183577200Y-182685771D02*
X184148628Y-182685771D01*
X183791485Y-182185771D02*
X183791485Y-183471485D01*
X183862914Y-183614342D01*
X184005771Y-183685771D01*
X184148628Y-183685771D01*
X184648628Y-183542914D02*
X184720057Y-183614342D01*
X184648628Y-183685771D01*
X184577200Y-183614342D01*
X184648628Y-183542914D01*
X184648628Y-183685771D01*
X184648628Y-182757200D02*
X184720057Y-182828628D01*
X184648628Y-182900057D01*
X184577200Y-182828628D01*
X184648628Y-182757200D01*
X184648628Y-182900057D01*
D10*
D11*
X197002200Y-191507200D02*
X197002200Y-194507200D01*
D10*
D11*
X261002200Y-191507200D02*
X261002200Y-198007200D01*
D14*
%TO.P,U2,2*%
%TO.N,GND*%
X151254000Y-85852000D03*
D15*
%TO.P,U2,3*%
%TO.N,+5V*%
X144954000Y-88132000D03*
%TO.P,U2,1*%
%TO.N,/LSU_Heater+*%
X144954000Y-83572000D03*
%TD*%
%TO.P,R8,2*%
%TO.N,Net-(C14-Pad2)*%
%TA.AperFunction,SMDPad,CuDef*%
G36*
G01*
X120532999Y-96150000D02*
X121783001Y-96150000D01*
G75*
G02*
X122033000Y-96399999I0J-249999D01*
G01*
X122033000Y-97025001D01*
G75*
G02*
X121783001Y-97275000I-249999J0D01*
G01*
X120532999Y-97275000D01*
G75*
G02*
X120283000Y-97025001I0J249999D01*
G01*
X120283000Y-96399999D01*
G75*
G02*
X120532999Y-96150000I249999J0D01*
G01*
G37*
%TD.AperFunction*%
%TO.P,R8,1*%
%TO.N,/CAN_H*%
%TA.AperFunction,SMDPad,CuDef*%
G36*
G01*
X120532999Y-93225000D02*
X121783001Y-93225000D01*
G75*
G02*
X122033000Y-93474999I0J-249999D01*
G01*
X122033000Y-94100001D01*
G75*
G02*
X121783001Y-94350000I-249999J0D01*
G01*
X120532999Y-94350000D01*
G75*
G02*
X120283000Y-94100001I0J249999D01*
G01*
X120283000Y-93474999D01*
G75*
G02*
X120532999Y-93225000I249999J0D01*
G01*
G37*
%TD.AperFunction*%
%TD*%
%TO.P,R7,2*%
%TO.N,/CAN_L*%
%TA.AperFunction,SMDPad,CuDef*%
G36*
G01*
X120532999Y-100722000D02*
X121783001Y-100722000D01*
G75*
G02*
X122033000Y-100971999I0J-249999D01*
G01*
X122033000Y-101597001D01*
G75*
G02*
X121783001Y-101847000I-249999J0D01*
G01*
X120532999Y-101847000D01*
G75*
G02*
X120283000Y-101597001I0J249999D01*
G01*
X120283000Y-100971999D01*
G75*
G02*
X120532999Y-100722000I249999J0D01*
G01*
G37*
%TD.AperFunction*%
%TO.P,R7,1*%
%TO.N,Net-(C14-Pad2)*%
%TA.AperFunction,SMDPad,CuDef*%
G36*
G01*
X120532999Y-97797000D02*
X121783001Y-97797000D01*
G75*
G02*
X122033000Y-98046999I0J-249999D01*
G01*
X122033000Y-98672001D01*
G75*
G02*
X121783001Y-98922000I-249999J0D01*
G01*
X120532999Y-98922000D01*
G75*
G02*
X120283000Y-98672001I0J249999D01*
G01*
X120283000Y-98046999D01*
G75*
G02*
X120532999Y-97797000I249999J0D01*
G01*
G37*
%TD.AperFunction*%
%TD*%
%TO.P,R6,2*%
%TO.N,Net-(C14-Pad2)*%
%TA.AperFunction,SMDPad,CuDef*%
G36*
G01*
X118246999Y-96150000D02*
X119497001Y-96150000D01*
G75*
G02*
X119747000Y-96399999I0J-249999D01*
G01*
X119747000Y-97025001D01*
G75*
G02*
X119497001Y-97275000I-249999J0D01*
G01*
X118246999Y-97275000D01*
G75*
G02*
X117997000Y-97025001I0J249999D01*
G01*
X117997000Y-96399999D01*
G75*
G02*
X118246999Y-96150000I249999J0D01*
G01*
G37*
%TD.AperFunction*%
%TO.P,R6,1*%
%TO.N,/CAN_H*%
%TA.AperFunction,SMDPad,CuDef*%
G36*
G01*
X118246999Y-93225000D02*
X119497001Y-93225000D01*
G75*
G02*
X119747000Y-93474999I0J-249999D01*
G01*
X119747000Y-94100001D01*
G75*
G02*
X119497001Y-94350000I-249999J0D01*
G01*
X118246999Y-94350000D01*
G75*
G02*
X117997000Y-94100001I0J249999D01*
G01*
X117997000Y-93474999D01*
G75*
G02*
X118246999Y-93225000I249999J0D01*
G01*
G37*
%TD.AperFunction*%
%TD*%
%TO.P,R5,2*%
%TO.N,/CAN_L*%
%TA.AperFunction,SMDPad,CuDef*%
G36*
G01*
X118210000Y-100740999D02*
X119460002Y-100740999D01*
G75*
G02*
X119710001Y-100990998I0J-249999D01*
G01*
X119710001Y-101616000D01*
G75*
G02*
X119460002Y-101865999I-249999J0D01*
G01*
X118210000Y-101865999D01*
G75*
G02*
X117960001Y-101616000I0J249999D01*
G01*
X117960001Y-100990998D01*
G75*
G02*
X118210000Y-100740999I249999J0D01*
G01*
G37*
%TD.AperFunction*%
%TO.P,R5,1*%
%TO.N,Net-(C14-Pad2)*%
%TA.AperFunction,SMDPad,CuDef*%
G36*
G01*
X118210000Y-97815999D02*
X119460002Y-97815999D01*
G75*
G02*
X119710001Y-98065998I0J-249999D01*
G01*
X119710001Y-98691000D01*
G75*
G02*
X119460002Y-98940999I-249999J0D01*
G01*
X118210000Y-98940999D01*
G75*
G02*
X117960001Y-98691000I0J249999D01*
G01*
X117960001Y-98065998D01*
G75*
G02*
X118210000Y-97815999I249999J0D01*
G01*
G37*
%TD.AperFunction*%
%TD*%
%TO.P,R1,2*%
%TO.N,Net-(C3-Pad1)*%
%TA.AperFunction,SMDPad,CuDef*%
G36*
G01*
X112803000Y-101579000D02*
X112803000Y-102129000D01*
G75*
G02*
X112603000Y-102329000I-200000J0D01*
G01*
X112203000Y-102329000D01*
G75*
G02*
X112003000Y-102129000I0J200000D01*
G01*
X112003000Y-101579000D01*
G75*
G02*
X112203000Y-101379000I200000J0D01*
G01*
X112603000Y-101379000D01*
G75*
G02*
X112803000Y-101579000I0J-200000D01*
G01*
G37*
%TD.AperFunction*%
%TO.P,R1,1*%
%TO.N,+5V*%
%TA.AperFunction,SMDPad,CuDef*%
G36*
G01*
X114453000Y-101579000D02*
X114453000Y-102129000D01*
G75*
G02*
X114253000Y-102329000I-200000J0D01*
G01*
X113853000Y-102329000D01*
G75*
G02*
X113653000Y-102129000I0J200000D01*
G01*
X113653000Y-101579000D01*
G75*
G02*
X113853000Y-101379000I200000J0D01*
G01*
X114253000Y-101379000D01*
G75*
G02*
X114453000Y-101579000I0J-200000D01*
G01*
G37*
%TD.AperFunction*%
%TD*%
D16*
%TO.P,D1,2*%
%TO.N,GND*%
X108614000Y-83566000D03*
%TO.P,D1,1*%
%TO.N,12V_RAW*%
X115414000Y-83566000D03*
%TD*%
%TO.P,U3,8*%
%TO.N,GND*%
%TA.AperFunction,SMDPad,CuDef*%
G36*
G01*
X139732000Y-91971000D02*
X139732000Y-91671000D01*
G75*
G02*
X139882000Y-91521000I150000J0D01*
G01*
X141532000Y-91521000D01*
G75*
G02*
X141682000Y-91671000I0J-150000D01*
G01*
X141682000Y-91971000D01*
G75*
G02*
X141532000Y-92121000I-150000J0D01*
G01*
X139882000Y-92121000D01*
G75*
G02*
X139732000Y-91971000I0J150000D01*
G01*
G37*
%TD.AperFunction*%
%TO.P,U3,7*%
%TO.N,/CAN_H*%
%TA.AperFunction,SMDPad,CuDef*%
G36*
G01*
X139732000Y-93241000D02*
X139732000Y-92941000D01*
G75*
G02*
X139882000Y-92791000I150000J0D01*
G01*
X141532000Y-92791000D01*
G75*
G02*
X141682000Y-92941000I0J-150000D01*
G01*
X141682000Y-93241000D01*
G75*
G02*
X141532000Y-93391000I-150000J0D01*
G01*
X139882000Y-93391000D01*
G75*
G02*
X139732000Y-93241000I0J150000D01*
G01*
G37*
%TD.AperFunction*%
%TO.P,U3,6*%
%TO.N,/CAN_L*%
%TA.AperFunction,SMDPad,CuDef*%
G36*
G01*
X139732000Y-94511000D02*
X139732000Y-94211000D01*
G75*
G02*
X139882000Y-94061000I150000J0D01*
G01*
X141532000Y-94061000D01*
G75*
G02*
X141682000Y-94211000I0J-150000D01*
G01*
X141682000Y-94511000D01*
G75*
G02*
X141532000Y-94661000I-150000J0D01*
G01*
X139882000Y-94661000D01*
G75*
G02*
X139732000Y-94511000I0J150000D01*
G01*
G37*
%TD.AperFunction*%
%TO.P,U3,5*%
%TO.N,Net-(C11-Pad1)*%
%TA.AperFunction,SMDPad,CuDef*%
G36*
G01*
X139732000Y-95781000D02*
X139732000Y-95481000D01*
G75*
G02*
X139882000Y-95331000I150000J0D01*
G01*
X141532000Y-95331000D01*
G75*
G02*
X141682000Y-95481000I0J-150000D01*
G01*
X141682000Y-95781000D01*
G75*
G02*
X141532000Y-95931000I-150000J0D01*
G01*
X139882000Y-95931000D01*
G75*
G02*
X139732000Y-95781000I0J150000D01*
G01*
G37*
%TD.AperFunction*%
%TO.P,U3,4*%
%TO.N,/CAN2_RX*%
%TA.AperFunction,SMDPad,CuDef*%
G36*
G01*
X134782000Y-95781000D02*
X134782000Y-95481000D01*
G75*
G02*
X134932000Y-95331000I150000J0D01*
G01*
X136582000Y-95331000D01*
G75*
G02*
X136732000Y-95481000I0J-150000D01*
G01*
X136732000Y-95781000D01*
G75*
G02*
X136582000Y-95931000I-150000J0D01*
G01*
X134932000Y-95931000D01*
G75*
G02*
X134782000Y-95781000I0J150000D01*
G01*
G37*
%TD.AperFunction*%
%TO.P,U3,3*%
%TO.N,+5V*%
%TA.AperFunction,SMDPad,CuDef*%
G36*
G01*
X134782000Y-94511000D02*
X134782000Y-94211000D01*
G75*
G02*
X134932000Y-94061000I150000J0D01*
G01*
X136582000Y-94061000D01*
G75*
G02*
X136732000Y-94211000I0J-150000D01*
G01*
X136732000Y-94511000D01*
G75*
G02*
X136582000Y-94661000I-150000J0D01*
G01*
X134932000Y-94661000D01*
G75*
G02*
X134782000Y-94511000I0J150000D01*
G01*
G37*
%TD.AperFunction*%
%TO.P,U3,2*%
%TO.N,GND*%
%TA.AperFunction,SMDPad,CuDef*%
G36*
G01*
X134782000Y-93241000D02*
X134782000Y-92941000D01*
G75*
G02*
X134932000Y-92791000I150000J0D01*
G01*
X136582000Y-92791000D01*
G75*
G02*
X136732000Y-92941000I0J-150000D01*
G01*
X136732000Y-93241000D01*
G75*
G02*
X136582000Y-93391000I-150000J0D01*
G01*
X134932000Y-93391000D01*
G75*
G02*
X134782000Y-93241000I0J150000D01*
G01*
G37*
%TD.AperFunction*%
%TO.P,U3,1*%
%TO.N,/CAN2_TX*%
%TA.AperFunction,SMDPad,CuDef*%
G36*
G01*
X134782000Y-91971000D02*
X134782000Y-91671000D01*
G75*
G02*
X134932000Y-91521000I150000J0D01*
G01*
X136582000Y-91521000D01*
G75*
G02*
X136732000Y-91671000I0J-150000D01*
G01*
X136732000Y-91971000D01*
G75*
G02*
X136582000Y-92121000I-150000J0D01*
G01*
X134932000Y-92121000D01*
G75*
G02*
X134782000Y-91971000I0J150000D01*
G01*
G37*
%TD.AperFunction*%
%TD*%
%TO.P,U1,8*%
%TO.N,GND*%
%TA.AperFunction,SMDPad,CuDef*%
G36*
G01*
X111172000Y-92225000D02*
X111172000Y-91925000D01*
G75*
G02*
X111322000Y-91775000I150000J0D01*
G01*
X112972000Y-91775000D01*
G75*
G02*
X113122000Y-91925000I0J-150000D01*
G01*
X113122000Y-92225000D01*
G75*
G02*
X112972000Y-92375000I-150000J0D01*
G01*
X111322000Y-92375000D01*
G75*
G02*
X111172000Y-92225000I0J150000D01*
G01*
G37*
%TD.AperFunction*%
%TO.P,U1,7*%
%TO.N,/CAN_H*%
%TA.AperFunction,SMDPad,CuDef*%
G36*
G01*
X111172000Y-93495000D02*
X111172000Y-93195000D01*
G75*
G02*
X111322000Y-93045000I150000J0D01*
G01*
X112972000Y-93045000D01*
G75*
G02*
X113122000Y-93195000I0J-150000D01*
G01*
X113122000Y-93495000D01*
G75*
G02*
X112972000Y-93645000I-150000J0D01*
G01*
X111322000Y-93645000D01*
G75*
G02*
X111172000Y-93495000I0J150000D01*
G01*
G37*
%TD.AperFunction*%
%TO.P,U1,6*%
%TO.N,/CAN_L*%
%TA.AperFunction,SMDPad,CuDef*%
G36*
G01*
X111172000Y-94765000D02*
X111172000Y-94465000D01*
G75*
G02*
X111322000Y-94315000I150000J0D01*
G01*
X112972000Y-94315000D01*
G75*
G02*
X113122000Y-94465000I0J-150000D01*
G01*
X113122000Y-94765000D01*
G75*
G02*
X112972000Y-94915000I-150000J0D01*
G01*
X111322000Y-94915000D01*
G75*
G02*
X111172000Y-94765000I0J150000D01*
G01*
G37*
%TD.AperFunction*%
%TO.P,U1,5*%
%TO.N,Net-(C3-Pad1)*%
%TA.AperFunction,SMDPad,CuDef*%
G36*
G01*
X111172000Y-96035000D02*
X111172000Y-95735000D01*
G75*
G02*
X111322000Y-95585000I150000J0D01*
G01*
X112972000Y-95585000D01*
G75*
G02*
X113122000Y-95735000I0J-150000D01*
G01*
X113122000Y-96035000D01*
G75*
G02*
X112972000Y-96185000I-150000J0D01*
G01*
X111322000Y-96185000D01*
G75*
G02*
X111172000Y-96035000I0J150000D01*
G01*
G37*
%TD.AperFunction*%
%TO.P,U1,4*%
%TO.N,/CAN_RX*%
%TA.AperFunction,SMDPad,CuDef*%
G36*
G01*
X106222000Y-96035000D02*
X106222000Y-95735000D01*
G75*
G02*
X106372000Y-95585000I150000J0D01*
G01*
X108022000Y-95585000D01*
G75*
G02*
X108172000Y-95735000I0J-150000D01*
G01*
X108172000Y-96035000D01*
G75*
G02*
X108022000Y-96185000I-150000J0D01*
G01*
X106372000Y-96185000D01*
G75*
G02*
X106222000Y-96035000I0J150000D01*
G01*
G37*
%TD.AperFunction*%
%TO.P,U1,3*%
%TO.N,+5V*%
%TA.AperFunction,SMDPad,CuDef*%
G36*
G01*
X106222000Y-94765000D02*
X106222000Y-94465000D01*
G75*
G02*
X106372000Y-94315000I150000J0D01*
G01*
X108022000Y-94315000D01*
G75*
G02*
X108172000Y-94465000I0J-150000D01*
G01*
X108172000Y-94765000D01*
G75*
G02*
X108022000Y-94915000I-150000J0D01*
G01*
X106372000Y-94915000D01*
G75*
G02*
X106222000Y-94765000I0J150000D01*
G01*
G37*
%TD.AperFunction*%
%TO.P,U1,2*%
%TO.N,GND*%
%TA.AperFunction,SMDPad,CuDef*%
G36*
G01*
X106222000Y-93495000D02*
X106222000Y-93195000D01*
G75*
G02*
X106372000Y-93045000I150000J0D01*
G01*
X108022000Y-93045000D01*
G75*
G02*
X108172000Y-93195000I0J-150000D01*
G01*
X108172000Y-93495000D01*
G75*
G02*
X108022000Y-93645000I-150000J0D01*
G01*
X106372000Y-93645000D01*
G75*
G02*
X106222000Y-93495000I0J150000D01*
G01*
G37*
%TD.AperFunction*%
%TO.P,U1,1*%
%TO.N,/CAN_TX*%
%TA.AperFunction,SMDPad,CuDef*%
G36*
G01*
X106222000Y-92225000D02*
X106222000Y-91925000D01*
G75*
G02*
X106372000Y-91775000I150000J0D01*
G01*
X108022000Y-91775000D01*
G75*
G02*
X108172000Y-91925000I0J-150000D01*
G01*
X108172000Y-92225000D01*
G75*
G02*
X108022000Y-92375000I-150000J0D01*
G01*
X106372000Y-92375000D01*
G75*
G02*
X106222000Y-92225000I0J150000D01*
G01*
G37*
%TD.AperFunction*%
%TD*%
%TO.P,R4,2*%
%TO.N,GND*%
%TA.AperFunction,SMDPad,CuDef*%
G36*
G01*
X142213000Y-100351000D02*
X142213000Y-99801000D01*
G75*
G02*
X142413000Y-99601000I200000J0D01*
G01*
X142813000Y-99601000D01*
G75*
G02*
X143013000Y-99801000I0J-200000D01*
G01*
X143013000Y-100351000D01*
G75*
G02*
X142813000Y-100551000I-200000J0D01*
G01*
X142413000Y-100551000D01*
G75*
G02*
X142213000Y-100351000I0J200000D01*
G01*
G37*
%TD.AperFunction*%
%TO.P,R4,1*%
%TO.N,Net-(C11-Pad1)*%
%TA.AperFunction,SMDPad,CuDef*%
G36*
G01*
X140563000Y-100351000D02*
X140563000Y-99801000D01*
G75*
G02*
X140763000Y-99601000I200000J0D01*
G01*
X141163000Y-99601000D01*
G75*
G02*
X141363000Y-99801000I0J-200000D01*
G01*
X141363000Y-100351000D01*
G75*
G02*
X141163000Y-100551000I-200000J0D01*
G01*
X140763000Y-100551000D01*
G75*
G02*
X140563000Y-100351000I0J200000D01*
G01*
G37*
%TD.AperFunction*%
%TD*%
%TO.P,R3,2*%
%TO.N,Net-(C11-Pad1)*%
%TA.AperFunction,SMDPad,CuDef*%
G36*
G01*
X141363000Y-101325000D02*
X141363000Y-101875000D01*
G75*
G02*
X141163000Y-102075000I-200000J0D01*
G01*
X140763000Y-102075000D01*
G75*
G02*
X140563000Y-101875000I0J200000D01*
G01*
X140563000Y-101325000D01*
G75*
G02*
X140763000Y-101125000I200000J0D01*
G01*
X141163000Y-101125000D01*
G75*
G02*
X141363000Y-101325000I0J-200000D01*
G01*
G37*
%TD.AperFunction*%
%TO.P,R3,1*%
%TO.N,+5V*%
%TA.AperFunction,SMDPad,CuDef*%
G36*
G01*
X143013000Y-101325000D02*
X143013000Y-101875000D01*
G75*
G02*
X142813000Y-102075000I-200000J0D01*
G01*
X142413000Y-102075000D01*
G75*
G02*
X142213000Y-101875000I0J200000D01*
G01*
X142213000Y-101325000D01*
G75*
G02*
X142413000Y-101125000I200000J0D01*
G01*
X142813000Y-101125000D01*
G75*
G02*
X143013000Y-101325000I0J-200000D01*
G01*
G37*
%TD.AperFunction*%
%TD*%
%TO.P,R2,2*%
%TO.N,GND*%
%TA.AperFunction,SMDPad,CuDef*%
G36*
G01*
X113653000Y-100605000D02*
X113653000Y-100055000D01*
G75*
G02*
X113853000Y-99855000I200000J0D01*
G01*
X114253000Y-99855000D01*
G75*
G02*
X114453000Y-100055000I0J-200000D01*
G01*
X114453000Y-100605000D01*
G75*
G02*
X114253000Y-100805000I-200000J0D01*
G01*
X113853000Y-100805000D01*
G75*
G02*
X113653000Y-100605000I0J200000D01*
G01*
G37*
%TD.AperFunction*%
%TO.P,R2,1*%
%TO.N,Net-(C3-Pad1)*%
%TA.AperFunction,SMDPad,CuDef*%
G36*
G01*
X112003000Y-100605000D02*
X112003000Y-100055000D01*
G75*
G02*
X112203000Y-99855000I200000J0D01*
G01*
X112603000Y-99855000D01*
G75*
G02*
X112803000Y-100055000I0J-200000D01*
G01*
X112803000Y-100605000D01*
G75*
G02*
X112603000Y-100805000I-200000J0D01*
G01*
X112203000Y-100805000D01*
G75*
G02*
X112003000Y-100605000I0J200000D01*
G01*
G37*
%TD.AperFunction*%
%TD*%
D17*
%TO.P,J5,8*%
%TO.N,/LSU2_Un*%
X156690000Y-101280000D03*
%TO.P,J5,7*%
%TO.N,/LSU2_Rtrim*%
X156690000Y-98740000D03*
%TO.P,J5,6*%
%TO.N,/LSU2_Vm*%
X156690000Y-96200000D03*
%TO.P,J5,5*%
%TO.N,/LSU2_Ip*%
X156690000Y-93660000D03*
%TO.P,J5,4*%
%TO.N,/LSU2_Heater-*%
X156690000Y-91120000D03*
%TO.P,J5,3*%
X156690000Y-88580000D03*
%TO.P,J5,2*%
%TO.N,GND*%
X156690000Y-86040000D03*
D18*
%TO.P,J5,1*%
X156690000Y-83500000D03*
%TD*%
D17*
%TO.P,J4,8*%
%TO.N,/Boot02*%
X131290000Y-101280000D03*
%TO.P,J4,7*%
%TO.N,/nRESET2*%
X131290000Y-98740000D03*
%TO.P,J4,6*%
%TO.N,/CAN2_TX*%
X131290000Y-96200000D03*
%TO.P,J4,5*%
%TO.N,/CAN2_RX*%
X131290000Y-93660000D03*
%TO.P,J4,4*%
%TO.N,/UART_RX2*%
X131290000Y-91120000D03*
%TO.P,J4,3*%
%TO.N,/UART_TX2*%
X131290000Y-88580000D03*
%TO.P,J4,2*%
%TO.N,GND*%
X131290000Y-86040000D03*
D18*
%TO.P,J4,1*%
%TO.N,+5V*%
X131290000Y-83500000D03*
%TD*%
D19*
%TO.P,J3,1*%
%TO.N,GND*%
X145290000Y-77212000D03*
%TO.P,J3,2*%
X141790000Y-77212000D03*
%TO.P,J3,3*%
%TO.N,/LSU1_Heater-*%
X138290000Y-77212000D03*
%TO.P,J3,4*%
%TO.N,/LSU1_Ip*%
X134790000Y-77212000D03*
%TO.P,J3,5*%
%TO.N,/LSU1_Vm*%
X131290000Y-77212000D03*
%TO.P,J3,6*%
%TO.N,/LSU1_Rtrim*%
X127790000Y-77212000D03*
%TO.P,J3,7*%
%TO.N,/LSU1_Un*%
X124290000Y-77212000D03*
%TO.P,J3,8*%
%TO.N,/CAN_L*%
X120790000Y-77212000D03*
%TO.P,J3,9*%
%TO.N,/LSU_Heater+*%
X117290000Y-77212000D03*
%TO.P,J3,10*%
%TO.N,12V_RAW*%
X113790000Y-77212000D03*
%TO.P,J3,11*%
%TO.N,GND*%
X145290000Y-73712000D03*
%TO.P,J3,12*%
X141790000Y-73712000D03*
%TO.P,J3,13*%
%TO.N,/LSU2_Heater-*%
X138290000Y-73712000D03*
%TO.P,J3,14*%
%TO.N,/LSU2_Ip*%
X134790000Y-73712000D03*
%TO.P,J3,15*%
%TO.N,/LSU2_Vm*%
X131290000Y-73712000D03*
%TO.P,J3,16*%
%TO.N,/LSU2_Rtrim*%
X127790000Y-73712000D03*
%TO.P,J3,17*%
%TO.N,/LSU2_Un*%
X124290000Y-73712000D03*
%TO.P,J3,18*%
%TO.N,/CAN_H*%
X120790000Y-73712000D03*
%TO.P,J3,19*%
%TO.N,/LSU_Heater+*%
X117290000Y-73712000D03*
%TO.P,J3,20*%
%TO.N,12V_RAW*%
X113790000Y-73712000D03*
%TD*%
D17*
%TO.P,J2,8*%
%TO.N,/LSU1_Un*%
X127790000Y-101280000D03*
%TO.P,J2,7*%
%TO.N,/LSU1_Rtrim*%
X127790000Y-98740000D03*
%TO.P,J2,6*%
%TO.N,/LSU1_Vm*%
X127790000Y-96200000D03*
%TO.P,J2,5*%
%TO.N,/LSU1_Ip*%
X127790000Y-93660000D03*
%TO.P,J2,4*%
%TO.N,/LSU1_Heater-*%
X127790000Y-91120000D03*
%TO.P,J2,3*%
X127790000Y-88580000D03*
%TO.P,J2,2*%
%TO.N,GND*%
X127790000Y-86040000D03*
D18*
%TO.P,J2,1*%
X127790000Y-83500000D03*
%TD*%
D17*
%TO.P,J1,8*%
%TO.N,/Boot0*%
X102560000Y-101280000D03*
%TO.P,J1,7*%
%TO.N,/nRESET*%
X102560000Y-98740000D03*
%TO.P,J1,6*%
%TO.N,/CAN_TX*%
X102560000Y-96200000D03*
%TO.P,J1,5*%
%TO.N,/CAN_RX*%
X102560000Y-93660000D03*
%TO.P,J1,4*%
%TO.N,/UART_RX*%
X102560000Y-91120000D03*
%TO.P,J1,3*%
%TO.N,/UART_TX*%
X102560000Y-88580000D03*
%TO.P,J1,2*%
%TO.N,GND*%
X102560000Y-86040000D03*
D18*
%TO.P,J1,1*%
%TO.N,+5V*%
X102560000Y-83500000D03*
%TD*%
D20*
%TO.P,D2,2*%
%TO.N,12V_RAW*%
X119102000Y-83312000D03*
%TO.P,D2,1*%
%TO.N,/LSU_Heater+*%
X123102000Y-83312000D03*
%TD*%
%TO.P,C11,2*%
%TO.N,GND*%
%TA.AperFunction,SMDPad,CuDef*%
G36*
G01*
X142113000Y-98802000D02*
X142113000Y-98302000D01*
G75*
G02*
X142338000Y-98077000I225000J0D01*
G01*
X142788000Y-98077000D01*
G75*
G02*
X143013000Y-98302000I0J-225000D01*
G01*
X143013000Y-98802000D01*
G75*
G02*
X142788000Y-99027000I-225000J0D01*
G01*
X142338000Y-99027000D01*
G75*
G02*
X142113000Y-98802000I0J225000D01*
G01*
G37*
%TD.AperFunction*%
%TO.P,C11,1*%
%TO.N,Net-(C11-Pad1)*%
%TA.AperFunction,SMDPad,CuDef*%
G36*
G01*
X140563000Y-98802000D02*
X140563000Y-98302000D01*
G75*
G02*
X140788000Y-98077000I225000J0D01*
G01*
X141238000Y-98077000D01*
G75*
G02*
X141463000Y-98302000I0J-225000D01*
G01*
X141463000Y-98802000D01*
G75*
G02*
X141238000Y-99027000I-225000J0D01*
G01*
X140788000Y-99027000D01*
G75*
G02*
X140563000Y-98802000I0J225000D01*
G01*
G37*
%TD.AperFunction*%
%TD*%
%TO.P,C10,2*%
%TO.N,GND*%
%TA.AperFunction,SMDPad,CuDef*%
G36*
G01*
X144160001Y-79364000D02*
X142859999Y-79364000D01*
G75*
G02*
X142610000Y-79114001I0J249999D01*
G01*
X142610000Y-78463999D01*
G75*
G02*
X142859999Y-78214000I249999J0D01*
G01*
X144160001Y-78214000D01*
G75*
G02*
X144410000Y-78463999I0J-249999D01*
G01*
X144410000Y-79114001D01*
G75*
G02*
X144160001Y-79364000I-249999J0D01*
G01*
G37*
%TD.AperFunction*%
%TO.P,C10,1*%
%TO.N,/LSU_Heater+*%
%TA.AperFunction,SMDPad,CuDef*%
G36*
G01*
X144160001Y-82314000D02*
X142859999Y-82314000D01*
G75*
G02*
X142610000Y-82064001I0J249999D01*
G01*
X142610000Y-81413999D01*
G75*
G02*
X142859999Y-81164000I249999J0D01*
G01*
X144160001Y-81164000D01*
G75*
G02*
X144410000Y-81413999I0J-249999D01*
G01*
X144410000Y-82064001D01*
G75*
G02*
X144160001Y-82314000I-249999J0D01*
G01*
G37*
%TD.AperFunction*%
%TD*%
%TO.P,C9,2*%
%TO.N,GND*%
%TA.AperFunction,SMDPad,CuDef*%
G36*
G01*
X119435999Y-90054000D02*
X120736001Y-90054000D01*
G75*
G02*
X120986000Y-90303999I0J-249999D01*
G01*
X120986000Y-90954001D01*
G75*
G02*
X120736001Y-91204000I-249999J0D01*
G01*
X119435999Y-91204000D01*
G75*
G02*
X119186000Y-90954001I0J249999D01*
G01*
X119186000Y-90303999D01*
G75*
G02*
X119435999Y-90054000I249999J0D01*
G01*
G37*
%TD.AperFunction*%
%TO.P,C9,1*%
%TO.N,12V_RAW*%
%TA.AperFunction,SMDPad,CuDef*%
G36*
G01*
X119435999Y-87104000D02*
X120736001Y-87104000D01*
G75*
G02*
X120986000Y-87353999I0J-249999D01*
G01*
X120986000Y-88004001D01*
G75*
G02*
X120736001Y-88254000I-249999J0D01*
G01*
X119435999Y-88254000D01*
G75*
G02*
X119186000Y-88004001I0J249999D01*
G01*
X119186000Y-87353999D01*
G75*
G02*
X119435999Y-87104000I249999J0D01*
G01*
G37*
%TD.AperFunction*%
%TD*%
%TO.P,C8,2*%
%TO.N,12V_RAW*%
%TA.AperFunction,SMDPad,CuDef*%
G36*
G01*
X118450001Y-88254000D02*
X117149999Y-88254000D01*
G75*
G02*
X116900000Y-88004001I0J249999D01*
G01*
X116900000Y-87353999D01*
G75*
G02*
X117149999Y-87104000I249999J0D01*
G01*
X118450001Y-87104000D01*
G75*
G02*
X118700000Y-87353999I0J-249999D01*
G01*
X118700000Y-88004001D01*
G75*
G02*
X118450001Y-88254000I-249999J0D01*
G01*
G37*
%TD.AperFunction*%
%TO.P,C8,1*%
%TO.N,GND*%
%TA.AperFunction,SMDPad,CuDef*%
G36*
G01*
X118450001Y-91204000D02*
X117149999Y-91204000D01*
G75*
G02*
X116900000Y-90954001I0J249999D01*
G01*
X116900000Y-90303999D01*
G75*
G02*
X117149999Y-90054000I249999J0D01*
G01*
X118450001Y-90054000D01*
G75*
G02*
X118700000Y-90303999I0J-249999D01*
G01*
X118700000Y-90954001D01*
G75*
G02*
X118450001Y-91204000I-249999J0D01*
G01*
G37*
%TD.AperFunction*%
%TD*%
%TO.P,C7,2*%
%TO.N,GND*%
%TA.AperFunction,SMDPad,CuDef*%
G36*
G01*
X114863999Y-90054000D02*
X116164001Y-90054000D01*
G75*
G02*
X116414000Y-90303999I0J-249999D01*
G01*
X116414000Y-90954001D01*
G75*
G02*
X116164001Y-91204000I-249999J0D01*
G01*
X114863999Y-91204000D01*
G75*
G02*
X114614000Y-90954001I0J249999D01*
G01*
X114614000Y-90303999D01*
G75*
G02*
X114863999Y-90054000I249999J0D01*
G01*
G37*
%TD.AperFunction*%
%TO.P,C7,1*%
%TO.N,12V_RAW*%
%TA.AperFunction,SMDPad,CuDef*%
G36*
G01*
X114863999Y-87104000D02*
X116164001Y-87104000D01*
G75*
G02*
X116414000Y-87353999I0J-249999D01*
G01*
X116414000Y-88004001D01*
G75*
G02*
X116164001Y-88254000I-249999J0D01*
G01*
X114863999Y-88254000D01*
G75*
G02*
X114614000Y-88004001I0J249999D01*
G01*
X114614000Y-87353999D01*
G75*
G02*
X114863999Y-87104000I249999J0D01*
G01*
G37*
%TD.AperFunction*%
%TD*%
%TO.P,C6,2*%
%TO.N,GND*%
%TA.AperFunction,SMDPad,CuDef*%
G36*
G01*
X146810000Y-92677000D02*
X146810000Y-91727000D01*
G75*
G02*
X147060000Y-91477000I250000J0D01*
G01*
X147560000Y-91477000D01*
G75*
G02*
X147810000Y-91727000I0J-250000D01*
G01*
X147810000Y-92677000D01*
G75*
G02*
X147560000Y-92927000I-250000J0D01*
G01*
X147060000Y-92927000D01*
G75*
G02*
X146810000Y-92677000I0J250000D01*
G01*
G37*
%TD.AperFunction*%
%TO.P,C6,1*%
%TO.N,+5V*%
%TA.AperFunction,SMDPad,CuDef*%
G36*
G01*
X144910000Y-92677000D02*
X144910000Y-91727000D01*
G75*
G02*
X145160000Y-91477000I250000J0D01*
G01*
X145660000Y-91477000D01*
G75*
G02*
X145910000Y-91727000I0J-250000D01*
G01*
X145910000Y-92677000D01*
G75*
G02*
X145660000Y-92927000I-250000J0D01*
G01*
X145160000Y-92927000D01*
G75*
G02*
X144910000Y-92677000I0J250000D01*
G01*
G37*
%TD.AperFunction*%
%TD*%
%TO.P,C3,2*%
%TO.N,GND*%
%TA.AperFunction,SMDPad,CuDef*%
G36*
G01*
X113553000Y-99056000D02*
X113553000Y-98556000D01*
G75*
G02*
X113778000Y-98331000I225000J0D01*
G01*
X114228000Y-98331000D01*
G75*
G02*
X114453000Y-98556000I0J-225000D01*
G01*
X114453000Y-99056000D01*
G75*
G02*
X114228000Y-99281000I-225000J0D01*
G01*
X113778000Y-99281000D01*
G75*
G02*
X113553000Y-99056000I0J225000D01*
G01*
G37*
%TD.AperFunction*%
%TO.P,C3,1*%
%TO.N,Net-(C3-Pad1)*%
%TA.AperFunction,SMDPad,CuDef*%
G36*
G01*
X112003000Y-99056000D02*
X112003000Y-98556000D01*
G75*
G02*
X112228000Y-98331000I225000J0D01*
G01*
X112678000Y-98331000D01*
G75*
G02*
X112903000Y-98556000I0J-225000D01*
G01*
X112903000Y-99056000D01*
G75*
G02*
X112678000Y-99281000I-225000J0D01*
G01*
X112228000Y-99281000D01*
G75*
G02*
X112003000Y-99056000I0J225000D01*
G01*
G37*
%TD.AperFunction*%
%TD*%
%TO.P,C2,2*%
%TO.N,GND*%
%TA.AperFunction,SMDPad,CuDef*%
G36*
G01*
X146685000Y-90420000D02*
X146685000Y-89920000D01*
G75*
G02*
X146910000Y-89695000I225000J0D01*
G01*
X147360000Y-89695000D01*
G75*
G02*
X147585000Y-89920000I0J-225000D01*
G01*
X147585000Y-90420000D01*
G75*
G02*
X147360000Y-90645000I-225000J0D01*
G01*
X146910000Y-90645000D01*
G75*
G02*
X146685000Y-90420000I0J225000D01*
G01*
G37*
%TD.AperFunction*%
%TO.P,C2,1*%
%TO.N,+5V*%
%TA.AperFunction,SMDPad,CuDef*%
G36*
G01*
X145135000Y-90420000D02*
X145135000Y-89920000D01*
G75*
G02*
X145360000Y-89695000I225000J0D01*
G01*
X145810000Y-89695000D01*
G75*
G02*
X146035000Y-89920000I0J-225000D01*
G01*
X146035000Y-90420000D01*
G75*
G02*
X145810000Y-90645000I-225000J0D01*
G01*
X145360000Y-90645000D01*
G75*
G02*
X145135000Y-90420000I0J225000D01*
G01*
G37*
%TD.AperFunction*%
%TD*%
%TO.P,C1,2*%
%TO.N,GND*%
%TA.AperFunction,SMDPad,CuDef*%
G36*
G01*
X149169000Y-82038000D02*
X149169000Y-81538000D01*
G75*
G02*
X149394000Y-81313000I225000J0D01*
G01*
X149844000Y-81313000D01*
G75*
G02*
X150069000Y-81538000I0J-225000D01*
G01*
X150069000Y-82038000D01*
G75*
G02*
X149844000Y-82263000I-225000J0D01*
G01*
X149394000Y-82263000D01*
G75*
G02*
X149169000Y-82038000I0J225000D01*
G01*
G37*
%TD.AperFunction*%
%TO.P,C1,1*%
%TO.N,/LSU_Heater+*%
%TA.AperFunction,SMDPad,CuDef*%
G36*
G01*
X147619000Y-82038000D02*
X147619000Y-81538000D01*
G75*
G02*
X147844000Y-81313000I225000J0D01*
G01*
X148294000Y-81313000D01*
G75*
G02*
X148519000Y-81538000I0J-225000D01*
G01*
X148519000Y-82038000D01*
G75*
G02*
X148294000Y-82263000I-225000J0D01*
G01*
X147844000Y-82263000D01*
G75*
G02*
X147619000Y-82038000I0J225000D01*
G01*
G37*
%TD.AperFunction*%
%TD*%
%TO.P,C14,1*%
%TO.N,GND*%
%TA.AperFunction,SMDPad,CuDef*%
G36*
G01*
X117090000Y-99523000D02*
X116590000Y-99523000D01*
G75*
G02*
X116365000Y-99298000I0J225000D01*
G01*
X116365000Y-98848000D01*
G75*
G02*
X116590000Y-98623000I225000J0D01*
G01*
X117090000Y-98623000D01*
G75*
G02*
X117315000Y-98848000I0J-225000D01*
G01*
X117315000Y-99298000D01*
G75*
G02*
X117090000Y-99523000I-225000J0D01*
G01*
G37*
%TD.AperFunction*%
%TO.P,C14,2*%
%TO.N,Net-(C14-Pad2)*%
%TA.AperFunction,SMDPad,CuDef*%
G36*
G01*
X117090000Y-97973000D02*
X116590000Y-97973000D01*
G75*
G02*
X116365000Y-97748000I0J225000D01*
G01*
X116365000Y-97298000D01*
G75*
G02*
X116590000Y-97073000I225000J0D01*
G01*
X117090000Y-97073000D01*
G75*
G02*
X117315000Y-97298000I0J-225000D01*
G01*
X117315000Y-97748000D01*
G75*
G02*
X117090000Y-97973000I-225000J0D01*
G01*
G37*
%TD.AperFunction*%
%TD*%
D21*
%TO.N,GND*%
X109982000Y-82296000D03*
X109982000Y-83058000D03*
X109982000Y-84836000D03*
X109982000Y-84074000D03*
X136906000Y-93218000D03*
X110998000Y-92202000D03*
X116840000Y-99949000D03*
X149606000Y-80899000D03*
X148336000Y-92202000D03*
X148336000Y-90170000D03*
X153416000Y-88392000D03*
X154178000Y-88392000D03*
X152400000Y-88392000D03*
X154178000Y-83312000D03*
X153416000Y-83312000D03*
X152654000Y-83312000D03*
X115514000Y-92146000D03*
X120086000Y-92146000D03*
X117800000Y-92146000D03*
X139573000Y-91821000D03*
X108172000Y-93345000D03*
X143510000Y-77978000D03*
X114003000Y-99611000D03*
X142613000Y-99306000D03*
%TO.N,/LSU_Heater+*%
X142748000Y-83566000D03*
%TO.N,/CAN_H*%
X139319000Y-93091000D03*
X133570001Y-97375001D03*
X122745500Y-94170500D03*
%TO.N,/CAN_L*%
X139319000Y-94361000D03*
X133604000Y-99949000D03*
X123698000Y-99822000D03*
%TD*%
D22*
%TO.N,GND*%
X116840000Y-99949000D02*
X116840000Y-99848010D01*
X151442000Y-86040000D02*
X151254000Y-85852000D01*
X151254000Y-85852000D02*
X151254000Y-84650000D01*
X147135000Y-90170000D02*
X147135000Y-89971000D01*
X107197000Y-93345000D02*
X108172000Y-93345000D01*
X118562000Y-90629000D02*
X116276000Y-90629000D01*
X142563000Y-100026000D02*
X142613000Y-100076000D01*
X151254000Y-85852000D02*
X149477590Y-85852000D01*
X139573000Y-91821000D02*
X139573000Y-91821000D01*
X116276000Y-90968999D02*
X116276000Y-90629000D01*
X114003000Y-100280000D02*
X114053000Y-100330000D01*
X114003000Y-98806000D02*
X114003000Y-99611000D01*
X115514000Y-90629000D02*
X115570000Y-90573000D01*
X120086000Y-90629000D02*
X120191000Y-90629000D01*
X120191000Y-90629000D02*
X118562000Y-90629000D01*
X120848000Y-90629000D02*
X120191000Y-90629000D01*
X115514000Y-90629000D02*
X115514000Y-92146000D01*
X115514000Y-92146000D02*
X115514000Y-92146000D01*
X120086000Y-92146000D02*
X120086000Y-92146000D01*
X117800000Y-90629000D02*
X117800000Y-92146000D01*
X117800000Y-92146000D02*
X117800000Y-92146000D01*
X139573000Y-91821000D02*
X140707000Y-91821000D01*
X108172000Y-93345000D02*
X108172000Y-93345000D01*
D23*
X145290000Y-75694000D02*
X145290000Y-77212000D01*
X145230000Y-75634000D02*
X145290000Y-75694000D01*
X141790000Y-77212000D02*
X141790000Y-75634000D01*
X141790000Y-75634000D02*
X141790000Y-73712000D01*
X143308000Y-73712000D02*
X145290000Y-73712000D01*
X142044000Y-75634000D02*
X143637000Y-74041000D01*
X141790000Y-75634000D02*
X142044000Y-75634000D01*
X143637000Y-74041000D02*
X143308000Y-73712000D01*
X141790000Y-77212000D02*
X141790000Y-76904000D01*
X141790000Y-76904000D02*
X142494000Y-76200000D01*
X143760000Y-77212000D02*
X143760000Y-75942000D01*
X143452000Y-75634000D02*
X145230000Y-75634000D01*
X143760000Y-75942000D02*
X143452000Y-75634000D01*
X141790000Y-75634000D02*
X143452000Y-75634000D01*
X141790000Y-77212000D02*
X143760000Y-77212000D01*
X143760000Y-77212000D02*
X145290000Y-77212000D01*
X141790000Y-77212000D02*
X142244000Y-77212000D01*
X143452000Y-76004000D02*
X143452000Y-75634000D01*
X142244000Y-77212000D02*
X143452000Y-76004000D01*
X143760000Y-77104000D02*
X145230000Y-75634000D01*
X143760000Y-77212000D02*
X143760000Y-77104000D01*
X143637000Y-74041000D02*
X143637000Y-74295000D01*
X143637000Y-74295000D02*
X144272000Y-74930000D01*
X145288000Y-74930000D02*
X145290000Y-74928000D01*
X144272000Y-74930000D02*
X145288000Y-74930000D01*
X145290000Y-74928000D02*
X145290000Y-75694000D01*
X145290000Y-73712000D02*
X145290000Y-74928000D01*
X144272000Y-74930000D02*
X143764000Y-74930000D01*
X143452000Y-75242000D02*
X143452000Y-75634000D01*
X143764000Y-74930000D02*
X143452000Y-75242000D01*
X142119000Y-74041000D02*
X141790000Y-73712000D01*
X143637000Y-74041000D02*
X142119000Y-74041000D01*
X141790000Y-73712000D02*
X145290000Y-73712000D01*
X144072000Y-74930000D02*
X145290000Y-73712000D01*
X143764000Y-74930000D02*
X144072000Y-74930000D01*
D22*
X147135000Y-90170000D02*
X148336000Y-90170000D01*
X147320000Y-90355000D02*
X147135000Y-90170000D01*
X147320000Y-92192000D02*
X147320000Y-90355000D01*
X147310000Y-92202000D02*
X147320000Y-92192000D01*
D23*
X148336000Y-92202000D02*
X147310000Y-92202000D01*
D24*
X143510000Y-76062000D02*
X143452000Y-76004000D01*
X143510000Y-78789000D02*
X143510000Y-77978000D01*
X149619000Y-84217000D02*
X151254000Y-85852000D01*
X149619000Y-81788000D02*
X149619000Y-84217000D01*
X143510000Y-77978000D02*
X143510000Y-76062000D01*
X149606000Y-81775000D02*
X149619000Y-81788000D01*
X149606000Y-80899000D02*
X149606000Y-81775000D01*
D22*
X120086000Y-92146000D02*
X120086000Y-90629000D01*
X114003000Y-99611000D02*
X114003000Y-100280000D01*
X142613000Y-98602000D02*
X142563000Y-98552000D01*
X142613000Y-99306000D02*
X142621000Y-99314000D01*
X142613000Y-100076000D02*
X142613000Y-99306000D01*
X142613000Y-99306000D02*
X142613000Y-98602000D01*
X112020000Y-92202000D02*
X112147000Y-92075000D01*
X110998000Y-92202000D02*
X112020000Y-92202000D01*
X116840000Y-99949000D02*
X116840000Y-99073000D01*
X136779000Y-93091000D02*
X136906000Y-93218000D01*
X135757000Y-93091000D02*
X136779000Y-93091000D01*
X109884000Y-84836000D02*
X108614000Y-83566000D01*
X109982000Y-84836000D02*
X109884000Y-84836000D01*
X109122000Y-84074000D02*
X108614000Y-83566000D01*
X109982000Y-84074000D02*
X109122000Y-84074000D01*
X109122000Y-83058000D02*
X108614000Y-83566000D01*
X109982000Y-83058000D02*
X109122000Y-83058000D01*
X109884000Y-82296000D02*
X108614000Y-83566000D01*
X109982000Y-82296000D02*
X109884000Y-82296000D01*
D23*
%TO.N,/LSU_Heater+*%
X117290000Y-73712000D02*
X117290000Y-77212000D01*
X123102000Y-81192000D02*
X123102000Y-83312000D01*
X121920000Y-80010000D02*
X123102000Y-81192000D01*
X118364000Y-80010000D02*
X121920000Y-80010000D01*
X117290000Y-78936000D02*
X118364000Y-80010000D01*
X117290000Y-77212000D02*
X117290000Y-78936000D01*
D22*
X144948000Y-83566000D02*
X144954000Y-83572000D01*
X143510000Y-81739000D02*
X143510000Y-83566000D01*
X142748000Y-83566000D02*
X143510000Y-83566000D01*
X144954000Y-83572000D02*
X144954000Y-83392000D01*
X147755590Y-81788000D02*
X147912295Y-81944705D01*
X144954000Y-83572000D02*
X144954000Y-83138000D01*
X143764000Y-81993000D02*
X143510000Y-81739000D01*
X143764000Y-83566000D02*
X143764000Y-81993000D01*
X143510000Y-83566000D02*
X143764000Y-83566000D01*
X143764000Y-83566000D02*
X144948000Y-83566000D01*
D23*
X142754000Y-83572000D02*
X142748000Y-83566000D01*
X144954000Y-83572000D02*
X142754000Y-83572000D01*
D22*
X143559000Y-81788000D02*
X143510000Y-81739000D01*
X148069000Y-81788000D02*
X143559000Y-81788000D01*
%TO.N,+5V*%
X109442000Y-92075000D02*
X109442000Y-92075000D01*
X135757000Y-94361000D02*
X136732000Y-94361000D01*
X141812990Y-102400010D02*
X142613000Y-101600000D01*
X102560000Y-83500000D02*
X102428000Y-83500000D01*
X131290000Y-83500000D02*
X132390000Y-83500000D01*
D23*
X138176000Y-90932000D02*
X140976000Y-88132000D01*
X109728000Y-100926808D02*
X111925192Y-103124000D01*
X140976000Y-88132000D02*
X144954000Y-88132000D01*
X136344000Y-83500000D02*
X140976000Y-88132000D01*
X131290000Y-83500000D02*
X136344000Y-83500000D01*
D22*
X114053000Y-103117000D02*
X114046000Y-103124000D01*
X114053000Y-101854000D02*
X114053000Y-103117000D01*
D23*
X114046000Y-103124000D02*
X136144000Y-103124000D01*
X111925192Y-103124000D02*
X114046000Y-103124000D01*
D22*
X109601000Y-94615000D02*
X109728000Y-94742000D01*
X107197000Y-94615000D02*
X109601000Y-94615000D01*
D23*
X109728000Y-94742000D02*
X109728000Y-100926808D01*
D22*
X138049000Y-94361000D02*
X138176000Y-94488000D01*
D23*
X138176000Y-94488000D02*
X138176000Y-90932000D01*
D22*
X135757000Y-94361000D02*
X138049000Y-94361000D01*
D23*
X138176000Y-101092000D02*
X138176000Y-94488000D01*
D22*
X137198010Y-102400010D02*
X137033000Y-102235000D01*
X140677990Y-102400010D02*
X137198010Y-102400010D01*
D23*
X137033000Y-102235000D02*
X138176000Y-101092000D01*
X136144000Y-103124000D02*
X137033000Y-102235000D01*
D22*
X140545532Y-102400010D02*
X140677990Y-102400010D01*
X140677990Y-102400010D02*
X141812990Y-102400010D01*
D23*
X109728000Y-90170000D02*
X109728000Y-94742000D01*
X105344000Y-85786000D02*
X109728000Y-90170000D01*
X105344000Y-83500000D02*
X105344000Y-85786000D01*
X102560000Y-83500000D02*
X105344000Y-83500000D01*
X145410000Y-90345000D02*
X145585000Y-90170000D01*
X145410000Y-92202000D02*
X145410000Y-90345000D01*
X145585000Y-88763000D02*
X144954000Y-88132000D01*
X145585000Y-90170000D02*
X145585000Y-88763000D01*
D22*
%TO.N,Net-(C3-Pad1)*%
X112403000Y-101854000D02*
X112403000Y-100330000D01*
X112403000Y-98856000D02*
X112453000Y-98806000D01*
X112403000Y-100330000D02*
X112403000Y-98856000D01*
X112453000Y-96191000D02*
X112147000Y-95885000D01*
X112453000Y-98806000D02*
X112453000Y-96191000D01*
%TO.N,/CAN_H*%
X118872000Y-93787500D02*
X121158000Y-93787500D01*
X116012500Y-93787500D02*
X115570000Y-93345000D01*
X118872000Y-93787500D02*
X116012500Y-93787500D01*
X112147000Y-93345000D02*
X115570000Y-93345000D01*
X121158000Y-93787500D02*
X122362500Y-93787500D01*
X125950001Y-97375001D02*
X133570001Y-97375001D01*
X133570001Y-97375001D02*
X133570001Y-97375001D01*
X139319000Y-93091000D02*
X140707000Y-93091000D01*
X122745500Y-94170500D02*
X125950001Y-97375001D01*
X122362500Y-93787500D02*
X122745500Y-94170500D01*
%TO.N,/CAN_L*%
X139319000Y-94361000D02*
X139406990Y-94361000D01*
X112147000Y-94615000D02*
X112141000Y-94615000D01*
X121139001Y-101303499D02*
X121158000Y-101284500D01*
X118835001Y-101303499D02*
X121139001Y-101303499D01*
X114300000Y-94615000D02*
X112147000Y-94615000D01*
X115697000Y-96012000D02*
X114300000Y-94615000D01*
X115697000Y-99879002D02*
X115697000Y-96012000D01*
X117121497Y-101303499D02*
X115697000Y-99879002D01*
X118835001Y-101303499D02*
X117121497Y-101303499D01*
X121158000Y-101284500D02*
X122235500Y-101284500D01*
X123604999Y-99915001D02*
X133510999Y-99915001D01*
X122235500Y-101284500D02*
X123604999Y-99915001D01*
X133510999Y-99915001D02*
X133604000Y-99822000D01*
X139319000Y-94361000D02*
X140707000Y-94361000D01*
%TO.N,12V_RAW*%
X115514000Y-83664000D02*
X115866000Y-83312000D01*
X115514000Y-87679000D02*
X115514000Y-83664000D01*
X119102000Y-83312000D02*
X115866000Y-83312000D01*
D23*
X118848000Y-83566000D02*
X119102000Y-83312000D01*
X115414000Y-87579000D02*
X115514000Y-87679000D01*
X115514000Y-87679000D02*
X117800000Y-87679000D01*
X117800000Y-87679000D02*
X120086000Y-87679000D01*
X120086000Y-84296000D02*
X119102000Y-83312000D01*
X113792000Y-77214000D02*
X113790000Y-77212000D01*
X113792000Y-79248000D02*
X113792000Y-77214000D01*
X115414000Y-80870000D02*
X113792000Y-79248000D01*
X115414000Y-83566000D02*
X115414000Y-80870000D01*
X119874000Y-86458000D02*
X120086000Y-86670000D01*
X120086000Y-87679000D02*
X120086000Y-86670000D01*
X115414000Y-86458000D02*
X115414000Y-87579000D01*
X119478000Y-85442000D02*
X120086000Y-86050000D01*
X120086000Y-86050000D02*
X120086000Y-84296000D01*
X120086000Y-86670000D02*
X120086000Y-86050000D01*
X115414000Y-83566000D02*
X115414000Y-85442000D01*
X115414000Y-85442000D02*
X115414000Y-86458000D01*
X115514000Y-87679000D02*
X115775000Y-87679000D01*
X116430000Y-87024000D02*
X116430000Y-86458000D01*
X115775000Y-87679000D02*
X116430000Y-87024000D01*
X115414000Y-86458000D02*
X116430000Y-86458000D01*
X117800000Y-87679000D02*
X117651000Y-87679000D01*
X117651000Y-87679000D02*
X116430000Y-86458000D01*
X117800000Y-86670000D02*
X118012000Y-86458000D01*
X117800000Y-87679000D02*
X117800000Y-86670000D01*
X116430000Y-86458000D02*
X118012000Y-86458000D01*
X117800000Y-87679000D02*
X118061000Y-87679000D01*
X118061000Y-87679000D02*
X119282000Y-86458000D01*
X119282000Y-86458000D02*
X119874000Y-86458000D01*
X118012000Y-86458000D02*
X119282000Y-86458000D01*
X119282000Y-86875000D02*
X119282000Y-86458000D01*
X120086000Y-87679000D02*
X119282000Y-86875000D01*
X116684000Y-83722000D02*
X116840000Y-83566000D01*
X116684000Y-85442000D02*
X116684000Y-83722000D01*
X115414000Y-83566000D02*
X116840000Y-83566000D01*
X115414000Y-85442000D02*
X116684000Y-85442000D01*
X117446000Y-83918000D02*
X117094000Y-83566000D01*
X117446000Y-85442000D02*
X117446000Y-83918000D01*
X117094000Y-83566000D02*
X118848000Y-83566000D01*
X116684000Y-85442000D02*
X117446000Y-85442000D01*
X116840000Y-83566000D02*
X117094000Y-83566000D01*
X117446000Y-85442000D02*
X117446000Y-84992000D01*
X119102000Y-83336000D02*
X119102000Y-83312000D01*
X118462000Y-84172000D02*
X118364000Y-84074000D01*
X118462000Y-85442000D02*
X118462000Y-84172000D01*
X117446000Y-84992000D02*
X118364000Y-84074000D01*
X117446000Y-85442000D02*
X118462000Y-85442000D01*
X118462000Y-85442000D02*
X119478000Y-85442000D01*
X119478000Y-85442000D02*
X119478000Y-84934000D01*
X119478000Y-84934000D02*
X118491000Y-83947000D01*
X118491000Y-83947000D02*
X119102000Y-83336000D01*
X118364000Y-84074000D02*
X118491000Y-83947000D01*
X113790000Y-77212000D02*
X113790000Y-73712000D01*
D22*
%TO.N,Net-(C11-Pad1)*%
X141013000Y-100026000D02*
X140963000Y-100076000D01*
X141013000Y-98552000D02*
X141013000Y-100026000D01*
X140963000Y-101600000D02*
X140963000Y-100076000D01*
X140970000Y-95894000D02*
X140707000Y-95631000D01*
X140970000Y-98509000D02*
X140970000Y-95894000D01*
X141013000Y-98552000D02*
X140970000Y-98509000D01*
%TO.N,/CAN_TX*%
X101384999Y-95024999D02*
X102560000Y-96200000D01*
X102105998Y-92375000D02*
X101384999Y-93095999D01*
X101384999Y-93095999D02*
X101384999Y-95024999D01*
X106897000Y-92375000D02*
X102105998Y-92375000D01*
X107197000Y-92075000D02*
X106897000Y-92375000D01*
%TO.N,/CAN_RX*%
X104785000Y-95885000D02*
X102560000Y-93660000D01*
X107197000Y-95885000D02*
X104785000Y-95885000D01*
%TO.N,/LSU1_Vm*%
X131290000Y-77212000D02*
X130520178Y-77212000D01*
X131290000Y-77212000D02*
X131290000Y-77442000D01*
%TO.N,/LSU1_Ip*%
X127790000Y-93660000D02*
X127790000Y-92859002D01*
D23*
%TO.N,/LSU1_Heater-*%
X127790000Y-91120000D02*
X127790000Y-88580000D01*
X126666000Y-89996000D02*
X127790000Y-91120000D01*
X126572000Y-89996000D02*
X126666000Y-89996000D01*
X126238000Y-89662000D02*
X126572000Y-89996000D01*
X126238000Y-88581999D02*
X126239999Y-88580000D01*
X126238000Y-89662000D02*
X126238000Y-88581999D01*
X126238000Y-89662000D02*
X127000000Y-89662000D01*
X127790000Y-88872000D02*
X127790000Y-88580000D01*
X127000000Y-89662000D02*
X127790000Y-88872000D01*
X126239999Y-88580000D02*
X126239999Y-88647999D01*
X127000000Y-89408000D02*
X127000000Y-89662000D01*
X126239999Y-88647999D02*
X127000000Y-89408000D01*
X126239999Y-87377999D02*
X127442000Y-88580000D01*
X127442000Y-88580000D02*
X126239999Y-88580000D01*
X127790000Y-88580000D02*
X127442000Y-88580000D01*
X126239999Y-88580000D02*
X126239999Y-87377999D01*
X136000000Y-79502000D02*
X138290000Y-77212000D01*
X128827998Y-79502000D02*
X136000000Y-79502000D01*
X126239999Y-82089999D02*
X128827998Y-79502000D01*
X126239999Y-87377999D02*
X126239999Y-82089999D01*
D22*
%TO.N,/LSU2_Ip*%
X158315011Y-92034989D02*
X156690000Y-93660000D01*
X158315011Y-77336009D02*
X158315011Y-92034989D01*
X152815991Y-71836989D02*
X158315011Y-77336009D01*
X136665011Y-71836989D02*
X152815991Y-71836989D01*
X134790000Y-73712000D02*
X136665011Y-71836989D01*
%TO.N,/LSU2_Vm*%
X158765021Y-94124979D02*
X156690000Y-96200000D01*
X158765021Y-77149609D02*
X158765021Y-94124979D01*
X153002392Y-71386980D02*
X158765021Y-77149609D01*
X133615020Y-71386980D02*
X153002392Y-71386980D01*
X131290000Y-73712000D02*
X133615020Y-71386980D01*
%TO.N,/LSU2_Rtrim*%
X159215031Y-96214969D02*
X156690000Y-98740000D01*
X159215031Y-76963209D02*
X159215031Y-96214969D01*
X153188793Y-70936971D02*
X159215031Y-76963209D01*
X130565030Y-70936970D02*
X153188793Y-70936971D01*
X127790000Y-73712000D02*
X130565030Y-70936970D01*
%TO.N,/LSU2_Un*%
X127515038Y-70486962D02*
X124290000Y-73712000D01*
X153375192Y-70486962D02*
X127515038Y-70486962D01*
X159665040Y-76776808D02*
X153375192Y-70486962D01*
X159665040Y-98304960D02*
X159665040Y-76776808D01*
X156690000Y-101280000D02*
X159665040Y-98304960D01*
%TO.N,/CAN2_TX*%
X130114999Y-95024999D02*
X131290000Y-96200000D01*
X130915997Y-92295001D02*
X130114999Y-93095999D01*
X135282999Y-92295001D02*
X130915997Y-92295001D01*
X130114999Y-93095999D02*
X130114999Y-95024999D01*
X135757000Y-91821000D02*
X135282999Y-92295001D01*
%TO.N,/CAN2_RX*%
X133261000Y-95631000D02*
X131290000Y-93660000D01*
X135757000Y-95631000D02*
X133261000Y-95631000D01*
%TO.N,Net-(C14-Pad2)*%
X118872000Y-98341500D02*
X118835001Y-98378499D01*
X121158000Y-97536000D02*
X118872000Y-97536000D01*
X118872000Y-97536000D02*
X118872000Y-98341500D01*
X121158000Y-96712500D02*
X121158000Y-97536000D01*
X118872000Y-96712500D02*
X118872000Y-97536000D01*
X121158000Y-97536000D02*
X121158000Y-98359500D01*
X116853000Y-97536000D02*
X116840000Y-97523000D01*
X118872000Y-97536000D02*
X116853000Y-97536000D01*
%TD*%
D25*
%TO.N,12V_RAW*%
X119229000Y-83185000D02*
X119249000Y-83185000D01*
X119249000Y-83439000D01*
X119229000Y-83439000D01*
X119229000Y-84688250D01*
X119387750Y-84847000D01*
X120352000Y-84850072D01*
X120476482Y-84837812D01*
X120596180Y-84801502D01*
X120706494Y-84742537D01*
X120777000Y-84684674D01*
X120777000Y-86466973D01*
X120371750Y-86469000D01*
X120213000Y-86627750D01*
X120213000Y-87249000D01*
X119959000Y-87249000D01*
X119959000Y-86627750D01*
X119800250Y-86469000D01*
X119186000Y-86465928D01*
X119061518Y-86478188D01*
X118943000Y-86514140D01*
X118824482Y-86478188D01*
X118700000Y-86465928D01*
X118085750Y-86469000D01*
X117927000Y-86627750D01*
X117927000Y-87249000D01*
X117673000Y-87249000D01*
X117673000Y-86627750D01*
X117514250Y-86469000D01*
X116900000Y-86465928D01*
X116775518Y-86478188D01*
X116657000Y-86514140D01*
X116538482Y-86478188D01*
X116414000Y-86465928D01*
X115799750Y-86469000D01*
X115641000Y-86627750D01*
X115641000Y-87249000D01*
X115443000Y-87249000D01*
X115443000Y-85851000D01*
X115541002Y-85851000D01*
X115541002Y-85692252D01*
X115699750Y-85851000D01*
X116664000Y-85854072D01*
X116788482Y-85841812D01*
X116908180Y-85805502D01*
X117018494Y-85746537D01*
X117115185Y-85667185D01*
X117194537Y-85570494D01*
X117253502Y-85460180D01*
X117289812Y-85340482D01*
X117302072Y-85216000D01*
X117300521Y-84527315D01*
X117321463Y-84566494D01*
X117400815Y-84663185D01*
X117497506Y-84742537D01*
X117607820Y-84801502D01*
X117727518Y-84837812D01*
X117852000Y-84850072D01*
X118816250Y-84847000D01*
X118975000Y-84688250D01*
X118975000Y-83439000D01*
X118955000Y-83439000D01*
X118955000Y-83185000D01*
X118975000Y-83185000D01*
X118975000Y-83165000D01*
X119229000Y-83165000D01*
X119229000Y-83185000D01*
%TA.AperFunction,Conductor*%
D26*
G36*
X119229000Y-83185000D02*
G01*
X119249000Y-83185000D01*
X119249000Y-83439000D01*
X119229000Y-83439000D01*
X119229000Y-84688250D01*
X119387750Y-84847000D01*
X120352000Y-84850072D01*
X120476482Y-84837812D01*
X120596180Y-84801502D01*
X120706494Y-84742537D01*
X120777000Y-84684674D01*
X120777000Y-86466973D01*
X120371750Y-86469000D01*
X120213000Y-86627750D01*
X120213000Y-87249000D01*
X119959000Y-87249000D01*
X119959000Y-86627750D01*
X119800250Y-86469000D01*
X119186000Y-86465928D01*
X119061518Y-86478188D01*
X118943000Y-86514140D01*
X118824482Y-86478188D01*
X118700000Y-86465928D01*
X118085750Y-86469000D01*
X117927000Y-86627750D01*
X117927000Y-87249000D01*
X117673000Y-87249000D01*
X117673000Y-86627750D01*
X117514250Y-86469000D01*
X116900000Y-86465928D01*
X116775518Y-86478188D01*
X116657000Y-86514140D01*
X116538482Y-86478188D01*
X116414000Y-86465928D01*
X115799750Y-86469000D01*
X115641000Y-86627750D01*
X115641000Y-87249000D01*
X115443000Y-87249000D01*
X115443000Y-85851000D01*
X115541002Y-85851000D01*
X115541002Y-85692252D01*
X115699750Y-85851000D01*
X116664000Y-85854072D01*
X116788482Y-85841812D01*
X116908180Y-85805502D01*
X117018494Y-85746537D01*
X117115185Y-85667185D01*
X117194537Y-85570494D01*
X117253502Y-85460180D01*
X117289812Y-85340482D01*
X117302072Y-85216000D01*
X117300521Y-84527315D01*
X117321463Y-84566494D01*
X117400815Y-84663185D01*
X117497506Y-84742537D01*
X117607820Y-84801502D01*
X117727518Y-84837812D01*
X117852000Y-84850072D01*
X118816250Y-84847000D01*
X118975000Y-84688250D01*
X118975000Y-83439000D01*
X118955000Y-83439000D01*
X118955000Y-83185000D01*
X118975000Y-83185000D01*
X118975000Y-83165000D01*
X119229000Y-83165000D01*
X119229000Y-83185000D01*
G37*
%TD.AperFunction*%
D25*
X115541000Y-83439000D02*
X115561000Y-83439000D01*
X115561000Y-83693000D01*
X115541000Y-83693000D01*
X115541000Y-83713000D01*
X115443000Y-83713000D01*
X115443000Y-83419000D01*
X115541000Y-83419000D01*
X115541000Y-83439000D01*
%TA.AperFunction,Conductor*%
D26*
G36*
X115541000Y-83439000D02*
G01*
X115561000Y-83439000D01*
X115561000Y-83693000D01*
X115541000Y-83693000D01*
X115541000Y-83713000D01*
X115443000Y-83713000D01*
X115443000Y-83419000D01*
X115541000Y-83419000D01*
X115541000Y-83439000D01*
G37*
%TD.AperFunction*%
%TD*%
M02*
