%TF.GenerationSoftware,KiCad,Pcbnew,(5.1.9)-1*%
%TF.CreationDate,2021-02-06T18:14:13-06:00*%
%TF.ProjectId,dual_board_carrier_90,6475616c-5f62-46f6-9172-645f63617272,rev?*%
%TF.SameCoordinates,Original*%
%TF.FileFunction,Legend,Top*%
%TF.FilePolarity,Positive*%
%FSLAX46Y46*%
G04 Gerber Fmt 4.6, Leading zero omitted, Abs format (unit mm)*
G04 Created by KiCad (PCBNEW (5.1.9)-1) date 2021-02-06 18:14:13*
%MOMM*%
%LPD*%
G01*
G04 APERTURE LIST*
%ADD10C,0.100000*%
%ADD11C,0.150000*%
%ADD12C,0.300000*%
%ADD13C,0.400000*%
%ADD14C,0.120000*%
%ADD15R,6.400000X5.800000*%
%ADD16R,2.200000X1.200000*%
%ADD17O,1.700000X1.700000*%
%ADD18R,1.700000X1.700000*%
%ADD19R,2.500000X1.800000*%
%ADD20R,3.300000X2.500000*%
%ADD21C,2.200000*%
%ADD22C,4.000000*%
G04 APERTURE END LIST*
D10*
D11*
X177002200Y-166007200D02*
X177002200Y-198007200D01*
X285002200Y-198007200D01*
X285002200Y-166007200D01*
X177002200Y-166007200D01*
D10*
D11*
X10000000Y-10000000D02*
X10000000Y-200007200D01*
X287002200Y-200007200D01*
X287002200Y-10000000D01*
X10000000Y-10000000D01*
D10*
D11*
X12000000Y-12000000D02*
X12000000Y-198007200D01*
X285002200Y-198007200D01*
X285002200Y-12000000D01*
X12000000Y-12000000D01*
D10*
D11*
X60000000Y-12000000D02*
X60000000Y-10000000D01*
D10*
D11*
X110000000Y-12000000D02*
X110000000Y-10000000D01*
D10*
D11*
X160000000Y-12000000D02*
X160000000Y-10000000D01*
D10*
D11*
X210000000Y-12000000D02*
X210000000Y-10000000D01*
D10*
D11*
X260000000Y-12000000D02*
X260000000Y-10000000D01*
D10*
D11*
X36065476Y-11588095D02*
X35322619Y-11588095D01*
X35694047Y-11588095D02*
X35694047Y-10288095D01*
X35570238Y-10473809D01*
X35446428Y-10597619D01*
X35322619Y-10659523D01*
D10*
D11*
X85322619Y-10411904D02*
X85384523Y-10350000D01*
X85508333Y-10288095D01*
X85817857Y-10288095D01*
X85941666Y-10350000D01*
X86003571Y-10411904D01*
X86065476Y-10535714D01*
X86065476Y-10659523D01*
X86003571Y-10845238D01*
X85260714Y-11588095D01*
X86065476Y-11588095D01*
D10*
D11*
X135260714Y-10288095D02*
X136065476Y-10288095D01*
X135632142Y-10783333D01*
X135817857Y-10783333D01*
X135941666Y-10845238D01*
X136003571Y-10907142D01*
X136065476Y-11030952D01*
X136065476Y-11340476D01*
X136003571Y-11464285D01*
X135941666Y-11526190D01*
X135817857Y-11588095D01*
X135446428Y-11588095D01*
X135322619Y-11526190D01*
X135260714Y-11464285D01*
D10*
D11*
X185941666Y-10721428D02*
X185941666Y-11588095D01*
X185632142Y-10226190D02*
X185322619Y-11154761D01*
X186127380Y-11154761D01*
D10*
D11*
X236003571Y-10288095D02*
X235384523Y-10288095D01*
X235322619Y-10907142D01*
X235384523Y-10845238D01*
X235508333Y-10783333D01*
X235817857Y-10783333D01*
X235941666Y-10845238D01*
X236003571Y-10907142D01*
X236065476Y-11030952D01*
X236065476Y-11340476D01*
X236003571Y-11464285D01*
X235941666Y-11526190D01*
X235817857Y-11588095D01*
X235508333Y-11588095D01*
X235384523Y-11526190D01*
X235322619Y-11464285D01*
D10*
D11*
X285941666Y-10288095D02*
X285694047Y-10288095D01*
X285570238Y-10350000D01*
X285508333Y-10411904D01*
X285384523Y-10597619D01*
X285322619Y-10845238D01*
X285322619Y-11340476D01*
X285384523Y-11464285D01*
X285446428Y-11526190D01*
X285570238Y-11588095D01*
X285817857Y-11588095D01*
X285941666Y-11526190D01*
X286003571Y-11464285D01*
X286065476Y-11340476D01*
X286065476Y-11030952D01*
X286003571Y-10907142D01*
X285941666Y-10845238D01*
X285817857Y-10783333D01*
X285570238Y-10783333D01*
X285446428Y-10845238D01*
X285384523Y-10907142D01*
X285322619Y-11030952D01*
D10*
D11*
X60000000Y-198007200D02*
X60000000Y-200007200D01*
D10*
D11*
X110000000Y-198007200D02*
X110000000Y-200007200D01*
D10*
D11*
X160000000Y-198007200D02*
X160000000Y-200007200D01*
D10*
D11*
X210000000Y-198007200D02*
X210000000Y-200007200D01*
D10*
D11*
X260000000Y-198007200D02*
X260000000Y-200007200D01*
D10*
D11*
X36065476Y-199595295D02*
X35322619Y-199595295D01*
X35694047Y-199595295D02*
X35694047Y-198295295D01*
X35570238Y-198481009D01*
X35446428Y-198604819D01*
X35322619Y-198666723D01*
D10*
D11*
X85322619Y-198419104D02*
X85384523Y-198357200D01*
X85508333Y-198295295D01*
X85817857Y-198295295D01*
X85941666Y-198357200D01*
X86003571Y-198419104D01*
X86065476Y-198542914D01*
X86065476Y-198666723D01*
X86003571Y-198852438D01*
X85260714Y-199595295D01*
X86065476Y-199595295D01*
D10*
D11*
X135260714Y-198295295D02*
X136065476Y-198295295D01*
X135632142Y-198790533D01*
X135817857Y-198790533D01*
X135941666Y-198852438D01*
X136003571Y-198914342D01*
X136065476Y-199038152D01*
X136065476Y-199347676D01*
X136003571Y-199471485D01*
X135941666Y-199533390D01*
X135817857Y-199595295D01*
X135446428Y-199595295D01*
X135322619Y-199533390D01*
X135260714Y-199471485D01*
D10*
D11*
X185941666Y-198728628D02*
X185941666Y-199595295D01*
X185632142Y-198233390D02*
X185322619Y-199161961D01*
X186127380Y-199161961D01*
D10*
D11*
X236003571Y-198295295D02*
X235384523Y-198295295D01*
X235322619Y-198914342D01*
X235384523Y-198852438D01*
X235508333Y-198790533D01*
X235817857Y-198790533D01*
X235941666Y-198852438D01*
X236003571Y-198914342D01*
X236065476Y-199038152D01*
X236065476Y-199347676D01*
X236003571Y-199471485D01*
X235941666Y-199533390D01*
X235817857Y-199595295D01*
X235508333Y-199595295D01*
X235384523Y-199533390D01*
X235322619Y-199471485D01*
D10*
D11*
X285941666Y-198295295D02*
X285694047Y-198295295D01*
X285570238Y-198357200D01*
X285508333Y-198419104D01*
X285384523Y-198604819D01*
X285322619Y-198852438D01*
X285322619Y-199347676D01*
X285384523Y-199471485D01*
X285446428Y-199533390D01*
X285570238Y-199595295D01*
X285817857Y-199595295D01*
X285941666Y-199533390D01*
X286003571Y-199471485D01*
X286065476Y-199347676D01*
X286065476Y-199038152D01*
X286003571Y-198914342D01*
X285941666Y-198852438D01*
X285817857Y-198790533D01*
X285570238Y-198790533D01*
X285446428Y-198852438D01*
X285384523Y-198914342D01*
X285322619Y-199038152D01*
D10*
D11*
X10000000Y-60000000D02*
X12000000Y-60000000D01*
D10*
D11*
X10000000Y-110000000D02*
X12000000Y-110000000D01*
D10*
D11*
X10000000Y-160000000D02*
X12000000Y-160000000D01*
D10*
D11*
X10690476Y-35216666D02*
X11309523Y-35216666D01*
X10566666Y-35588095D02*
X11000000Y-34288095D01*
X11433333Y-35588095D01*
D10*
D11*
X11092857Y-84907142D02*
X11278571Y-84969047D01*
X11340476Y-85030952D01*
X11402380Y-85154761D01*
X11402380Y-85340476D01*
X11340476Y-85464285D01*
X11278571Y-85526190D01*
X11154761Y-85588095D01*
X10659523Y-85588095D01*
X10659523Y-84288095D01*
X11092857Y-84288095D01*
X11216666Y-84350000D01*
X11278571Y-84411904D01*
X11340476Y-84535714D01*
X11340476Y-84659523D01*
X11278571Y-84783333D01*
X11216666Y-84845238D01*
X11092857Y-84907142D01*
X10659523Y-84907142D01*
D10*
D11*
X11402380Y-135464285D02*
X11340476Y-135526190D01*
X11154761Y-135588095D01*
X11030952Y-135588095D01*
X10845238Y-135526190D01*
X10721428Y-135402380D01*
X10659523Y-135278571D01*
X10597619Y-135030952D01*
X10597619Y-134845238D01*
X10659523Y-134597619D01*
X10721428Y-134473809D01*
X10845238Y-134350000D01*
X11030952Y-134288095D01*
X11154761Y-134288095D01*
X11340476Y-134350000D01*
X11402380Y-134411904D01*
D10*
D11*
X10659523Y-185588095D02*
X10659523Y-184288095D01*
X10969047Y-184288095D01*
X11154761Y-184350000D01*
X11278571Y-184473809D01*
X11340476Y-184597619D01*
X11402380Y-184845238D01*
X11402380Y-185030952D01*
X11340476Y-185278571D01*
X11278571Y-185402380D01*
X11154761Y-185526190D01*
X10969047Y-185588095D01*
X10659523Y-185588095D01*
D10*
D11*
X287002200Y-60000000D02*
X285002200Y-60000000D01*
D10*
D11*
X287002200Y-110000000D02*
X285002200Y-110000000D01*
D10*
D11*
X287002200Y-160000000D02*
X285002200Y-160000000D01*
D10*
D11*
X285692676Y-35216666D02*
X286311723Y-35216666D01*
X285568866Y-35588095D02*
X286002200Y-34288095D01*
X286435533Y-35588095D01*
D10*
D11*
X286095057Y-84907142D02*
X286280771Y-84969047D01*
X286342676Y-85030952D01*
X286404580Y-85154761D01*
X286404580Y-85340476D01*
X286342676Y-85464285D01*
X286280771Y-85526190D01*
X286156961Y-85588095D01*
X285661723Y-85588095D01*
X285661723Y-84288095D01*
X286095057Y-84288095D01*
X286218866Y-84350000D01*
X286280771Y-84411904D01*
X286342676Y-84535714D01*
X286342676Y-84659523D01*
X286280771Y-84783333D01*
X286218866Y-84845238D01*
X286095057Y-84907142D01*
X285661723Y-84907142D01*
D10*
D11*
X286404580Y-135464285D02*
X286342676Y-135526190D01*
X286156961Y-135588095D01*
X286033152Y-135588095D01*
X285847438Y-135526190D01*
X285723628Y-135402380D01*
X285661723Y-135278571D01*
X285599819Y-135030952D01*
X285599819Y-134845238D01*
X285661723Y-134597619D01*
X285723628Y-134473809D01*
X285847438Y-134350000D01*
X286033152Y-134288095D01*
X286156961Y-134288095D01*
X286342676Y-134350000D01*
X286404580Y-134411904D01*
D10*
D11*
X285661723Y-185588095D02*
X285661723Y-184288095D01*
X285971247Y-184288095D01*
X286156961Y-184350000D01*
X286280771Y-184473809D01*
X286342676Y-184597619D01*
X286404580Y-184845238D01*
X286404580Y-185030952D01*
X286342676Y-185278571D01*
X286280771Y-185402380D01*
X286156961Y-185526190D01*
X285971247Y-185588095D01*
X285661723Y-185588095D01*
D10*
D11*
X200434342Y-193785771D02*
X200434342Y-192285771D01*
X200791485Y-192285771D01*
X201005771Y-192357200D01*
X201148628Y-192500057D01*
X201220057Y-192642914D01*
X201291485Y-192928628D01*
X201291485Y-193142914D01*
X201220057Y-193428628D01*
X201148628Y-193571485D01*
X201005771Y-193714342D01*
X200791485Y-193785771D01*
X200434342Y-193785771D01*
X202577200Y-193785771D02*
X202577200Y-193000057D01*
X202505771Y-192857200D01*
X202362914Y-192785771D01*
X202077200Y-192785771D01*
X201934342Y-192857200D01*
X202577200Y-193714342D02*
X202434342Y-193785771D01*
X202077200Y-193785771D01*
X201934342Y-193714342D01*
X201862914Y-193571485D01*
X201862914Y-193428628D01*
X201934342Y-193285771D01*
X202077200Y-193214342D01*
X202434342Y-193214342D01*
X202577200Y-193142914D01*
X203077200Y-192785771D02*
X203648628Y-192785771D01*
X203291485Y-192285771D02*
X203291485Y-193571485D01*
X203362914Y-193714342D01*
X203505771Y-193785771D01*
X203648628Y-193785771D01*
X204720057Y-193714342D02*
X204577200Y-193785771D01*
X204291485Y-193785771D01*
X204148628Y-193714342D01*
X204077200Y-193571485D01*
X204077200Y-193000057D01*
X204148628Y-192857200D01*
X204291485Y-192785771D01*
X204577200Y-192785771D01*
X204720057Y-192857200D01*
X204791485Y-193000057D01*
X204791485Y-193142914D01*
X204077200Y-193285771D01*
X205434342Y-193642914D02*
X205505771Y-193714342D01*
X205434342Y-193785771D01*
X205362914Y-193714342D01*
X205434342Y-193642914D01*
X205434342Y-193785771D01*
X205434342Y-192857200D02*
X205505771Y-192928628D01*
X205434342Y-193000057D01*
X205362914Y-192928628D01*
X205434342Y-192857200D01*
X205434342Y-193000057D01*
D10*
D11*
X177002200Y-194507200D02*
X285002200Y-194507200D01*
D10*
D11*
X178434342Y-196585771D02*
X178434342Y-195085771D01*
X179291485Y-196585771D02*
X178648628Y-195728628D01*
X179291485Y-195085771D02*
X178434342Y-195942914D01*
X179934342Y-196585771D02*
X179934342Y-195585771D01*
X179934342Y-195085771D02*
X179862914Y-195157200D01*
X179934342Y-195228628D01*
X180005771Y-195157200D01*
X179934342Y-195085771D01*
X179934342Y-195228628D01*
X181505771Y-196442914D02*
X181434342Y-196514342D01*
X181220057Y-196585771D01*
X181077200Y-196585771D01*
X180862914Y-196514342D01*
X180720057Y-196371485D01*
X180648628Y-196228628D01*
X180577200Y-195942914D01*
X180577200Y-195728628D01*
X180648628Y-195442914D01*
X180720057Y-195300057D01*
X180862914Y-195157200D01*
X181077200Y-195085771D01*
X181220057Y-195085771D01*
X181434342Y-195157200D01*
X181505771Y-195228628D01*
X182791485Y-196585771D02*
X182791485Y-195800057D01*
X182720057Y-195657200D01*
X182577200Y-195585771D01*
X182291485Y-195585771D01*
X182148628Y-195657200D01*
X182791485Y-196514342D02*
X182648628Y-196585771D01*
X182291485Y-196585771D01*
X182148628Y-196514342D01*
X182077200Y-196371485D01*
X182077200Y-196228628D01*
X182148628Y-196085771D01*
X182291485Y-196014342D01*
X182648628Y-196014342D01*
X182791485Y-195942914D01*
X184148628Y-196585771D02*
X184148628Y-195085771D01*
X184148628Y-196514342D02*
X184005771Y-196585771D01*
X183720057Y-196585771D01*
X183577200Y-196514342D01*
X183505771Y-196442914D01*
X183434342Y-196300057D01*
X183434342Y-195871485D01*
X183505771Y-195728628D01*
X183577200Y-195657200D01*
X183720057Y-195585771D01*
X184005771Y-195585771D01*
X184148628Y-195657200D01*
X186005771Y-195800057D02*
X186505771Y-195800057D01*
X186720057Y-196585771D02*
X186005771Y-196585771D01*
X186005771Y-195085771D01*
X186720057Y-195085771D01*
X187362914Y-196442914D02*
X187434342Y-196514342D01*
X187362914Y-196585771D01*
X187291485Y-196514342D01*
X187362914Y-196442914D01*
X187362914Y-196585771D01*
X188077200Y-196585771D02*
X188077200Y-195085771D01*
X188434342Y-195085771D01*
X188648628Y-195157200D01*
X188791485Y-195300057D01*
X188862914Y-195442914D01*
X188934342Y-195728628D01*
X188934342Y-195942914D01*
X188862914Y-196228628D01*
X188791485Y-196371485D01*
X188648628Y-196514342D01*
X188434342Y-196585771D01*
X188077200Y-196585771D01*
X189577200Y-196442914D02*
X189648628Y-196514342D01*
X189577200Y-196585771D01*
X189505771Y-196514342D01*
X189577200Y-196442914D01*
X189577200Y-196585771D01*
X190220057Y-196157200D02*
X190934342Y-196157200D01*
X190077200Y-196585771D02*
X190577200Y-195085771D01*
X191077200Y-196585771D01*
X191577200Y-196442914D02*
X191648628Y-196514342D01*
X191577200Y-196585771D01*
X191505771Y-196514342D01*
X191577200Y-196442914D01*
X191577200Y-196585771D01*
X194577200Y-195585771D02*
X194577200Y-197085771D01*
X194577200Y-195657200D02*
X194720057Y-195585771D01*
X195005771Y-195585771D01*
X195148628Y-195657200D01*
X195220057Y-195728628D01*
X195291485Y-195871485D01*
X195291485Y-196300057D01*
X195220057Y-196442914D01*
X195148628Y-196514342D01*
X195005771Y-196585771D01*
X194720057Y-196585771D01*
X194577200Y-196514342D01*
X196577200Y-196514342D02*
X196434342Y-196585771D01*
X196148628Y-196585771D01*
X196005771Y-196514342D01*
X195934342Y-196442914D01*
X195862914Y-196300057D01*
X195862914Y-195871485D01*
X195934342Y-195728628D01*
X196005771Y-195657200D01*
X196148628Y-195585771D01*
X196434342Y-195585771D01*
X196577200Y-195657200D01*
X197220057Y-196585771D02*
X197220057Y-195085771D01*
X197220057Y-195657200D02*
X197362914Y-195585771D01*
X197648628Y-195585771D01*
X197791485Y-195657200D01*
X197862914Y-195728628D01*
X197934342Y-195871485D01*
X197934342Y-196300057D01*
X197862914Y-196442914D01*
X197791485Y-196514342D01*
X197648628Y-196585771D01*
X197362914Y-196585771D01*
X197220057Y-196514342D01*
X198577200Y-195585771D02*
X198577200Y-196585771D01*
X198577200Y-195728628D02*
X198648628Y-195657200D01*
X198791485Y-195585771D01*
X199005771Y-195585771D01*
X199148628Y-195657200D01*
X199220057Y-195800057D01*
X199220057Y-196585771D01*
X200505771Y-196514342D02*
X200362914Y-196585771D01*
X200077200Y-196585771D01*
X199934342Y-196514342D01*
X199862914Y-196371485D01*
X199862914Y-195800057D01*
X199934342Y-195657200D01*
X200077200Y-195585771D01*
X200362914Y-195585771D01*
X200505771Y-195657200D01*
X200577200Y-195800057D01*
X200577200Y-195942914D01*
X199862914Y-196085771D01*
X201077200Y-195585771D02*
X201362914Y-196585771D01*
X201648628Y-195871485D01*
X201934342Y-196585771D01*
X202220057Y-195585771D01*
X204362914Y-197157200D02*
X204291485Y-197085771D01*
X204148628Y-196871485D01*
X204077200Y-196728628D01*
X204005771Y-196514342D01*
X203934342Y-196157200D01*
X203934342Y-195871485D01*
X204005771Y-195514342D01*
X204077200Y-195300057D01*
X204148628Y-195157200D01*
X204291485Y-194942914D01*
X204362914Y-194871485D01*
X205648628Y-195085771D02*
X204934342Y-195085771D01*
X204862914Y-195800057D01*
X204934342Y-195728628D01*
X205077200Y-195657200D01*
X205434342Y-195657200D01*
X205577200Y-195728628D01*
X205648628Y-195800057D01*
X205720057Y-195942914D01*
X205720057Y-196300057D01*
X205648628Y-196442914D01*
X205577200Y-196514342D01*
X205434342Y-196585771D01*
X205077200Y-196585771D01*
X204934342Y-196514342D01*
X204862914Y-196442914D01*
X206362914Y-196442914D02*
X206434342Y-196514342D01*
X206362914Y-196585771D01*
X206291485Y-196514342D01*
X206362914Y-196442914D01*
X206362914Y-196585771D01*
X207862914Y-196585771D02*
X207005771Y-196585771D01*
X207434342Y-196585771D02*
X207434342Y-195085771D01*
X207291485Y-195300057D01*
X207148628Y-195442914D01*
X207005771Y-195514342D01*
X208505771Y-196442914D02*
X208577200Y-196514342D01*
X208505771Y-196585771D01*
X208434342Y-196514342D01*
X208505771Y-196442914D01*
X208505771Y-196585771D01*
X209291485Y-196585771D02*
X209577200Y-196585771D01*
X209720057Y-196514342D01*
X209791485Y-196442914D01*
X209934342Y-196228628D01*
X210005771Y-195942914D01*
X210005771Y-195371485D01*
X209934342Y-195228628D01*
X209862914Y-195157200D01*
X209720057Y-195085771D01*
X209434342Y-195085771D01*
X209291485Y-195157200D01*
X209220057Y-195228628D01*
X209148628Y-195371485D01*
X209148628Y-195728628D01*
X209220057Y-195871485D01*
X209291485Y-195942914D01*
X209434342Y-196014342D01*
X209720057Y-196014342D01*
X209862914Y-195942914D01*
X209934342Y-195871485D01*
X210005771Y-195728628D01*
X210505771Y-197157200D02*
X210577200Y-197085771D01*
X210720057Y-196871485D01*
X210791485Y-196728628D01*
X210862914Y-196514342D01*
X210934342Y-196157200D01*
X210934342Y-195871485D01*
X210862914Y-195514342D01*
X210791485Y-195300057D01*
X210720057Y-195157200D01*
X210577200Y-194942914D01*
X210505771Y-194871485D01*
X211648628Y-196014342D02*
X212791485Y-196014342D01*
X214291485Y-196585771D02*
X213434342Y-196585771D01*
X213862914Y-196585771D02*
X213862914Y-195085771D01*
X213720057Y-195300057D01*
X213577200Y-195442914D01*
X213434342Y-195514342D01*
D10*
D11*
X177002200Y-191507200D02*
X285002200Y-191507200D01*
D10*
D12*
X264411485Y-193785771D02*
X263911485Y-193071485D01*
X263554342Y-193785771D02*
X263554342Y-192285771D01*
X264125771Y-192285771D01*
X264268628Y-192357200D01*
X264340057Y-192428628D01*
X264411485Y-192571485D01*
X264411485Y-192785771D01*
X264340057Y-192928628D01*
X264268628Y-193000057D01*
X264125771Y-193071485D01*
X263554342Y-193071485D01*
X265625771Y-193714342D02*
X265482914Y-193785771D01*
X265197200Y-193785771D01*
X265054342Y-193714342D01*
X264982914Y-193571485D01*
X264982914Y-193000057D01*
X265054342Y-192857200D01*
X265197200Y-192785771D01*
X265482914Y-192785771D01*
X265625771Y-192857200D01*
X265697200Y-193000057D01*
X265697200Y-193142914D01*
X264982914Y-193285771D01*
X266197200Y-192785771D02*
X266554342Y-193785771D01*
X266911485Y-192785771D01*
X267482914Y-193642914D02*
X267554342Y-193714342D01*
X267482914Y-193785771D01*
X267411485Y-193714342D01*
X267482914Y-193642914D01*
X267482914Y-193785771D01*
X267482914Y-192857200D02*
X267554342Y-192928628D01*
X267482914Y-193000057D01*
X267411485Y-192928628D01*
X267482914Y-192857200D01*
X267482914Y-193000057D01*
D10*
D11*
X178362914Y-193714342D02*
X178577200Y-193785771D01*
X178934342Y-193785771D01*
X179077200Y-193714342D01*
X179148628Y-193642914D01*
X179220057Y-193500057D01*
X179220057Y-193357200D01*
X179148628Y-193214342D01*
X179077200Y-193142914D01*
X178934342Y-193071485D01*
X178648628Y-193000057D01*
X178505771Y-192928628D01*
X178434342Y-192857200D01*
X178362914Y-192714342D01*
X178362914Y-192571485D01*
X178434342Y-192428628D01*
X178505771Y-192357200D01*
X178648628Y-192285771D01*
X179005771Y-192285771D01*
X179220057Y-192357200D01*
X179862914Y-193785771D02*
X179862914Y-192785771D01*
X179862914Y-192285771D02*
X179791485Y-192357200D01*
X179862914Y-192428628D01*
X179934342Y-192357200D01*
X179862914Y-192285771D01*
X179862914Y-192428628D01*
X180434342Y-192785771D02*
X181220057Y-192785771D01*
X180434342Y-193785771D01*
X181220057Y-193785771D01*
X182362914Y-193714342D02*
X182220057Y-193785771D01*
X181934342Y-193785771D01*
X181791485Y-193714342D01*
X181720057Y-193571485D01*
X181720057Y-193000057D01*
X181791485Y-192857200D01*
X181934342Y-192785771D01*
X182220057Y-192785771D01*
X182362914Y-192857200D01*
X182434342Y-193000057D01*
X182434342Y-193142914D01*
X181720057Y-193285771D01*
X183077200Y-193642914D02*
X183148628Y-193714342D01*
X183077200Y-193785771D01*
X183005771Y-193714342D01*
X183077200Y-193642914D01*
X183077200Y-193785771D01*
X183077200Y-192857200D02*
X183148628Y-192928628D01*
X183077200Y-193000057D01*
X183005771Y-192928628D01*
X183077200Y-192857200D01*
X183077200Y-193000057D01*
X184862914Y-193357200D02*
X185577200Y-193357200D01*
X184720057Y-193785771D02*
X185220057Y-192285771D01*
X185720057Y-193785771D01*
X186862914Y-192785771D02*
X186862914Y-193785771D01*
X186505771Y-192214342D02*
X186148628Y-193285771D01*
X187077200Y-193285771D01*
D10*
D11*
X263434342Y-196585771D02*
X263434342Y-195085771D01*
X264791485Y-196585771D02*
X264791485Y-195085771D01*
X264791485Y-196514342D02*
X264648628Y-196585771D01*
X264362914Y-196585771D01*
X264220057Y-196514342D01*
X264148628Y-196442914D01*
X264077200Y-196300057D01*
X264077200Y-195871485D01*
X264148628Y-195728628D01*
X264220057Y-195657200D01*
X264362914Y-195585771D01*
X264648628Y-195585771D01*
X264791485Y-195657200D01*
X265505771Y-196442914D02*
X265577200Y-196514342D01*
X265505771Y-196585771D01*
X265434342Y-196514342D01*
X265505771Y-196442914D01*
X265505771Y-196585771D01*
X265505771Y-195657200D02*
X265577200Y-195728628D01*
X265505771Y-195800057D01*
X265434342Y-195728628D01*
X265505771Y-195657200D01*
X265505771Y-195800057D01*
X268148628Y-196585771D02*
X267291485Y-196585771D01*
X267720057Y-196585771D02*
X267720057Y-195085771D01*
X267577200Y-195300057D01*
X267434342Y-195442914D01*
X267291485Y-195514342D01*
X269862914Y-195014342D02*
X268577200Y-196942914D01*
X271148628Y-196585771D02*
X270291485Y-196585771D01*
X270720057Y-196585771D02*
X270720057Y-195085771D01*
X270577200Y-195300057D01*
X270434342Y-195442914D01*
X270291485Y-195514342D01*
D10*
D11*
X177002200Y-187507200D02*
X285002200Y-187507200D01*
D10*
D13*
X178714580Y-188211961D02*
X179857438Y-188211961D01*
X179036009Y-190211961D02*
X179286009Y-188211961D01*
X180274104Y-190211961D02*
X180440771Y-188878628D01*
X180524104Y-188211961D02*
X180416961Y-188307200D01*
X180500295Y-188402438D01*
X180607438Y-188307200D01*
X180524104Y-188211961D01*
X180500295Y-188402438D01*
X181107438Y-188878628D02*
X181869342Y-188878628D01*
X181476485Y-188211961D02*
X181262200Y-189926247D01*
X181333628Y-190116723D01*
X181512200Y-190211961D01*
X181702676Y-190211961D01*
X182655057Y-190211961D02*
X182476485Y-190116723D01*
X182405057Y-189926247D01*
X182619342Y-188211961D01*
X184190771Y-190116723D02*
X183988390Y-190211961D01*
X183607438Y-190211961D01*
X183428866Y-190116723D01*
X183357438Y-189926247D01*
X183452676Y-189164342D01*
X183571723Y-188973866D01*
X183774104Y-188878628D01*
X184155057Y-188878628D01*
X184333628Y-188973866D01*
X184405057Y-189164342D01*
X184381247Y-189354819D01*
X183405057Y-189545295D01*
X185155057Y-190021485D02*
X185238390Y-190116723D01*
X185131247Y-190211961D01*
X185047914Y-190116723D01*
X185155057Y-190021485D01*
X185131247Y-190211961D01*
X185286009Y-188973866D02*
X185369342Y-189069104D01*
X185262200Y-189164342D01*
X185178866Y-189069104D01*
X185286009Y-188973866D01*
X185262200Y-189164342D01*
D10*
D11*
X178934342Y-185600057D02*
X178434342Y-185600057D01*
X178434342Y-186385771D02*
X178434342Y-184885771D01*
X179148628Y-184885771D01*
X179720057Y-186385771D02*
X179720057Y-185385771D01*
X179720057Y-184885771D02*
X179648628Y-184957200D01*
X179720057Y-185028628D01*
X179791485Y-184957200D01*
X179720057Y-184885771D01*
X179720057Y-185028628D01*
X180648628Y-186385771D02*
X180505771Y-186314342D01*
X180434342Y-186171485D01*
X180434342Y-184885771D01*
X181791485Y-186314342D02*
X181648628Y-186385771D01*
X181362914Y-186385771D01*
X181220057Y-186314342D01*
X181148628Y-186171485D01*
X181148628Y-185600057D01*
X181220057Y-185457200D01*
X181362914Y-185385771D01*
X181648628Y-185385771D01*
X181791485Y-185457200D01*
X181862914Y-185600057D01*
X181862914Y-185742914D01*
X181148628Y-185885771D01*
X182505771Y-186242914D02*
X182577200Y-186314342D01*
X182505771Y-186385771D01*
X182434342Y-186314342D01*
X182505771Y-186242914D01*
X182505771Y-186385771D01*
X182505771Y-185457200D02*
X182577200Y-185528628D01*
X182505771Y-185600057D01*
X182434342Y-185528628D01*
X182505771Y-185457200D01*
X182505771Y-185600057D01*
X185005771Y-186385771D02*
X185005771Y-184885771D01*
X185005771Y-186314342D02*
X184862914Y-186385771D01*
X184577200Y-186385771D01*
X184434342Y-186314342D01*
X184362914Y-186242914D01*
X184291485Y-186100057D01*
X184291485Y-185671485D01*
X184362914Y-185528628D01*
X184434342Y-185457200D01*
X184577200Y-185385771D01*
X184862914Y-185385771D01*
X185005771Y-185457200D01*
X186362914Y-185385771D02*
X186362914Y-186385771D01*
X185720057Y-185385771D02*
X185720057Y-186171485D01*
X185791485Y-186314342D01*
X185934342Y-186385771D01*
X186148628Y-186385771D01*
X186291485Y-186314342D01*
X186362914Y-186242914D01*
X187720057Y-186385771D02*
X187720057Y-185600057D01*
X187648628Y-185457200D01*
X187505771Y-185385771D01*
X187220057Y-185385771D01*
X187077200Y-185457200D01*
X187720057Y-186314342D02*
X187577200Y-186385771D01*
X187220057Y-186385771D01*
X187077200Y-186314342D01*
X187005771Y-186171485D01*
X187005771Y-186028628D01*
X187077200Y-185885771D01*
X187220057Y-185814342D01*
X187577200Y-185814342D01*
X187720057Y-185742914D01*
X188648628Y-186385771D02*
X188505771Y-186314342D01*
X188434342Y-186171485D01*
X188434342Y-184885771D01*
X188862914Y-186528628D02*
X190005771Y-186528628D01*
X190362914Y-186385771D02*
X190362914Y-184885771D01*
X190362914Y-185457200D02*
X190505771Y-185385771D01*
X190791485Y-185385771D01*
X190934342Y-185457200D01*
X191005771Y-185528628D01*
X191077200Y-185671485D01*
X191077200Y-186100057D01*
X191005771Y-186242914D01*
X190934342Y-186314342D01*
X190791485Y-186385771D01*
X190505771Y-186385771D01*
X190362914Y-186314342D01*
X191934342Y-186385771D02*
X191791485Y-186314342D01*
X191720057Y-186242914D01*
X191648628Y-186100057D01*
X191648628Y-185671485D01*
X191720057Y-185528628D01*
X191791485Y-185457200D01*
X191934342Y-185385771D01*
X192148628Y-185385771D01*
X192291485Y-185457200D01*
X192362914Y-185528628D01*
X192434342Y-185671485D01*
X192434342Y-186100057D01*
X192362914Y-186242914D01*
X192291485Y-186314342D01*
X192148628Y-186385771D01*
X191934342Y-186385771D01*
X193720057Y-186385771D02*
X193720057Y-185600057D01*
X193648628Y-185457200D01*
X193505771Y-185385771D01*
X193220057Y-185385771D01*
X193077200Y-185457200D01*
X193720057Y-186314342D02*
X193577200Y-186385771D01*
X193220057Y-186385771D01*
X193077200Y-186314342D01*
X193005771Y-186171485D01*
X193005771Y-186028628D01*
X193077200Y-185885771D01*
X193220057Y-185814342D01*
X193577200Y-185814342D01*
X193720057Y-185742914D01*
X194434342Y-186385771D02*
X194434342Y-185385771D01*
X194434342Y-185671485D02*
X194505771Y-185528628D01*
X194577200Y-185457200D01*
X194720057Y-185385771D01*
X194862914Y-185385771D01*
X196005771Y-186385771D02*
X196005771Y-184885771D01*
X196005771Y-186314342D02*
X195862914Y-186385771D01*
X195577200Y-186385771D01*
X195434342Y-186314342D01*
X195362914Y-186242914D01*
X195291485Y-186100057D01*
X195291485Y-185671485D01*
X195362914Y-185528628D01*
X195434342Y-185457200D01*
X195577200Y-185385771D01*
X195862914Y-185385771D01*
X196005771Y-185457200D01*
X196362914Y-186528628D02*
X197505771Y-186528628D01*
X198505771Y-186314342D02*
X198362914Y-186385771D01*
X198077200Y-186385771D01*
X197934342Y-186314342D01*
X197862914Y-186242914D01*
X197791485Y-186100057D01*
X197791485Y-185671485D01*
X197862914Y-185528628D01*
X197934342Y-185457200D01*
X198077200Y-185385771D01*
X198362914Y-185385771D01*
X198505771Y-185457200D01*
X199791485Y-186385771D02*
X199791485Y-185600057D01*
X199720057Y-185457200D01*
X199577200Y-185385771D01*
X199291485Y-185385771D01*
X199148628Y-185457200D01*
X199791485Y-186314342D02*
X199648628Y-186385771D01*
X199291485Y-186385771D01*
X199148628Y-186314342D01*
X199077200Y-186171485D01*
X199077200Y-186028628D01*
X199148628Y-185885771D01*
X199291485Y-185814342D01*
X199648628Y-185814342D01*
X199791485Y-185742914D01*
X200505771Y-186385771D02*
X200505771Y-185385771D01*
X200505771Y-185671485D02*
X200577200Y-185528628D01*
X200648628Y-185457200D01*
X200791485Y-185385771D01*
X200934342Y-185385771D01*
X201434342Y-186385771D02*
X201434342Y-185385771D01*
X201434342Y-185671485D02*
X201505771Y-185528628D01*
X201577200Y-185457200D01*
X201720057Y-185385771D01*
X201862914Y-185385771D01*
X202362914Y-186385771D02*
X202362914Y-185385771D01*
X202362914Y-184885771D02*
X202291485Y-184957200D01*
X202362914Y-185028628D01*
X202434342Y-184957200D01*
X202362914Y-184885771D01*
X202362914Y-185028628D01*
X203648628Y-186314342D02*
X203505771Y-186385771D01*
X203220057Y-186385771D01*
X203077200Y-186314342D01*
X203005771Y-186171485D01*
X203005771Y-185600057D01*
X203077200Y-185457200D01*
X203220057Y-185385771D01*
X203505771Y-185385771D01*
X203648628Y-185457200D01*
X203720057Y-185600057D01*
X203720057Y-185742914D01*
X203005771Y-185885771D01*
X204362914Y-186385771D02*
X204362914Y-185385771D01*
X204362914Y-185671485D02*
X204434342Y-185528628D01*
X204505771Y-185457200D01*
X204648628Y-185385771D01*
X204791485Y-185385771D01*
X204934342Y-186528628D02*
X206077200Y-186528628D01*
X206505771Y-186385771D02*
X206791485Y-186385771D01*
X206934342Y-186314342D01*
X207005771Y-186242914D01*
X207148628Y-186028628D01*
X207220057Y-185742914D01*
X207220057Y-185171485D01*
X207148628Y-185028628D01*
X207077200Y-184957200D01*
X206934342Y-184885771D01*
X206648628Y-184885771D01*
X206505771Y-184957200D01*
X206434342Y-185028628D01*
X206362914Y-185171485D01*
X206362914Y-185528628D01*
X206434342Y-185671485D01*
X206505771Y-185742914D01*
X206648628Y-185814342D01*
X206934342Y-185814342D01*
X207077200Y-185742914D01*
X207148628Y-185671485D01*
X207220057Y-185528628D01*
X208148628Y-184885771D02*
X208291485Y-184885771D01*
X208434342Y-184957200D01*
X208505771Y-185028628D01*
X208577200Y-185171485D01*
X208648628Y-185457200D01*
X208648628Y-185814342D01*
X208577200Y-186100057D01*
X208505771Y-186242914D01*
X208434342Y-186314342D01*
X208291485Y-186385771D01*
X208148628Y-186385771D01*
X208005771Y-186314342D01*
X207934342Y-186242914D01*
X207862914Y-186100057D01*
X207791485Y-185814342D01*
X207791485Y-185457200D01*
X207862914Y-185171485D01*
X207934342Y-185028628D01*
X208005771Y-184957200D01*
X208148628Y-184885771D01*
X209291485Y-186242914D02*
X209362914Y-186314342D01*
X209291485Y-186385771D01*
X209220057Y-186314342D01*
X209291485Y-186242914D01*
X209291485Y-186385771D01*
X210005771Y-186385771D02*
X210005771Y-184885771D01*
X210148628Y-185814342D02*
X210577200Y-186385771D01*
X210577200Y-185385771D02*
X210005771Y-185957200D01*
X211220057Y-186385771D02*
X211220057Y-185385771D01*
X211220057Y-184885771D02*
X211148628Y-184957200D01*
X211220057Y-185028628D01*
X211291485Y-184957200D01*
X211220057Y-184885771D01*
X211220057Y-185028628D01*
X212577200Y-186314342D02*
X212434342Y-186385771D01*
X212148628Y-186385771D01*
X212005771Y-186314342D01*
X211934342Y-186242914D01*
X211862914Y-186100057D01*
X211862914Y-185671485D01*
X211934342Y-185528628D01*
X212005771Y-185457200D01*
X212148628Y-185385771D01*
X212434342Y-185385771D01*
X212577200Y-185457200D01*
X213862914Y-186385771D02*
X213862914Y-185600057D01*
X213791485Y-185457200D01*
X213648628Y-185385771D01*
X213362914Y-185385771D01*
X213220057Y-185457200D01*
X213862914Y-186314342D02*
X213720057Y-186385771D01*
X213362914Y-186385771D01*
X213220057Y-186314342D01*
X213148628Y-186171485D01*
X213148628Y-186028628D01*
X213220057Y-185885771D01*
X213362914Y-185814342D01*
X213720057Y-185814342D01*
X213862914Y-185742914D01*
X215220057Y-186385771D02*
X215220057Y-184885771D01*
X215220057Y-186314342D02*
X215077200Y-186385771D01*
X214791485Y-186385771D01*
X214648628Y-186314342D01*
X214577200Y-186242914D01*
X214505771Y-186100057D01*
X214505771Y-185671485D01*
X214577200Y-185528628D01*
X214648628Y-185457200D01*
X214791485Y-185385771D01*
X215077200Y-185385771D01*
X215220057Y-185457200D01*
X215577200Y-186528628D02*
X216720057Y-186528628D01*
X217077200Y-185385771D02*
X217077200Y-186885771D01*
X217077200Y-185457200D02*
X217220057Y-185385771D01*
X217505771Y-185385771D01*
X217648628Y-185457200D01*
X217720057Y-185528628D01*
X217791485Y-185671485D01*
X217791485Y-186100057D01*
X217720057Y-186242914D01*
X217648628Y-186314342D01*
X217505771Y-186385771D01*
X217220057Y-186385771D01*
X217077200Y-186314342D01*
X219077200Y-186314342D02*
X218934342Y-186385771D01*
X218648628Y-186385771D01*
X218505771Y-186314342D01*
X218434342Y-186242914D01*
X218362914Y-186100057D01*
X218362914Y-185671485D01*
X218434342Y-185528628D01*
X218505771Y-185457200D01*
X218648628Y-185385771D01*
X218934342Y-185385771D01*
X219077200Y-185457200D01*
X219720057Y-186385771D02*
X219720057Y-184885771D01*
X219720057Y-185457200D02*
X219862914Y-185385771D01*
X220148628Y-185385771D01*
X220291485Y-185457200D01*
X220362914Y-185528628D01*
X220434342Y-185671485D01*
X220434342Y-186100057D01*
X220362914Y-186242914D01*
X220291485Y-186314342D01*
X220148628Y-186385771D01*
X219862914Y-186385771D01*
X219720057Y-186314342D01*
D10*
D11*
X177002200Y-181507200D02*
X285002200Y-181507200D01*
D10*
D11*
X178362914Y-183614342D02*
X178577200Y-183685771D01*
X178934342Y-183685771D01*
X179077200Y-183614342D01*
X179148628Y-183542914D01*
X179220057Y-183400057D01*
X179220057Y-183257200D01*
X179148628Y-183114342D01*
X179077200Y-183042914D01*
X178934342Y-182971485D01*
X178648628Y-182900057D01*
X178505771Y-182828628D01*
X178434342Y-182757200D01*
X178362914Y-182614342D01*
X178362914Y-182471485D01*
X178434342Y-182328628D01*
X178505771Y-182257200D01*
X178648628Y-182185771D01*
X179005771Y-182185771D01*
X179220057Y-182257200D01*
X179862914Y-183685771D02*
X179862914Y-182185771D01*
X180505771Y-183685771D02*
X180505771Y-182900057D01*
X180434342Y-182757200D01*
X180291485Y-182685771D01*
X180077200Y-182685771D01*
X179934342Y-182757200D01*
X179862914Y-182828628D01*
X181791485Y-183614342D02*
X181648628Y-183685771D01*
X181362914Y-183685771D01*
X181220057Y-183614342D01*
X181148628Y-183471485D01*
X181148628Y-182900057D01*
X181220057Y-182757200D01*
X181362914Y-182685771D01*
X181648628Y-182685771D01*
X181791485Y-182757200D01*
X181862914Y-182900057D01*
X181862914Y-183042914D01*
X181148628Y-183185771D01*
X183077200Y-183614342D02*
X182934342Y-183685771D01*
X182648628Y-183685771D01*
X182505771Y-183614342D01*
X182434342Y-183471485D01*
X182434342Y-182900057D01*
X182505771Y-182757200D01*
X182648628Y-182685771D01*
X182934342Y-182685771D01*
X183077200Y-182757200D01*
X183148628Y-182900057D01*
X183148628Y-183042914D01*
X182434342Y-183185771D01*
X183577200Y-182685771D02*
X184148628Y-182685771D01*
X183791485Y-182185771D02*
X183791485Y-183471485D01*
X183862914Y-183614342D01*
X184005771Y-183685771D01*
X184148628Y-183685771D01*
X184648628Y-183542914D02*
X184720057Y-183614342D01*
X184648628Y-183685771D01*
X184577200Y-183614342D01*
X184648628Y-183542914D01*
X184648628Y-183685771D01*
X184648628Y-182757200D02*
X184720057Y-182828628D01*
X184648628Y-182900057D01*
X184577200Y-182828628D01*
X184648628Y-182757200D01*
X184648628Y-182900057D01*
D10*
D11*
X197002200Y-191507200D02*
X197002200Y-194507200D01*
D10*
D11*
X261002200Y-191507200D02*
X261002200Y-198007200D01*
D14*
%TO.C,U3*%
X144506000Y-100203000D02*
X144506000Y-103653000D01*
X144506000Y-100203000D02*
X144506000Y-98253000D01*
X149626000Y-100203000D02*
X149626000Y-102153000D01*
X149626000Y-100203000D02*
X149626000Y-98253000D01*
%TO.C,U2*%
X137357000Y-91445000D02*
X136257000Y-91445000D01*
X137357000Y-91715000D02*
X137357000Y-91445000D01*
X138857000Y-91715000D02*
X137357000Y-91715000D01*
X137357000Y-85085000D02*
X134527000Y-85085000D01*
X137357000Y-84815000D02*
X137357000Y-85085000D01*
X138857000Y-84815000D02*
X137357000Y-84815000D01*
%TO.C,U1*%
X118852000Y-100203000D02*
X118852000Y-103653000D01*
X118852000Y-100203000D02*
X118852000Y-98253000D01*
X123972000Y-100203000D02*
X123972000Y-102153000D01*
X123972000Y-100203000D02*
X123972000Y-98253000D01*
%TO.C,R6*%
X155215000Y-88738064D02*
X155215000Y-87283936D01*
X153395000Y-88738064D02*
X153395000Y-87283936D01*
%TO.C,R5*%
X149331000Y-87283936D02*
X149331000Y-88738064D01*
X151151000Y-87283936D02*
X151151000Y-88738064D01*
%TO.C,R4*%
X152922500Y-98281258D02*
X152922500Y-97806742D01*
X151877500Y-98281258D02*
X151877500Y-97806742D01*
%TO.C,R3*%
X152922500Y-101456258D02*
X152922500Y-100981742D01*
X151877500Y-101456258D02*
X151877500Y-100981742D01*
%TO.C,R2*%
X127268500Y-98281258D02*
X127268500Y-97806742D01*
X126223500Y-98281258D02*
X126223500Y-97806742D01*
%TO.C,R1*%
X127268500Y-101456258D02*
X127268500Y-100981742D01*
X126223500Y-101456258D02*
X126223500Y-100981742D01*
%TO.C,J5*%
X134686000Y-80460000D02*
X134686000Y-79130000D01*
X134686000Y-79130000D02*
X136016000Y-79130000D01*
X137286000Y-79130000D02*
X155126000Y-79130000D01*
X155126000Y-81790000D02*
X155126000Y-79130000D01*
X137286000Y-81790000D02*
X155126000Y-81790000D01*
X137286000Y-81790000D02*
X137286000Y-79130000D01*
%TO.C,J4*%
X134686000Y-105860000D02*
X134686000Y-104530000D01*
X134686000Y-104530000D02*
X136016000Y-104530000D01*
X137286000Y-104530000D02*
X155126000Y-104530000D01*
X155126000Y-107190000D02*
X155126000Y-104530000D01*
X137286000Y-107190000D02*
X155126000Y-107190000D01*
X137286000Y-107190000D02*
X137286000Y-104530000D01*
%TO.C,J2*%
X108686000Y-80460000D02*
X108686000Y-79130000D01*
X108686000Y-79130000D02*
X110016000Y-79130000D01*
X111286000Y-79130000D02*
X129126000Y-79130000D01*
X129126000Y-81790000D02*
X129126000Y-79130000D01*
X111286000Y-81790000D02*
X129126000Y-81790000D01*
X111286000Y-81790000D02*
X111286000Y-79130000D01*
%TO.C,J1*%
X108686000Y-105860000D02*
X108686000Y-104530000D01*
X108686000Y-104530000D02*
X110016000Y-104530000D01*
X111286000Y-104530000D02*
X129126000Y-104530000D01*
X129126000Y-107190000D02*
X129126000Y-104530000D01*
X111286000Y-107190000D02*
X129126000Y-107190000D01*
X111286000Y-107190000D02*
X111286000Y-104530000D01*
%TO.C,D2*%
X122145000Y-87248000D02*
X116745000Y-87248000D01*
X122145000Y-83948000D02*
X116745000Y-83948000D01*
X122145000Y-87248000D02*
X122145000Y-83948000D01*
%TO.C,D1*%
X114883000Y-83973000D02*
X114883000Y-92373000D01*
X108383000Y-83973000D02*
X108383000Y-92373000D01*
X108383000Y-83973000D02*
X114883000Y-83973000D01*
%TO.C,C14*%
X151763000Y-85584420D02*
X151763000Y-85865580D01*
X152783000Y-85584420D02*
X152783000Y-85865580D01*
%TO.C,C11*%
X151259000Y-98184580D02*
X151259000Y-97903420D01*
X150239000Y-98184580D02*
X150239000Y-97903420D01*
%TO.C,C10*%
X131678000Y-86410748D02*
X131678000Y-87833252D01*
X133498000Y-86410748D02*
X133498000Y-87833252D01*
%TO.C,C9*%
X120248000Y-89013748D02*
X120248000Y-90436252D01*
X122068000Y-89013748D02*
X122068000Y-90436252D01*
%TO.C,C8*%
X119559000Y-90436252D02*
X119559000Y-89013748D01*
X117739000Y-90436252D02*
X117739000Y-89013748D01*
%TO.C,C7*%
X115295000Y-89013748D02*
X115295000Y-90436252D01*
X117115000Y-89013748D02*
X117115000Y-90436252D01*
%TO.C,C6*%
X136898748Y-95096000D02*
X137421252Y-95096000D01*
X136898748Y-93626000D02*
X137421252Y-93626000D01*
%TO.C,C3*%
X125605000Y-98184580D02*
X125605000Y-97903420D01*
X124585000Y-98184580D02*
X124585000Y-97903420D01*
%TO.C,C2*%
X137019420Y-93093000D02*
X137300580Y-93093000D01*
X137019420Y-92073000D02*
X137300580Y-92073000D01*
%TO.C,C1*%
X137019420Y-84457000D02*
X137300580Y-84457000D01*
X137019420Y-83437000D02*
X137300580Y-83437000D01*
%TO.C,J3*%
X150476000Y-66294000D02*
X113176000Y-66294000D01*
%TO.C,U3*%
D11*
X143118380Y-100964904D02*
X143927904Y-100964904D01*
X144023142Y-100917285D01*
X144070761Y-100869666D01*
X144118380Y-100774428D01*
X144118380Y-100583952D01*
X144070761Y-100488714D01*
X144023142Y-100441095D01*
X143927904Y-100393476D01*
X143118380Y-100393476D01*
X143118380Y-100012523D02*
X143118380Y-99393476D01*
X143499333Y-99726809D01*
X143499333Y-99583952D01*
X143546952Y-99488714D01*
X143594571Y-99441095D01*
X143689809Y-99393476D01*
X143927904Y-99393476D01*
X144023142Y-99441095D01*
X144070761Y-99488714D01*
X144118380Y-99583952D01*
X144118380Y-99869666D01*
X144070761Y-99964904D01*
X144023142Y-100012523D01*
%TO.C,U2*%
X139065095Y-83217380D02*
X139065095Y-84026904D01*
X139112714Y-84122142D01*
X139160333Y-84169761D01*
X139255571Y-84217380D01*
X139446047Y-84217380D01*
X139541285Y-84169761D01*
X139588904Y-84122142D01*
X139636523Y-84026904D01*
X139636523Y-83217380D01*
X140065095Y-83312619D02*
X140112714Y-83265000D01*
X140207952Y-83217380D01*
X140446047Y-83217380D01*
X140541285Y-83265000D01*
X140588904Y-83312619D01*
X140636523Y-83407857D01*
X140636523Y-83503095D01*
X140588904Y-83645952D01*
X140017476Y-84217380D01*
X140636523Y-84217380D01*
%TO.C,U1*%
X117464380Y-100964904D02*
X118273904Y-100964904D01*
X118369142Y-100917285D01*
X118416761Y-100869666D01*
X118464380Y-100774428D01*
X118464380Y-100583952D01*
X118416761Y-100488714D01*
X118369142Y-100441095D01*
X118273904Y-100393476D01*
X117464380Y-100393476D01*
X118464380Y-99393476D02*
X118464380Y-99964904D01*
X118464380Y-99679190D02*
X117464380Y-99679190D01*
X117607238Y-99774428D01*
X117702476Y-99869666D01*
X117750095Y-99964904D01*
%TO.C,R6*%
X152937380Y-88177666D02*
X152461190Y-88511000D01*
X152937380Y-88749095D02*
X151937380Y-88749095D01*
X151937380Y-88368142D01*
X151985000Y-88272904D01*
X152032619Y-88225285D01*
X152127857Y-88177666D01*
X152270714Y-88177666D01*
X152365952Y-88225285D01*
X152413571Y-88272904D01*
X152461190Y-88368142D01*
X152461190Y-88749095D01*
X151937380Y-87320523D02*
X151937380Y-87511000D01*
X151985000Y-87606238D01*
X152032619Y-87653857D01*
X152175476Y-87749095D01*
X152365952Y-87796714D01*
X152746904Y-87796714D01*
X152842142Y-87749095D01*
X152889761Y-87701476D01*
X152937380Y-87606238D01*
X152937380Y-87415761D01*
X152889761Y-87320523D01*
X152842142Y-87272904D01*
X152746904Y-87225285D01*
X152508809Y-87225285D01*
X152413571Y-87272904D01*
X152365952Y-87320523D01*
X152318333Y-87415761D01*
X152318333Y-87606238D01*
X152365952Y-87701476D01*
X152413571Y-87749095D01*
X152508809Y-87796714D01*
%TO.C,R5*%
X152513380Y-88177666D02*
X152037190Y-88511000D01*
X152513380Y-88749095D02*
X151513380Y-88749095D01*
X151513380Y-88368142D01*
X151561000Y-88272904D01*
X151608619Y-88225285D01*
X151703857Y-88177666D01*
X151846714Y-88177666D01*
X151941952Y-88225285D01*
X151989571Y-88272904D01*
X152037190Y-88368142D01*
X152037190Y-88749095D01*
X151513380Y-87272904D02*
X151513380Y-87749095D01*
X151989571Y-87796714D01*
X151941952Y-87749095D01*
X151894333Y-87653857D01*
X151894333Y-87415761D01*
X151941952Y-87320523D01*
X151989571Y-87272904D01*
X152084809Y-87225285D01*
X152322904Y-87225285D01*
X152418142Y-87272904D01*
X152465761Y-87320523D01*
X152513380Y-87415761D01*
X152513380Y-87653857D01*
X152465761Y-87749095D01*
X152418142Y-87796714D01*
%TO.C,R4*%
X151422380Y-98210666D02*
X150946190Y-98544000D01*
X151422380Y-98782095D02*
X150422380Y-98782095D01*
X150422380Y-98401142D01*
X150470000Y-98305904D01*
X150517619Y-98258285D01*
X150612857Y-98210666D01*
X150755714Y-98210666D01*
X150850952Y-98258285D01*
X150898571Y-98305904D01*
X150946190Y-98401142D01*
X150946190Y-98782095D01*
X150755714Y-97353523D02*
X151422380Y-97353523D01*
X150374761Y-97591619D02*
X151089047Y-97829714D01*
X151089047Y-97210666D01*
%TO.C,R3*%
X151422380Y-101385666D02*
X150946190Y-101719000D01*
X151422380Y-101957095D02*
X150422380Y-101957095D01*
X150422380Y-101576142D01*
X150470000Y-101480904D01*
X150517619Y-101433285D01*
X150612857Y-101385666D01*
X150755714Y-101385666D01*
X150850952Y-101433285D01*
X150898571Y-101480904D01*
X150946190Y-101576142D01*
X150946190Y-101957095D01*
X150422380Y-101052333D02*
X150422380Y-100433285D01*
X150803333Y-100766619D01*
X150803333Y-100623761D01*
X150850952Y-100528523D01*
X150898571Y-100480904D01*
X150993809Y-100433285D01*
X151231904Y-100433285D01*
X151327142Y-100480904D01*
X151374761Y-100528523D01*
X151422380Y-100623761D01*
X151422380Y-100909476D01*
X151374761Y-101004714D01*
X151327142Y-101052333D01*
%TO.C,R2*%
X125768380Y-98210666D02*
X125292190Y-98544000D01*
X125768380Y-98782095D02*
X124768380Y-98782095D01*
X124768380Y-98401142D01*
X124816000Y-98305904D01*
X124863619Y-98258285D01*
X124958857Y-98210666D01*
X125101714Y-98210666D01*
X125196952Y-98258285D01*
X125244571Y-98305904D01*
X125292190Y-98401142D01*
X125292190Y-98782095D01*
X124863619Y-97829714D02*
X124816000Y-97782095D01*
X124768380Y-97686857D01*
X124768380Y-97448761D01*
X124816000Y-97353523D01*
X124863619Y-97305904D01*
X124958857Y-97258285D01*
X125054095Y-97258285D01*
X125196952Y-97305904D01*
X125768380Y-97877333D01*
X125768380Y-97258285D01*
%TO.C,R1*%
X125768380Y-101385666D02*
X125292190Y-101719000D01*
X125768380Y-101957095D02*
X124768380Y-101957095D01*
X124768380Y-101576142D01*
X124816000Y-101480904D01*
X124863619Y-101433285D01*
X124958857Y-101385666D01*
X125101714Y-101385666D01*
X125196952Y-101433285D01*
X125244571Y-101480904D01*
X125292190Y-101576142D01*
X125292190Y-101957095D01*
X125768380Y-100433285D02*
X125768380Y-101004714D01*
X125768380Y-100719000D02*
X124768380Y-100719000D01*
X124911238Y-100814238D01*
X125006476Y-100909476D01*
X125054095Y-101004714D01*
%TO.C,J5*%
X132698380Y-80793333D02*
X133412666Y-80793333D01*
X133555523Y-80840952D01*
X133650761Y-80936190D01*
X133698380Y-81079047D01*
X133698380Y-81174285D01*
X132698380Y-79840952D02*
X132698380Y-80317142D01*
X133174571Y-80364761D01*
X133126952Y-80317142D01*
X133079333Y-80221904D01*
X133079333Y-79983809D01*
X133126952Y-79888571D01*
X133174571Y-79840952D01*
X133269809Y-79793333D01*
X133507904Y-79793333D01*
X133603142Y-79840952D01*
X133650761Y-79888571D01*
X133698380Y-79983809D01*
X133698380Y-80221904D01*
X133650761Y-80317142D01*
X133603142Y-80364761D01*
%TO.C,J4*%
X132698380Y-106193333D02*
X133412666Y-106193333D01*
X133555523Y-106240952D01*
X133650761Y-106336190D01*
X133698380Y-106479047D01*
X133698380Y-106574285D01*
X133031714Y-105288571D02*
X133698380Y-105288571D01*
X132650761Y-105526666D02*
X133365047Y-105764761D01*
X133365047Y-105145714D01*
%TO.C,J2*%
X106698380Y-80793333D02*
X107412666Y-80793333D01*
X107555523Y-80840952D01*
X107650761Y-80936190D01*
X107698380Y-81079047D01*
X107698380Y-81174285D01*
X106793619Y-80364761D02*
X106746000Y-80317142D01*
X106698380Y-80221904D01*
X106698380Y-79983809D01*
X106746000Y-79888571D01*
X106793619Y-79840952D01*
X106888857Y-79793333D01*
X106984095Y-79793333D01*
X107126952Y-79840952D01*
X107698380Y-80412380D01*
X107698380Y-79793333D01*
%TO.C,J1*%
X106698380Y-106193333D02*
X107412666Y-106193333D01*
X107555523Y-106240952D01*
X107650761Y-106336190D01*
X107698380Y-106479047D01*
X107698380Y-106574285D01*
X107698380Y-105193333D02*
X107698380Y-105764761D01*
X107698380Y-105479047D02*
X106698380Y-105479047D01*
X106841238Y-105574285D01*
X106936476Y-105669523D01*
X106984095Y-105764761D01*
%TO.C,D2*%
X118006904Y-88550380D02*
X118006904Y-87550380D01*
X118245000Y-87550380D01*
X118387857Y-87598000D01*
X118483095Y-87693238D01*
X118530714Y-87788476D01*
X118578333Y-87978952D01*
X118578333Y-88121809D01*
X118530714Y-88312285D01*
X118483095Y-88407523D01*
X118387857Y-88502761D01*
X118245000Y-88550380D01*
X118006904Y-88550380D01*
X118959285Y-87645619D02*
X119006904Y-87598000D01*
X119102142Y-87550380D01*
X119340238Y-87550380D01*
X119435476Y-87598000D01*
X119483095Y-87645619D01*
X119530714Y-87740857D01*
X119530714Y-87836095D01*
X119483095Y-87978952D01*
X118911666Y-88550380D01*
X119530714Y-88550380D01*
%TO.C,D1*%
X116185380Y-89511095D02*
X115185380Y-89511095D01*
X115185380Y-89273000D01*
X115233000Y-89130142D01*
X115328238Y-89034904D01*
X115423476Y-88987285D01*
X115613952Y-88939666D01*
X115756809Y-88939666D01*
X115947285Y-88987285D01*
X116042523Y-89034904D01*
X116137761Y-89130142D01*
X116185380Y-89273000D01*
X116185380Y-89511095D01*
X116185380Y-87987285D02*
X116185380Y-88558714D01*
X116185380Y-88273000D02*
X115185380Y-88273000D01*
X115328238Y-88368238D01*
X115423476Y-88463476D01*
X115471095Y-88558714D01*
%TO.C,C14*%
X154060142Y-86367857D02*
X154107761Y-86415476D01*
X154155380Y-86558333D01*
X154155380Y-86653571D01*
X154107761Y-86796428D01*
X154012523Y-86891666D01*
X153917285Y-86939285D01*
X153726809Y-86986904D01*
X153583952Y-86986904D01*
X153393476Y-86939285D01*
X153298238Y-86891666D01*
X153203000Y-86796428D01*
X153155380Y-86653571D01*
X153155380Y-86558333D01*
X153203000Y-86415476D01*
X153250619Y-86367857D01*
X154155380Y-85415476D02*
X154155380Y-85986904D01*
X154155380Y-85701190D02*
X153155380Y-85701190D01*
X153298238Y-85796428D01*
X153393476Y-85891666D01*
X153441095Y-85986904D01*
X153488714Y-84558333D02*
X154155380Y-84558333D01*
X153107761Y-84796428D02*
X153822047Y-85034523D01*
X153822047Y-84415476D01*
%TO.C,C11*%
X149676142Y-98686857D02*
X149723761Y-98734476D01*
X149771380Y-98877333D01*
X149771380Y-98972571D01*
X149723761Y-99115428D01*
X149628523Y-99210666D01*
X149533285Y-99258285D01*
X149342809Y-99305904D01*
X149199952Y-99305904D01*
X149009476Y-99258285D01*
X148914238Y-99210666D01*
X148819000Y-99115428D01*
X148771380Y-98972571D01*
X148771380Y-98877333D01*
X148819000Y-98734476D01*
X148866619Y-98686857D01*
X149771380Y-97734476D02*
X149771380Y-98305904D01*
X149771380Y-98020190D02*
X148771380Y-98020190D01*
X148914238Y-98115428D01*
X149009476Y-98210666D01*
X149057095Y-98305904D01*
X149771380Y-96782095D02*
X149771380Y-97353523D01*
X149771380Y-97067809D02*
X148771380Y-97067809D01*
X148914238Y-97163047D01*
X149009476Y-97258285D01*
X149057095Y-97353523D01*
%TO.C,C10*%
X134795142Y-87764857D02*
X134842761Y-87812476D01*
X134890380Y-87955333D01*
X134890380Y-88050571D01*
X134842761Y-88193428D01*
X134747523Y-88288666D01*
X134652285Y-88336285D01*
X134461809Y-88383904D01*
X134318952Y-88383904D01*
X134128476Y-88336285D01*
X134033238Y-88288666D01*
X133938000Y-88193428D01*
X133890380Y-88050571D01*
X133890380Y-87955333D01*
X133938000Y-87812476D01*
X133985619Y-87764857D01*
X134890380Y-86812476D02*
X134890380Y-87383904D01*
X134890380Y-87098190D02*
X133890380Y-87098190D01*
X134033238Y-87193428D01*
X134128476Y-87288666D01*
X134176095Y-87383904D01*
X133890380Y-86193428D02*
X133890380Y-86098190D01*
X133938000Y-86002952D01*
X133985619Y-85955333D01*
X134080857Y-85907714D01*
X134271333Y-85860095D01*
X134509428Y-85860095D01*
X134699904Y-85907714D01*
X134795142Y-85955333D01*
X134842761Y-86002952D01*
X134890380Y-86098190D01*
X134890380Y-86193428D01*
X134842761Y-86288666D01*
X134795142Y-86336285D01*
X134699904Y-86383904D01*
X134509428Y-86431523D01*
X134271333Y-86431523D01*
X134080857Y-86383904D01*
X133985619Y-86336285D01*
X133938000Y-86288666D01*
X133890380Y-86193428D01*
%TO.C,C9*%
X123365142Y-89891666D02*
X123412761Y-89939285D01*
X123460380Y-90082142D01*
X123460380Y-90177380D01*
X123412761Y-90320238D01*
X123317523Y-90415476D01*
X123222285Y-90463095D01*
X123031809Y-90510714D01*
X122888952Y-90510714D01*
X122698476Y-90463095D01*
X122603238Y-90415476D01*
X122508000Y-90320238D01*
X122460380Y-90177380D01*
X122460380Y-90082142D01*
X122508000Y-89939285D01*
X122555619Y-89891666D01*
X123460380Y-89415476D02*
X123460380Y-89225000D01*
X123412761Y-89129761D01*
X123365142Y-89082142D01*
X123222285Y-88986904D01*
X123031809Y-88939285D01*
X122650857Y-88939285D01*
X122555619Y-88986904D01*
X122508000Y-89034523D01*
X122460380Y-89129761D01*
X122460380Y-89320238D01*
X122508000Y-89415476D01*
X122555619Y-89463095D01*
X122650857Y-89510714D01*
X122888952Y-89510714D01*
X122984190Y-89463095D01*
X123031809Y-89415476D01*
X123079428Y-89320238D01*
X123079428Y-89129761D01*
X123031809Y-89034523D01*
X122984190Y-88986904D01*
X122888952Y-88939285D01*
%TO.C,C8*%
X117156142Y-89891666D02*
X117203761Y-89939285D01*
X117251380Y-90082142D01*
X117251380Y-90177380D01*
X117203761Y-90320238D01*
X117108523Y-90415476D01*
X117013285Y-90463095D01*
X116822809Y-90510714D01*
X116679952Y-90510714D01*
X116489476Y-90463095D01*
X116394238Y-90415476D01*
X116299000Y-90320238D01*
X116251380Y-90177380D01*
X116251380Y-90082142D01*
X116299000Y-89939285D01*
X116346619Y-89891666D01*
X116679952Y-89320238D02*
X116632333Y-89415476D01*
X116584714Y-89463095D01*
X116489476Y-89510714D01*
X116441857Y-89510714D01*
X116346619Y-89463095D01*
X116299000Y-89415476D01*
X116251380Y-89320238D01*
X116251380Y-89129761D01*
X116299000Y-89034523D01*
X116346619Y-88986904D01*
X116441857Y-88939285D01*
X116489476Y-88939285D01*
X116584714Y-88986904D01*
X116632333Y-89034523D01*
X116679952Y-89129761D01*
X116679952Y-89320238D01*
X116727571Y-89415476D01*
X116775190Y-89463095D01*
X116870428Y-89510714D01*
X117060904Y-89510714D01*
X117156142Y-89463095D01*
X117203761Y-89415476D01*
X117251380Y-89320238D01*
X117251380Y-89129761D01*
X117203761Y-89034523D01*
X117156142Y-88986904D01*
X117060904Y-88939285D01*
X116870428Y-88939285D01*
X116775190Y-88986904D01*
X116727571Y-89034523D01*
X116679952Y-89129761D01*
%TO.C,C7*%
X118412142Y-89891666D02*
X118459761Y-89939285D01*
X118507380Y-90082142D01*
X118507380Y-90177380D01*
X118459761Y-90320238D01*
X118364523Y-90415476D01*
X118269285Y-90463095D01*
X118078809Y-90510714D01*
X117935952Y-90510714D01*
X117745476Y-90463095D01*
X117650238Y-90415476D01*
X117555000Y-90320238D01*
X117507380Y-90177380D01*
X117507380Y-90082142D01*
X117555000Y-89939285D01*
X117602619Y-89891666D01*
X117507380Y-89558333D02*
X117507380Y-88891666D01*
X118507380Y-89320238D01*
%TO.C,C6*%
X136993333Y-93038142D02*
X136945714Y-93085761D01*
X136802857Y-93133380D01*
X136707619Y-93133380D01*
X136564761Y-93085761D01*
X136469523Y-92990523D01*
X136421904Y-92895285D01*
X136374285Y-92704809D01*
X136374285Y-92561952D01*
X136421904Y-92371476D01*
X136469523Y-92276238D01*
X136564761Y-92181000D01*
X136707619Y-92133380D01*
X136802857Y-92133380D01*
X136945714Y-92181000D01*
X136993333Y-92228619D01*
X137850476Y-92133380D02*
X137660000Y-92133380D01*
X137564761Y-92181000D01*
X137517142Y-92228619D01*
X137421904Y-92371476D01*
X137374285Y-92561952D01*
X137374285Y-92942904D01*
X137421904Y-93038142D01*
X137469523Y-93085761D01*
X137564761Y-93133380D01*
X137755238Y-93133380D01*
X137850476Y-93085761D01*
X137898095Y-93038142D01*
X137945714Y-92942904D01*
X137945714Y-92704809D01*
X137898095Y-92609571D01*
X137850476Y-92561952D01*
X137755238Y-92514333D01*
X137564761Y-92514333D01*
X137469523Y-92561952D01*
X137421904Y-92609571D01*
X137374285Y-92704809D01*
%TO.C,C3*%
X124022142Y-98210666D02*
X124069761Y-98258285D01*
X124117380Y-98401142D01*
X124117380Y-98496380D01*
X124069761Y-98639238D01*
X123974523Y-98734476D01*
X123879285Y-98782095D01*
X123688809Y-98829714D01*
X123545952Y-98829714D01*
X123355476Y-98782095D01*
X123260238Y-98734476D01*
X123165000Y-98639238D01*
X123117380Y-98496380D01*
X123117380Y-98401142D01*
X123165000Y-98258285D01*
X123212619Y-98210666D01*
X123117380Y-97877333D02*
X123117380Y-97258285D01*
X123498333Y-97591619D01*
X123498333Y-97448761D01*
X123545952Y-97353523D01*
X123593571Y-97305904D01*
X123688809Y-97258285D01*
X123926904Y-97258285D01*
X124022142Y-97305904D01*
X124069761Y-97353523D01*
X124117380Y-97448761D01*
X124117380Y-97734476D01*
X124069761Y-97829714D01*
X124022142Y-97877333D01*
%TO.C,C2*%
X136993333Y-91510142D02*
X136945714Y-91557761D01*
X136802857Y-91605380D01*
X136707619Y-91605380D01*
X136564761Y-91557761D01*
X136469523Y-91462523D01*
X136421904Y-91367285D01*
X136374285Y-91176809D01*
X136374285Y-91033952D01*
X136421904Y-90843476D01*
X136469523Y-90748238D01*
X136564761Y-90653000D01*
X136707619Y-90605380D01*
X136802857Y-90605380D01*
X136945714Y-90653000D01*
X136993333Y-90700619D01*
X137374285Y-90700619D02*
X137421904Y-90653000D01*
X137517142Y-90605380D01*
X137755238Y-90605380D01*
X137850476Y-90653000D01*
X137898095Y-90700619D01*
X137945714Y-90795857D01*
X137945714Y-90891095D01*
X137898095Y-91033952D01*
X137326666Y-91605380D01*
X137945714Y-91605380D01*
%TO.C,C1*%
X136993333Y-82874142D02*
X136945714Y-82921761D01*
X136802857Y-82969380D01*
X136707619Y-82969380D01*
X136564761Y-82921761D01*
X136469523Y-82826523D01*
X136421904Y-82731285D01*
X136374285Y-82540809D01*
X136374285Y-82397952D01*
X136421904Y-82207476D01*
X136469523Y-82112238D01*
X136564761Y-82017000D01*
X136707619Y-81969380D01*
X136802857Y-81969380D01*
X136945714Y-82017000D01*
X136993333Y-82064619D01*
X137945714Y-82969380D02*
X137374285Y-82969380D01*
X137660000Y-82969380D02*
X137660000Y-81969380D01*
X137564761Y-82112238D01*
X137469523Y-82207476D01*
X137374285Y-82255095D01*
%TD*%
%LPC*%
%TO.C,U3*%
G36*
G01*
X145311000Y-98703000D02*
X145011000Y-98703000D01*
G75*
G02*
X144861000Y-98553000I0J150000D01*
G01*
X144861000Y-96903000D01*
G75*
G02*
X145011000Y-96753000I150000J0D01*
G01*
X145311000Y-96753000D01*
G75*
G02*
X145461000Y-96903000I0J-150000D01*
G01*
X145461000Y-98553000D01*
G75*
G02*
X145311000Y-98703000I-150000J0D01*
G01*
G37*
G36*
G01*
X146581000Y-98703000D02*
X146281000Y-98703000D01*
G75*
G02*
X146131000Y-98553000I0J150000D01*
G01*
X146131000Y-96903000D01*
G75*
G02*
X146281000Y-96753000I150000J0D01*
G01*
X146581000Y-96753000D01*
G75*
G02*
X146731000Y-96903000I0J-150000D01*
G01*
X146731000Y-98553000D01*
G75*
G02*
X146581000Y-98703000I-150000J0D01*
G01*
G37*
G36*
G01*
X147851000Y-98703000D02*
X147551000Y-98703000D01*
G75*
G02*
X147401000Y-98553000I0J150000D01*
G01*
X147401000Y-96903000D01*
G75*
G02*
X147551000Y-96753000I150000J0D01*
G01*
X147851000Y-96753000D01*
G75*
G02*
X148001000Y-96903000I0J-150000D01*
G01*
X148001000Y-98553000D01*
G75*
G02*
X147851000Y-98703000I-150000J0D01*
G01*
G37*
G36*
G01*
X149121000Y-98703000D02*
X148821000Y-98703000D01*
G75*
G02*
X148671000Y-98553000I0J150000D01*
G01*
X148671000Y-96903000D01*
G75*
G02*
X148821000Y-96753000I150000J0D01*
G01*
X149121000Y-96753000D01*
G75*
G02*
X149271000Y-96903000I0J-150000D01*
G01*
X149271000Y-98553000D01*
G75*
G02*
X149121000Y-98703000I-150000J0D01*
G01*
G37*
G36*
G01*
X149121000Y-103653000D02*
X148821000Y-103653000D01*
G75*
G02*
X148671000Y-103503000I0J150000D01*
G01*
X148671000Y-101853000D01*
G75*
G02*
X148821000Y-101703000I150000J0D01*
G01*
X149121000Y-101703000D01*
G75*
G02*
X149271000Y-101853000I0J-150000D01*
G01*
X149271000Y-103503000D01*
G75*
G02*
X149121000Y-103653000I-150000J0D01*
G01*
G37*
G36*
G01*
X147851000Y-103653000D02*
X147551000Y-103653000D01*
G75*
G02*
X147401000Y-103503000I0J150000D01*
G01*
X147401000Y-101853000D01*
G75*
G02*
X147551000Y-101703000I150000J0D01*
G01*
X147851000Y-101703000D01*
G75*
G02*
X148001000Y-101853000I0J-150000D01*
G01*
X148001000Y-103503000D01*
G75*
G02*
X147851000Y-103653000I-150000J0D01*
G01*
G37*
G36*
G01*
X146581000Y-103653000D02*
X146281000Y-103653000D01*
G75*
G02*
X146131000Y-103503000I0J150000D01*
G01*
X146131000Y-101853000D01*
G75*
G02*
X146281000Y-101703000I150000J0D01*
G01*
X146581000Y-101703000D01*
G75*
G02*
X146731000Y-101853000I0J-150000D01*
G01*
X146731000Y-103503000D01*
G75*
G02*
X146581000Y-103653000I-150000J0D01*
G01*
G37*
G36*
G01*
X145311000Y-103653000D02*
X145011000Y-103653000D01*
G75*
G02*
X144861000Y-103503000I0J150000D01*
G01*
X144861000Y-101853000D01*
G75*
G02*
X145011000Y-101703000I150000J0D01*
G01*
X145311000Y-101703000D01*
G75*
G02*
X145461000Y-101853000I0J-150000D01*
G01*
X145461000Y-103503000D01*
G75*
G02*
X145311000Y-103653000I-150000J0D01*
G01*
G37*
%TD*%
D15*
%TO.C,U2*%
X141927000Y-88265000D03*
D16*
X135627000Y-90545000D03*
X135627000Y-85985000D03*
%TD*%
%TO.C,U1*%
G36*
G01*
X119657000Y-98703000D02*
X119357000Y-98703000D01*
G75*
G02*
X119207000Y-98553000I0J150000D01*
G01*
X119207000Y-96903000D01*
G75*
G02*
X119357000Y-96753000I150000J0D01*
G01*
X119657000Y-96753000D01*
G75*
G02*
X119807000Y-96903000I0J-150000D01*
G01*
X119807000Y-98553000D01*
G75*
G02*
X119657000Y-98703000I-150000J0D01*
G01*
G37*
G36*
G01*
X120927000Y-98703000D02*
X120627000Y-98703000D01*
G75*
G02*
X120477000Y-98553000I0J150000D01*
G01*
X120477000Y-96903000D01*
G75*
G02*
X120627000Y-96753000I150000J0D01*
G01*
X120927000Y-96753000D01*
G75*
G02*
X121077000Y-96903000I0J-150000D01*
G01*
X121077000Y-98553000D01*
G75*
G02*
X120927000Y-98703000I-150000J0D01*
G01*
G37*
G36*
G01*
X122197000Y-98703000D02*
X121897000Y-98703000D01*
G75*
G02*
X121747000Y-98553000I0J150000D01*
G01*
X121747000Y-96903000D01*
G75*
G02*
X121897000Y-96753000I150000J0D01*
G01*
X122197000Y-96753000D01*
G75*
G02*
X122347000Y-96903000I0J-150000D01*
G01*
X122347000Y-98553000D01*
G75*
G02*
X122197000Y-98703000I-150000J0D01*
G01*
G37*
G36*
G01*
X123467000Y-98703000D02*
X123167000Y-98703000D01*
G75*
G02*
X123017000Y-98553000I0J150000D01*
G01*
X123017000Y-96903000D01*
G75*
G02*
X123167000Y-96753000I150000J0D01*
G01*
X123467000Y-96753000D01*
G75*
G02*
X123617000Y-96903000I0J-150000D01*
G01*
X123617000Y-98553000D01*
G75*
G02*
X123467000Y-98703000I-150000J0D01*
G01*
G37*
G36*
G01*
X123467000Y-103653000D02*
X123167000Y-103653000D01*
G75*
G02*
X123017000Y-103503000I0J150000D01*
G01*
X123017000Y-101853000D01*
G75*
G02*
X123167000Y-101703000I150000J0D01*
G01*
X123467000Y-101703000D01*
G75*
G02*
X123617000Y-101853000I0J-150000D01*
G01*
X123617000Y-103503000D01*
G75*
G02*
X123467000Y-103653000I-150000J0D01*
G01*
G37*
G36*
G01*
X122197000Y-103653000D02*
X121897000Y-103653000D01*
G75*
G02*
X121747000Y-103503000I0J150000D01*
G01*
X121747000Y-101853000D01*
G75*
G02*
X121897000Y-101703000I150000J0D01*
G01*
X122197000Y-101703000D01*
G75*
G02*
X122347000Y-101853000I0J-150000D01*
G01*
X122347000Y-103503000D01*
G75*
G02*
X122197000Y-103653000I-150000J0D01*
G01*
G37*
G36*
G01*
X120927000Y-103653000D02*
X120627000Y-103653000D01*
G75*
G02*
X120477000Y-103503000I0J150000D01*
G01*
X120477000Y-101853000D01*
G75*
G02*
X120627000Y-101703000I150000J0D01*
G01*
X120927000Y-101703000D01*
G75*
G02*
X121077000Y-101853000I0J-150000D01*
G01*
X121077000Y-103503000D01*
G75*
G02*
X120927000Y-103653000I-150000J0D01*
G01*
G37*
G36*
G01*
X119657000Y-103653000D02*
X119357000Y-103653000D01*
G75*
G02*
X119207000Y-103503000I0J150000D01*
G01*
X119207000Y-101853000D01*
G75*
G02*
X119357000Y-101703000I150000J0D01*
G01*
X119657000Y-101703000D01*
G75*
G02*
X119807000Y-101853000I0J-150000D01*
G01*
X119807000Y-103503000D01*
G75*
G02*
X119657000Y-103653000I-150000J0D01*
G01*
G37*
%TD*%
%TO.C,R6*%
G36*
G01*
X154930002Y-87111000D02*
X153679998Y-87111000D01*
G75*
G02*
X153430000Y-86861002I0J249998D01*
G01*
X153430000Y-86235998D01*
G75*
G02*
X153679998Y-85986000I249998J0D01*
G01*
X154930002Y-85986000D01*
G75*
G02*
X155180000Y-86235998I0J-249998D01*
G01*
X155180000Y-86861002D01*
G75*
G02*
X154930002Y-87111000I-249998J0D01*
G01*
G37*
G36*
G01*
X154930002Y-90036000D02*
X153679998Y-90036000D01*
G75*
G02*
X153430000Y-89786002I0J249998D01*
G01*
X153430000Y-89160998D01*
G75*
G02*
X153679998Y-88911000I249998J0D01*
G01*
X154930002Y-88911000D01*
G75*
G02*
X155180000Y-89160998I0J-249998D01*
G01*
X155180000Y-89786002D01*
G75*
G02*
X154930002Y-90036000I-249998J0D01*
G01*
G37*
%TD*%
%TO.C,R5*%
G36*
G01*
X149615998Y-88911000D02*
X150866002Y-88911000D01*
G75*
G02*
X151116000Y-89160998I0J-249998D01*
G01*
X151116000Y-89786002D01*
G75*
G02*
X150866002Y-90036000I-249998J0D01*
G01*
X149615998Y-90036000D01*
G75*
G02*
X149366000Y-89786002I0J249998D01*
G01*
X149366000Y-89160998D01*
G75*
G02*
X149615998Y-88911000I249998J0D01*
G01*
G37*
G36*
G01*
X149615998Y-85986000D02*
X150866002Y-85986000D01*
G75*
G02*
X151116000Y-86235998I0J-249998D01*
G01*
X151116000Y-86861002D01*
G75*
G02*
X150866002Y-87111000I-249998J0D01*
G01*
X149615998Y-87111000D01*
G75*
G02*
X149366000Y-86861002I0J249998D01*
G01*
X149366000Y-86235998D01*
G75*
G02*
X149615998Y-85986000I249998J0D01*
G01*
G37*
%TD*%
%TO.C,R4*%
G36*
G01*
X152675000Y-97619000D02*
X152125000Y-97619000D01*
G75*
G02*
X151925000Y-97419000I0J200000D01*
G01*
X151925000Y-97019000D01*
G75*
G02*
X152125000Y-96819000I200000J0D01*
G01*
X152675000Y-96819000D01*
G75*
G02*
X152875000Y-97019000I0J-200000D01*
G01*
X152875000Y-97419000D01*
G75*
G02*
X152675000Y-97619000I-200000J0D01*
G01*
G37*
G36*
G01*
X152675000Y-99269000D02*
X152125000Y-99269000D01*
G75*
G02*
X151925000Y-99069000I0J200000D01*
G01*
X151925000Y-98669000D01*
G75*
G02*
X152125000Y-98469000I200000J0D01*
G01*
X152675000Y-98469000D01*
G75*
G02*
X152875000Y-98669000I0J-200000D01*
G01*
X152875000Y-99069000D01*
G75*
G02*
X152675000Y-99269000I-200000J0D01*
G01*
G37*
%TD*%
%TO.C,R3*%
G36*
G01*
X152675000Y-100794000D02*
X152125000Y-100794000D01*
G75*
G02*
X151925000Y-100594000I0J200000D01*
G01*
X151925000Y-100194000D01*
G75*
G02*
X152125000Y-99994000I200000J0D01*
G01*
X152675000Y-99994000D01*
G75*
G02*
X152875000Y-100194000I0J-200000D01*
G01*
X152875000Y-100594000D01*
G75*
G02*
X152675000Y-100794000I-200000J0D01*
G01*
G37*
G36*
G01*
X152675000Y-102444000D02*
X152125000Y-102444000D01*
G75*
G02*
X151925000Y-102244000I0J200000D01*
G01*
X151925000Y-101844000D01*
G75*
G02*
X152125000Y-101644000I200000J0D01*
G01*
X152675000Y-101644000D01*
G75*
G02*
X152875000Y-101844000I0J-200000D01*
G01*
X152875000Y-102244000D01*
G75*
G02*
X152675000Y-102444000I-200000J0D01*
G01*
G37*
%TD*%
%TO.C,R2*%
G36*
G01*
X127021000Y-97619000D02*
X126471000Y-97619000D01*
G75*
G02*
X126271000Y-97419000I0J200000D01*
G01*
X126271000Y-97019000D01*
G75*
G02*
X126471000Y-96819000I200000J0D01*
G01*
X127021000Y-96819000D01*
G75*
G02*
X127221000Y-97019000I0J-200000D01*
G01*
X127221000Y-97419000D01*
G75*
G02*
X127021000Y-97619000I-200000J0D01*
G01*
G37*
G36*
G01*
X127021000Y-99269000D02*
X126471000Y-99269000D01*
G75*
G02*
X126271000Y-99069000I0J200000D01*
G01*
X126271000Y-98669000D01*
G75*
G02*
X126471000Y-98469000I200000J0D01*
G01*
X127021000Y-98469000D01*
G75*
G02*
X127221000Y-98669000I0J-200000D01*
G01*
X127221000Y-99069000D01*
G75*
G02*
X127021000Y-99269000I-200000J0D01*
G01*
G37*
%TD*%
%TO.C,R1*%
G36*
G01*
X127021000Y-100794000D02*
X126471000Y-100794000D01*
G75*
G02*
X126271000Y-100594000I0J200000D01*
G01*
X126271000Y-100194000D01*
G75*
G02*
X126471000Y-99994000I200000J0D01*
G01*
X127021000Y-99994000D01*
G75*
G02*
X127221000Y-100194000I0J-200000D01*
G01*
X127221000Y-100594000D01*
G75*
G02*
X127021000Y-100794000I-200000J0D01*
G01*
G37*
G36*
G01*
X127021000Y-102444000D02*
X126471000Y-102444000D01*
G75*
G02*
X126271000Y-102244000I0J200000D01*
G01*
X126271000Y-101844000D01*
G75*
G02*
X126471000Y-101644000I200000J0D01*
G01*
X127021000Y-101644000D01*
G75*
G02*
X127221000Y-101844000I0J-200000D01*
G01*
X127221000Y-102244000D01*
G75*
G02*
X127021000Y-102444000I-200000J0D01*
G01*
G37*
%TD*%
D17*
%TO.C,J5*%
X153796000Y-80460000D03*
X151256000Y-80460000D03*
X148716000Y-80460000D03*
X146176000Y-80460000D03*
X143636000Y-80460000D03*
X141096000Y-80460000D03*
X138556000Y-80460000D03*
D18*
X136016000Y-80460000D03*
%TD*%
D17*
%TO.C,J4*%
X153796000Y-105860000D03*
X151256000Y-105860000D03*
X148716000Y-105860000D03*
X146176000Y-105860000D03*
X143636000Y-105860000D03*
X141096000Y-105860000D03*
X138556000Y-105860000D03*
D18*
X136016000Y-105860000D03*
%TD*%
D17*
%TO.C,J2*%
X127796000Y-80460000D03*
X125256000Y-80460000D03*
X122716000Y-80460000D03*
X120176000Y-80460000D03*
X117636000Y-80460000D03*
X115096000Y-80460000D03*
X112556000Y-80460000D03*
D18*
X110016000Y-80460000D03*
%TD*%
D17*
%TO.C,J1*%
X127796000Y-105860000D03*
X125256000Y-105860000D03*
X122716000Y-105860000D03*
X120176000Y-105860000D03*
X117636000Y-105860000D03*
X115096000Y-105860000D03*
X112556000Y-105860000D03*
D18*
X110016000Y-105860000D03*
%TD*%
D19*
%TO.C,D2*%
X116745000Y-85598000D03*
X120745000Y-85598000D03*
%TD*%
D20*
%TO.C,D1*%
X111633000Y-92173000D03*
X111633000Y-85373000D03*
%TD*%
%TO.C,C14*%
G36*
G01*
X152023000Y-86050000D02*
X152523000Y-86050000D01*
G75*
G02*
X152748000Y-86275000I0J-225000D01*
G01*
X152748000Y-86725000D01*
G75*
G02*
X152523000Y-86950000I-225000J0D01*
G01*
X152023000Y-86950000D01*
G75*
G02*
X151798000Y-86725000I0J225000D01*
G01*
X151798000Y-86275000D01*
G75*
G02*
X152023000Y-86050000I225000J0D01*
G01*
G37*
G36*
G01*
X152023000Y-84500000D02*
X152523000Y-84500000D01*
G75*
G02*
X152748000Y-84725000I0J-225000D01*
G01*
X152748000Y-85175000D01*
G75*
G02*
X152523000Y-85400000I-225000J0D01*
G01*
X152023000Y-85400000D01*
G75*
G02*
X151798000Y-85175000I0J225000D01*
G01*
X151798000Y-84725000D01*
G75*
G02*
X152023000Y-84500000I225000J0D01*
G01*
G37*
%TD*%
%TO.C,C11*%
G36*
G01*
X150999000Y-97719000D02*
X150499000Y-97719000D01*
G75*
G02*
X150274000Y-97494000I0J225000D01*
G01*
X150274000Y-97044000D01*
G75*
G02*
X150499000Y-96819000I225000J0D01*
G01*
X150999000Y-96819000D01*
G75*
G02*
X151224000Y-97044000I0J-225000D01*
G01*
X151224000Y-97494000D01*
G75*
G02*
X150999000Y-97719000I-225000J0D01*
G01*
G37*
G36*
G01*
X150999000Y-99269000D02*
X150499000Y-99269000D01*
G75*
G02*
X150274000Y-99044000I0J225000D01*
G01*
X150274000Y-98594000D01*
G75*
G02*
X150499000Y-98369000I225000J0D01*
G01*
X150999000Y-98369000D01*
G75*
G02*
X151224000Y-98594000I0J-225000D01*
G01*
X151224000Y-99044000D01*
G75*
G02*
X150999000Y-99269000I-225000J0D01*
G01*
G37*
%TD*%
%TO.C,C10*%
G36*
G01*
X131937999Y-88022000D02*
X133238001Y-88022000D01*
G75*
G02*
X133488000Y-88271999I0J-249999D01*
G01*
X133488000Y-88922001D01*
G75*
G02*
X133238001Y-89172000I-249999J0D01*
G01*
X131937999Y-89172000D01*
G75*
G02*
X131688000Y-88922001I0J249999D01*
G01*
X131688000Y-88271999D01*
G75*
G02*
X131937999Y-88022000I249999J0D01*
G01*
G37*
G36*
G01*
X131937999Y-85072000D02*
X133238001Y-85072000D01*
G75*
G02*
X133488000Y-85321999I0J-249999D01*
G01*
X133488000Y-85972001D01*
G75*
G02*
X133238001Y-86222000I-249999J0D01*
G01*
X131937999Y-86222000D01*
G75*
G02*
X131688000Y-85972001I0J249999D01*
G01*
X131688000Y-85321999D01*
G75*
G02*
X131937999Y-85072000I249999J0D01*
G01*
G37*
%TD*%
%TO.C,C9*%
G36*
G01*
X120507999Y-90625000D02*
X121808001Y-90625000D01*
G75*
G02*
X122058000Y-90874999I0J-249999D01*
G01*
X122058000Y-91525001D01*
G75*
G02*
X121808001Y-91775000I-249999J0D01*
G01*
X120507999Y-91775000D01*
G75*
G02*
X120258000Y-91525001I0J249999D01*
G01*
X120258000Y-90874999D01*
G75*
G02*
X120507999Y-90625000I249999J0D01*
G01*
G37*
G36*
G01*
X120507999Y-87675000D02*
X121808001Y-87675000D01*
G75*
G02*
X122058000Y-87924999I0J-249999D01*
G01*
X122058000Y-88575001D01*
G75*
G02*
X121808001Y-88825000I-249999J0D01*
G01*
X120507999Y-88825000D01*
G75*
G02*
X120258000Y-88575001I0J249999D01*
G01*
X120258000Y-87924999D01*
G75*
G02*
X120507999Y-87675000I249999J0D01*
G01*
G37*
%TD*%
%TO.C,C8*%
G36*
G01*
X119299001Y-88825000D02*
X117998999Y-88825000D01*
G75*
G02*
X117749000Y-88575001I0J249999D01*
G01*
X117749000Y-87924999D01*
G75*
G02*
X117998999Y-87675000I249999J0D01*
G01*
X119299001Y-87675000D01*
G75*
G02*
X119549000Y-87924999I0J-249999D01*
G01*
X119549000Y-88575001D01*
G75*
G02*
X119299001Y-88825000I-249999J0D01*
G01*
G37*
G36*
G01*
X119299001Y-91775000D02*
X117998999Y-91775000D01*
G75*
G02*
X117749000Y-91525001I0J249999D01*
G01*
X117749000Y-90874999D01*
G75*
G02*
X117998999Y-90625000I249999J0D01*
G01*
X119299001Y-90625000D01*
G75*
G02*
X119549000Y-90874999I0J-249999D01*
G01*
X119549000Y-91525001D01*
G75*
G02*
X119299001Y-91775000I-249999J0D01*
G01*
G37*
%TD*%
%TO.C,C7*%
G36*
G01*
X115554999Y-90625000D02*
X116855001Y-90625000D01*
G75*
G02*
X117105000Y-90874999I0J-249999D01*
G01*
X117105000Y-91525001D01*
G75*
G02*
X116855001Y-91775000I-249999J0D01*
G01*
X115554999Y-91775000D01*
G75*
G02*
X115305000Y-91525001I0J249999D01*
G01*
X115305000Y-90874999D01*
G75*
G02*
X115554999Y-90625000I249999J0D01*
G01*
G37*
G36*
G01*
X115554999Y-87675000D02*
X116855001Y-87675000D01*
G75*
G02*
X117105000Y-87924999I0J-249999D01*
G01*
X117105000Y-88575001D01*
G75*
G02*
X116855001Y-88825000I-249999J0D01*
G01*
X115554999Y-88825000D01*
G75*
G02*
X115305000Y-88575001I0J249999D01*
G01*
X115305000Y-87924999D01*
G75*
G02*
X115554999Y-87675000I249999J0D01*
G01*
G37*
%TD*%
%TO.C,C6*%
G36*
G01*
X137610000Y-94836000D02*
X137610000Y-93886000D01*
G75*
G02*
X137860000Y-93636000I250000J0D01*
G01*
X138360000Y-93636000D01*
G75*
G02*
X138610000Y-93886000I0J-250000D01*
G01*
X138610000Y-94836000D01*
G75*
G02*
X138360000Y-95086000I-250000J0D01*
G01*
X137860000Y-95086000D01*
G75*
G02*
X137610000Y-94836000I0J250000D01*
G01*
G37*
G36*
G01*
X135710000Y-94836000D02*
X135710000Y-93886000D01*
G75*
G02*
X135960000Y-93636000I250000J0D01*
G01*
X136460000Y-93636000D01*
G75*
G02*
X136710000Y-93886000I0J-250000D01*
G01*
X136710000Y-94836000D01*
G75*
G02*
X136460000Y-95086000I-250000J0D01*
G01*
X135960000Y-95086000D01*
G75*
G02*
X135710000Y-94836000I0J250000D01*
G01*
G37*
%TD*%
%TO.C,C3*%
G36*
G01*
X125345000Y-97719000D02*
X124845000Y-97719000D01*
G75*
G02*
X124620000Y-97494000I0J225000D01*
G01*
X124620000Y-97044000D01*
G75*
G02*
X124845000Y-96819000I225000J0D01*
G01*
X125345000Y-96819000D01*
G75*
G02*
X125570000Y-97044000I0J-225000D01*
G01*
X125570000Y-97494000D01*
G75*
G02*
X125345000Y-97719000I-225000J0D01*
G01*
G37*
G36*
G01*
X125345000Y-99269000D02*
X124845000Y-99269000D01*
G75*
G02*
X124620000Y-99044000I0J225000D01*
G01*
X124620000Y-98594000D01*
G75*
G02*
X124845000Y-98369000I225000J0D01*
G01*
X125345000Y-98369000D01*
G75*
G02*
X125570000Y-98594000I0J-225000D01*
G01*
X125570000Y-99044000D01*
G75*
G02*
X125345000Y-99269000I-225000J0D01*
G01*
G37*
%TD*%
%TO.C,C2*%
G36*
G01*
X137485000Y-92833000D02*
X137485000Y-92333000D01*
G75*
G02*
X137710000Y-92108000I225000J0D01*
G01*
X138160000Y-92108000D01*
G75*
G02*
X138385000Y-92333000I0J-225000D01*
G01*
X138385000Y-92833000D01*
G75*
G02*
X138160000Y-93058000I-225000J0D01*
G01*
X137710000Y-93058000D01*
G75*
G02*
X137485000Y-92833000I0J225000D01*
G01*
G37*
G36*
G01*
X135935000Y-92833000D02*
X135935000Y-92333000D01*
G75*
G02*
X136160000Y-92108000I225000J0D01*
G01*
X136610000Y-92108000D01*
G75*
G02*
X136835000Y-92333000I0J-225000D01*
G01*
X136835000Y-92833000D01*
G75*
G02*
X136610000Y-93058000I-225000J0D01*
G01*
X136160000Y-93058000D01*
G75*
G02*
X135935000Y-92833000I0J225000D01*
G01*
G37*
%TD*%
%TO.C,C1*%
G36*
G01*
X137485000Y-84197000D02*
X137485000Y-83697000D01*
G75*
G02*
X137710000Y-83472000I225000J0D01*
G01*
X138160000Y-83472000D01*
G75*
G02*
X138385000Y-83697000I0J-225000D01*
G01*
X138385000Y-84197000D01*
G75*
G02*
X138160000Y-84422000I-225000J0D01*
G01*
X137710000Y-84422000D01*
G75*
G02*
X137485000Y-84197000I0J225000D01*
G01*
G37*
G36*
G01*
X135935000Y-84197000D02*
X135935000Y-83697000D01*
G75*
G02*
X136160000Y-83472000I225000J0D01*
G01*
X136610000Y-83472000D01*
G75*
G02*
X136835000Y-83697000I0J-225000D01*
G01*
X136835000Y-84197000D01*
G75*
G02*
X136610000Y-84422000I-225000J0D01*
G01*
X136160000Y-84422000D01*
G75*
G02*
X135935000Y-84197000I0J225000D01*
G01*
G37*
%TD*%
D21*
%TO.C,J3*%
X147576000Y-75434000D03*
X144076000Y-75434000D03*
X140576000Y-75434000D03*
X137076000Y-75434000D03*
X133576000Y-75434000D03*
X130076000Y-75434000D03*
X126576000Y-75434000D03*
X123076000Y-75434000D03*
X119576000Y-75434000D03*
X116076000Y-75434000D03*
X147576000Y-71934000D03*
X144076000Y-71934000D03*
X140576000Y-71934000D03*
X137076000Y-71934000D03*
X133576000Y-71934000D03*
X130076000Y-71934000D03*
X126576000Y-71934000D03*
X123076000Y-71934000D03*
X119576000Y-71934000D03*
X116076000Y-71934000D03*
D22*
X154576000Y-72974000D03*
X109076000Y-72974000D03*
%TD*%
M02*
