%TF.GenerationSoftware,KiCad,Pcbnew,(5.1.9)-1*%
%TF.CreationDate,2021-02-06T18:14:13-06:00*%
%TF.ProjectId,dual_board_carrier_90,6475616c-5f62-46f6-9172-645f63617272,rev?*%
%TF.SameCoordinates,Original*%
%TF.FileFunction,Legend,Bot*%
%TF.FilePolarity,Positive*%
%FSLAX46Y46*%
G04 Gerber Fmt 4.6, Leading zero omitted, Abs format (unit mm)*
G04 Created by KiCad (PCBNEW (5.1.9)-1) date 2021-02-06 18:14:13*
%MOMM*%
%LPD*%
G01*
G04 APERTURE LIST*
%ADD10C,0.100000*%
%ADD11C,0.150000*%
%ADD12C,0.300000*%
%ADD13C,0.400000*%
%ADD14C,0.200000*%
%ADD15O,1.700000X1.700000*%
%ADD16R,1.700000X1.700000*%
%ADD17C,2.200000*%
%ADD18C,4.000000*%
G04 APERTURE END LIST*
D10*
D11*
X177002200Y-166007200D02*
X177002200Y-198007200D01*
X285002200Y-198007200D01*
X285002200Y-166007200D01*
X177002200Y-166007200D01*
D10*
D11*
X10000000Y-10000000D02*
X10000000Y-200007200D01*
X287002200Y-200007200D01*
X287002200Y-10000000D01*
X10000000Y-10000000D01*
D10*
D11*
X12000000Y-12000000D02*
X12000000Y-198007200D01*
X285002200Y-198007200D01*
X285002200Y-12000000D01*
X12000000Y-12000000D01*
D10*
D11*
X60000000Y-12000000D02*
X60000000Y-10000000D01*
D10*
D11*
X110000000Y-12000000D02*
X110000000Y-10000000D01*
D10*
D11*
X160000000Y-12000000D02*
X160000000Y-10000000D01*
D10*
D11*
X210000000Y-12000000D02*
X210000000Y-10000000D01*
D10*
D11*
X260000000Y-12000000D02*
X260000000Y-10000000D01*
D10*
D11*
X36065476Y-11588095D02*
X35322619Y-11588095D01*
X35694047Y-11588095D02*
X35694047Y-10288095D01*
X35570238Y-10473809D01*
X35446428Y-10597619D01*
X35322619Y-10659523D01*
D10*
D11*
X85322619Y-10411904D02*
X85384523Y-10350000D01*
X85508333Y-10288095D01*
X85817857Y-10288095D01*
X85941666Y-10350000D01*
X86003571Y-10411904D01*
X86065476Y-10535714D01*
X86065476Y-10659523D01*
X86003571Y-10845238D01*
X85260714Y-11588095D01*
X86065476Y-11588095D01*
D10*
D11*
X135260714Y-10288095D02*
X136065476Y-10288095D01*
X135632142Y-10783333D01*
X135817857Y-10783333D01*
X135941666Y-10845238D01*
X136003571Y-10907142D01*
X136065476Y-11030952D01*
X136065476Y-11340476D01*
X136003571Y-11464285D01*
X135941666Y-11526190D01*
X135817857Y-11588095D01*
X135446428Y-11588095D01*
X135322619Y-11526190D01*
X135260714Y-11464285D01*
D10*
D11*
X185941666Y-10721428D02*
X185941666Y-11588095D01*
X185632142Y-10226190D02*
X185322619Y-11154761D01*
X186127380Y-11154761D01*
D10*
D11*
X236003571Y-10288095D02*
X235384523Y-10288095D01*
X235322619Y-10907142D01*
X235384523Y-10845238D01*
X235508333Y-10783333D01*
X235817857Y-10783333D01*
X235941666Y-10845238D01*
X236003571Y-10907142D01*
X236065476Y-11030952D01*
X236065476Y-11340476D01*
X236003571Y-11464285D01*
X235941666Y-11526190D01*
X235817857Y-11588095D01*
X235508333Y-11588095D01*
X235384523Y-11526190D01*
X235322619Y-11464285D01*
D10*
D11*
X285941666Y-10288095D02*
X285694047Y-10288095D01*
X285570238Y-10350000D01*
X285508333Y-10411904D01*
X285384523Y-10597619D01*
X285322619Y-10845238D01*
X285322619Y-11340476D01*
X285384523Y-11464285D01*
X285446428Y-11526190D01*
X285570238Y-11588095D01*
X285817857Y-11588095D01*
X285941666Y-11526190D01*
X286003571Y-11464285D01*
X286065476Y-11340476D01*
X286065476Y-11030952D01*
X286003571Y-10907142D01*
X285941666Y-10845238D01*
X285817857Y-10783333D01*
X285570238Y-10783333D01*
X285446428Y-10845238D01*
X285384523Y-10907142D01*
X285322619Y-11030952D01*
D10*
D11*
X60000000Y-198007200D02*
X60000000Y-200007200D01*
D10*
D11*
X110000000Y-198007200D02*
X110000000Y-200007200D01*
D10*
D11*
X160000000Y-198007200D02*
X160000000Y-200007200D01*
D10*
D11*
X210000000Y-198007200D02*
X210000000Y-200007200D01*
D10*
D11*
X260000000Y-198007200D02*
X260000000Y-200007200D01*
D10*
D11*
X36065476Y-199595295D02*
X35322619Y-199595295D01*
X35694047Y-199595295D02*
X35694047Y-198295295D01*
X35570238Y-198481009D01*
X35446428Y-198604819D01*
X35322619Y-198666723D01*
D10*
D11*
X85322619Y-198419104D02*
X85384523Y-198357200D01*
X85508333Y-198295295D01*
X85817857Y-198295295D01*
X85941666Y-198357200D01*
X86003571Y-198419104D01*
X86065476Y-198542914D01*
X86065476Y-198666723D01*
X86003571Y-198852438D01*
X85260714Y-199595295D01*
X86065476Y-199595295D01*
D10*
D11*
X135260714Y-198295295D02*
X136065476Y-198295295D01*
X135632142Y-198790533D01*
X135817857Y-198790533D01*
X135941666Y-198852438D01*
X136003571Y-198914342D01*
X136065476Y-199038152D01*
X136065476Y-199347676D01*
X136003571Y-199471485D01*
X135941666Y-199533390D01*
X135817857Y-199595295D01*
X135446428Y-199595295D01*
X135322619Y-199533390D01*
X135260714Y-199471485D01*
D10*
D11*
X185941666Y-198728628D02*
X185941666Y-199595295D01*
X185632142Y-198233390D02*
X185322619Y-199161961D01*
X186127380Y-199161961D01*
D10*
D11*
X236003571Y-198295295D02*
X235384523Y-198295295D01*
X235322619Y-198914342D01*
X235384523Y-198852438D01*
X235508333Y-198790533D01*
X235817857Y-198790533D01*
X235941666Y-198852438D01*
X236003571Y-198914342D01*
X236065476Y-199038152D01*
X236065476Y-199347676D01*
X236003571Y-199471485D01*
X235941666Y-199533390D01*
X235817857Y-199595295D01*
X235508333Y-199595295D01*
X235384523Y-199533390D01*
X235322619Y-199471485D01*
D10*
D11*
X285941666Y-198295295D02*
X285694047Y-198295295D01*
X285570238Y-198357200D01*
X285508333Y-198419104D01*
X285384523Y-198604819D01*
X285322619Y-198852438D01*
X285322619Y-199347676D01*
X285384523Y-199471485D01*
X285446428Y-199533390D01*
X285570238Y-199595295D01*
X285817857Y-199595295D01*
X285941666Y-199533390D01*
X286003571Y-199471485D01*
X286065476Y-199347676D01*
X286065476Y-199038152D01*
X286003571Y-198914342D01*
X285941666Y-198852438D01*
X285817857Y-198790533D01*
X285570238Y-198790533D01*
X285446428Y-198852438D01*
X285384523Y-198914342D01*
X285322619Y-199038152D01*
D10*
D11*
X10000000Y-60000000D02*
X12000000Y-60000000D01*
D10*
D11*
X10000000Y-110000000D02*
X12000000Y-110000000D01*
D10*
D11*
X10000000Y-160000000D02*
X12000000Y-160000000D01*
D10*
D11*
X10690476Y-35216666D02*
X11309523Y-35216666D01*
X10566666Y-35588095D02*
X11000000Y-34288095D01*
X11433333Y-35588095D01*
D10*
D11*
X11092857Y-84907142D02*
X11278571Y-84969047D01*
X11340476Y-85030952D01*
X11402380Y-85154761D01*
X11402380Y-85340476D01*
X11340476Y-85464285D01*
X11278571Y-85526190D01*
X11154761Y-85588095D01*
X10659523Y-85588095D01*
X10659523Y-84288095D01*
X11092857Y-84288095D01*
X11216666Y-84350000D01*
X11278571Y-84411904D01*
X11340476Y-84535714D01*
X11340476Y-84659523D01*
X11278571Y-84783333D01*
X11216666Y-84845238D01*
X11092857Y-84907142D01*
X10659523Y-84907142D01*
D10*
D11*
X11402380Y-135464285D02*
X11340476Y-135526190D01*
X11154761Y-135588095D01*
X11030952Y-135588095D01*
X10845238Y-135526190D01*
X10721428Y-135402380D01*
X10659523Y-135278571D01*
X10597619Y-135030952D01*
X10597619Y-134845238D01*
X10659523Y-134597619D01*
X10721428Y-134473809D01*
X10845238Y-134350000D01*
X11030952Y-134288095D01*
X11154761Y-134288095D01*
X11340476Y-134350000D01*
X11402380Y-134411904D01*
D10*
D11*
X10659523Y-185588095D02*
X10659523Y-184288095D01*
X10969047Y-184288095D01*
X11154761Y-184350000D01*
X11278571Y-184473809D01*
X11340476Y-184597619D01*
X11402380Y-184845238D01*
X11402380Y-185030952D01*
X11340476Y-185278571D01*
X11278571Y-185402380D01*
X11154761Y-185526190D01*
X10969047Y-185588095D01*
X10659523Y-185588095D01*
D10*
D11*
X287002200Y-60000000D02*
X285002200Y-60000000D01*
D10*
D11*
X287002200Y-110000000D02*
X285002200Y-110000000D01*
D10*
D11*
X287002200Y-160000000D02*
X285002200Y-160000000D01*
D10*
D11*
X285692676Y-35216666D02*
X286311723Y-35216666D01*
X285568866Y-35588095D02*
X286002200Y-34288095D01*
X286435533Y-35588095D01*
D10*
D11*
X286095057Y-84907142D02*
X286280771Y-84969047D01*
X286342676Y-85030952D01*
X286404580Y-85154761D01*
X286404580Y-85340476D01*
X286342676Y-85464285D01*
X286280771Y-85526190D01*
X286156961Y-85588095D01*
X285661723Y-85588095D01*
X285661723Y-84288095D01*
X286095057Y-84288095D01*
X286218866Y-84350000D01*
X286280771Y-84411904D01*
X286342676Y-84535714D01*
X286342676Y-84659523D01*
X286280771Y-84783333D01*
X286218866Y-84845238D01*
X286095057Y-84907142D01*
X285661723Y-84907142D01*
D10*
D11*
X286404580Y-135464285D02*
X286342676Y-135526190D01*
X286156961Y-135588095D01*
X286033152Y-135588095D01*
X285847438Y-135526190D01*
X285723628Y-135402380D01*
X285661723Y-135278571D01*
X285599819Y-135030952D01*
X285599819Y-134845238D01*
X285661723Y-134597619D01*
X285723628Y-134473809D01*
X285847438Y-134350000D01*
X286033152Y-134288095D01*
X286156961Y-134288095D01*
X286342676Y-134350000D01*
X286404580Y-134411904D01*
D10*
D11*
X285661723Y-185588095D02*
X285661723Y-184288095D01*
X285971247Y-184288095D01*
X286156961Y-184350000D01*
X286280771Y-184473809D01*
X286342676Y-184597619D01*
X286404580Y-184845238D01*
X286404580Y-185030952D01*
X286342676Y-185278571D01*
X286280771Y-185402380D01*
X286156961Y-185526190D01*
X285971247Y-185588095D01*
X285661723Y-185588095D01*
D10*
D11*
X200434342Y-193785771D02*
X200434342Y-192285771D01*
X200791485Y-192285771D01*
X201005771Y-192357200D01*
X201148628Y-192500057D01*
X201220057Y-192642914D01*
X201291485Y-192928628D01*
X201291485Y-193142914D01*
X201220057Y-193428628D01*
X201148628Y-193571485D01*
X201005771Y-193714342D01*
X200791485Y-193785771D01*
X200434342Y-193785771D01*
X202577200Y-193785771D02*
X202577200Y-193000057D01*
X202505771Y-192857200D01*
X202362914Y-192785771D01*
X202077200Y-192785771D01*
X201934342Y-192857200D01*
X202577200Y-193714342D02*
X202434342Y-193785771D01*
X202077200Y-193785771D01*
X201934342Y-193714342D01*
X201862914Y-193571485D01*
X201862914Y-193428628D01*
X201934342Y-193285771D01*
X202077200Y-193214342D01*
X202434342Y-193214342D01*
X202577200Y-193142914D01*
X203077200Y-192785771D02*
X203648628Y-192785771D01*
X203291485Y-192285771D02*
X203291485Y-193571485D01*
X203362914Y-193714342D01*
X203505771Y-193785771D01*
X203648628Y-193785771D01*
X204720057Y-193714342D02*
X204577200Y-193785771D01*
X204291485Y-193785771D01*
X204148628Y-193714342D01*
X204077200Y-193571485D01*
X204077200Y-193000057D01*
X204148628Y-192857200D01*
X204291485Y-192785771D01*
X204577200Y-192785771D01*
X204720057Y-192857200D01*
X204791485Y-193000057D01*
X204791485Y-193142914D01*
X204077200Y-193285771D01*
X205434342Y-193642914D02*
X205505771Y-193714342D01*
X205434342Y-193785771D01*
X205362914Y-193714342D01*
X205434342Y-193642914D01*
X205434342Y-193785771D01*
X205434342Y-192857200D02*
X205505771Y-192928628D01*
X205434342Y-193000057D01*
X205362914Y-192928628D01*
X205434342Y-192857200D01*
X205434342Y-193000057D01*
D10*
D11*
X177002200Y-194507200D02*
X285002200Y-194507200D01*
D10*
D11*
X178434342Y-196585771D02*
X178434342Y-195085771D01*
X179291485Y-196585771D02*
X178648628Y-195728628D01*
X179291485Y-195085771D02*
X178434342Y-195942914D01*
X179934342Y-196585771D02*
X179934342Y-195585771D01*
X179934342Y-195085771D02*
X179862914Y-195157200D01*
X179934342Y-195228628D01*
X180005771Y-195157200D01*
X179934342Y-195085771D01*
X179934342Y-195228628D01*
X181505771Y-196442914D02*
X181434342Y-196514342D01*
X181220057Y-196585771D01*
X181077200Y-196585771D01*
X180862914Y-196514342D01*
X180720057Y-196371485D01*
X180648628Y-196228628D01*
X180577200Y-195942914D01*
X180577200Y-195728628D01*
X180648628Y-195442914D01*
X180720057Y-195300057D01*
X180862914Y-195157200D01*
X181077200Y-195085771D01*
X181220057Y-195085771D01*
X181434342Y-195157200D01*
X181505771Y-195228628D01*
X182791485Y-196585771D02*
X182791485Y-195800057D01*
X182720057Y-195657200D01*
X182577200Y-195585771D01*
X182291485Y-195585771D01*
X182148628Y-195657200D01*
X182791485Y-196514342D02*
X182648628Y-196585771D01*
X182291485Y-196585771D01*
X182148628Y-196514342D01*
X182077200Y-196371485D01*
X182077200Y-196228628D01*
X182148628Y-196085771D01*
X182291485Y-196014342D01*
X182648628Y-196014342D01*
X182791485Y-195942914D01*
X184148628Y-196585771D02*
X184148628Y-195085771D01*
X184148628Y-196514342D02*
X184005771Y-196585771D01*
X183720057Y-196585771D01*
X183577200Y-196514342D01*
X183505771Y-196442914D01*
X183434342Y-196300057D01*
X183434342Y-195871485D01*
X183505771Y-195728628D01*
X183577200Y-195657200D01*
X183720057Y-195585771D01*
X184005771Y-195585771D01*
X184148628Y-195657200D01*
X186005771Y-195800057D02*
X186505771Y-195800057D01*
X186720057Y-196585771D02*
X186005771Y-196585771D01*
X186005771Y-195085771D01*
X186720057Y-195085771D01*
X187362914Y-196442914D02*
X187434342Y-196514342D01*
X187362914Y-196585771D01*
X187291485Y-196514342D01*
X187362914Y-196442914D01*
X187362914Y-196585771D01*
X188077200Y-196585771D02*
X188077200Y-195085771D01*
X188434342Y-195085771D01*
X188648628Y-195157200D01*
X188791485Y-195300057D01*
X188862914Y-195442914D01*
X188934342Y-195728628D01*
X188934342Y-195942914D01*
X188862914Y-196228628D01*
X188791485Y-196371485D01*
X188648628Y-196514342D01*
X188434342Y-196585771D01*
X188077200Y-196585771D01*
X189577200Y-196442914D02*
X189648628Y-196514342D01*
X189577200Y-196585771D01*
X189505771Y-196514342D01*
X189577200Y-196442914D01*
X189577200Y-196585771D01*
X190220057Y-196157200D02*
X190934342Y-196157200D01*
X190077200Y-196585771D02*
X190577200Y-195085771D01*
X191077200Y-196585771D01*
X191577200Y-196442914D02*
X191648628Y-196514342D01*
X191577200Y-196585771D01*
X191505771Y-196514342D01*
X191577200Y-196442914D01*
X191577200Y-196585771D01*
X194577200Y-195585771D02*
X194577200Y-197085771D01*
X194577200Y-195657200D02*
X194720057Y-195585771D01*
X195005771Y-195585771D01*
X195148628Y-195657200D01*
X195220057Y-195728628D01*
X195291485Y-195871485D01*
X195291485Y-196300057D01*
X195220057Y-196442914D01*
X195148628Y-196514342D01*
X195005771Y-196585771D01*
X194720057Y-196585771D01*
X194577200Y-196514342D01*
X196577200Y-196514342D02*
X196434342Y-196585771D01*
X196148628Y-196585771D01*
X196005771Y-196514342D01*
X195934342Y-196442914D01*
X195862914Y-196300057D01*
X195862914Y-195871485D01*
X195934342Y-195728628D01*
X196005771Y-195657200D01*
X196148628Y-195585771D01*
X196434342Y-195585771D01*
X196577200Y-195657200D01*
X197220057Y-196585771D02*
X197220057Y-195085771D01*
X197220057Y-195657200D02*
X197362914Y-195585771D01*
X197648628Y-195585771D01*
X197791485Y-195657200D01*
X197862914Y-195728628D01*
X197934342Y-195871485D01*
X197934342Y-196300057D01*
X197862914Y-196442914D01*
X197791485Y-196514342D01*
X197648628Y-196585771D01*
X197362914Y-196585771D01*
X197220057Y-196514342D01*
X198577200Y-195585771D02*
X198577200Y-196585771D01*
X198577200Y-195728628D02*
X198648628Y-195657200D01*
X198791485Y-195585771D01*
X199005771Y-195585771D01*
X199148628Y-195657200D01*
X199220057Y-195800057D01*
X199220057Y-196585771D01*
X200505771Y-196514342D02*
X200362914Y-196585771D01*
X200077200Y-196585771D01*
X199934342Y-196514342D01*
X199862914Y-196371485D01*
X199862914Y-195800057D01*
X199934342Y-195657200D01*
X200077200Y-195585771D01*
X200362914Y-195585771D01*
X200505771Y-195657200D01*
X200577200Y-195800057D01*
X200577200Y-195942914D01*
X199862914Y-196085771D01*
X201077200Y-195585771D02*
X201362914Y-196585771D01*
X201648628Y-195871485D01*
X201934342Y-196585771D01*
X202220057Y-195585771D01*
X204362914Y-197157200D02*
X204291485Y-197085771D01*
X204148628Y-196871485D01*
X204077200Y-196728628D01*
X204005771Y-196514342D01*
X203934342Y-196157200D01*
X203934342Y-195871485D01*
X204005771Y-195514342D01*
X204077200Y-195300057D01*
X204148628Y-195157200D01*
X204291485Y-194942914D01*
X204362914Y-194871485D01*
X205648628Y-195085771D02*
X204934342Y-195085771D01*
X204862914Y-195800057D01*
X204934342Y-195728628D01*
X205077200Y-195657200D01*
X205434342Y-195657200D01*
X205577200Y-195728628D01*
X205648628Y-195800057D01*
X205720057Y-195942914D01*
X205720057Y-196300057D01*
X205648628Y-196442914D01*
X205577200Y-196514342D01*
X205434342Y-196585771D01*
X205077200Y-196585771D01*
X204934342Y-196514342D01*
X204862914Y-196442914D01*
X206362914Y-196442914D02*
X206434342Y-196514342D01*
X206362914Y-196585771D01*
X206291485Y-196514342D01*
X206362914Y-196442914D01*
X206362914Y-196585771D01*
X207862914Y-196585771D02*
X207005771Y-196585771D01*
X207434342Y-196585771D02*
X207434342Y-195085771D01*
X207291485Y-195300057D01*
X207148628Y-195442914D01*
X207005771Y-195514342D01*
X208505771Y-196442914D02*
X208577200Y-196514342D01*
X208505771Y-196585771D01*
X208434342Y-196514342D01*
X208505771Y-196442914D01*
X208505771Y-196585771D01*
X209291485Y-196585771D02*
X209577200Y-196585771D01*
X209720057Y-196514342D01*
X209791485Y-196442914D01*
X209934342Y-196228628D01*
X210005771Y-195942914D01*
X210005771Y-195371485D01*
X209934342Y-195228628D01*
X209862914Y-195157200D01*
X209720057Y-195085771D01*
X209434342Y-195085771D01*
X209291485Y-195157200D01*
X209220057Y-195228628D01*
X209148628Y-195371485D01*
X209148628Y-195728628D01*
X209220057Y-195871485D01*
X209291485Y-195942914D01*
X209434342Y-196014342D01*
X209720057Y-196014342D01*
X209862914Y-195942914D01*
X209934342Y-195871485D01*
X210005771Y-195728628D01*
X210505771Y-197157200D02*
X210577200Y-197085771D01*
X210720057Y-196871485D01*
X210791485Y-196728628D01*
X210862914Y-196514342D01*
X210934342Y-196157200D01*
X210934342Y-195871485D01*
X210862914Y-195514342D01*
X210791485Y-195300057D01*
X210720057Y-195157200D01*
X210577200Y-194942914D01*
X210505771Y-194871485D01*
X211648628Y-196014342D02*
X212791485Y-196014342D01*
X214291485Y-196585771D02*
X213434342Y-196585771D01*
X213862914Y-196585771D02*
X213862914Y-195085771D01*
X213720057Y-195300057D01*
X213577200Y-195442914D01*
X213434342Y-195514342D01*
D10*
D11*
X177002200Y-191507200D02*
X285002200Y-191507200D01*
D10*
D12*
X264411485Y-193785771D02*
X263911485Y-193071485D01*
X263554342Y-193785771D02*
X263554342Y-192285771D01*
X264125771Y-192285771D01*
X264268628Y-192357200D01*
X264340057Y-192428628D01*
X264411485Y-192571485D01*
X264411485Y-192785771D01*
X264340057Y-192928628D01*
X264268628Y-193000057D01*
X264125771Y-193071485D01*
X263554342Y-193071485D01*
X265625771Y-193714342D02*
X265482914Y-193785771D01*
X265197200Y-193785771D01*
X265054342Y-193714342D01*
X264982914Y-193571485D01*
X264982914Y-193000057D01*
X265054342Y-192857200D01*
X265197200Y-192785771D01*
X265482914Y-192785771D01*
X265625771Y-192857200D01*
X265697200Y-193000057D01*
X265697200Y-193142914D01*
X264982914Y-193285771D01*
X266197200Y-192785771D02*
X266554342Y-193785771D01*
X266911485Y-192785771D01*
X267482914Y-193642914D02*
X267554342Y-193714342D01*
X267482914Y-193785771D01*
X267411485Y-193714342D01*
X267482914Y-193642914D01*
X267482914Y-193785771D01*
X267482914Y-192857200D02*
X267554342Y-192928628D01*
X267482914Y-193000057D01*
X267411485Y-192928628D01*
X267482914Y-192857200D01*
X267482914Y-193000057D01*
D10*
D11*
X178362914Y-193714342D02*
X178577200Y-193785771D01*
X178934342Y-193785771D01*
X179077200Y-193714342D01*
X179148628Y-193642914D01*
X179220057Y-193500057D01*
X179220057Y-193357200D01*
X179148628Y-193214342D01*
X179077200Y-193142914D01*
X178934342Y-193071485D01*
X178648628Y-193000057D01*
X178505771Y-192928628D01*
X178434342Y-192857200D01*
X178362914Y-192714342D01*
X178362914Y-192571485D01*
X178434342Y-192428628D01*
X178505771Y-192357200D01*
X178648628Y-192285771D01*
X179005771Y-192285771D01*
X179220057Y-192357200D01*
X179862914Y-193785771D02*
X179862914Y-192785771D01*
X179862914Y-192285771D02*
X179791485Y-192357200D01*
X179862914Y-192428628D01*
X179934342Y-192357200D01*
X179862914Y-192285771D01*
X179862914Y-192428628D01*
X180434342Y-192785771D02*
X181220057Y-192785771D01*
X180434342Y-193785771D01*
X181220057Y-193785771D01*
X182362914Y-193714342D02*
X182220057Y-193785771D01*
X181934342Y-193785771D01*
X181791485Y-193714342D01*
X181720057Y-193571485D01*
X181720057Y-193000057D01*
X181791485Y-192857200D01*
X181934342Y-192785771D01*
X182220057Y-192785771D01*
X182362914Y-192857200D01*
X182434342Y-193000057D01*
X182434342Y-193142914D01*
X181720057Y-193285771D01*
X183077200Y-193642914D02*
X183148628Y-193714342D01*
X183077200Y-193785771D01*
X183005771Y-193714342D01*
X183077200Y-193642914D01*
X183077200Y-193785771D01*
X183077200Y-192857200D02*
X183148628Y-192928628D01*
X183077200Y-193000057D01*
X183005771Y-192928628D01*
X183077200Y-192857200D01*
X183077200Y-193000057D01*
X184862914Y-193357200D02*
X185577200Y-193357200D01*
X184720057Y-193785771D02*
X185220057Y-192285771D01*
X185720057Y-193785771D01*
X186862914Y-192785771D02*
X186862914Y-193785771D01*
X186505771Y-192214342D02*
X186148628Y-193285771D01*
X187077200Y-193285771D01*
D10*
D11*
X263434342Y-196585771D02*
X263434342Y-195085771D01*
X264791485Y-196585771D02*
X264791485Y-195085771D01*
X264791485Y-196514342D02*
X264648628Y-196585771D01*
X264362914Y-196585771D01*
X264220057Y-196514342D01*
X264148628Y-196442914D01*
X264077200Y-196300057D01*
X264077200Y-195871485D01*
X264148628Y-195728628D01*
X264220057Y-195657200D01*
X264362914Y-195585771D01*
X264648628Y-195585771D01*
X264791485Y-195657200D01*
X265505771Y-196442914D02*
X265577200Y-196514342D01*
X265505771Y-196585771D01*
X265434342Y-196514342D01*
X265505771Y-196442914D01*
X265505771Y-196585771D01*
X265505771Y-195657200D02*
X265577200Y-195728628D01*
X265505771Y-195800057D01*
X265434342Y-195728628D01*
X265505771Y-195657200D01*
X265505771Y-195800057D01*
X268148628Y-196585771D02*
X267291485Y-196585771D01*
X267720057Y-196585771D02*
X267720057Y-195085771D01*
X267577200Y-195300057D01*
X267434342Y-195442914D01*
X267291485Y-195514342D01*
X269862914Y-195014342D02*
X268577200Y-196942914D01*
X271148628Y-196585771D02*
X270291485Y-196585771D01*
X270720057Y-196585771D02*
X270720057Y-195085771D01*
X270577200Y-195300057D01*
X270434342Y-195442914D01*
X270291485Y-195514342D01*
D10*
D11*
X177002200Y-187507200D02*
X285002200Y-187507200D01*
D10*
D13*
X178714580Y-188211961D02*
X179857438Y-188211961D01*
X179036009Y-190211961D02*
X179286009Y-188211961D01*
X180274104Y-190211961D02*
X180440771Y-188878628D01*
X180524104Y-188211961D02*
X180416961Y-188307200D01*
X180500295Y-188402438D01*
X180607438Y-188307200D01*
X180524104Y-188211961D01*
X180500295Y-188402438D01*
X181107438Y-188878628D02*
X181869342Y-188878628D01*
X181476485Y-188211961D02*
X181262200Y-189926247D01*
X181333628Y-190116723D01*
X181512200Y-190211961D01*
X181702676Y-190211961D01*
X182655057Y-190211961D02*
X182476485Y-190116723D01*
X182405057Y-189926247D01*
X182619342Y-188211961D01*
X184190771Y-190116723D02*
X183988390Y-190211961D01*
X183607438Y-190211961D01*
X183428866Y-190116723D01*
X183357438Y-189926247D01*
X183452676Y-189164342D01*
X183571723Y-188973866D01*
X183774104Y-188878628D01*
X184155057Y-188878628D01*
X184333628Y-188973866D01*
X184405057Y-189164342D01*
X184381247Y-189354819D01*
X183405057Y-189545295D01*
X185155057Y-190021485D02*
X185238390Y-190116723D01*
X185131247Y-190211961D01*
X185047914Y-190116723D01*
X185155057Y-190021485D01*
X185131247Y-190211961D01*
X185286009Y-188973866D02*
X185369342Y-189069104D01*
X185262200Y-189164342D01*
X185178866Y-189069104D01*
X185286009Y-188973866D01*
X185262200Y-189164342D01*
D10*
D11*
X178934342Y-185600057D02*
X178434342Y-185600057D01*
X178434342Y-186385771D02*
X178434342Y-184885771D01*
X179148628Y-184885771D01*
X179720057Y-186385771D02*
X179720057Y-185385771D01*
X179720057Y-184885771D02*
X179648628Y-184957200D01*
X179720057Y-185028628D01*
X179791485Y-184957200D01*
X179720057Y-184885771D01*
X179720057Y-185028628D01*
X180648628Y-186385771D02*
X180505771Y-186314342D01*
X180434342Y-186171485D01*
X180434342Y-184885771D01*
X181791485Y-186314342D02*
X181648628Y-186385771D01*
X181362914Y-186385771D01*
X181220057Y-186314342D01*
X181148628Y-186171485D01*
X181148628Y-185600057D01*
X181220057Y-185457200D01*
X181362914Y-185385771D01*
X181648628Y-185385771D01*
X181791485Y-185457200D01*
X181862914Y-185600057D01*
X181862914Y-185742914D01*
X181148628Y-185885771D01*
X182505771Y-186242914D02*
X182577200Y-186314342D01*
X182505771Y-186385771D01*
X182434342Y-186314342D01*
X182505771Y-186242914D01*
X182505771Y-186385771D01*
X182505771Y-185457200D02*
X182577200Y-185528628D01*
X182505771Y-185600057D01*
X182434342Y-185528628D01*
X182505771Y-185457200D01*
X182505771Y-185600057D01*
X185005771Y-186385771D02*
X185005771Y-184885771D01*
X185005771Y-186314342D02*
X184862914Y-186385771D01*
X184577200Y-186385771D01*
X184434342Y-186314342D01*
X184362914Y-186242914D01*
X184291485Y-186100057D01*
X184291485Y-185671485D01*
X184362914Y-185528628D01*
X184434342Y-185457200D01*
X184577200Y-185385771D01*
X184862914Y-185385771D01*
X185005771Y-185457200D01*
X186362914Y-185385771D02*
X186362914Y-186385771D01*
X185720057Y-185385771D02*
X185720057Y-186171485D01*
X185791485Y-186314342D01*
X185934342Y-186385771D01*
X186148628Y-186385771D01*
X186291485Y-186314342D01*
X186362914Y-186242914D01*
X187720057Y-186385771D02*
X187720057Y-185600057D01*
X187648628Y-185457200D01*
X187505771Y-185385771D01*
X187220057Y-185385771D01*
X187077200Y-185457200D01*
X187720057Y-186314342D02*
X187577200Y-186385771D01*
X187220057Y-186385771D01*
X187077200Y-186314342D01*
X187005771Y-186171485D01*
X187005771Y-186028628D01*
X187077200Y-185885771D01*
X187220057Y-185814342D01*
X187577200Y-185814342D01*
X187720057Y-185742914D01*
X188648628Y-186385771D02*
X188505771Y-186314342D01*
X188434342Y-186171485D01*
X188434342Y-184885771D01*
X188862914Y-186528628D02*
X190005771Y-186528628D01*
X190362914Y-186385771D02*
X190362914Y-184885771D01*
X190362914Y-185457200D02*
X190505771Y-185385771D01*
X190791485Y-185385771D01*
X190934342Y-185457200D01*
X191005771Y-185528628D01*
X191077200Y-185671485D01*
X191077200Y-186100057D01*
X191005771Y-186242914D01*
X190934342Y-186314342D01*
X190791485Y-186385771D01*
X190505771Y-186385771D01*
X190362914Y-186314342D01*
X191934342Y-186385771D02*
X191791485Y-186314342D01*
X191720057Y-186242914D01*
X191648628Y-186100057D01*
X191648628Y-185671485D01*
X191720057Y-185528628D01*
X191791485Y-185457200D01*
X191934342Y-185385771D01*
X192148628Y-185385771D01*
X192291485Y-185457200D01*
X192362914Y-185528628D01*
X192434342Y-185671485D01*
X192434342Y-186100057D01*
X192362914Y-186242914D01*
X192291485Y-186314342D01*
X192148628Y-186385771D01*
X191934342Y-186385771D01*
X193720057Y-186385771D02*
X193720057Y-185600057D01*
X193648628Y-185457200D01*
X193505771Y-185385771D01*
X193220057Y-185385771D01*
X193077200Y-185457200D01*
X193720057Y-186314342D02*
X193577200Y-186385771D01*
X193220057Y-186385771D01*
X193077200Y-186314342D01*
X193005771Y-186171485D01*
X193005771Y-186028628D01*
X193077200Y-185885771D01*
X193220057Y-185814342D01*
X193577200Y-185814342D01*
X193720057Y-185742914D01*
X194434342Y-186385771D02*
X194434342Y-185385771D01*
X194434342Y-185671485D02*
X194505771Y-185528628D01*
X194577200Y-185457200D01*
X194720057Y-185385771D01*
X194862914Y-185385771D01*
X196005771Y-186385771D02*
X196005771Y-184885771D01*
X196005771Y-186314342D02*
X195862914Y-186385771D01*
X195577200Y-186385771D01*
X195434342Y-186314342D01*
X195362914Y-186242914D01*
X195291485Y-186100057D01*
X195291485Y-185671485D01*
X195362914Y-185528628D01*
X195434342Y-185457200D01*
X195577200Y-185385771D01*
X195862914Y-185385771D01*
X196005771Y-185457200D01*
X196362914Y-186528628D02*
X197505771Y-186528628D01*
X198505771Y-186314342D02*
X198362914Y-186385771D01*
X198077200Y-186385771D01*
X197934342Y-186314342D01*
X197862914Y-186242914D01*
X197791485Y-186100057D01*
X197791485Y-185671485D01*
X197862914Y-185528628D01*
X197934342Y-185457200D01*
X198077200Y-185385771D01*
X198362914Y-185385771D01*
X198505771Y-185457200D01*
X199791485Y-186385771D02*
X199791485Y-185600057D01*
X199720057Y-185457200D01*
X199577200Y-185385771D01*
X199291485Y-185385771D01*
X199148628Y-185457200D01*
X199791485Y-186314342D02*
X199648628Y-186385771D01*
X199291485Y-186385771D01*
X199148628Y-186314342D01*
X199077200Y-186171485D01*
X199077200Y-186028628D01*
X199148628Y-185885771D01*
X199291485Y-185814342D01*
X199648628Y-185814342D01*
X199791485Y-185742914D01*
X200505771Y-186385771D02*
X200505771Y-185385771D01*
X200505771Y-185671485D02*
X200577200Y-185528628D01*
X200648628Y-185457200D01*
X200791485Y-185385771D01*
X200934342Y-185385771D01*
X201434342Y-186385771D02*
X201434342Y-185385771D01*
X201434342Y-185671485D02*
X201505771Y-185528628D01*
X201577200Y-185457200D01*
X201720057Y-185385771D01*
X201862914Y-185385771D01*
X202362914Y-186385771D02*
X202362914Y-185385771D01*
X202362914Y-184885771D02*
X202291485Y-184957200D01*
X202362914Y-185028628D01*
X202434342Y-184957200D01*
X202362914Y-184885771D01*
X202362914Y-185028628D01*
X203648628Y-186314342D02*
X203505771Y-186385771D01*
X203220057Y-186385771D01*
X203077200Y-186314342D01*
X203005771Y-186171485D01*
X203005771Y-185600057D01*
X203077200Y-185457200D01*
X203220057Y-185385771D01*
X203505771Y-185385771D01*
X203648628Y-185457200D01*
X203720057Y-185600057D01*
X203720057Y-185742914D01*
X203005771Y-185885771D01*
X204362914Y-186385771D02*
X204362914Y-185385771D01*
X204362914Y-185671485D02*
X204434342Y-185528628D01*
X204505771Y-185457200D01*
X204648628Y-185385771D01*
X204791485Y-185385771D01*
X204934342Y-186528628D02*
X206077200Y-186528628D01*
X206505771Y-186385771D02*
X206791485Y-186385771D01*
X206934342Y-186314342D01*
X207005771Y-186242914D01*
X207148628Y-186028628D01*
X207220057Y-185742914D01*
X207220057Y-185171485D01*
X207148628Y-185028628D01*
X207077200Y-184957200D01*
X206934342Y-184885771D01*
X206648628Y-184885771D01*
X206505771Y-184957200D01*
X206434342Y-185028628D01*
X206362914Y-185171485D01*
X206362914Y-185528628D01*
X206434342Y-185671485D01*
X206505771Y-185742914D01*
X206648628Y-185814342D01*
X206934342Y-185814342D01*
X207077200Y-185742914D01*
X207148628Y-185671485D01*
X207220057Y-185528628D01*
X208148628Y-184885771D02*
X208291485Y-184885771D01*
X208434342Y-184957200D01*
X208505771Y-185028628D01*
X208577200Y-185171485D01*
X208648628Y-185457200D01*
X208648628Y-185814342D01*
X208577200Y-186100057D01*
X208505771Y-186242914D01*
X208434342Y-186314342D01*
X208291485Y-186385771D01*
X208148628Y-186385771D01*
X208005771Y-186314342D01*
X207934342Y-186242914D01*
X207862914Y-186100057D01*
X207791485Y-185814342D01*
X207791485Y-185457200D01*
X207862914Y-185171485D01*
X207934342Y-185028628D01*
X208005771Y-184957200D01*
X208148628Y-184885771D01*
X209291485Y-186242914D02*
X209362914Y-186314342D01*
X209291485Y-186385771D01*
X209220057Y-186314342D01*
X209291485Y-186242914D01*
X209291485Y-186385771D01*
X210005771Y-186385771D02*
X210005771Y-184885771D01*
X210148628Y-185814342D02*
X210577200Y-186385771D01*
X210577200Y-185385771D02*
X210005771Y-185957200D01*
X211220057Y-186385771D02*
X211220057Y-185385771D01*
X211220057Y-184885771D02*
X211148628Y-184957200D01*
X211220057Y-185028628D01*
X211291485Y-184957200D01*
X211220057Y-184885771D01*
X211220057Y-185028628D01*
X212577200Y-186314342D02*
X212434342Y-186385771D01*
X212148628Y-186385771D01*
X212005771Y-186314342D01*
X211934342Y-186242914D01*
X211862914Y-186100057D01*
X211862914Y-185671485D01*
X211934342Y-185528628D01*
X212005771Y-185457200D01*
X212148628Y-185385771D01*
X212434342Y-185385771D01*
X212577200Y-185457200D01*
X213862914Y-186385771D02*
X213862914Y-185600057D01*
X213791485Y-185457200D01*
X213648628Y-185385771D01*
X213362914Y-185385771D01*
X213220057Y-185457200D01*
X213862914Y-186314342D02*
X213720057Y-186385771D01*
X213362914Y-186385771D01*
X213220057Y-186314342D01*
X213148628Y-186171485D01*
X213148628Y-186028628D01*
X213220057Y-185885771D01*
X213362914Y-185814342D01*
X213720057Y-185814342D01*
X213862914Y-185742914D01*
X215220057Y-186385771D02*
X215220057Y-184885771D01*
X215220057Y-186314342D02*
X215077200Y-186385771D01*
X214791485Y-186385771D01*
X214648628Y-186314342D01*
X214577200Y-186242914D01*
X214505771Y-186100057D01*
X214505771Y-185671485D01*
X214577200Y-185528628D01*
X214648628Y-185457200D01*
X214791485Y-185385771D01*
X215077200Y-185385771D01*
X215220057Y-185457200D01*
X215577200Y-186528628D02*
X216720057Y-186528628D01*
X217077200Y-185385771D02*
X217077200Y-186885771D01*
X217077200Y-185457200D02*
X217220057Y-185385771D01*
X217505771Y-185385771D01*
X217648628Y-185457200D01*
X217720057Y-185528628D01*
X217791485Y-185671485D01*
X217791485Y-186100057D01*
X217720057Y-186242914D01*
X217648628Y-186314342D01*
X217505771Y-186385771D01*
X217220057Y-186385771D01*
X217077200Y-186314342D01*
X219077200Y-186314342D02*
X218934342Y-186385771D01*
X218648628Y-186385771D01*
X218505771Y-186314342D01*
X218434342Y-186242914D01*
X218362914Y-186100057D01*
X218362914Y-185671485D01*
X218434342Y-185528628D01*
X218505771Y-185457200D01*
X218648628Y-185385771D01*
X218934342Y-185385771D01*
X219077200Y-185457200D01*
X219720057Y-186385771D02*
X219720057Y-184885771D01*
X219720057Y-185457200D02*
X219862914Y-185385771D01*
X220148628Y-185385771D01*
X220291485Y-185457200D01*
X220362914Y-185528628D01*
X220434342Y-185671485D01*
X220434342Y-186100057D01*
X220362914Y-186242914D01*
X220291485Y-186314342D01*
X220148628Y-186385771D01*
X219862914Y-186385771D01*
X219720057Y-186314342D01*
D10*
D11*
X177002200Y-181507200D02*
X285002200Y-181507200D01*
D10*
D11*
X178362914Y-183614342D02*
X178577200Y-183685771D01*
X178934342Y-183685771D01*
X179077200Y-183614342D01*
X179148628Y-183542914D01*
X179220057Y-183400057D01*
X179220057Y-183257200D01*
X179148628Y-183114342D01*
X179077200Y-183042914D01*
X178934342Y-182971485D01*
X178648628Y-182900057D01*
X178505771Y-182828628D01*
X178434342Y-182757200D01*
X178362914Y-182614342D01*
X178362914Y-182471485D01*
X178434342Y-182328628D01*
X178505771Y-182257200D01*
X178648628Y-182185771D01*
X179005771Y-182185771D01*
X179220057Y-182257200D01*
X179862914Y-183685771D02*
X179862914Y-182185771D01*
X180505771Y-183685771D02*
X180505771Y-182900057D01*
X180434342Y-182757200D01*
X180291485Y-182685771D01*
X180077200Y-182685771D01*
X179934342Y-182757200D01*
X179862914Y-182828628D01*
X181791485Y-183614342D02*
X181648628Y-183685771D01*
X181362914Y-183685771D01*
X181220057Y-183614342D01*
X181148628Y-183471485D01*
X181148628Y-182900057D01*
X181220057Y-182757200D01*
X181362914Y-182685771D01*
X181648628Y-182685771D01*
X181791485Y-182757200D01*
X181862914Y-182900057D01*
X181862914Y-183042914D01*
X181148628Y-183185771D01*
X183077200Y-183614342D02*
X182934342Y-183685771D01*
X182648628Y-183685771D01*
X182505771Y-183614342D01*
X182434342Y-183471485D01*
X182434342Y-182900057D01*
X182505771Y-182757200D01*
X182648628Y-182685771D01*
X182934342Y-182685771D01*
X183077200Y-182757200D01*
X183148628Y-182900057D01*
X183148628Y-183042914D01*
X182434342Y-183185771D01*
X183577200Y-182685771D02*
X184148628Y-182685771D01*
X183791485Y-182185771D02*
X183791485Y-183471485D01*
X183862914Y-183614342D01*
X184005771Y-183685771D01*
X184148628Y-183685771D01*
X184648628Y-183542914D02*
X184720057Y-183614342D01*
X184648628Y-183685771D01*
X184577200Y-183614342D01*
X184648628Y-183542914D01*
X184648628Y-183685771D01*
X184648628Y-182757200D02*
X184720057Y-182828628D01*
X184648628Y-182900057D01*
X184577200Y-182828628D01*
X184648628Y-182757200D01*
X184648628Y-182900057D01*
D10*
D11*
X197002200Y-191507200D02*
X197002200Y-194507200D01*
D10*
D11*
X261002200Y-191507200D02*
X261002200Y-198007200D01*
X153191095Y-94448761D02*
X153048238Y-94496380D01*
X152810142Y-94496380D01*
X152714904Y-94448761D01*
X152667285Y-94401142D01*
X152619666Y-94305904D01*
X152619666Y-94210666D01*
X152667285Y-94115428D01*
X152714904Y-94067809D01*
X152810142Y-94020190D01*
X153000619Y-93972571D01*
X153095857Y-93924952D01*
X153143476Y-93877333D01*
X153191095Y-93782095D01*
X153191095Y-93686857D01*
X153143476Y-93591619D01*
X153095857Y-93544000D01*
X153000619Y-93496380D01*
X152762523Y-93496380D01*
X152619666Y-93544000D01*
X151810142Y-94448761D02*
X151905380Y-94496380D01*
X152095857Y-94496380D01*
X152191095Y-94448761D01*
X152238714Y-94353523D01*
X152238714Y-93972571D01*
X152191095Y-93877333D01*
X152095857Y-93829714D01*
X151905380Y-93829714D01*
X151810142Y-93877333D01*
X151762523Y-93972571D01*
X151762523Y-94067809D01*
X152238714Y-94163047D01*
X151333952Y-93829714D02*
X151333952Y-94496380D01*
X151333952Y-93924952D02*
X151286333Y-93877333D01*
X151191095Y-93829714D01*
X151048238Y-93829714D01*
X150953000Y-93877333D01*
X150905380Y-93972571D01*
X150905380Y-94496380D01*
X150476809Y-94448761D02*
X150381571Y-94496380D01*
X150191095Y-94496380D01*
X150095857Y-94448761D01*
X150048238Y-94353523D01*
X150048238Y-94305904D01*
X150095857Y-94210666D01*
X150191095Y-94163047D01*
X150333952Y-94163047D01*
X150429190Y-94115428D01*
X150476809Y-94020190D01*
X150476809Y-93972571D01*
X150429190Y-93877333D01*
X150333952Y-93829714D01*
X150191095Y-93829714D01*
X150095857Y-93877333D01*
X149476809Y-94496380D02*
X149572047Y-94448761D01*
X149619666Y-94401142D01*
X149667285Y-94305904D01*
X149667285Y-94020190D01*
X149619666Y-93924952D01*
X149572047Y-93877333D01*
X149476809Y-93829714D01*
X149333952Y-93829714D01*
X149238714Y-93877333D01*
X149191095Y-93924952D01*
X149143476Y-94020190D01*
X149143476Y-94305904D01*
X149191095Y-94401142D01*
X149238714Y-94448761D01*
X149333952Y-94496380D01*
X149476809Y-94496380D01*
X148714904Y-94496380D02*
X148714904Y-93829714D01*
X148714904Y-94020190D02*
X148667285Y-93924952D01*
X148619666Y-93877333D01*
X148524428Y-93829714D01*
X148429190Y-93829714D01*
X147429190Y-93829714D02*
X147238714Y-94496380D01*
X147048238Y-94020190D01*
X146857761Y-94496380D01*
X146667285Y-93829714D01*
X146286333Y-94496380D02*
X146286333Y-93829714D01*
X146286333Y-93496380D02*
X146333952Y-93544000D01*
X146286333Y-93591619D01*
X146238714Y-93544000D01*
X146286333Y-93496380D01*
X146286333Y-93591619D01*
X145810142Y-94496380D02*
X145810142Y-93829714D01*
X145810142Y-94020190D02*
X145762523Y-93924952D01*
X145714904Y-93877333D01*
X145619666Y-93829714D01*
X145524428Y-93829714D01*
X145191095Y-94496380D02*
X145191095Y-93829714D01*
X145191095Y-93496380D02*
X145238714Y-93544000D01*
X145191095Y-93591619D01*
X145143476Y-93544000D01*
X145191095Y-93496380D01*
X145191095Y-93591619D01*
X144714904Y-93829714D02*
X144714904Y-94496380D01*
X144714904Y-93924952D02*
X144667285Y-93877333D01*
X144572047Y-93829714D01*
X144429190Y-93829714D01*
X144333952Y-93877333D01*
X144286333Y-93972571D01*
X144286333Y-94496380D01*
X143381571Y-93829714D02*
X143381571Y-94639238D01*
X143429190Y-94734476D01*
X143476809Y-94782095D01*
X143572047Y-94829714D01*
X143714904Y-94829714D01*
X143810142Y-94782095D01*
X143381571Y-94448761D02*
X143476809Y-94496380D01*
X143667285Y-94496380D01*
X143762523Y-94448761D01*
X143810142Y-94401142D01*
X143857761Y-94305904D01*
X143857761Y-94020190D01*
X143810142Y-93924952D01*
X143762523Y-93877333D01*
X143667285Y-93829714D01*
X143476809Y-93829714D01*
X143381571Y-93877333D01*
X141714904Y-94448761D02*
X141810142Y-94496380D01*
X142000619Y-94496380D01*
X142095857Y-94448761D01*
X142143476Y-94401142D01*
X142191095Y-94305904D01*
X142191095Y-94020190D01*
X142143476Y-93924952D01*
X142095857Y-93877333D01*
X142000619Y-93829714D01*
X141810142Y-93829714D01*
X141714904Y-93877333D01*
X141143476Y-94496380D02*
X141238714Y-94448761D01*
X141286333Y-94401142D01*
X141333952Y-94305904D01*
X141333952Y-94020190D01*
X141286333Y-93924952D01*
X141238714Y-93877333D01*
X141143476Y-93829714D01*
X141000619Y-93829714D01*
X140905380Y-93877333D01*
X140857761Y-93924952D01*
X140810142Y-94020190D01*
X140810142Y-94305904D01*
X140857761Y-94401142D01*
X140905380Y-94448761D01*
X141000619Y-94496380D01*
X141143476Y-94496380D01*
X140238714Y-94496380D02*
X140333952Y-94448761D01*
X140381571Y-94353523D01*
X140381571Y-93496380D01*
X139714904Y-94496380D02*
X139810142Y-94448761D01*
X139857761Y-94401142D01*
X139905380Y-94305904D01*
X139905380Y-94020190D01*
X139857761Y-93924952D01*
X139810142Y-93877333D01*
X139714904Y-93829714D01*
X139572047Y-93829714D01*
X139476809Y-93877333D01*
X139429190Y-93924952D01*
X139381571Y-94020190D01*
X139381571Y-94305904D01*
X139429190Y-94401142D01*
X139476809Y-94448761D01*
X139572047Y-94496380D01*
X139714904Y-94496380D01*
X138953000Y-94496380D02*
X138953000Y-93829714D01*
X138953000Y-94020190D02*
X138905380Y-93924952D01*
X138857761Y-93877333D01*
X138762523Y-93829714D01*
X138667285Y-93829714D01*
X138381571Y-94448761D02*
X138286333Y-94496380D01*
X138095857Y-94496380D01*
X138000619Y-94448761D01*
X137953000Y-94353523D01*
X137953000Y-94305904D01*
X138000619Y-94210666D01*
X138095857Y-94163047D01*
X138238714Y-94163047D01*
X138333952Y-94115428D01*
X138381571Y-94020190D01*
X138381571Y-93972571D01*
X138333952Y-93877333D01*
X138238714Y-93829714D01*
X138095857Y-93829714D01*
X138000619Y-93877333D01*
X136333952Y-94496380D02*
X136333952Y-93972571D01*
X136381571Y-93877333D01*
X136476809Y-93829714D01*
X136667285Y-93829714D01*
X136762523Y-93877333D01*
X136333952Y-94448761D02*
X136429190Y-94496380D01*
X136667285Y-94496380D01*
X136762523Y-94448761D01*
X136810142Y-94353523D01*
X136810142Y-94258285D01*
X136762523Y-94163047D01*
X136667285Y-94115428D01*
X136429190Y-94115428D01*
X136333952Y-94067809D01*
X135857761Y-94496380D02*
X135857761Y-93829714D01*
X135857761Y-94020190D02*
X135810142Y-93924952D01*
X135762523Y-93877333D01*
X135667285Y-93829714D01*
X135572047Y-93829714D01*
X134857761Y-94448761D02*
X134953000Y-94496380D01*
X135143476Y-94496380D01*
X135238714Y-94448761D01*
X135286333Y-94353523D01*
X135286333Y-93972571D01*
X135238714Y-93877333D01*
X135143476Y-93829714D01*
X134953000Y-93829714D01*
X134857761Y-93877333D01*
X134810142Y-93972571D01*
X134810142Y-94067809D01*
X135286333Y-94163047D01*
X133762523Y-93829714D02*
X133381571Y-93829714D01*
X133619666Y-93496380D02*
X133619666Y-94353523D01*
X133572047Y-94448761D01*
X133476809Y-94496380D01*
X133381571Y-94496380D01*
X133048238Y-94496380D02*
X133048238Y-93496380D01*
X132619666Y-94496380D02*
X132619666Y-93972571D01*
X132667285Y-93877333D01*
X132762523Y-93829714D01*
X132905380Y-93829714D01*
X133000619Y-93877333D01*
X133048238Y-93924952D01*
X131762523Y-94448761D02*
X131857761Y-94496380D01*
X132048238Y-94496380D01*
X132143476Y-94448761D01*
X132191095Y-94353523D01*
X132191095Y-93972571D01*
X132143476Y-93877333D01*
X132048238Y-93829714D01*
X131857761Y-93829714D01*
X131762523Y-93877333D01*
X131714904Y-93972571D01*
X131714904Y-94067809D01*
X132191095Y-94163047D01*
X130572047Y-94448761D02*
X130476809Y-94496380D01*
X130286333Y-94496380D01*
X130191095Y-94448761D01*
X130143476Y-94353523D01*
X130143476Y-94305904D01*
X130191095Y-94210666D01*
X130286333Y-94163047D01*
X130429190Y-94163047D01*
X130524428Y-94115428D01*
X130572047Y-94020190D01*
X130572047Y-93972571D01*
X130524428Y-93877333D01*
X130429190Y-93829714D01*
X130286333Y-93829714D01*
X130191095Y-93877333D01*
X129286333Y-94496380D02*
X129286333Y-93972571D01*
X129333952Y-93877333D01*
X129429190Y-93829714D01*
X129619666Y-93829714D01*
X129714904Y-93877333D01*
X129286333Y-94448761D02*
X129381571Y-94496380D01*
X129619666Y-94496380D01*
X129714904Y-94448761D01*
X129762523Y-94353523D01*
X129762523Y-94258285D01*
X129714904Y-94163047D01*
X129619666Y-94115428D01*
X129381571Y-94115428D01*
X129286333Y-94067809D01*
X128810142Y-94496380D02*
X128810142Y-93829714D01*
X128810142Y-93924952D02*
X128762523Y-93877333D01*
X128667285Y-93829714D01*
X128524428Y-93829714D01*
X128429190Y-93877333D01*
X128381571Y-93972571D01*
X128381571Y-94496380D01*
X128381571Y-93972571D02*
X128333952Y-93877333D01*
X128238714Y-93829714D01*
X128095857Y-93829714D01*
X128000619Y-93877333D01*
X127953000Y-93972571D01*
X127953000Y-94496380D01*
X127095857Y-94448761D02*
X127191095Y-94496380D01*
X127381571Y-94496380D01*
X127476809Y-94448761D01*
X127524428Y-94353523D01*
X127524428Y-93972571D01*
X127476809Y-93877333D01*
X127381571Y-93829714D01*
X127191095Y-93829714D01*
X127095857Y-93877333D01*
X127048238Y-93972571D01*
X127048238Y-94067809D01*
X127524428Y-94163047D01*
X126000619Y-93829714D02*
X125619666Y-93829714D01*
X125857761Y-94496380D02*
X125857761Y-93639238D01*
X125810142Y-93544000D01*
X125714904Y-93496380D01*
X125619666Y-93496380D01*
X125143476Y-94496380D02*
X125238714Y-94448761D01*
X125286333Y-94401142D01*
X125333952Y-94305904D01*
X125333952Y-94020190D01*
X125286333Y-93924952D01*
X125238714Y-93877333D01*
X125143476Y-93829714D01*
X125000619Y-93829714D01*
X124905380Y-93877333D01*
X124857761Y-93924952D01*
X124810142Y-94020190D01*
X124810142Y-94305904D01*
X124857761Y-94401142D01*
X124905380Y-94448761D01*
X125000619Y-94496380D01*
X125143476Y-94496380D01*
X124381571Y-94496380D02*
X124381571Y-93829714D01*
X124381571Y-94020190D02*
X124333952Y-93924952D01*
X124286333Y-93877333D01*
X124191095Y-93829714D01*
X124095857Y-93829714D01*
X123000619Y-94496380D02*
X123000619Y-93496380D01*
X123000619Y-93877333D02*
X122905380Y-93829714D01*
X122714904Y-93829714D01*
X122619666Y-93877333D01*
X122572047Y-93924952D01*
X122524428Y-94020190D01*
X122524428Y-94305904D01*
X122572047Y-94401142D01*
X122619666Y-94448761D01*
X122714904Y-94496380D01*
X122905380Y-94496380D01*
X123000619Y-94448761D01*
X121953000Y-94496380D02*
X122048238Y-94448761D01*
X122095857Y-94401142D01*
X122143476Y-94305904D01*
X122143476Y-94020190D01*
X122095857Y-93924952D01*
X122048238Y-93877333D01*
X121953000Y-93829714D01*
X121810142Y-93829714D01*
X121714904Y-93877333D01*
X121667285Y-93924952D01*
X121619666Y-94020190D01*
X121619666Y-94305904D01*
X121667285Y-94401142D01*
X121714904Y-94448761D01*
X121810142Y-94496380D01*
X121953000Y-94496380D01*
X121333952Y-93829714D02*
X120953000Y-93829714D01*
X121191095Y-93496380D02*
X121191095Y-94353523D01*
X121143476Y-94448761D01*
X121048238Y-94496380D01*
X120953000Y-94496380D01*
X120619666Y-94496380D02*
X120619666Y-93496380D01*
X120191095Y-94496380D02*
X120191095Y-93972571D01*
X120238714Y-93877333D01*
X120333952Y-93829714D01*
X120476809Y-93829714D01*
X120572047Y-93877333D01*
X120619666Y-93924952D01*
X118524428Y-94448761D02*
X118619666Y-94496380D01*
X118810142Y-94496380D01*
X118905380Y-94448761D01*
X118953000Y-94401142D01*
X119000619Y-94305904D01*
X119000619Y-94020190D01*
X118953000Y-93924952D01*
X118905380Y-93877333D01*
X118810142Y-93829714D01*
X118619666Y-93829714D01*
X118524428Y-93877333D01*
X117953000Y-94496380D02*
X118048238Y-94448761D01*
X118095857Y-94401142D01*
X118143476Y-94305904D01*
X118143476Y-94020190D01*
X118095857Y-93924952D01*
X118048238Y-93877333D01*
X117953000Y-93829714D01*
X117810142Y-93829714D01*
X117714904Y-93877333D01*
X117667285Y-93924952D01*
X117619666Y-94020190D01*
X117619666Y-94305904D01*
X117667285Y-94401142D01*
X117714904Y-94448761D01*
X117810142Y-94496380D01*
X117953000Y-94496380D01*
X117191095Y-93829714D02*
X117191095Y-94496380D01*
X117191095Y-93924952D02*
X117143476Y-93877333D01*
X117048238Y-93829714D01*
X116905380Y-93829714D01*
X116810142Y-93877333D01*
X116762523Y-93972571D01*
X116762523Y-94496380D01*
X116286333Y-93829714D02*
X116286333Y-94496380D01*
X116286333Y-93924952D02*
X116238714Y-93877333D01*
X116143476Y-93829714D01*
X116000619Y-93829714D01*
X115905380Y-93877333D01*
X115857761Y-93972571D01*
X115857761Y-94496380D01*
X115000619Y-94448761D02*
X115095857Y-94496380D01*
X115286333Y-94496380D01*
X115381571Y-94448761D01*
X115429190Y-94353523D01*
X115429190Y-93972571D01*
X115381571Y-93877333D01*
X115286333Y-93829714D01*
X115095857Y-93829714D01*
X115000619Y-93877333D01*
X114953000Y-93972571D01*
X114953000Y-94067809D01*
X115429190Y-94163047D01*
X114095857Y-94448761D02*
X114191095Y-94496380D01*
X114381571Y-94496380D01*
X114476809Y-94448761D01*
X114524428Y-94401142D01*
X114572047Y-94305904D01*
X114572047Y-94020190D01*
X114524428Y-93924952D01*
X114476809Y-93877333D01*
X114381571Y-93829714D01*
X114191095Y-93829714D01*
X114095857Y-93877333D01*
X113810142Y-93829714D02*
X113429190Y-93829714D01*
X113667285Y-93496380D02*
X113667285Y-94353523D01*
X113619666Y-94448761D01*
X113524428Y-94496380D01*
X113429190Y-94496380D01*
X112953000Y-94496380D02*
X113048238Y-94448761D01*
X113095857Y-94401142D01*
X113143476Y-94305904D01*
X113143476Y-94020190D01*
X113095857Y-93924952D01*
X113048238Y-93877333D01*
X112953000Y-93829714D01*
X112810142Y-93829714D01*
X112714904Y-93877333D01*
X112667285Y-93924952D01*
X112619666Y-94020190D01*
X112619666Y-94305904D01*
X112667285Y-94401142D01*
X112714904Y-94448761D01*
X112810142Y-94496380D01*
X112953000Y-94496380D01*
X112191095Y-94496380D02*
X112191095Y-93829714D01*
X112191095Y-94020190D02*
X112143476Y-93924952D01*
X112095857Y-93877333D01*
X112000619Y-93829714D01*
X111905380Y-93829714D01*
X111619666Y-94448761D02*
X111524428Y-94496380D01*
X111333952Y-94496380D01*
X111238714Y-94448761D01*
X111191095Y-94353523D01*
X111191095Y-94305904D01*
X111238714Y-94210666D01*
X111333952Y-94163047D01*
X111476809Y-94163047D01*
X111572047Y-94115428D01*
X111619666Y-94020190D01*
X111619666Y-93972571D01*
X111572047Y-93877333D01*
X111476809Y-93829714D01*
X111333952Y-93829714D01*
X111238714Y-93877333D01*
X110762523Y-94401142D02*
X110714904Y-94448761D01*
X110762523Y-94496380D01*
X110810142Y-94448761D01*
X110762523Y-94401142D01*
X110762523Y-94496380D01*
X156691095Y-95146380D02*
X156500619Y-95146380D01*
X156405380Y-95194000D01*
X156310142Y-95289238D01*
X156262523Y-95479714D01*
X156262523Y-95813047D01*
X156310142Y-96003523D01*
X156405380Y-96098761D01*
X156500619Y-96146380D01*
X156691095Y-96146380D01*
X156786333Y-96098761D01*
X156881571Y-96003523D01*
X156929190Y-95813047D01*
X156929190Y-95479714D01*
X156881571Y-95289238D01*
X156786333Y-95194000D01*
X156691095Y-95146380D01*
X155833952Y-95479714D02*
X155833952Y-96146380D01*
X155833952Y-95574952D02*
X155786333Y-95527333D01*
X155691095Y-95479714D01*
X155548238Y-95479714D01*
X155453000Y-95527333D01*
X155405380Y-95622571D01*
X155405380Y-96146380D01*
X154548238Y-96098761D02*
X154643476Y-96146380D01*
X154833952Y-96146380D01*
X154929190Y-96098761D01*
X154976809Y-96003523D01*
X154976809Y-95622571D01*
X154929190Y-95527333D01*
X154833952Y-95479714D01*
X154643476Y-95479714D01*
X154548238Y-95527333D01*
X154500619Y-95622571D01*
X154500619Y-95717809D01*
X154976809Y-95813047D01*
X153357761Y-96098761D02*
X153262523Y-96146380D01*
X153072047Y-96146380D01*
X152976809Y-96098761D01*
X152929190Y-96003523D01*
X152929190Y-95955904D01*
X152976809Y-95860666D01*
X153072047Y-95813047D01*
X153214904Y-95813047D01*
X153310142Y-95765428D01*
X153357761Y-95670190D01*
X153357761Y-95622571D01*
X153310142Y-95527333D01*
X153214904Y-95479714D01*
X153072047Y-95479714D01*
X152976809Y-95527333D01*
X152119666Y-96098761D02*
X152214904Y-96146380D01*
X152405380Y-96146380D01*
X152500619Y-96098761D01*
X152548238Y-96003523D01*
X152548238Y-95622571D01*
X152500619Y-95527333D01*
X152405380Y-95479714D01*
X152214904Y-95479714D01*
X152119666Y-95527333D01*
X152072047Y-95622571D01*
X152072047Y-95717809D01*
X152548238Y-95813047D01*
X151643476Y-95479714D02*
X151643476Y-96146380D01*
X151643476Y-95574952D02*
X151595857Y-95527333D01*
X151500619Y-95479714D01*
X151357761Y-95479714D01*
X151262523Y-95527333D01*
X151214904Y-95622571D01*
X151214904Y-96146380D01*
X150786333Y-96098761D02*
X150691095Y-96146380D01*
X150500619Y-96146380D01*
X150405380Y-96098761D01*
X150357761Y-96003523D01*
X150357761Y-95955904D01*
X150405380Y-95860666D01*
X150500619Y-95813047D01*
X150643476Y-95813047D01*
X150738714Y-95765428D01*
X150786333Y-95670190D01*
X150786333Y-95622571D01*
X150738714Y-95527333D01*
X150643476Y-95479714D01*
X150500619Y-95479714D01*
X150405380Y-95527333D01*
X149786333Y-96146380D02*
X149881571Y-96098761D01*
X149929190Y-96051142D01*
X149976809Y-95955904D01*
X149976809Y-95670190D01*
X149929190Y-95574952D01*
X149881571Y-95527333D01*
X149786333Y-95479714D01*
X149643476Y-95479714D01*
X149548238Y-95527333D01*
X149500619Y-95574952D01*
X149453000Y-95670190D01*
X149453000Y-95955904D01*
X149500619Y-96051142D01*
X149548238Y-96098761D01*
X149643476Y-96146380D01*
X149786333Y-96146380D01*
X149024428Y-96146380D02*
X149024428Y-95479714D01*
X149024428Y-95670190D02*
X148976809Y-95574952D01*
X148929190Y-95527333D01*
X148833952Y-95479714D01*
X148738714Y-95479714D01*
X147643476Y-95479714D02*
X147643476Y-96479714D01*
X147643476Y-95527333D02*
X147548238Y-95479714D01*
X147357761Y-95479714D01*
X147262523Y-95527333D01*
X147214904Y-95574952D01*
X147167285Y-95670190D01*
X147167285Y-95955904D01*
X147214904Y-96051142D01*
X147262523Y-96098761D01*
X147357761Y-96146380D01*
X147548238Y-96146380D01*
X147643476Y-96098761D01*
X146357761Y-96098761D02*
X146453000Y-96146380D01*
X146643476Y-96146380D01*
X146738714Y-96098761D01*
X146786333Y-96003523D01*
X146786333Y-95622571D01*
X146738714Y-95527333D01*
X146643476Y-95479714D01*
X146453000Y-95479714D01*
X146357761Y-95527333D01*
X146310142Y-95622571D01*
X146310142Y-95717809D01*
X146786333Y-95813047D01*
X145881571Y-96146380D02*
X145881571Y-95479714D01*
X145881571Y-95670190D02*
X145833952Y-95574952D01*
X145786333Y-95527333D01*
X145691095Y-95479714D01*
X145595857Y-95479714D01*
X144500619Y-96146380D02*
X144500619Y-95479714D01*
X144500619Y-95670190D02*
X144453000Y-95574952D01*
X144405380Y-95527333D01*
X144310142Y-95479714D01*
X144214904Y-95479714D01*
X143738714Y-96146380D02*
X143833952Y-96098761D01*
X143881571Y-96051142D01*
X143929190Y-95955904D01*
X143929190Y-95670190D01*
X143881571Y-95574952D01*
X143833952Y-95527333D01*
X143738714Y-95479714D01*
X143595857Y-95479714D01*
X143500619Y-95527333D01*
X143453000Y-95574952D01*
X143405380Y-95670190D01*
X143405380Y-95955904D01*
X143453000Y-96051142D01*
X143500619Y-96098761D01*
X143595857Y-96146380D01*
X143738714Y-96146380D01*
X143072047Y-95479714D02*
X142881571Y-96146380D01*
X142691095Y-95670190D01*
X142500619Y-96146380D01*
X142310142Y-95479714D01*
X141929190Y-96051142D02*
X141881571Y-96098761D01*
X141929190Y-96146380D01*
X141976809Y-96098761D01*
X141929190Y-96051142D01*
X141929190Y-96146380D01*
X140691095Y-95146380D02*
X140691095Y-95955904D01*
X140643476Y-96051142D01*
X140595857Y-96098761D01*
X140500619Y-96146380D01*
X140310142Y-96146380D01*
X140214904Y-96098761D01*
X140167285Y-96051142D01*
X140119666Y-95955904D01*
X140119666Y-95146380D01*
X139691095Y-96098761D02*
X139595857Y-96146380D01*
X139405380Y-96146380D01*
X139310142Y-96098761D01*
X139262523Y-96003523D01*
X139262523Y-95955904D01*
X139310142Y-95860666D01*
X139405380Y-95813047D01*
X139548238Y-95813047D01*
X139643476Y-95765428D01*
X139691095Y-95670190D01*
X139691095Y-95622571D01*
X139643476Y-95527333D01*
X139548238Y-95479714D01*
X139405380Y-95479714D01*
X139310142Y-95527333D01*
X138453000Y-96098761D02*
X138548238Y-96146380D01*
X138738714Y-96146380D01*
X138833952Y-96098761D01*
X138881571Y-96003523D01*
X138881571Y-95622571D01*
X138833952Y-95527333D01*
X138738714Y-95479714D01*
X138548238Y-95479714D01*
X138453000Y-95527333D01*
X138405380Y-95622571D01*
X138405380Y-95717809D01*
X138881571Y-95813047D01*
X136786333Y-95479714D02*
X136786333Y-96146380D01*
X137214904Y-95479714D02*
X137214904Y-96003523D01*
X137167285Y-96098761D01*
X137072047Y-96146380D01*
X136929190Y-96146380D01*
X136833952Y-96098761D01*
X136786333Y-96051142D01*
X136310142Y-95479714D02*
X136310142Y-96146380D01*
X136310142Y-95574952D02*
X136262523Y-95527333D01*
X136167285Y-95479714D01*
X136024428Y-95479714D01*
X135929190Y-95527333D01*
X135881571Y-95622571D01*
X135881571Y-96146380D01*
X135453000Y-96098761D02*
X135357761Y-96146380D01*
X135167285Y-96146380D01*
X135072047Y-96098761D01*
X135024428Y-96003523D01*
X135024428Y-95955904D01*
X135072047Y-95860666D01*
X135167285Y-95813047D01*
X135310142Y-95813047D01*
X135405380Y-95765428D01*
X135453000Y-95670190D01*
X135453000Y-95622571D01*
X135405380Y-95527333D01*
X135310142Y-95479714D01*
X135167285Y-95479714D01*
X135072047Y-95527333D01*
X134595857Y-96146380D02*
X134595857Y-95146380D01*
X134167285Y-96146380D02*
X134167285Y-95622571D01*
X134214904Y-95527333D01*
X134310142Y-95479714D01*
X134453000Y-95479714D01*
X134548238Y-95527333D01*
X134595857Y-95574952D01*
X133691095Y-96146380D02*
X133691095Y-95479714D01*
X133691095Y-95146380D02*
X133738714Y-95194000D01*
X133691095Y-95241619D01*
X133643476Y-95194000D01*
X133691095Y-95146380D01*
X133691095Y-95241619D01*
X132833952Y-96098761D02*
X132929190Y-96146380D01*
X133119666Y-96146380D01*
X133214904Y-96098761D01*
X133262523Y-96003523D01*
X133262523Y-95622571D01*
X133214904Y-95527333D01*
X133119666Y-95479714D01*
X132929190Y-95479714D01*
X132833952Y-95527333D01*
X132786333Y-95622571D01*
X132786333Y-95717809D01*
X133262523Y-95813047D01*
X132214904Y-96146380D02*
X132310142Y-96098761D01*
X132357761Y-96003523D01*
X132357761Y-95146380D01*
X131405380Y-96146380D02*
X131405380Y-95146380D01*
X131405380Y-96098761D02*
X131500619Y-96146380D01*
X131691095Y-96146380D01*
X131786333Y-96098761D01*
X131833952Y-96051142D01*
X131881571Y-95955904D01*
X131881571Y-95670190D01*
X131833952Y-95574952D01*
X131786333Y-95527333D01*
X131691095Y-95479714D01*
X131500619Y-95479714D01*
X131405380Y-95527333D01*
X130548238Y-96098761D02*
X130643476Y-96146380D01*
X130833952Y-96146380D01*
X130929190Y-96098761D01*
X130976809Y-96003523D01*
X130976809Y-95622571D01*
X130929190Y-95527333D01*
X130833952Y-95479714D01*
X130643476Y-95479714D01*
X130548238Y-95527333D01*
X130500619Y-95622571D01*
X130500619Y-95717809D01*
X130976809Y-95813047D01*
X129643476Y-96146380D02*
X129643476Y-95146380D01*
X129643476Y-96098761D02*
X129738714Y-96146380D01*
X129929190Y-96146380D01*
X130024428Y-96098761D01*
X130072047Y-96051142D01*
X130119666Y-95955904D01*
X130119666Y-95670190D01*
X130072047Y-95574952D01*
X130024428Y-95527333D01*
X129929190Y-95479714D01*
X129738714Y-95479714D01*
X129643476Y-95527333D01*
X128548238Y-95479714D02*
X128167285Y-95479714D01*
X128405380Y-95146380D02*
X128405380Y-96003523D01*
X128357761Y-96098761D01*
X128262523Y-96146380D01*
X128167285Y-96146380D01*
X127929190Y-95479714D02*
X127738714Y-96146380D01*
X127548238Y-95670190D01*
X127357761Y-96146380D01*
X127167285Y-95479714D01*
X126786333Y-96146380D02*
X126786333Y-95479714D01*
X126786333Y-95146380D02*
X126833952Y-95194000D01*
X126786333Y-95241619D01*
X126738714Y-95194000D01*
X126786333Y-95146380D01*
X126786333Y-95241619D01*
X126357761Y-96098761D02*
X126262523Y-96146380D01*
X126072047Y-96146380D01*
X125976809Y-96098761D01*
X125929190Y-96003523D01*
X125929190Y-95955904D01*
X125976809Y-95860666D01*
X126072047Y-95813047D01*
X126214904Y-95813047D01*
X126310142Y-95765428D01*
X126357761Y-95670190D01*
X126357761Y-95622571D01*
X126310142Y-95527333D01*
X126214904Y-95479714D01*
X126072047Y-95479714D01*
X125976809Y-95527333D01*
X125643476Y-95479714D02*
X125262523Y-95479714D01*
X125500619Y-95146380D02*
X125500619Y-96003523D01*
X125453000Y-96098761D01*
X125357761Y-96146380D01*
X125262523Y-96146380D01*
X124548238Y-96098761D02*
X124643476Y-96146380D01*
X124833952Y-96146380D01*
X124929190Y-96098761D01*
X124976809Y-96003523D01*
X124976809Y-95622571D01*
X124929190Y-95527333D01*
X124833952Y-95479714D01*
X124643476Y-95479714D01*
X124548238Y-95527333D01*
X124500619Y-95622571D01*
X124500619Y-95717809D01*
X124976809Y-95813047D01*
X123643476Y-96146380D02*
X123643476Y-95146380D01*
X123643476Y-96098761D02*
X123738714Y-96146380D01*
X123929190Y-96146380D01*
X124024428Y-96098761D01*
X124072047Y-96051142D01*
X124119666Y-95955904D01*
X124119666Y-95670190D01*
X124072047Y-95574952D01*
X124024428Y-95527333D01*
X123929190Y-95479714D01*
X123738714Y-95479714D01*
X123643476Y-95527333D01*
X122405380Y-95479714D02*
X122405380Y-96479714D01*
X122405380Y-95527333D02*
X122310142Y-95479714D01*
X122119666Y-95479714D01*
X122024428Y-95527333D01*
X121976809Y-95574952D01*
X121929190Y-95670190D01*
X121929190Y-95955904D01*
X121976809Y-96051142D01*
X122024428Y-96098761D01*
X122119666Y-96146380D01*
X122310142Y-96146380D01*
X122405380Y-96098761D01*
X121072047Y-96146380D02*
X121072047Y-95622571D01*
X121119666Y-95527333D01*
X121214904Y-95479714D01*
X121405380Y-95479714D01*
X121500619Y-95527333D01*
X121072047Y-96098761D02*
X121167285Y-96146380D01*
X121405380Y-96146380D01*
X121500619Y-96098761D01*
X121548238Y-96003523D01*
X121548238Y-95908285D01*
X121500619Y-95813047D01*
X121405380Y-95765428D01*
X121167285Y-95765428D01*
X121072047Y-95717809D01*
X120595857Y-96146380D02*
X120595857Y-95479714D01*
X120595857Y-95146380D02*
X120643476Y-95194000D01*
X120595857Y-95241619D01*
X120548238Y-95194000D01*
X120595857Y-95146380D01*
X120595857Y-95241619D01*
X120119666Y-96146380D02*
X120119666Y-95479714D01*
X120119666Y-95670190D02*
X120072047Y-95574952D01*
X120024428Y-95527333D01*
X119929190Y-95479714D01*
X119833952Y-95479714D01*
X118881571Y-95479714D02*
X118500619Y-95479714D01*
X118738714Y-96146380D02*
X118738714Y-95289238D01*
X118691095Y-95194000D01*
X118595857Y-95146380D01*
X118500619Y-95146380D01*
X118024428Y-96146380D02*
X118119666Y-96098761D01*
X118167285Y-96051142D01*
X118214904Y-95955904D01*
X118214904Y-95670190D01*
X118167285Y-95574952D01*
X118119666Y-95527333D01*
X118024428Y-95479714D01*
X117881571Y-95479714D01*
X117786333Y-95527333D01*
X117738714Y-95574952D01*
X117691095Y-95670190D01*
X117691095Y-95955904D01*
X117738714Y-96051142D01*
X117786333Y-96098761D01*
X117881571Y-96146380D01*
X118024428Y-96146380D01*
X117262523Y-96146380D02*
X117262523Y-95479714D01*
X117262523Y-95670190D02*
X117214904Y-95574952D01*
X117167285Y-95527333D01*
X117072047Y-95479714D01*
X116976809Y-95479714D01*
X115310142Y-96051142D02*
X115357761Y-96098761D01*
X115500619Y-96146380D01*
X115595857Y-96146380D01*
X115738714Y-96098761D01*
X115833952Y-96003523D01*
X115881571Y-95908285D01*
X115929190Y-95717809D01*
X115929190Y-95574952D01*
X115881571Y-95384476D01*
X115833952Y-95289238D01*
X115738714Y-95194000D01*
X115595857Y-95146380D01*
X115500619Y-95146380D01*
X115357761Y-95194000D01*
X115310142Y-95241619D01*
X114929190Y-95860666D02*
X114453000Y-95860666D01*
X115024428Y-96146380D02*
X114691095Y-95146380D01*
X114357761Y-96146380D01*
X114024428Y-96146380D02*
X114024428Y-95146380D01*
X113453000Y-96146380D01*
X113453000Y-95146380D01*
X112357761Y-95479714D02*
X111976809Y-95479714D01*
X112214904Y-95146380D02*
X112214904Y-96003523D01*
X112167285Y-96098761D01*
X112072047Y-96146380D01*
X111976809Y-96146380D01*
X111500619Y-96146380D02*
X111595857Y-96098761D01*
X111643476Y-96051142D01*
X111691095Y-95955904D01*
X111691095Y-95670190D01*
X111643476Y-95574952D01*
X111595857Y-95527333D01*
X111500619Y-95479714D01*
X111357761Y-95479714D01*
X111262523Y-95527333D01*
X111214904Y-95574952D01*
X111167285Y-95670190D01*
X111167285Y-95955904D01*
X111214904Y-96051142D01*
X111262523Y-96098761D01*
X111357761Y-96146380D01*
X111500619Y-96146380D01*
X109976809Y-95622571D02*
X109643476Y-95622571D01*
X109500619Y-96146380D02*
X109976809Y-96146380D01*
X109976809Y-95146380D01*
X109500619Y-95146380D01*
X108500619Y-96051142D02*
X108548238Y-96098761D01*
X108691095Y-96146380D01*
X108786333Y-96146380D01*
X108929190Y-96098761D01*
X109024428Y-96003523D01*
X109072047Y-95908285D01*
X109119666Y-95717809D01*
X109119666Y-95574952D01*
X109072047Y-95384476D01*
X109024428Y-95289238D01*
X108929190Y-95194000D01*
X108786333Y-95146380D01*
X108691095Y-95146380D01*
X108548238Y-95194000D01*
X108500619Y-95241619D01*
X108072047Y-95146380D02*
X108072047Y-95955904D01*
X108024428Y-96051142D01*
X107976809Y-96098761D01*
X107881571Y-96146380D01*
X107691095Y-96146380D01*
X107595857Y-96098761D01*
X107548238Y-96051142D01*
X107500619Y-95955904D01*
X107500619Y-95146380D01*
X107024428Y-96051142D02*
X106976809Y-96098761D01*
X107024428Y-96146380D01*
X107072047Y-96098761D01*
X107024428Y-96051142D01*
X107024428Y-96146380D01*
X150114000Y-76708000D02*
X142748000Y-76708000D01*
X150114000Y-70612000D02*
X150114000Y-76708000D01*
X142748000Y-70612000D02*
X150114000Y-70612000D01*
X142748000Y-76708000D02*
X142748000Y-70612000D01*
X112776000Y-76835000D02*
X117475000Y-76835000D01*
X112903000Y-70612000D02*
X112776000Y-76835000D01*
X117602000Y-70612000D02*
X112903000Y-70612000D01*
X117475000Y-76835000D02*
X117602000Y-70612000D01*
X142240000Y-78359000D02*
X121539000Y-78359000D01*
X142240000Y-73914000D02*
X142240000Y-78359000D01*
X121539000Y-73914000D02*
X142240000Y-73914000D01*
X121539000Y-78359000D02*
X121539000Y-73914000D01*
X121539000Y-69088000D02*
X142240000Y-69088000D01*
X142240000Y-73533000D02*
X142240000Y-69088000D01*
X121539000Y-73533000D02*
X142240000Y-73533000D01*
X121539000Y-69088000D02*
X121539000Y-73533000D01*
X148852000Y-73025095D02*
X148804380Y-72929857D01*
X148804380Y-72787000D01*
X148852000Y-72644142D01*
X148947238Y-72548904D01*
X149042476Y-72501285D01*
X149232952Y-72453666D01*
X149375809Y-72453666D01*
X149566285Y-72501285D01*
X149661523Y-72548904D01*
X149756761Y-72644142D01*
X149804380Y-72787000D01*
X149804380Y-72882238D01*
X149756761Y-73025095D01*
X149709142Y-73072714D01*
X149375809Y-73072714D01*
X149375809Y-72882238D01*
X149804380Y-73501285D02*
X148804380Y-73501285D01*
X149804380Y-74072714D01*
X148804380Y-74072714D01*
X149804380Y-74548904D02*
X148804380Y-74548904D01*
X148804380Y-74787000D01*
X148852000Y-74929857D01*
X148947238Y-75025095D01*
X149042476Y-75072714D01*
X149232952Y-75120333D01*
X149375809Y-75120333D01*
X149566285Y-75072714D01*
X149661523Y-75025095D01*
X149756761Y-74929857D01*
X149804380Y-74787000D01*
X149804380Y-74548904D01*
X119039142Y-68699142D02*
X119086761Y-68651523D01*
X119134380Y-68508666D01*
X119134380Y-68413428D01*
X119086761Y-68270571D01*
X118991523Y-68175333D01*
X118896285Y-68127714D01*
X118705809Y-68080095D01*
X118562952Y-68080095D01*
X118372476Y-68127714D01*
X118277238Y-68175333D01*
X118182000Y-68270571D01*
X118134380Y-68413428D01*
X118134380Y-68508666D01*
X118182000Y-68651523D01*
X118229619Y-68699142D01*
X118848666Y-69080095D02*
X118848666Y-69556285D01*
X119134380Y-68984857D02*
X118134380Y-69318190D01*
X119134380Y-69651523D01*
X119134380Y-69984857D02*
X118134380Y-69984857D01*
X119134380Y-70556285D01*
X118134380Y-70556285D01*
X120784380Y-69056285D02*
X119784380Y-69056285D01*
X120260571Y-69056285D02*
X120260571Y-69627714D01*
X120784380Y-69627714D02*
X119784380Y-69627714D01*
D14*
X134381476Y-70381761D02*
X134238619Y-70429380D01*
X134000523Y-70429380D01*
X133905285Y-70381761D01*
X133857666Y-70334142D01*
X133810047Y-70238904D01*
X133810047Y-70143666D01*
X133857666Y-70048428D01*
X133905285Y-70000809D01*
X134000523Y-69953190D01*
X134191000Y-69905571D01*
X134286238Y-69857952D01*
X134333857Y-69810333D01*
X134381476Y-69715095D01*
X134381476Y-69619857D01*
X134333857Y-69524619D01*
X134286238Y-69477000D01*
X134191000Y-69429380D01*
X133952904Y-69429380D01*
X133810047Y-69477000D01*
X133000523Y-70381761D02*
X133095761Y-70429380D01*
X133286238Y-70429380D01*
X133381476Y-70381761D01*
X133429095Y-70286523D01*
X133429095Y-69905571D01*
X133381476Y-69810333D01*
X133286238Y-69762714D01*
X133095761Y-69762714D01*
X133000523Y-69810333D01*
X132952904Y-69905571D01*
X132952904Y-70000809D01*
X133429095Y-70096047D01*
X132524333Y-69762714D02*
X132524333Y-70429380D01*
X132524333Y-69857952D02*
X132476714Y-69810333D01*
X132381476Y-69762714D01*
X132238619Y-69762714D01*
X132143380Y-69810333D01*
X132095761Y-69905571D01*
X132095761Y-70429380D01*
X131667190Y-70381761D02*
X131571952Y-70429380D01*
X131381476Y-70429380D01*
X131286238Y-70381761D01*
X131238619Y-70286523D01*
X131238619Y-70238904D01*
X131286238Y-70143666D01*
X131381476Y-70096047D01*
X131524333Y-70096047D01*
X131619571Y-70048428D01*
X131667190Y-69953190D01*
X131667190Y-69905571D01*
X131619571Y-69810333D01*
X131524333Y-69762714D01*
X131381476Y-69762714D01*
X131286238Y-69810333D01*
X130667190Y-70429380D02*
X130762428Y-70381761D01*
X130810047Y-70334142D01*
X130857666Y-70238904D01*
X130857666Y-69953190D01*
X130810047Y-69857952D01*
X130762428Y-69810333D01*
X130667190Y-69762714D01*
X130524333Y-69762714D01*
X130429095Y-69810333D01*
X130381476Y-69857952D01*
X130333857Y-69953190D01*
X130333857Y-70238904D01*
X130381476Y-70334142D01*
X130429095Y-70381761D01*
X130524333Y-70429380D01*
X130667190Y-70429380D01*
X129905285Y-70429380D02*
X129905285Y-69762714D01*
X129905285Y-69953190D02*
X129857666Y-69857952D01*
X129810047Y-69810333D01*
X129714809Y-69762714D01*
X129619571Y-69762714D01*
X128571952Y-69524619D02*
X128524333Y-69477000D01*
X128429095Y-69429380D01*
X128191000Y-69429380D01*
X128095761Y-69477000D01*
X128048142Y-69524619D01*
X128000523Y-69619857D01*
X128000523Y-69715095D01*
X128048142Y-69857952D01*
X128619571Y-70429380D01*
X128000523Y-70429380D01*
X134381476Y-78001761D02*
X134238619Y-78049380D01*
X134000523Y-78049380D01*
X133905285Y-78001761D01*
X133857666Y-77954142D01*
X133810047Y-77858904D01*
X133810047Y-77763666D01*
X133857666Y-77668428D01*
X133905285Y-77620809D01*
X134000523Y-77573190D01*
X134191000Y-77525571D01*
X134286238Y-77477952D01*
X134333857Y-77430333D01*
X134381476Y-77335095D01*
X134381476Y-77239857D01*
X134333857Y-77144619D01*
X134286238Y-77097000D01*
X134191000Y-77049380D01*
X133952904Y-77049380D01*
X133810047Y-77097000D01*
X133000523Y-78001761D02*
X133095761Y-78049380D01*
X133286238Y-78049380D01*
X133381476Y-78001761D01*
X133429095Y-77906523D01*
X133429095Y-77525571D01*
X133381476Y-77430333D01*
X133286238Y-77382714D01*
X133095761Y-77382714D01*
X133000523Y-77430333D01*
X132952904Y-77525571D01*
X132952904Y-77620809D01*
X133429095Y-77716047D01*
X132524333Y-77382714D02*
X132524333Y-78049380D01*
X132524333Y-77477952D02*
X132476714Y-77430333D01*
X132381476Y-77382714D01*
X132238619Y-77382714D01*
X132143380Y-77430333D01*
X132095761Y-77525571D01*
X132095761Y-78049380D01*
X131667190Y-78001761D02*
X131571952Y-78049380D01*
X131381476Y-78049380D01*
X131286238Y-78001761D01*
X131238619Y-77906523D01*
X131238619Y-77858904D01*
X131286238Y-77763666D01*
X131381476Y-77716047D01*
X131524333Y-77716047D01*
X131619571Y-77668428D01*
X131667190Y-77573190D01*
X131667190Y-77525571D01*
X131619571Y-77430333D01*
X131524333Y-77382714D01*
X131381476Y-77382714D01*
X131286238Y-77430333D01*
X130667190Y-78049380D02*
X130762428Y-78001761D01*
X130810047Y-77954142D01*
X130857666Y-77858904D01*
X130857666Y-77573190D01*
X130810047Y-77477952D01*
X130762428Y-77430333D01*
X130667190Y-77382714D01*
X130524333Y-77382714D01*
X130429095Y-77430333D01*
X130381476Y-77477952D01*
X130333857Y-77573190D01*
X130333857Y-77858904D01*
X130381476Y-77954142D01*
X130429095Y-78001761D01*
X130524333Y-78049380D01*
X130667190Y-78049380D01*
X129905285Y-78049380D02*
X129905285Y-77382714D01*
X129905285Y-77573190D02*
X129857666Y-77477952D01*
X129810047Y-77430333D01*
X129714809Y-77382714D01*
X129619571Y-77382714D01*
X128000523Y-78049380D02*
X128571952Y-78049380D01*
X128286238Y-78049380D02*
X128286238Y-77049380D01*
X128381476Y-77192238D01*
X128476714Y-77287476D01*
X128571952Y-77335095D01*
D11*
X119166142Y-77462142D02*
X119213761Y-77414523D01*
X119261380Y-77271666D01*
X119261380Y-77176428D01*
X119213761Y-77033571D01*
X119118523Y-76938333D01*
X119023285Y-76890714D01*
X118832809Y-76843095D01*
X118689952Y-76843095D01*
X118499476Y-76890714D01*
X118404238Y-76938333D01*
X118309000Y-77033571D01*
X118261380Y-77176428D01*
X118261380Y-77271666D01*
X118309000Y-77414523D01*
X118356619Y-77462142D01*
X118975666Y-77843095D02*
X118975666Y-78319285D01*
X119261380Y-77747857D02*
X118261380Y-78081190D01*
X119261380Y-78414523D01*
X119261380Y-78747857D02*
X118261380Y-78747857D01*
X119261380Y-79319285D01*
X118261380Y-79319285D01*
X120911380Y-78414523D02*
X120911380Y-77938333D01*
X119911380Y-77938333D01*
D14*
X148420952Y-98066380D02*
X148420952Y-97066380D01*
X148182857Y-97066380D01*
X148040000Y-97114000D01*
X147944761Y-97209238D01*
X147897142Y-97304476D01*
X147849523Y-97494952D01*
X147849523Y-97637809D01*
X147897142Y-97828285D01*
X147944761Y-97923523D01*
X148040000Y-98018761D01*
X148182857Y-98066380D01*
X148420952Y-98066380D01*
X146992380Y-97399714D02*
X146992380Y-98066380D01*
X147420952Y-97399714D02*
X147420952Y-97923523D01*
X147373333Y-98018761D01*
X147278095Y-98066380D01*
X147135238Y-98066380D01*
X147040000Y-98018761D01*
X146992380Y-97971142D01*
X146087619Y-98066380D02*
X146087619Y-97542571D01*
X146135238Y-97447333D01*
X146230476Y-97399714D01*
X146420952Y-97399714D01*
X146516190Y-97447333D01*
X146087619Y-98018761D02*
X146182857Y-98066380D01*
X146420952Y-98066380D01*
X146516190Y-98018761D01*
X146563809Y-97923523D01*
X146563809Y-97828285D01*
X146516190Y-97733047D01*
X146420952Y-97685428D01*
X146182857Y-97685428D01*
X146087619Y-97637809D01*
X145468571Y-98066380D02*
X145563809Y-98018761D01*
X145611428Y-97923523D01*
X145611428Y-97066380D01*
X144420952Y-97399714D02*
X144230476Y-98066380D01*
X144040000Y-97590190D01*
X143849523Y-98066380D01*
X143659047Y-97399714D01*
X143278095Y-98066380D02*
X143278095Y-97399714D01*
X143278095Y-97066380D02*
X143325714Y-97114000D01*
X143278095Y-97161619D01*
X143230476Y-97114000D01*
X143278095Y-97066380D01*
X143278095Y-97161619D01*
X142373333Y-98066380D02*
X142373333Y-97066380D01*
X142373333Y-98018761D02*
X142468571Y-98066380D01*
X142659047Y-98066380D01*
X142754285Y-98018761D01*
X142801904Y-97971142D01*
X142849523Y-97875904D01*
X142849523Y-97590190D01*
X142801904Y-97494952D01*
X142754285Y-97447333D01*
X142659047Y-97399714D01*
X142468571Y-97399714D01*
X142373333Y-97447333D01*
X141516190Y-98018761D02*
X141611428Y-98066380D01*
X141801904Y-98066380D01*
X141897142Y-98018761D01*
X141944761Y-97923523D01*
X141944761Y-97542571D01*
X141897142Y-97447333D01*
X141801904Y-97399714D01*
X141611428Y-97399714D01*
X141516190Y-97447333D01*
X141468571Y-97542571D01*
X141468571Y-97637809D01*
X141944761Y-97733047D01*
X141040000Y-98066380D02*
X141040000Y-97066380D01*
X141040000Y-97447333D02*
X140944761Y-97399714D01*
X140754285Y-97399714D01*
X140659047Y-97447333D01*
X140611428Y-97494952D01*
X140563809Y-97590190D01*
X140563809Y-97875904D01*
X140611428Y-97971142D01*
X140659047Y-98018761D01*
X140754285Y-98066380D01*
X140944761Y-98066380D01*
X141040000Y-98018761D01*
X139706666Y-98066380D02*
X139706666Y-97542571D01*
X139754285Y-97447333D01*
X139849523Y-97399714D01*
X140040000Y-97399714D01*
X140135238Y-97447333D01*
X139706666Y-98018761D02*
X139801904Y-98066380D01*
X140040000Y-98066380D01*
X140135238Y-98018761D01*
X140182857Y-97923523D01*
X140182857Y-97828285D01*
X140135238Y-97733047D01*
X140040000Y-97685428D01*
X139801904Y-97685428D01*
X139706666Y-97637809D01*
X139230476Y-97399714D02*
X139230476Y-98066380D01*
X139230476Y-97494952D02*
X139182857Y-97447333D01*
X139087619Y-97399714D01*
X138944761Y-97399714D01*
X138849523Y-97447333D01*
X138801904Y-97542571D01*
X138801904Y-98066380D01*
X137897142Y-98066380D02*
X137897142Y-97066380D01*
X137897142Y-98018761D02*
X137992380Y-98066380D01*
X138182857Y-98066380D01*
X138278095Y-98018761D01*
X138325714Y-97971142D01*
X138373333Y-97875904D01*
X138373333Y-97590190D01*
X138325714Y-97494952D01*
X138278095Y-97447333D01*
X138182857Y-97399714D01*
X137992380Y-97399714D01*
X137897142Y-97447333D01*
X136182857Y-98066380D02*
X136659047Y-98066380D01*
X136659047Y-97066380D01*
X135897142Y-98018761D02*
X135754285Y-98066380D01*
X135516190Y-98066380D01*
X135420952Y-98018761D01*
X135373333Y-97971142D01*
X135325714Y-97875904D01*
X135325714Y-97780666D01*
X135373333Y-97685428D01*
X135420952Y-97637809D01*
X135516190Y-97590190D01*
X135706666Y-97542571D01*
X135801904Y-97494952D01*
X135849523Y-97447333D01*
X135897142Y-97352095D01*
X135897142Y-97256857D01*
X135849523Y-97161619D01*
X135801904Y-97114000D01*
X135706666Y-97066380D01*
X135468571Y-97066380D01*
X135325714Y-97114000D01*
X134897142Y-97066380D02*
X134897142Y-97875904D01*
X134849523Y-97971142D01*
X134801904Y-98018761D01*
X134706666Y-98066380D01*
X134516190Y-98066380D01*
X134420952Y-98018761D01*
X134373333Y-97971142D01*
X134325714Y-97875904D01*
X134325714Y-97066380D01*
X132659047Y-97399714D02*
X132659047Y-98066380D01*
X132897142Y-97018761D02*
X133135238Y-97733047D01*
X132516190Y-97733047D01*
X132135238Y-97971142D02*
X132087619Y-98018761D01*
X132135238Y-98066380D01*
X132182857Y-98018761D01*
X132135238Y-97971142D01*
X132135238Y-98066380D01*
X131611428Y-98066380D02*
X131420952Y-98066380D01*
X131325714Y-98018761D01*
X131278095Y-97971142D01*
X131182857Y-97828285D01*
X131135238Y-97637809D01*
X131135238Y-97256857D01*
X131182857Y-97161619D01*
X131230476Y-97114000D01*
X131325714Y-97066380D01*
X131516190Y-97066380D01*
X131611428Y-97114000D01*
X131659047Y-97161619D01*
X131706666Y-97256857D01*
X131706666Y-97494952D01*
X131659047Y-97590190D01*
X131611428Y-97637809D01*
X131516190Y-97685428D01*
X131325714Y-97685428D01*
X131230476Y-97637809D01*
X131182857Y-97590190D01*
X131135238Y-97494952D01*
X129373333Y-97971142D02*
X129420952Y-98018761D01*
X129563809Y-98066380D01*
X129659047Y-98066380D01*
X129801904Y-98018761D01*
X129897142Y-97923523D01*
X129944761Y-97828285D01*
X129992380Y-97637809D01*
X129992380Y-97494952D01*
X129944761Y-97304476D01*
X129897142Y-97209238D01*
X129801904Y-97114000D01*
X129659047Y-97066380D01*
X129563809Y-97066380D01*
X129420952Y-97114000D01*
X129373333Y-97161619D01*
X128801904Y-98066380D02*
X128897142Y-98018761D01*
X128944761Y-97971142D01*
X128992380Y-97875904D01*
X128992380Y-97590190D01*
X128944761Y-97494952D01*
X128897142Y-97447333D01*
X128801904Y-97399714D01*
X128659047Y-97399714D01*
X128563809Y-97447333D01*
X128516190Y-97494952D01*
X128468571Y-97590190D01*
X128468571Y-97875904D01*
X128516190Y-97971142D01*
X128563809Y-98018761D01*
X128659047Y-98066380D01*
X128801904Y-98066380D01*
X128040000Y-97399714D02*
X128040000Y-98066380D01*
X128040000Y-97494952D02*
X127992380Y-97447333D01*
X127897142Y-97399714D01*
X127754285Y-97399714D01*
X127659047Y-97447333D01*
X127611428Y-97542571D01*
X127611428Y-98066380D01*
X127278095Y-97399714D02*
X126897142Y-97399714D01*
X127135238Y-97066380D02*
X127135238Y-97923523D01*
X127087619Y-98018761D01*
X126992380Y-98066380D01*
X126897142Y-98066380D01*
X126563809Y-98066380D02*
X126563809Y-97399714D01*
X126563809Y-97590190D02*
X126516190Y-97494952D01*
X126468571Y-97447333D01*
X126373333Y-97399714D01*
X126278095Y-97399714D01*
X125801904Y-98066380D02*
X125897142Y-98018761D01*
X125944761Y-97971142D01*
X125992380Y-97875904D01*
X125992380Y-97590190D01*
X125944761Y-97494952D01*
X125897142Y-97447333D01*
X125801904Y-97399714D01*
X125659047Y-97399714D01*
X125563809Y-97447333D01*
X125516190Y-97494952D01*
X125468571Y-97590190D01*
X125468571Y-97875904D01*
X125516190Y-97971142D01*
X125563809Y-98018761D01*
X125659047Y-98066380D01*
X125801904Y-98066380D01*
X124897142Y-98066380D02*
X124992380Y-98018761D01*
X125040000Y-97923523D01*
X125040000Y-97066380D01*
X124373333Y-98066380D02*
X124468571Y-98018761D01*
X124516190Y-97923523D01*
X124516190Y-97066380D01*
X123611428Y-98018761D02*
X123706666Y-98066380D01*
X123897142Y-98066380D01*
X123992380Y-98018761D01*
X124040000Y-97923523D01*
X124040000Y-97542571D01*
X123992380Y-97447333D01*
X123897142Y-97399714D01*
X123706666Y-97399714D01*
X123611428Y-97447333D01*
X123563809Y-97542571D01*
X123563809Y-97637809D01*
X124040000Y-97733047D01*
X123135238Y-98066380D02*
X123135238Y-97399714D01*
X123135238Y-97590190D02*
X123087619Y-97494952D01*
X123040000Y-97447333D01*
X122944761Y-97399714D01*
X122849523Y-97399714D01*
X121754285Y-97685428D02*
X120992380Y-97685428D01*
X119754285Y-98066380D02*
X119754285Y-97399714D01*
X119754285Y-97590190D02*
X119706666Y-97494952D01*
X119659047Y-97447333D01*
X119563809Y-97399714D01*
X119468571Y-97399714D01*
X118706666Y-97399714D02*
X118706666Y-98066380D01*
X119135238Y-97399714D02*
X119135238Y-97923523D01*
X119087619Y-98018761D01*
X118992380Y-98066380D01*
X118849523Y-98066380D01*
X118754285Y-98018761D01*
X118706666Y-97971142D01*
X118278095Y-98018761D02*
X118182857Y-98066380D01*
X117992380Y-98066380D01*
X117897142Y-98018761D01*
X117849523Y-97923523D01*
X117849523Y-97875904D01*
X117897142Y-97780666D01*
X117992380Y-97733047D01*
X118135238Y-97733047D01*
X118230476Y-97685428D01*
X118278095Y-97590190D01*
X118278095Y-97542571D01*
X118230476Y-97447333D01*
X118135238Y-97399714D01*
X117992380Y-97399714D01*
X117897142Y-97447333D01*
X117420952Y-97542571D02*
X117087619Y-97542571D01*
X116944761Y-98066380D02*
X117420952Y-98066380D01*
X117420952Y-97066380D01*
X116944761Y-97066380D01*
X116182857Y-97542571D02*
X116516190Y-97542571D01*
X116516190Y-98066380D02*
X116516190Y-97066380D01*
X116040000Y-97066380D01*
X115659047Y-98066380D02*
X115659047Y-97066380D01*
X152349523Y-99766380D02*
X152349523Y-98766380D01*
X151920952Y-99766380D02*
X151920952Y-99242571D01*
X151968571Y-99147333D01*
X152063809Y-99099714D01*
X152206666Y-99099714D01*
X152301904Y-99147333D01*
X152349523Y-99194952D01*
X151587619Y-99099714D02*
X151206666Y-99099714D01*
X151444761Y-98766380D02*
X151444761Y-99623523D01*
X151397142Y-99718761D01*
X151301904Y-99766380D01*
X151206666Y-99766380D01*
X151016190Y-99099714D02*
X150635238Y-99099714D01*
X150873333Y-98766380D02*
X150873333Y-99623523D01*
X150825714Y-99718761D01*
X150730476Y-99766380D01*
X150635238Y-99766380D01*
X150301904Y-99099714D02*
X150301904Y-100099714D01*
X150301904Y-99147333D02*
X150206666Y-99099714D01*
X150016190Y-99099714D01*
X149920952Y-99147333D01*
X149873333Y-99194952D01*
X149825714Y-99290190D01*
X149825714Y-99575904D01*
X149873333Y-99671142D01*
X149920952Y-99718761D01*
X150016190Y-99766380D01*
X150206666Y-99766380D01*
X150301904Y-99718761D01*
X149444761Y-99718761D02*
X149349523Y-99766380D01*
X149159047Y-99766380D01*
X149063809Y-99718761D01*
X149016190Y-99623523D01*
X149016190Y-99575904D01*
X149063809Y-99480666D01*
X149159047Y-99433047D01*
X149301904Y-99433047D01*
X149397142Y-99385428D01*
X149444761Y-99290190D01*
X149444761Y-99242571D01*
X149397142Y-99147333D01*
X149301904Y-99099714D01*
X149159047Y-99099714D01*
X149063809Y-99147333D01*
X148587619Y-99671142D02*
X148540000Y-99718761D01*
X148587619Y-99766380D01*
X148635238Y-99718761D01*
X148587619Y-99671142D01*
X148587619Y-99766380D01*
X148587619Y-99147333D02*
X148540000Y-99194952D01*
X148587619Y-99242571D01*
X148635238Y-99194952D01*
X148587619Y-99147333D01*
X148587619Y-99242571D01*
X147397142Y-98718761D02*
X148254285Y-100004476D01*
X146349523Y-98718761D02*
X147206666Y-100004476D01*
X146016190Y-99766380D02*
X146016190Y-99099714D01*
X146016190Y-99290190D02*
X145968571Y-99194952D01*
X145920952Y-99147333D01*
X145825714Y-99099714D01*
X145730476Y-99099714D01*
X144968571Y-99099714D02*
X144968571Y-99766380D01*
X145397142Y-99099714D02*
X145397142Y-99623523D01*
X145349523Y-99718761D01*
X145254285Y-99766380D01*
X145111428Y-99766380D01*
X145016190Y-99718761D01*
X144968571Y-99671142D01*
X144540000Y-99718761D02*
X144444761Y-99766380D01*
X144254285Y-99766380D01*
X144159047Y-99718761D01*
X144111428Y-99623523D01*
X144111428Y-99575904D01*
X144159047Y-99480666D01*
X144254285Y-99433047D01*
X144397142Y-99433047D01*
X144492380Y-99385428D01*
X144540000Y-99290190D01*
X144540000Y-99242571D01*
X144492380Y-99147333D01*
X144397142Y-99099714D01*
X144254285Y-99099714D01*
X144159047Y-99147333D01*
X143301904Y-99718761D02*
X143397142Y-99766380D01*
X143587619Y-99766380D01*
X143682857Y-99718761D01*
X143730476Y-99623523D01*
X143730476Y-99242571D01*
X143682857Y-99147333D01*
X143587619Y-99099714D01*
X143397142Y-99099714D01*
X143301904Y-99147333D01*
X143254285Y-99242571D01*
X143254285Y-99337809D01*
X143730476Y-99433047D01*
X142968571Y-99099714D02*
X142587619Y-99099714D01*
X142825714Y-99766380D02*
X142825714Y-98909238D01*
X142778095Y-98814000D01*
X142682857Y-98766380D01*
X142587619Y-98766380D01*
X142254285Y-99766380D02*
X142254285Y-99099714D01*
X142254285Y-98766380D02*
X142301904Y-98814000D01*
X142254285Y-98861619D01*
X142206666Y-98814000D01*
X142254285Y-98766380D01*
X142254285Y-98861619D01*
X141778095Y-99671142D02*
X141730476Y-99718761D01*
X141778095Y-99766380D01*
X141825714Y-99718761D01*
X141778095Y-99671142D01*
X141778095Y-99766380D01*
X140873333Y-99718761D02*
X140968571Y-99766380D01*
X141159047Y-99766380D01*
X141254285Y-99718761D01*
X141301904Y-99671142D01*
X141349523Y-99575904D01*
X141349523Y-99290190D01*
X141301904Y-99194952D01*
X141254285Y-99147333D01*
X141159047Y-99099714D01*
X140968571Y-99099714D01*
X140873333Y-99147333D01*
X140301904Y-99766380D02*
X140397142Y-99718761D01*
X140444761Y-99671142D01*
X140492380Y-99575904D01*
X140492380Y-99290190D01*
X140444761Y-99194952D01*
X140397142Y-99147333D01*
X140301904Y-99099714D01*
X140159047Y-99099714D01*
X140063809Y-99147333D01*
X140016190Y-99194952D01*
X139968571Y-99290190D01*
X139968571Y-99575904D01*
X140016190Y-99671142D01*
X140063809Y-99718761D01*
X140159047Y-99766380D01*
X140301904Y-99766380D01*
X139540000Y-99766380D02*
X139540000Y-99099714D01*
X139540000Y-99194952D02*
X139492380Y-99147333D01*
X139397142Y-99099714D01*
X139254285Y-99099714D01*
X139159047Y-99147333D01*
X139111428Y-99242571D01*
X139111428Y-99766380D01*
X139111428Y-99242571D02*
X139063809Y-99147333D01*
X138968571Y-99099714D01*
X138825714Y-99099714D01*
X138730476Y-99147333D01*
X138682857Y-99242571D01*
X138682857Y-99766380D01*
X137492380Y-98718761D02*
X138349523Y-100004476D01*
X137301904Y-99099714D02*
X136920952Y-99099714D01*
X137159047Y-99766380D02*
X137159047Y-98909238D01*
X137111428Y-98814000D01*
X137016190Y-98766380D01*
X136920952Y-98766380D01*
X136444761Y-99766380D02*
X136540000Y-99718761D01*
X136587619Y-99671142D01*
X136635238Y-99575904D01*
X136635238Y-99290190D01*
X136587619Y-99194952D01*
X136540000Y-99147333D01*
X136444761Y-99099714D01*
X136301904Y-99099714D01*
X136206666Y-99147333D01*
X136159047Y-99194952D01*
X136111428Y-99290190D01*
X136111428Y-99575904D01*
X136159047Y-99671142D01*
X136206666Y-99718761D01*
X136301904Y-99766380D01*
X136444761Y-99766380D01*
X135682857Y-99766380D02*
X135682857Y-99099714D01*
X135682857Y-99290190D02*
X135635238Y-99194952D01*
X135587619Y-99147333D01*
X135492380Y-99099714D01*
X135397142Y-99099714D01*
X134635238Y-99099714D02*
X134635238Y-99766380D01*
X135063809Y-99099714D02*
X135063809Y-99623523D01*
X135016190Y-99718761D01*
X134920952Y-99766380D01*
X134778095Y-99766380D01*
X134682857Y-99718761D01*
X134635238Y-99671142D01*
X134159047Y-99766380D02*
X134159047Y-99099714D01*
X134159047Y-99194952D02*
X134111428Y-99147333D01*
X134016190Y-99099714D01*
X133873333Y-99099714D01*
X133778095Y-99147333D01*
X133730476Y-99242571D01*
X133730476Y-99766380D01*
X133730476Y-99242571D02*
X133682857Y-99147333D01*
X133587619Y-99099714D01*
X133444761Y-99099714D01*
X133349523Y-99147333D01*
X133301904Y-99242571D01*
X133301904Y-99766380D01*
X132111428Y-98718761D02*
X132968571Y-100004476D01*
X131873333Y-99099714D02*
X131635238Y-99766380D01*
X131397142Y-99099714D01*
X131016190Y-99766380D02*
X131016190Y-99099714D01*
X131016190Y-98766380D02*
X131063809Y-98814000D01*
X131016190Y-98861619D01*
X130968571Y-98814000D01*
X131016190Y-98766380D01*
X131016190Y-98861619D01*
X130159047Y-99718761D02*
X130254285Y-99766380D01*
X130444761Y-99766380D01*
X130540000Y-99718761D01*
X130587619Y-99623523D01*
X130587619Y-99242571D01*
X130540000Y-99147333D01*
X130444761Y-99099714D01*
X130254285Y-99099714D01*
X130159047Y-99147333D01*
X130111428Y-99242571D01*
X130111428Y-99337809D01*
X130587619Y-99433047D01*
X129778095Y-99099714D02*
X129587619Y-99766380D01*
X129397142Y-99290190D01*
X129206666Y-99766380D01*
X129016190Y-99099714D01*
X128778095Y-99099714D02*
X128397142Y-99099714D01*
X128635238Y-98766380D02*
X128635238Y-99623523D01*
X128587619Y-99718761D01*
X128492380Y-99766380D01*
X128397142Y-99766380D01*
X127920952Y-99766380D02*
X128016190Y-99718761D01*
X128063809Y-99671142D01*
X128111428Y-99575904D01*
X128111428Y-99290190D01*
X128063809Y-99194952D01*
X128016190Y-99147333D01*
X127920952Y-99099714D01*
X127778095Y-99099714D01*
X127682857Y-99147333D01*
X127635238Y-99194952D01*
X127587619Y-99290190D01*
X127587619Y-99575904D01*
X127635238Y-99671142D01*
X127682857Y-99718761D01*
X127778095Y-99766380D01*
X127920952Y-99766380D01*
X127159047Y-99099714D02*
X127159047Y-100099714D01*
X127159047Y-99147333D02*
X127063809Y-99099714D01*
X126873333Y-99099714D01*
X126778095Y-99147333D01*
X126730476Y-99194952D01*
X126682857Y-99290190D01*
X126682857Y-99575904D01*
X126730476Y-99671142D01*
X126778095Y-99718761D01*
X126873333Y-99766380D01*
X127063809Y-99766380D01*
X127159047Y-99718761D01*
X126254285Y-99766380D02*
X126254285Y-99099714D01*
X126254285Y-98766380D02*
X126301904Y-98814000D01*
X126254285Y-98861619D01*
X126206666Y-98814000D01*
X126254285Y-98766380D01*
X126254285Y-98861619D01*
X125349523Y-99718761D02*
X125444761Y-99766380D01*
X125635238Y-99766380D01*
X125730476Y-99718761D01*
X125778095Y-99671142D01*
X125825714Y-99575904D01*
X125825714Y-99290190D01*
X125778095Y-99194952D01*
X125730476Y-99147333D01*
X125635238Y-99099714D01*
X125444761Y-99099714D01*
X125349523Y-99147333D01*
X124920952Y-99671142D02*
X124873333Y-99718761D01*
X124920952Y-99766380D01*
X124968571Y-99718761D01*
X124920952Y-99671142D01*
X124920952Y-99766380D01*
X124444761Y-99099714D02*
X124444761Y-100099714D01*
X124444761Y-99147333D02*
X124349523Y-99099714D01*
X124159047Y-99099714D01*
X124063809Y-99147333D01*
X124016190Y-99194952D01*
X123968571Y-99290190D01*
X123968571Y-99575904D01*
X124016190Y-99671142D01*
X124063809Y-99718761D01*
X124159047Y-99766380D01*
X124349523Y-99766380D01*
X124444761Y-99718761D01*
X123540000Y-99766380D02*
X123540000Y-98766380D01*
X123111428Y-99766380D02*
X123111428Y-99242571D01*
X123159047Y-99147333D01*
X123254285Y-99099714D01*
X123397142Y-99099714D01*
X123492380Y-99147333D01*
X123540000Y-99194952D01*
X122635238Y-99099714D02*
X122635238Y-100099714D01*
X122635238Y-99147333D02*
X122540000Y-99099714D01*
X122349523Y-99099714D01*
X122254285Y-99147333D01*
X122206666Y-99194952D01*
X122159047Y-99290190D01*
X122159047Y-99575904D01*
X122206666Y-99671142D01*
X122254285Y-99718761D01*
X122349523Y-99766380D01*
X122540000Y-99766380D01*
X122635238Y-99718761D01*
X121587619Y-99671142D02*
X121540000Y-99718761D01*
X121587619Y-99766380D01*
X121635238Y-99718761D01*
X121587619Y-99671142D01*
X121587619Y-99766380D01*
X121778095Y-98814000D02*
X121682857Y-98766380D01*
X121444761Y-98766380D01*
X121349523Y-98814000D01*
X121301904Y-98909238D01*
X121301904Y-99004476D01*
X121349523Y-99099714D01*
X121397142Y-99147333D01*
X121492380Y-99194952D01*
X121540000Y-99242571D01*
X121587619Y-99337809D01*
X121587619Y-99385428D01*
X121016190Y-99099714D02*
X120635238Y-99099714D01*
X120873333Y-99766380D02*
X120873333Y-98909238D01*
X120825714Y-98814000D01*
X120730476Y-98766380D01*
X120635238Y-98766380D01*
X120301904Y-99242571D02*
X119540000Y-99242571D01*
X119540000Y-99528285D02*
X120301904Y-99528285D01*
X118635238Y-99099714D02*
X118635238Y-99766380D01*
X118873333Y-98718761D02*
X119111428Y-99433047D01*
X118492380Y-99433047D01*
X117301904Y-99766380D02*
X117349523Y-99766380D01*
X117444761Y-99718761D01*
X117587619Y-99575904D01*
X117825714Y-99290190D01*
X117920952Y-99147333D01*
X117968571Y-99004476D01*
X117968571Y-98909238D01*
X117920952Y-98814000D01*
X117825714Y-98766380D01*
X117778095Y-98766380D01*
X117682857Y-98814000D01*
X117635238Y-98909238D01*
X117635238Y-98956857D01*
X117682857Y-99052095D01*
X117730476Y-99099714D01*
X118016190Y-99290190D01*
X118063809Y-99337809D01*
X118111428Y-99433047D01*
X118111428Y-99575904D01*
X118063809Y-99671142D01*
X118016190Y-99718761D01*
X117920952Y-99766380D01*
X117778095Y-99766380D01*
X117682857Y-99718761D01*
X117635238Y-99671142D01*
X117492380Y-99480666D01*
X117444761Y-99337809D01*
X117444761Y-99242571D01*
X117016190Y-99099714D02*
X116635238Y-99099714D01*
X116873333Y-98766380D02*
X116873333Y-99623523D01*
X116825714Y-99718761D01*
X116730476Y-99766380D01*
X116635238Y-99766380D01*
X116301904Y-99242571D02*
X115540000Y-99242571D01*
X115540000Y-99528285D02*
X116301904Y-99528285D01*
X114540000Y-99766380D02*
X115111428Y-99766380D01*
X114825714Y-99766380D02*
X114825714Y-98766380D01*
X114920952Y-98909238D01*
X115016190Y-99004476D01*
X115111428Y-99052095D01*
X113968571Y-99194952D02*
X114063809Y-99147333D01*
X114111428Y-99099714D01*
X114159047Y-99004476D01*
X114159047Y-98956857D01*
X114111428Y-98861619D01*
X114063809Y-98814000D01*
X113968571Y-98766380D01*
X113778095Y-98766380D01*
X113682857Y-98814000D01*
X113635238Y-98861619D01*
X113587619Y-98956857D01*
X113587619Y-99004476D01*
X113635238Y-99099714D01*
X113682857Y-99147333D01*
X113778095Y-99194952D01*
X113968571Y-99194952D01*
X114063809Y-99242571D01*
X114111428Y-99290190D01*
X114159047Y-99385428D01*
X114159047Y-99575904D01*
X114111428Y-99671142D01*
X114063809Y-99718761D01*
X113968571Y-99766380D01*
X113778095Y-99766380D01*
X113682857Y-99718761D01*
X113635238Y-99671142D01*
X113587619Y-99575904D01*
X113587619Y-99385428D01*
X113635238Y-99290190D01*
X113682857Y-99242571D01*
X113778095Y-99194952D01*
X112682857Y-98766380D02*
X113159047Y-98766380D01*
X113206666Y-99242571D01*
X113159047Y-99194952D01*
X113063809Y-99147333D01*
X112825714Y-99147333D01*
X112730476Y-99194952D01*
X112682857Y-99242571D01*
X112635238Y-99337809D01*
X112635238Y-99575904D01*
X112682857Y-99671142D01*
X112730476Y-99718761D01*
X112825714Y-99766380D01*
X113063809Y-99766380D01*
X113159047Y-99718761D01*
X113206666Y-99671142D01*
X111778095Y-98766380D02*
X111968571Y-98766380D01*
X112063809Y-98814000D01*
X112111428Y-98861619D01*
X112206666Y-99004476D01*
X112254285Y-99194952D01*
X112254285Y-99575904D01*
X112206666Y-99671142D01*
X112159047Y-99718761D01*
X112063809Y-99766380D01*
X111873333Y-99766380D01*
X111778095Y-99718761D01*
X111730476Y-99671142D01*
X111682857Y-99575904D01*
X111682857Y-99337809D01*
X111730476Y-99242571D01*
X111778095Y-99194952D01*
X111873333Y-99147333D01*
X112063809Y-99147333D01*
X112159047Y-99194952D01*
X112206666Y-99242571D01*
X112254285Y-99337809D01*
X152349523Y-101466380D02*
X152349523Y-100466380D01*
X151920952Y-101466380D02*
X151920952Y-100942571D01*
X151968571Y-100847333D01*
X152063809Y-100799714D01*
X152206666Y-100799714D01*
X152301904Y-100847333D01*
X152349523Y-100894952D01*
X151587619Y-100799714D02*
X151206666Y-100799714D01*
X151444761Y-100466380D02*
X151444761Y-101323523D01*
X151397142Y-101418761D01*
X151301904Y-101466380D01*
X151206666Y-101466380D01*
X151016190Y-100799714D02*
X150635238Y-100799714D01*
X150873333Y-100466380D02*
X150873333Y-101323523D01*
X150825714Y-101418761D01*
X150730476Y-101466380D01*
X150635238Y-101466380D01*
X150301904Y-100799714D02*
X150301904Y-101799714D01*
X150301904Y-100847333D02*
X150206666Y-100799714D01*
X150016190Y-100799714D01*
X149920952Y-100847333D01*
X149873333Y-100894952D01*
X149825714Y-100990190D01*
X149825714Y-101275904D01*
X149873333Y-101371142D01*
X149920952Y-101418761D01*
X150016190Y-101466380D01*
X150206666Y-101466380D01*
X150301904Y-101418761D01*
X149444761Y-101418761D02*
X149349523Y-101466380D01*
X149159047Y-101466380D01*
X149063809Y-101418761D01*
X149016190Y-101323523D01*
X149016190Y-101275904D01*
X149063809Y-101180666D01*
X149159047Y-101133047D01*
X149301904Y-101133047D01*
X149397142Y-101085428D01*
X149444761Y-100990190D01*
X149444761Y-100942571D01*
X149397142Y-100847333D01*
X149301904Y-100799714D01*
X149159047Y-100799714D01*
X149063809Y-100847333D01*
X148587619Y-101371142D02*
X148540000Y-101418761D01*
X148587619Y-101466380D01*
X148635238Y-101418761D01*
X148587619Y-101371142D01*
X148587619Y-101466380D01*
X148587619Y-100847333D02*
X148540000Y-100894952D01*
X148587619Y-100942571D01*
X148635238Y-100894952D01*
X148587619Y-100847333D01*
X148587619Y-100942571D01*
X147397142Y-100418761D02*
X148254285Y-101704476D01*
X146349523Y-100418761D02*
X147206666Y-101704476D01*
X146016190Y-101466380D02*
X146016190Y-100799714D01*
X146016190Y-100990190D02*
X145968571Y-100894952D01*
X145920952Y-100847333D01*
X145825714Y-100799714D01*
X145730476Y-100799714D01*
X144968571Y-100799714D02*
X144968571Y-101466380D01*
X145397142Y-100799714D02*
X145397142Y-101323523D01*
X145349523Y-101418761D01*
X145254285Y-101466380D01*
X145111428Y-101466380D01*
X145016190Y-101418761D01*
X144968571Y-101371142D01*
X144540000Y-101418761D02*
X144444761Y-101466380D01*
X144254285Y-101466380D01*
X144159047Y-101418761D01*
X144111428Y-101323523D01*
X144111428Y-101275904D01*
X144159047Y-101180666D01*
X144254285Y-101133047D01*
X144397142Y-101133047D01*
X144492380Y-101085428D01*
X144540000Y-100990190D01*
X144540000Y-100942571D01*
X144492380Y-100847333D01*
X144397142Y-100799714D01*
X144254285Y-100799714D01*
X144159047Y-100847333D01*
X143301904Y-101418761D02*
X143397142Y-101466380D01*
X143587619Y-101466380D01*
X143682857Y-101418761D01*
X143730476Y-101323523D01*
X143730476Y-100942571D01*
X143682857Y-100847333D01*
X143587619Y-100799714D01*
X143397142Y-100799714D01*
X143301904Y-100847333D01*
X143254285Y-100942571D01*
X143254285Y-101037809D01*
X143730476Y-101133047D01*
X142968571Y-100799714D02*
X142587619Y-100799714D01*
X142825714Y-101466380D02*
X142825714Y-100609238D01*
X142778095Y-100514000D01*
X142682857Y-100466380D01*
X142587619Y-100466380D01*
X142254285Y-101466380D02*
X142254285Y-100799714D01*
X142254285Y-100466380D02*
X142301904Y-100514000D01*
X142254285Y-100561619D01*
X142206666Y-100514000D01*
X142254285Y-100466380D01*
X142254285Y-100561619D01*
X141778095Y-101371142D02*
X141730476Y-101418761D01*
X141778095Y-101466380D01*
X141825714Y-101418761D01*
X141778095Y-101371142D01*
X141778095Y-101466380D01*
X140873333Y-101418761D02*
X140968571Y-101466380D01*
X141159047Y-101466380D01*
X141254285Y-101418761D01*
X141301904Y-101371142D01*
X141349523Y-101275904D01*
X141349523Y-100990190D01*
X141301904Y-100894952D01*
X141254285Y-100847333D01*
X141159047Y-100799714D01*
X140968571Y-100799714D01*
X140873333Y-100847333D01*
X140301904Y-101466380D02*
X140397142Y-101418761D01*
X140444761Y-101371142D01*
X140492380Y-101275904D01*
X140492380Y-100990190D01*
X140444761Y-100894952D01*
X140397142Y-100847333D01*
X140301904Y-100799714D01*
X140159047Y-100799714D01*
X140063809Y-100847333D01*
X140016190Y-100894952D01*
X139968571Y-100990190D01*
X139968571Y-101275904D01*
X140016190Y-101371142D01*
X140063809Y-101418761D01*
X140159047Y-101466380D01*
X140301904Y-101466380D01*
X139540000Y-101466380D02*
X139540000Y-100799714D01*
X139540000Y-100894952D02*
X139492380Y-100847333D01*
X139397142Y-100799714D01*
X139254285Y-100799714D01*
X139159047Y-100847333D01*
X139111428Y-100942571D01*
X139111428Y-101466380D01*
X139111428Y-100942571D02*
X139063809Y-100847333D01*
X138968571Y-100799714D01*
X138825714Y-100799714D01*
X138730476Y-100847333D01*
X138682857Y-100942571D01*
X138682857Y-101466380D01*
X137492380Y-100418761D02*
X138349523Y-101704476D01*
X137301904Y-100799714D02*
X136920952Y-100799714D01*
X137159047Y-101466380D02*
X137159047Y-100609238D01*
X137111428Y-100514000D01*
X137016190Y-100466380D01*
X136920952Y-100466380D01*
X136444761Y-101466380D02*
X136540000Y-101418761D01*
X136587619Y-101371142D01*
X136635238Y-101275904D01*
X136635238Y-100990190D01*
X136587619Y-100894952D01*
X136540000Y-100847333D01*
X136444761Y-100799714D01*
X136301904Y-100799714D01*
X136206666Y-100847333D01*
X136159047Y-100894952D01*
X136111428Y-100990190D01*
X136111428Y-101275904D01*
X136159047Y-101371142D01*
X136206666Y-101418761D01*
X136301904Y-101466380D01*
X136444761Y-101466380D01*
X135682857Y-101466380D02*
X135682857Y-100799714D01*
X135682857Y-100990190D02*
X135635238Y-100894952D01*
X135587619Y-100847333D01*
X135492380Y-100799714D01*
X135397142Y-100799714D01*
X134635238Y-100799714D02*
X134635238Y-101466380D01*
X135063809Y-100799714D02*
X135063809Y-101323523D01*
X135016190Y-101418761D01*
X134920952Y-101466380D01*
X134778095Y-101466380D01*
X134682857Y-101418761D01*
X134635238Y-101371142D01*
X134159047Y-101466380D02*
X134159047Y-100799714D01*
X134159047Y-100894952D02*
X134111428Y-100847333D01*
X134016190Y-100799714D01*
X133873333Y-100799714D01*
X133778095Y-100847333D01*
X133730476Y-100942571D01*
X133730476Y-101466380D01*
X133730476Y-100942571D02*
X133682857Y-100847333D01*
X133587619Y-100799714D01*
X133444761Y-100799714D01*
X133349523Y-100847333D01*
X133301904Y-100942571D01*
X133301904Y-101466380D01*
X132111428Y-100418761D02*
X132968571Y-101704476D01*
X131873333Y-100799714D02*
X131635238Y-101466380D01*
X131397142Y-100799714D01*
X131016190Y-101466380D02*
X131016190Y-100799714D01*
X131016190Y-100466380D02*
X131063809Y-100514000D01*
X131016190Y-100561619D01*
X130968571Y-100514000D01*
X131016190Y-100466380D01*
X131016190Y-100561619D01*
X130159047Y-101418761D02*
X130254285Y-101466380D01*
X130444761Y-101466380D01*
X130540000Y-101418761D01*
X130587619Y-101323523D01*
X130587619Y-100942571D01*
X130540000Y-100847333D01*
X130444761Y-100799714D01*
X130254285Y-100799714D01*
X130159047Y-100847333D01*
X130111428Y-100942571D01*
X130111428Y-101037809D01*
X130587619Y-101133047D01*
X129778095Y-100799714D02*
X129587619Y-101466380D01*
X129397142Y-100990190D01*
X129206666Y-101466380D01*
X129016190Y-100799714D01*
X128778095Y-100799714D02*
X128397142Y-100799714D01*
X128635238Y-100466380D02*
X128635238Y-101323523D01*
X128587619Y-101418761D01*
X128492380Y-101466380D01*
X128397142Y-101466380D01*
X127920952Y-101466380D02*
X128016190Y-101418761D01*
X128063809Y-101371142D01*
X128111428Y-101275904D01*
X128111428Y-100990190D01*
X128063809Y-100894952D01*
X128016190Y-100847333D01*
X127920952Y-100799714D01*
X127778095Y-100799714D01*
X127682857Y-100847333D01*
X127635238Y-100894952D01*
X127587619Y-100990190D01*
X127587619Y-101275904D01*
X127635238Y-101371142D01*
X127682857Y-101418761D01*
X127778095Y-101466380D01*
X127920952Y-101466380D01*
X127159047Y-100799714D02*
X127159047Y-101799714D01*
X127159047Y-100847333D02*
X127063809Y-100799714D01*
X126873333Y-100799714D01*
X126778095Y-100847333D01*
X126730476Y-100894952D01*
X126682857Y-100990190D01*
X126682857Y-101275904D01*
X126730476Y-101371142D01*
X126778095Y-101418761D01*
X126873333Y-101466380D01*
X127063809Y-101466380D01*
X127159047Y-101418761D01*
X126254285Y-101466380D02*
X126254285Y-100799714D01*
X126254285Y-100466380D02*
X126301904Y-100514000D01*
X126254285Y-100561619D01*
X126206666Y-100514000D01*
X126254285Y-100466380D01*
X126254285Y-100561619D01*
X125349523Y-101418761D02*
X125444761Y-101466380D01*
X125635238Y-101466380D01*
X125730476Y-101418761D01*
X125778095Y-101371142D01*
X125825714Y-101275904D01*
X125825714Y-100990190D01*
X125778095Y-100894952D01*
X125730476Y-100847333D01*
X125635238Y-100799714D01*
X125444761Y-100799714D01*
X125349523Y-100847333D01*
X124920952Y-101371142D02*
X124873333Y-101418761D01*
X124920952Y-101466380D01*
X124968571Y-101418761D01*
X124920952Y-101371142D01*
X124920952Y-101466380D01*
X124444761Y-100799714D02*
X124444761Y-101799714D01*
X124444761Y-100847333D02*
X124349523Y-100799714D01*
X124159047Y-100799714D01*
X124063809Y-100847333D01*
X124016190Y-100894952D01*
X123968571Y-100990190D01*
X123968571Y-101275904D01*
X124016190Y-101371142D01*
X124063809Y-101418761D01*
X124159047Y-101466380D01*
X124349523Y-101466380D01*
X124444761Y-101418761D01*
X123540000Y-101466380D02*
X123540000Y-100466380D01*
X123111428Y-101466380D02*
X123111428Y-100942571D01*
X123159047Y-100847333D01*
X123254285Y-100799714D01*
X123397142Y-100799714D01*
X123492380Y-100847333D01*
X123540000Y-100894952D01*
X122635238Y-100799714D02*
X122635238Y-101799714D01*
X122635238Y-100847333D02*
X122540000Y-100799714D01*
X122349523Y-100799714D01*
X122254285Y-100847333D01*
X122206666Y-100894952D01*
X122159047Y-100990190D01*
X122159047Y-101275904D01*
X122206666Y-101371142D01*
X122254285Y-101418761D01*
X122349523Y-101466380D01*
X122540000Y-101466380D01*
X122635238Y-101418761D01*
X121587619Y-101371142D02*
X121540000Y-101418761D01*
X121587619Y-101466380D01*
X121635238Y-101418761D01*
X121587619Y-101371142D01*
X121587619Y-101466380D01*
X121778095Y-100514000D02*
X121682857Y-100466380D01*
X121444761Y-100466380D01*
X121349523Y-100514000D01*
X121301904Y-100609238D01*
X121301904Y-100704476D01*
X121349523Y-100799714D01*
X121397142Y-100847333D01*
X121492380Y-100894952D01*
X121540000Y-100942571D01*
X121587619Y-101037809D01*
X121587619Y-101085428D01*
X121016190Y-100799714D02*
X120635238Y-100799714D01*
X120873333Y-101466380D02*
X120873333Y-100609238D01*
X120825714Y-100514000D01*
X120730476Y-100466380D01*
X120635238Y-100466380D01*
X120301904Y-100942571D02*
X119540000Y-100942571D01*
X119540000Y-101228285D02*
X120301904Y-101228285D01*
X118635238Y-100799714D02*
X118635238Y-101466380D01*
X118873333Y-100418761D02*
X119111428Y-101133047D01*
X118492380Y-101133047D01*
X117301904Y-101466380D02*
X117349523Y-101466380D01*
X117444761Y-101418761D01*
X117587619Y-101275904D01*
X117825714Y-100990190D01*
X117920952Y-100847333D01*
X117968571Y-100704476D01*
X117968571Y-100609238D01*
X117920952Y-100514000D01*
X117825714Y-100466380D01*
X117778095Y-100466380D01*
X117682857Y-100514000D01*
X117635238Y-100609238D01*
X117635238Y-100656857D01*
X117682857Y-100752095D01*
X117730476Y-100799714D01*
X118016190Y-100990190D01*
X118063809Y-101037809D01*
X118111428Y-101133047D01*
X118111428Y-101275904D01*
X118063809Y-101371142D01*
X118016190Y-101418761D01*
X117920952Y-101466380D01*
X117778095Y-101466380D01*
X117682857Y-101418761D01*
X117635238Y-101371142D01*
X117492380Y-101180666D01*
X117444761Y-101037809D01*
X117444761Y-100942571D01*
X117016190Y-100799714D02*
X116635238Y-100799714D01*
X116873333Y-100466380D02*
X116873333Y-101323523D01*
X116825714Y-101418761D01*
X116730476Y-101466380D01*
X116635238Y-101466380D01*
X116301904Y-100942571D02*
X115540000Y-100942571D01*
X115540000Y-101228285D02*
X116301904Y-101228285D01*
X114540000Y-101466380D02*
X115111428Y-101466380D01*
X114825714Y-101466380D02*
X114825714Y-100466380D01*
X114920952Y-100609238D01*
X115016190Y-100704476D01*
X115111428Y-100752095D01*
X114063809Y-101466380D02*
X113873333Y-101466380D01*
X113778095Y-101418761D01*
X113730476Y-101371142D01*
X113635238Y-101228285D01*
X113587619Y-101037809D01*
X113587619Y-100656857D01*
X113635238Y-100561619D01*
X113682857Y-100514000D01*
X113778095Y-100466380D01*
X113968571Y-100466380D01*
X114063809Y-100514000D01*
X114111428Y-100561619D01*
X114159047Y-100656857D01*
X114159047Y-100894952D01*
X114111428Y-100990190D01*
X114063809Y-101037809D01*
X113968571Y-101085428D01*
X113778095Y-101085428D01*
X113682857Y-101037809D01*
X113635238Y-100990190D01*
X113587619Y-100894952D01*
X113206666Y-100561619D02*
X113159047Y-100514000D01*
X113063809Y-100466380D01*
X112825714Y-100466380D01*
X112730476Y-100514000D01*
X112682857Y-100561619D01*
X112635238Y-100656857D01*
X112635238Y-100752095D01*
X112682857Y-100894952D01*
X113254285Y-101466380D01*
X112635238Y-101466380D01*
X112301904Y-100466380D02*
X111635238Y-100466380D01*
X112063809Y-101466380D01*
D11*
X113863428Y-71419833D02*
X113863428Y-72181738D01*
X114244380Y-71800785D02*
X113482476Y-71800785D01*
X114244380Y-73181738D02*
X114244380Y-72610309D01*
X114244380Y-72896023D02*
X113244380Y-72896023D01*
X113387238Y-72800785D01*
X113482476Y-72705547D01*
X113530095Y-72610309D01*
X113339619Y-73562690D02*
X113292000Y-73610309D01*
X113244380Y-73705547D01*
X113244380Y-73943642D01*
X113292000Y-74038880D01*
X113339619Y-74086500D01*
X113434857Y-74134119D01*
X113530095Y-74134119D01*
X113672952Y-74086500D01*
X114244380Y-73515071D01*
X114244380Y-74134119D01*
X113577714Y-74467452D02*
X114244380Y-74705547D01*
X113577714Y-74943642D01*
D12*
X140227571Y-81736571D02*
X141227571Y-82022285D01*
X140513285Y-82308000D01*
X141227571Y-82593714D01*
X140227571Y-82879428D01*
X141227571Y-83450857D02*
X139727571Y-83450857D01*
X141227571Y-84093714D02*
X140441857Y-84093714D01*
X140299000Y-84022285D01*
X140227571Y-83879428D01*
X140227571Y-83665142D01*
X140299000Y-83522285D01*
X140370428Y-83450857D01*
X141227571Y-84808000D02*
X140227571Y-84808000D01*
X139727571Y-84808000D02*
X139799000Y-84736571D01*
X139870428Y-84808000D01*
X139799000Y-84879428D01*
X139727571Y-84808000D01*
X139870428Y-84808000D01*
X140227571Y-85308000D02*
X140227571Y-85879428D01*
X139727571Y-85522285D02*
X141013285Y-85522285D01*
X141156142Y-85593714D01*
X141227571Y-85736571D01*
X141227571Y-85879428D01*
X141156142Y-86950857D02*
X141227571Y-86808000D01*
X141227571Y-86522285D01*
X141156142Y-86379428D01*
X141013285Y-86308000D01*
X140441857Y-86308000D01*
X140299000Y-86379428D01*
X140227571Y-86522285D01*
X140227571Y-86808000D01*
X140299000Y-86950857D01*
X140441857Y-87022285D01*
X140584714Y-87022285D01*
X140727571Y-86308000D01*
X137798571Y-81934714D02*
X136798571Y-81934714D01*
X137084285Y-81934714D02*
X136941428Y-82006142D01*
X136870000Y-82077571D01*
X136798571Y-82220428D01*
X136798571Y-82363285D01*
X137727142Y-83434714D02*
X137798571Y-83291857D01*
X137798571Y-83006142D01*
X137727142Y-82863285D01*
X137584285Y-82791857D01*
X137012857Y-82791857D01*
X136870000Y-82863285D01*
X136798571Y-83006142D01*
X136798571Y-83291857D01*
X136870000Y-83434714D01*
X137012857Y-83506142D01*
X137155714Y-83506142D01*
X137298571Y-82791857D01*
X137798571Y-84791857D02*
X136298571Y-84791857D01*
X137727142Y-84791857D02*
X137798571Y-84649000D01*
X137798571Y-84363285D01*
X137727142Y-84220428D01*
X137655714Y-84149000D01*
X137512857Y-84077571D01*
X137084285Y-84077571D01*
X136941428Y-84149000D01*
X136870000Y-84220428D01*
X136798571Y-84363285D01*
X136798571Y-84649000D01*
X136870000Y-84791857D01*
X132988571Y-81736714D02*
X133988571Y-82093857D01*
X132988571Y-82451000D02*
X133988571Y-82093857D01*
X134345714Y-81951000D01*
X134417142Y-81879571D01*
X134488571Y-81736714D01*
X133917142Y-83593857D02*
X133988571Y-83451000D01*
X133988571Y-83165285D01*
X133917142Y-83022428D01*
X133774285Y-82951000D01*
X133202857Y-82951000D01*
X133060000Y-83022428D01*
X132988571Y-83165285D01*
X132988571Y-83451000D01*
X133060000Y-83593857D01*
X133202857Y-83665285D01*
X133345714Y-83665285D01*
X133488571Y-82951000D01*
X133988571Y-84522428D02*
X133917142Y-84379571D01*
X133774285Y-84308142D01*
X132488571Y-84308142D01*
X133988571Y-85308142D02*
X133917142Y-85165285D01*
X133774285Y-85093857D01*
X132488571Y-85093857D01*
X133988571Y-86093857D02*
X133917142Y-85951000D01*
X133845714Y-85879571D01*
X133702857Y-85808142D01*
X133274285Y-85808142D01*
X133131428Y-85879571D01*
X133060000Y-85951000D01*
X132988571Y-86093857D01*
X132988571Y-86308142D01*
X133060000Y-86451000D01*
X133131428Y-86522428D01*
X133274285Y-86593857D01*
X133702857Y-86593857D01*
X133845714Y-86522428D01*
X133917142Y-86451000D01*
X133988571Y-86308142D01*
X133988571Y-86093857D01*
X132988571Y-87093857D02*
X133988571Y-87379571D01*
X133274285Y-87665285D01*
X133988571Y-87951000D01*
X132988571Y-88236714D01*
X129559571Y-82474714D02*
X130773857Y-82474714D01*
X130916714Y-82403285D01*
X130988142Y-82331857D01*
X131059571Y-82189000D01*
X131059571Y-81974714D01*
X130988142Y-81831857D01*
X130488142Y-82474714D02*
X130559571Y-82331857D01*
X130559571Y-82046142D01*
X130488142Y-81903285D01*
X130416714Y-81831857D01*
X130273857Y-81760428D01*
X129845285Y-81760428D01*
X129702428Y-81831857D01*
X129631000Y-81903285D01*
X129559571Y-82046142D01*
X129559571Y-82331857D01*
X129631000Y-82474714D01*
X130559571Y-83189000D02*
X129559571Y-83189000D01*
X129845285Y-83189000D02*
X129702428Y-83260428D01*
X129631000Y-83331857D01*
X129559571Y-83474714D01*
X129559571Y-83617571D01*
X130488142Y-84689000D02*
X130559571Y-84546142D01*
X130559571Y-84260428D01*
X130488142Y-84117571D01*
X130345285Y-84046142D01*
X129773857Y-84046142D01*
X129631000Y-84117571D01*
X129559571Y-84260428D01*
X129559571Y-84546142D01*
X129631000Y-84689000D01*
X129773857Y-84760428D01*
X129916714Y-84760428D01*
X130059571Y-84046142D01*
X130488142Y-85974714D02*
X130559571Y-85831857D01*
X130559571Y-85546142D01*
X130488142Y-85403285D01*
X130345285Y-85331857D01*
X129773857Y-85331857D01*
X129631000Y-85403285D01*
X129559571Y-85546142D01*
X129559571Y-85831857D01*
X129631000Y-85974714D01*
X129773857Y-86046142D01*
X129916714Y-86046142D01*
X130059571Y-85331857D01*
X129559571Y-86689000D02*
X130559571Y-86689000D01*
X129702428Y-86689000D02*
X129631000Y-86760428D01*
X129559571Y-86903285D01*
X129559571Y-87117571D01*
X129631000Y-87260428D01*
X129773857Y-87331857D01*
X130559571Y-87331857D01*
X122574571Y-82589857D02*
X123788857Y-82589857D01*
X123931714Y-82518428D01*
X124003142Y-82447000D01*
X124074571Y-82304142D01*
X124074571Y-82089857D01*
X124003142Y-81947000D01*
X123503142Y-82589857D02*
X123574571Y-82447000D01*
X123574571Y-82161285D01*
X123503142Y-82018428D01*
X123431714Y-81947000D01*
X123288857Y-81875571D01*
X122860285Y-81875571D01*
X122717428Y-81947000D01*
X122646000Y-82018428D01*
X122574571Y-82161285D01*
X122574571Y-82447000D01*
X122646000Y-82589857D01*
X123574571Y-83304142D02*
X122574571Y-83304142D01*
X122860285Y-83304142D02*
X122717428Y-83375571D01*
X122646000Y-83447000D01*
X122574571Y-83589857D01*
X122574571Y-83732714D01*
X123503142Y-84804142D02*
X123574571Y-84661285D01*
X123574571Y-84375571D01*
X123503142Y-84232714D01*
X123360285Y-84161285D01*
X122788857Y-84161285D01*
X122646000Y-84232714D01*
X122574571Y-84375571D01*
X122574571Y-84661285D01*
X122646000Y-84804142D01*
X122788857Y-84875571D01*
X122931714Y-84875571D01*
X123074571Y-84161285D01*
X122574571Y-85375571D02*
X123574571Y-85732714D01*
X122574571Y-86089857D02*
X123574571Y-85732714D01*
X123931714Y-85589857D01*
X124003142Y-85518428D01*
X124074571Y-85375571D01*
X127257571Y-81919142D02*
X125757571Y-81919142D01*
X126329000Y-81919142D02*
X126257571Y-82062000D01*
X126257571Y-82347714D01*
X126329000Y-82490571D01*
X126400428Y-82562000D01*
X126543285Y-82633428D01*
X126971857Y-82633428D01*
X127114714Y-82562000D01*
X127186142Y-82490571D01*
X127257571Y-82347714D01*
X127257571Y-82062000D01*
X127186142Y-81919142D01*
X127257571Y-83490571D02*
X127186142Y-83347714D01*
X127043285Y-83276285D01*
X125757571Y-83276285D01*
X127257571Y-84704857D02*
X126471857Y-84704857D01*
X126329000Y-84633428D01*
X126257571Y-84490571D01*
X126257571Y-84204857D01*
X126329000Y-84062000D01*
X127186142Y-84704857D02*
X127257571Y-84562000D01*
X127257571Y-84204857D01*
X127186142Y-84062000D01*
X127043285Y-83990571D01*
X126900428Y-83990571D01*
X126757571Y-84062000D01*
X126686142Y-84204857D01*
X126686142Y-84562000D01*
X126614714Y-84704857D01*
X127186142Y-86062000D02*
X127257571Y-85919142D01*
X127257571Y-85633428D01*
X127186142Y-85490571D01*
X127114714Y-85419142D01*
X126971857Y-85347714D01*
X126543285Y-85347714D01*
X126400428Y-85419142D01*
X126329000Y-85490571D01*
X126257571Y-85633428D01*
X126257571Y-85919142D01*
X126329000Y-86062000D01*
X127257571Y-86704857D02*
X125757571Y-86704857D01*
X126686142Y-86847714D02*
X127257571Y-87276285D01*
X126257571Y-87276285D02*
X126829000Y-86704857D01*
%LPC*%
D15*
%TO.C,J5*%
X153796000Y-80460000D03*
X151256000Y-80460000D03*
X148716000Y-80460000D03*
X146176000Y-80460000D03*
X143636000Y-80460000D03*
X141096000Y-80460000D03*
X138556000Y-80460000D03*
D16*
X136016000Y-80460000D03*
%TD*%
D15*
%TO.C,J4*%
X153796000Y-105860000D03*
X151256000Y-105860000D03*
X148716000Y-105860000D03*
X146176000Y-105860000D03*
X143636000Y-105860000D03*
X141096000Y-105860000D03*
X138556000Y-105860000D03*
D16*
X136016000Y-105860000D03*
%TD*%
D15*
%TO.C,J2*%
X127796000Y-80460000D03*
X125256000Y-80460000D03*
X122716000Y-80460000D03*
X120176000Y-80460000D03*
X117636000Y-80460000D03*
X115096000Y-80460000D03*
X112556000Y-80460000D03*
D16*
X110016000Y-80460000D03*
%TD*%
D15*
%TO.C,J1*%
X127796000Y-105860000D03*
X125256000Y-105860000D03*
X122716000Y-105860000D03*
X120176000Y-105860000D03*
X117636000Y-105860000D03*
X115096000Y-105860000D03*
X112556000Y-105860000D03*
D16*
X110016000Y-105860000D03*
%TD*%
D17*
%TO.C,J3*%
X147576000Y-75434000D03*
X144076000Y-75434000D03*
X140576000Y-75434000D03*
X137076000Y-75434000D03*
X133576000Y-75434000D03*
X130076000Y-75434000D03*
X126576000Y-75434000D03*
X123076000Y-75434000D03*
X119576000Y-75434000D03*
X116076000Y-75434000D03*
X147576000Y-71934000D03*
X144076000Y-71934000D03*
X140576000Y-71934000D03*
X137076000Y-71934000D03*
X133576000Y-71934000D03*
X130076000Y-71934000D03*
X126576000Y-71934000D03*
X123076000Y-71934000D03*
X119576000Y-71934000D03*
X116076000Y-71934000D03*
D18*
X154576000Y-72974000D03*
X109076000Y-72974000D03*
%TD*%
M02*
